# Alias OBJ Model File
# Exported from SketchUp, (c) 2000-2012 Trimble Navigation Limited
# File units = meters

mtllib A6 SE Mountain.mtl

g Mesh1 A6_SE_Mountain1 Model

usemtl _1
v -40.441 4 62.0443
vt 31.6605 4
vn 0 0 -1
v -31.9976 4 62.0443
vt 23.2171 4
v -31.9976 7.9493e-16 62.0443
vt 23.2171 -3.05529e-15
v -40.4197 7.9493e-16 62.0443
vt 31.6392 -3.05529e-15
v -40.441 7.9493e-16 62.0443
vt 31.6605 -3.05529e-15
f 1/1/1 2/2/1 3/3/1 4/4/1 5/5/1 

v -40.9845 4 64
vt -32.204 -4.30779
vn 0 1 -0
v -31.9976 4 64
vt -23.2171 -4.30779
vt -23.2171 -2.35209
vt -31.6605 -2.35209
v -40.9845 4 62.6847
vt -32.204 -2.99252
f 6/6/2 7/7/2 2/8/2 1/9/2 8/10/2 

vt -23.2171 4
vn -2.00151e-15 1.59879e-15 1
vt -32.204 4
v -40.9845 7.9493e-16 64
vt -32.204 -1.02323e-13
v -40.4197 4.33974e-16 64
vt -31.6392 -1.02684e-13
v -31.9976 -2.09272e-15 64
vt -23.2171 -1.0521e-13
f 7/11/3 6/12/3 9/13/3 10/14/3 11/15/3 

v -40.9845 7.9493e-16 62.6847
vt 2.99252 1.72341e-15
vn -1 0 4.39096e-15
vt 4.30779 1.72341e-15
vt 4.30779 4
vt 2.99252 4
f 12/16/4 9/17/4 6/18/4 8/19/4 

vt 31.6392 -4.30779
vn -3.75338e-16 -1 -1.36481e-16
vt 32.204 -4.30779
vt 32.204 -2.99252
vt 31.6605 -2.35209
vt 31.6392 -2.35209
f 10/20/5 9/21/5 12/22/5 5/23/5 4/24/5 

vt 22.4866 -7.59792e-15
vn -0.762415 0 -0.647088
vt 23.3266 -7.59792e-15
vt 23.3266 4
vt 22.4866 4
f 5/25/6 12/26/6 8/27/6 1/28/6 

usemtl FrontColor
vt -34.7856 76.996
vn -1.5418e-16 -1 -8.30548e-16
vt -366.364 76.996
vt -366.364 4.69143e-29
vt -34.7856 8.70739e-29
f 4/29/7 3/30/7 11/31/7 10/32/7 

vt -76.996 1.13687e-13
vn -1 0 -0
vt 0 0
vt 0 157.48
vt -76.996 157.48
f 3/33/8 11/34/8 7/35/8 2/36/8 

