# Alias OBJ Model File
# Exported from SketchUp, (c) 2000-2012 Trimble Navigation Limited
# File units = meters

mtllib A7 S Mountain.mtl

g Mesh1 A7_S_Mountain1 Model

usemtl FrontColor
v -31.9976 4 62.0443
vt -76.996 157.48
vn -1 0 -0
v -31.9976 7.9493e-16 62.0443
vt -76.996 1.13687e-13
v -31.9976 -2.09272e-15 64
vt 0 0
v -31.9976 4 64
vt 0 157.48
f 1/1/1 2/2/1 3/3/1 4/4/1 

usemtl _1
v -18.0297 7.9493e-16 62.0443
vt 9.24921 0
vn 0 0 -1
vt 23.2171 5.23779e-25
vt 23.2171 4
v -18.0297 4 62.0443
vt 9.24921 4
f 5/5/2 2/6/2 1/7/2 6/8/2 

usemtl FrontColor
v -16.4945 7.94515e-16 57.0417
vt -619.339 273.95
vn 2.22598e-17 -1 -2.25244e-16
v -15.9939 7.94515e-16 57.0417
vt -639.049 273.95
v -15.9939 -6.48893e-16 64
vt -639.049 9.59953e-30
vt -8.98126 -4.5031e-32
vt -8.98126 76.996
vt -558.899 76.996
v -18.0297 7.9493e-16 58.5743
vt -558.899 213.61
f 7/9/3 8/10/3 9/11/3 3/12/3 2/13/3 5/14/3 10/15/3 

usemtl _1
v -16.4945 4 57.0417
vt 7.71402 4
v -15.9939 4 57.0417
vt 7.2134 4
vt 7.2134 5.20477e-15
vt 7.71402 5.20477e-15
f 11/16/2 12/17/2 8/18/2 7/19/2 

vt -23.2171 -4.30779
vn 3.80191e-18 1 -1.14551e-16
v -15.9939 4 64
vt -7.2134 -4.30779
vt -7.2134 2.65053
vt -7.71402 2.65053
v -18.0297 4 58.5743
vt -9.24921 1.11791
vt -9.24921 -2.35209
vt -23.2171 -2.35209
f 4/20/4 13/21/4 12/22/4 11/23/4 14/24/4 6/25/4 1/26/4 

vt -23.2171 -2.88765e-15
vn 0 0 1
vt -7.2134 -1.44382e-15
vt -7.2134 4
vt -23.2171 4
f 3/27/5 9/28/5 13/29/5 4/30/5 

usemtl FrontColor
vt 0 5.68434e-14
vn 1 0 -0
vt 273.95 1.1367e-13
vt 273.95 157.48
f 9/31/6 8/32/6 12/33/6 13/4/6 

usemtl _1
vt 5.00667 -1.04621e-15
vn -0.706512 0 -0.707701
vt 7.17595 -1.04579e-15
vt 7.17595 4
vt 5.00667 4
f 7/34/7 10/35/7 14/36/7 11/37/7 

vt -1.11791 -5.23779e-25
vt 2.35209 -5.23779e-25
vt 2.35209 4
vt -1.11791 4
f 10/38/1 5/39/1 6/40/1 14/41/1 

