# Alias OBJ Model File
# Exported from SketchUp, (c) 2000-2012 Trimble Navigation Limited
# File units = meters

mtllib A8 S Mountain.mtl

g Mesh1 A8_S_Mountain1 Model

usemtl FrontColor
v 0.0256438 7.9493e-16 64
vt 0 5.68434e-14
vn 1 0 -0
v 0.0256438 6.88863e-16 58.9643
vt 198.256 5.26676e-14
v 0.0256438 4 58.9643
vt 198.256 157.48
v 0.0256438 4 64
vt 0 157.48
f 1/1/1 2/2/1 3/3/1 4/4/1 

v -2.01447 6.88863e-16 58.9643
vt -555.321 198.256
vn 3.13286e-17 -1 -1.03478e-16
vt -635.64 198.256
vt -635.64 3.82139e-30
v -15.9939 -6.48893e-16 64
vt -4.94876 -1.60429e-32
v -15.9939 7.94515e-16 57.0417
vt -4.94876 273.95
v -14.7745 7.94515e-16 57.0417
vt -52.9559 273.95
v -14.0545 6.88863e-16 57.6143
vt -81.3053 251.405
v -14.0545 6.88863e-16 62.0443
vt -81.3053 76.996
v -2.01447 6.88863e-16 62.0443
vt -555.321 76.996
f 5/5/2 2/6/2 1/7/2 6/8/2 7/9/2 8/10/2 9/11/2 10/12/2 11/13/2 

usemtl _1
v -2.01447 4 58.9643
vt -6.76606 4
vn 0 0 -1
vt -8.80617 4
vt -8.80617 -1.06067e-16
vt -6.76606 -1.06067e-16
f 12/14/3 3/15/3 2/16/3 5/17/3 

v -15.9939 4 64
vt -7.2134 -4.30779
vn -8.20756e-17 1 2.64192e-17
vt 8.80617 -4.30779
vt 8.80617 0.727912
vt 6.76606 0.727912
v -2.01447 4 62.0443
vt 6.76606 -2.35209
v -14.0545 4 62.0443
vt -5.27394 -2.35209
v -14.0545 4 57.6143
vt -5.27394 2.07791
v -14.7745 4 57.0417
vt -5.99402 2.65053
v -15.9939 4 57.0417
vt -7.2134 2.65053
f 13/18/4 4/19/4 3/20/4 12/21/4 14/22/4 15/23/4 16/24/4 17/25/4 18/26/4 

vt -7.2134 -1.44382e-15
vn 0 0 1
vt 8.80617 5.23779e-25
vt 8.80617 4
vt -7.2134 4
f 6/27/5 1/28/5 4/29/5 13/30/5 

usemtl FrontColor
vt -273.95 5.68271e-14
vn -1 0 -0
vt 0 0
vt -273.95 157.48
f 7/31/6 6/32/6 13/4/6 18/33/6 

usemtl _1
vt 5.99402 5.20477e-15
vt 7.2134 5.20477e-15
vt 7.2134 4
vt 5.99402 4
f 8/34/3 7/35/3 18/36/3 17/37/3 

vt 4.17013 9.59944e-18
vn 0.622412 0 -0.78269
vt 5.09013 1.15251e-16
vt 5.09013 4
vt 4.17013 4
f 9/38/7 8/39/7 17/40/7 16/41/7 

vt -2.35209 -1.06067e-16
vt 2.07791 -1.06067e-16
vt 2.07791 4
vt -2.35209 4
f 10/42/1 9/43/1 16/44/1 15/45/1 

vt 5.27394 -1.06067e-16
vt 5.27394 4
f 11/17/3 10/46/3 15/47/3 14/14/3 

vt -0.727912 -1.06067e-16
vt 2.35209 -1.06067e-16
vt 2.35209 4
vt -0.727912 4
f 5/48/6 11/49/6 14/50/6 12/51/6 

