# Alias OBJ Model File
# Exported from SketchUp, (c) 2000-2012 Trimble Navigation Limited
# File units = meters

mtllib A9 SW Mountain.mtl

g Mesh1 A9_SW_Mountain1 Model

usemtl FrontColor
v 1.91026 7.9493e-16 64
vt -74.1975 -1.53796e-30
vn 3.73662e-16 -1 -6.53089e-17
v 0.0256438 7.9493e-16 64
vt -1.56036e-30 2.72721e-31
v 0.0256438 6.88863e-16 58.9643
vt 0 198.256
v 0.315533 6.88863e-16 58.9643
vt -11.413 198.256
v 1.91026 3.2486e-15 60.4352
vt -74.1975 140.347
f 1/1/1 2/2/1 3/3/1 4/4/1 5/5/1 

usemtl _1
v 1.91026 4 64
vt 10.6908 4
vn -1.78283e-16 9.02389e-17 1
v 0.0256438 4 64
vt 8.80617 4
vt 8.80617 -3.8873e-16
vt 10.6908 -3.8873e-16
f 6/6/2 7/7/2 2/8/2 1/9/2 

vt 10.6908 -4.30779
vn 2.02282e-16 1 1.36989e-16
v 1.91026 4 60.4352
vt 10.6908 -0.742961
v 0.315533 4 58.9643
vt 9.09606 0.727912
v 0.0256438 4 58.9643
vt 8.80617 0.727912
vt 8.80617 -4.30779
f 6/10/3 8/11/3 9/12/3 10/13/3 7/14/3 

vt -0.742961 2.45367e-15
vn 1 0 -0
vt -0.742961 4
vt -4.30779 4
vt -4.30779 3.20475e-31
f 5/15/4 8/16/4 6/17/4 1/18/4 

vt -8.36225 4
vn 0.677986 -6.15095e-18 -0.735075
vt -8.36225 1.79029e-15
vt -6.19277 -7.69444e-16
vt -6.19277 4
f 8/19/5 5/20/5 4/21/5 9/22/5 

vt -9.09606 -1.06067e-16
vn 0 0 -1
vt -8.80617 -1.06067e-16
vt -8.80617 4
vt -9.09606 4
f 4/23/6 3/24/6 10/25/6 9/26/6 

usemtl FrontColor
vt -198.256 0
vn -1 0 -0
vt 0 4.17586e-15
vt 0 157.48
vt -198.256 157.48
f 3/27/7 2/28/7 7/29/7 10/30/7 

