# Alias OBJ Model File
# Exported from SketchUp, (c) 2000-2012 Trimble Navigation Limited
# File units = meters

mtllib Rock.mtl

g Mesh1 GreenRock1 Model

usemtl _1
v 0.469517 0.42 -0.0435441
vt 15.2538 0.719856
vn 1 -1.48983e-08 -1.49019e-08
v 0.469517 0.78 -0.0435441
vt 15.2538 1.07986
v 0.469517 0.78 0.0164559
vt 15.1938 1.07986
v 0.469517 0.84 0.0164559
vt 15.1938 1.13986
v 0.469517 0.84 0.0764559
vt 15.1338 1.13986
v 0.469517 0.900747 0.0764559
vt 15.1338 1.2006
v 0.469517 0.900747 0.246456
vt 14.9638 1.2006
v 0.469517 0.84 0.246456
vt 14.9638 1.13986
v 0.469517 0.84 0.316456
vt 14.8938 1.13986
v 0.469517 0.78 0.316456
vt 14.8938 1.07986
v 0.469517 0.78 0.676456
vt 14.5338 1.07986
v 0.469517 0.72 0.676456
vt 14.5338 1.01986
v 0.469517 0.72 0.736456
vt 14.4738 1.01986
v 0.469517 0.66 0.736456
vt 14.4738 0.959856
v 0.469517 0.66 0.796456
vt 14.4138 0.959856
v 0.469517 0.54 0.796456
vt 14.4138 0.839856
v 0.469517 0.54 0.856456
vt 14.3538 0.839856
v 0.469517 0.12 0.856456
vt 14.3538 0.419856
v 0.469517 0.12 0.796456
vt 14.4138 0.419856
v 0.469517 -1.49004e-08 0.796456
vt 14.4138 0.299856
v 0.469517 -1.49011e-08 0.0164559
vt 15.1938 0.299856
v 0.469517 0.06 0.0164559
vt 15.1938 0.359856
v 0.469517 0.06 -0.0435441
vt 15.2538 0.359856
v 0.469517 0.24 -0.0435441
vt 15.2538 0.539856
v 0.469517 0.24 0.0164559
vt 15.1938 0.539856
v 0.469517 0.42 0.0164559
vt 15.1938 0.719856
f 1/1/1 2/2/1 3/3/1 4/4/1 5/5/1 6/6/1 7/7/1 8/8/1 9/9/1 10/10/1 11/11/1 12/12/1 13/13/1 14/14/1 15/15/1 16/16/1 17/17/1 18/18/1 19/19/1 20/20/1 21/21/1 22/22/1 23/23/1 24/24/1 25/25/1 26/26/1 

vt -1.07986 0
vn -1.49019e-08 -9.06232e-13 -1
vt -0.719856 0
v -0.530483 0.42 -0.0435441
vt -0.719856 1
v -0.530483 0.78 -0.0435441
vt -1.07986 1
f 2/27/2 1/28/2 27/29/2 28/30/2 

vt -15.2538 0
vn -1.48983e-08 -1 9.06454e-13
vt -15.1938 0
v -0.530483 0.42 0.0164559
vt -15.1938 1
vt -15.2538 1
f 1/31/3 26/32/3 29/33/3 27/34/3 

vt -0.539856 0
v -0.530483 0.24 0.0164559
vt -0.539856 1
f 26/28/2 25/35/2 30/36/2 29/29/2 

vt 15.1938 0
vn 1.48983e-08 1 -9.06454e-13
vt 15.2538 0
v -0.530483 0.24 -0.0435441
vt 15.2538 1
vt 15.1938 1
f 25/37/4 24/38/4 31/39/4 30/40/4 

vt -0.359856 0
v -0.530483 0.06 -0.0435441
vt -0.359856 1
f 24/35/2 23/41/2 32/42/2 31/36/2 

v -0.530483 0.06 0.0164559
f 23/31/3 22/32/3 33/33/3 32/34/3 

vt -0.299856 0
v -0.530483 -2.82971e-12 0.0164559
vt -0.299856 1
f 22/41/2 21/43/2 34/44/2 33/42/2 

vt -14.4138 0
v -0.530483 -2.12285e-12 0.796456
vt -14.4138 1
f 21/32/3 20/45/3 35/46/3 34/33/3 

vt 0.299856 0
vn 1.49019e-08 9.06232e-13 1
vt 0.419856 0
v -0.530483 0.12 0.796456
vt 0.419856 1
vt 0.299856 1
f 20/47/5 19/48/5 36/49/5 35/50/5 

vt -14.3538 0
v -0.530483 0.12 0.856456
vt -14.3538 1
f 19/45/3 18/51/3 37/52/3 36/46/3 

vt 0.839856 0
v -0.530483 0.54 0.856456
vt 0.839856 1
f 18/48/5 17/53/5 38/54/5 37/49/5 

vt 14.3538 0
vt 14.4138 0
v -0.530483 0.54 0.796456
vt 14.4138 1
vt 14.3538 1
f 17/55/4 16/56/4 39/57/4 38/58/4 

vt 0.959856 0
v -0.530483 0.66 0.796456
vt 0.959856 1
f 16/53/5 15/59/5 40/60/5 39/54/5 

vt 14.4738 0
v -0.530483 0.66 0.736456
vt 14.4738 1
f 15/56/4 14/61/4 41/62/4 40/57/4 

vt 1.01986 0
v -0.530483 0.72 0.736456
vt 1.01986 1
f 14/59/5 13/63/5 42/64/5 41/60/5 

vt 14.5338 0
v -0.530483 0.72 0.676456
vt 14.5338 1
f 13/61/4 12/65/4 43/66/4 42/62/4 

vt 1.07986 0
v -0.530483 0.78 0.676456
vt 1.07986 1
f 12/63/5 11/67/5 44/68/5 43/64/5 

vt 14.8938 0
v -0.530483 0.78 0.316456
vt 14.8938 1
f 11/65/4 10/69/4 45/70/4 44/66/4 

vt 1.13986 0
v -0.530483 0.84 0.316456
vt 1.13986 1
f 10/67/5 9/71/5 46/72/5 45/68/5 

vt 14.9638 0
v -0.530483 0.84 0.246456
vt 14.9638 1
f 9/69/4 8/73/4 47/74/4 46/70/4 

vt 1.2006 0
v -0.530483 0.900747 0.246456
vt 1.2006 1
f 8/71/5 7/75/5 48/76/5 47/72/5 

vt 15.1338 0
v -0.530483 0.900747 0.0764559
vt 15.1338 1
f 7/73/4 6/77/4 49/78/4 48/74/4 

vt -1.2006 0
vt -1.13986 0
v -0.530483 0.84 0.0764559
vt -1.13986 1
vt -1.2006 1
f 6/79/2 5/80/2 50/81/2 49/82/2 

v -0.530483 0.84 0.0164559
f 5/77/4 4/37/4 51/40/4 50/78/4 

v -0.530483 0.78 0.0164559
f 4/80/2 3/27/2 52/30/2 51/81/2 

f 3/37/4 2/38/4 28/39/4 52/40/4 

vt -15.2538 1.07986
vn -1 1.48983e-08 1.49019e-08
vt -15.2538 0.719856
vt -15.1938 0.719856
vt -15.1938 0.539856
vt -15.2538 0.539856
vt -15.2538 0.359856
vt -15.1938 0.359856
vt -15.1938 0.299856
vt -14.4138 0.299856
vt -14.4138 0.419856
vt -14.3538 0.419856
vt -14.3538 0.839856
vt -14.4138 0.839856
vt -14.4138 0.959856
vt -14.4738 0.959856
vt -14.4738 1.01986
vt -14.5338 1.01986
vt -14.5338 1.07986
vt -14.8938 1.07986
vt -14.8938 1.13986
vt -14.9638 1.13986
vt -14.9638 1.2006
vt -15.1338 1.2006
vt -15.1338 1.13986
vt -15.1938 1.13986
vt -15.1938 1.07986
f 28/83/6 27/84/6 29/85/6 30/86/6 31/87/6 32/88/6 33/89/6 34/90/6 35/91/6 36/92/6 37/93/6 38/94/6 39/95/6 40/96/6 41/97/6 42/98/6 43/99/6 44/100/6 45/101/6 46/102/6 47/103/6 48/104/6 49/105/6 50/106/6 51/107/6 52/108/6 

