# Alias OBJ Model File
# Exported from SketchUp, (c) 2000-2012 Trimble Navigation Limited
# File units = meters

mtllib A8 NE Mountain.mtl

g Mesh1 A8_NE_Mountain1 Model

usemtl _1
v -6.12924 4 52.9509
vt 2.65129 1.23129
vn 0 1 -0
v 0.00656149 4 52.9509
vt 8.78709 1.23129
v 0.00656149 4 48.003
vt 8.78709 6.17918
v -7.00944 4 48.003
vt 1.77109 6.17918
v -7.00944 4 52.3784
vt 1.77109 1.80379
f 1/1/1 2/2/1 3/3/1 4/4/1 5/5/1 

v -6.12924 7.9493e-16 52.9509
vt 2.65129 5.78327e-17
vn -2.93227e-17 4.51195e-17 1
v 0.00656149 7.9493e-16 52.9509
vt 8.78709 5.78327e-17
vt 8.78709 4
vt 2.65129 4
f 6/6/2 7/7/2 2/8/2 1/9/2 

usemtl FrontColor
v -7.00944 7.9493e-16 52.3784
vt -2.84217e-14 22.5391
vn -1.94484e-16 -1 2.73229e-16
v -7.00944 7.9493e-16 48.003
vt 2.21103e-29 194.799
v 0.00656149 -2.09272e-15 48.003
vt -276.22 194.799
vt -276.22 -4.57405e-29
vt -34.6535 -3.29039e-29
f 8/10/3 9/11/3 10/12/3 7/13/3 6/14/3 

usemtl _1
vt -1.80379 4
vn -1 -9.02389e-17 8.15646e-17
vt -6.17918 4
vt -6.17918 -1.59821e-16
vt -1.80379 -1.59821e-16
f 5/15/4 4/16/4 9/17/4 8/18/4 

usemtl FrontColor
vt -276.22 0
vn 0 0 -1
vt 0 1.13687e-13
vt 0 157.48
vt -276.22 157.48
f 10/19/5 9/20/5 4/21/5 3/22/5 

vn 1 0 -0
vt 194.799 0
vt 194.799 157.48
f 7/20/6 10/23/6 3/24/6 2/21/6 

usemtl _1
vt 0.501196 -2.57872e-18
vn -0.545232 -1.04075e-18 0.838285
vt 1.5512 -2.57872e-18
vt 1.5512 4
vt 0.501196 4
f 8/25/7 6/26/7 1/27/7 5/28/7 

