# Alias OBJ Model File
# Exported from SketchUp, (c) 2000-2012 Trimble Navigation Limited
# File units = meters

mtllib A9 NW Mountain.mtl

g Mesh1 A9_NW_Mountain1 Model

usemtl FrontColor
v 0.00656149 -2.09272e-15 48.003
vt 0.751273 0
vn 0 0 -1
v 0.00656149 4 48.003
vt 0.751273 157.48
v 1.92654 4 48.003
vt -74.8383 157.48
v 1.92654 4.33974e-16 48.003
vt -74.8383 9.9476e-14
f 1/1/1 2/2/1 3/3/1 4/4/1 

vt -194.799 157.48
vn -1 0 -0
vt -194.799 0
v 0.00656149 7.9493e-16 52.9509
vt 0 1.13687e-13
v 0.00656149 4 52.9509
vt 0 157.48
f 2/5/2 1/6/2 5/7/2 6/8/2 

vt 0.751273 -5.09663e-29
vn 8.66261e-16 -1 4.45753e-16
vt 0.751273 194.799
vt -74.8383 194.799
v 1.92654 7.9493e-16 51.1807
vt -74.8383 69.6954
v 0.350762 7.9493e-16 52.9509
vt -12.7999 -4.57337e-29
f 5/9/3 1/10/3 4/11/3 7/12/3 8/13/3 

usemtl _1
vt 3.00156 3.9443e-31
vn 1 -1.61672e-32 -4.47333e-16
vt 6.17918 -3.60956e-16
vt 6.17918 4
v 1.92654 4 51.1807
vt 3.00156 4
f 7/14/4 4/15/4 3/16/4 9/17/4 

vt 10.7071 6.17918
vn 0 1 -0
vt 8.78709 6.17918
vt 8.78709 1.23129
v 0.350762 4 52.9509
vt 9.13129 1.23129
vt 10.7071 3.00156
f 3/18/5 2/19/5 6/20/5 10/21/5 9/22/5 

vt 9.13129 4
vn 5.55115e-16 4.51195e-17 1
vt 8.78709 4
vt 8.78709 5.78327e-17
vt 9.13129 5.78327e-17
f 10/23/6 6/24/6 5/25/6 8/26/6 

vt 6.99095 -4.55345e-16
vn 0.746947 7.58664e-17 0.664884
vt 9.36095 -4.55345e-16
vt 9.36095 4
vt 6.99095 4
f 8/27/7 7/28/7 9/29/7 10/30/7 

