# Alias OBJ Model File
# Exported from SketchUp, (c) 2000-2012 Trimble Navigation Limited
# File units = meters

mtllib B8 SE Mountain.mtl

g Mesh1 B8_SE_Mountain1 Model

usemtl _1
v -0.342103 -2.09272e-15 43.9851
vt -8.43842 15.7071
vn -1.61409e-16 -1 2.82812e-16
v 0.00656149 -2.09274e-15 43.9851
vt -8.78709 15.7071
v 0.00656149 -2.09274e-15 48.003
vt -8.78709 11.6892
v -7.00944 7.9493e-16 48.003
vt -1.77109 11.6892
v -7.00944 7.9493e-16 45.7005
vt -1.77109 13.9917
v -6.36559 -2.09272e-15 44.9821
vt -2.41494 14.7101
v -5.75887 -2.09272e-15 45.0453
vt -3.02166 14.6469
v -5.41074 -2.09272e-15 45.4316
vt -3.36978 14.2606
v -5.22074 -2.09272e-15 45.4316
vt -3.55978 14.2606
v -5.08913 -2.09272e-15 45.6441
vt -3.69139 14.0481
v -5.08913 -2.09272e-15 46.0359
vt -3.69139 13.6563
v -2.01913 -2.09272e-15 46.0359
vt -6.76139 13.6563
v -1.9386 -2.09272e-15 45.6441
vt -6.84192 14.0481
v -1.36736 -2.09272e-15 44.988
vt -7.41317 14.7043
v -1.00266 -2.09272e-15 44.8812
vt -7.77786 14.811
v -0.926391 -2.09272e-15 44.6431
vt -7.85413 15.0491
f 1/1/1 2/2/1 3/3/1 4/4/1 5/5/1 6/6/1 7/7/1 8/8/1 9/9/1 10/10/1 11/11/1 12/12/1 13/13/1 14/14/1 15/15/1 16/16/1 

vt -8.78709 -1.42268e-14
vn 1.13176e-31 7.21911e-16 -1
vt -8.43842 -1.42268e-14
v -0.342103 4 43.9851
vt -8.43842 4
v 0.00656149 4 43.9851
vt -8.78709 4
f 2/17/2 1/18/2 17/19/2 18/20/2 

vt -17.3481 -2.61134e-15
vn -0.747765 -6.70808e-17 -0.663964
vt -16.4681 -2.61134e-15
v -0.926391 4 44.6431
vt -16.4681 4
vt -17.3481 4
f 1/21/3 16/22/3 19/23/3 17/24/3 

vt -16.7278 -2.69288e-15
vn -0.952324 6.74308e-17 -0.305089
vt -16.4778 -2.69288e-15
v -1.00266 4 44.8812
vt -16.4778 4
vt -16.7278 4
f 16/25/4 15/26/4 20/27/4 19/28/4 

vt -11.6261 -1.68308e-16
vn -0.280978 -2.26066e-16 -0.959714
vt -11.2461 -1.68308e-16
v -1.36736 4 44.988
vt -11.2461 4
vt -11.6261 4
f 15/29/5 14/30/5 21/31/5 20/32/5 

vt -15.958 -2.62775e-15
vn -0.754233 -6.39563e-17 -0.656607
vt -15.088 -2.62775e-15
v -1.9386 4 45.6441
vt -15.088 4
vt -15.958 4
f 14/33/6 13/34/6 22/35/6 21/36/6 

vt -15.1379 -2.49576e-15
vn -0.979525 1.01168e-16 -0.201323
vt -14.7379 -2.49576e-15
v -2.01913 4 46.0359
vt -14.7379 4
vt -15.1379 4
f 13/37/7 12/38/7 23/39/7 22/40/7 

vt -6.76139 9.74508e-16
vn 0 -2.82812e-16 -1
vt -3.69139 9.74508e-16
v -5.08913 4 46.0359
vt -3.69139 4
vt -6.76139 4
f 12/41/8 11/42/8 24/43/8 23/44/8 

vt 13.6563 -2.29182e-15
vn 1 -1.61409e-16 -0
vt 14.0481 -2.29182e-15
v -5.08913 4 45.6441
vt 14.0481 4
vt 13.6563 4
f 11/45/9 10/46/9 25/47/9 24/48/9 

vt 10.0005 1.26319e-16
vn 0.850207 -2.86117e-16 -0.526448
vt 10.2505 1.26319e-16
v -5.22074 4 45.4316
vt 10.2505 4
vt 10.0005 4
f 10/49/10 9/50/10 26/51/10 25/52/10 

vt -3.55978 1.14543e-15
vt -3.36978 1.14543e-15
v -5.41074 4 45.4316
vt -3.36978 4
vt -3.55978 4
f 9/53/8 8/54/8 27/55/8 26/56/8 

vt 8.33746 8.38696e-16
vn 0.742843 -3.09234e-16 -0.669466
vt 8.85746 8.38696e-16
v -5.75887 4 45.0453
vt 8.85746 4
vt 8.33746 4
f 8/57/11 7/58/11 28/59/11 27/60/11 

vt -1.48864 1.547e-15
vn 0.103556 -2.98006e-16 -0.994624
vt -0.878642 1.547e-15
v -6.36559 4 44.9821
vt -0.878642 4
vt -1.48864 4
f 7/61/12 6/62/12 29/63/12 28/64/12 

vt -12.5663 -2.33793e-15
vn -0.744694 -6.85497e-17 -0.667406
vt -11.6016 5.49714e-16
v -7.00944 4 45.7005
vt -11.6016 4
vt -12.5663 4
f 6/65/13 5/66/13 30/67/13 29/68/13 

vt -13.9917 2.8587e-16
vn -1 1.61409e-16 -0
vt -11.6892 2.8587e-16
v -7.00944 4 48.003
vt -11.6892 4
vt -13.9917 4
f 5/69/14 4/70/14 31/71/14 30/72/14 

vt 1.77109 3.30584e-15
vn 1.164e-31 2.82812e-16 1
vt 8.78709 4.18172e-16
v 0.00656149 4 48.003
vt 8.78709 4
vt 1.77109 4
f 4/73/15 3/74/15 32/75/15 31/76/15 

vt 11.6892 -6.05941e-15
vn 1 3.60956e-16 -2.06602e-33
vt 15.7071 -6.05941e-15
vt 15.7071 4
vt 11.6892 4
f 3/77/16 2/78/16 18/79/16 32/80/16 

vt 8.78709 15.7071
vn 1.61409e-16 1 -2.82812e-16
vt 8.43842 15.7071
vt 7.85413 15.0491
vt 7.77786 14.811
vt 7.41317 14.7043
vt 6.84192 14.0481
vt 6.76139 13.6563
vt 3.69139 13.6563
vt 3.69139 14.0481
vt 3.55978 14.2606
vt 3.36978 14.2606
vt 3.02166 14.6469
vt 2.41494 14.7101
vt 1.77109 13.9917
vt 1.77109 11.6892
vt 8.78709 11.6892
f 18/81/17 17/82/17 19/83/17 20/84/17 21/85/17 22/86/17 23/87/17 24/88/17 25/89/17 26/90/17 27/91/17 28/92/17 29/93/17 30/94/17 31/95/17 32/96/17 

