# Alias OBJ Model File
# Exported from SketchUp, (c) 2000-2012 Trimble Navigation Limited
# File units = meters

mtllib B9 SW Mountain.mtl

g Mesh1 B9_SW_Mountain1 Model

usemtl _1
v 1.92654 4.33974e-16 48.003
vt -10.7071 11.6892
vn 1.00372e-15 -1 1.80182e-16
v 0.00656149 -2.09274e-15 48.003
vt -8.78709 11.6892
v 0.00656149 -2.09274e-15 43.9851
vt -8.78709 15.7071
v 0.247897 -2.09272e-15 43.9851
vt -9.02842 15.7071
v 0.605791 -2.09267e-15 44.4027
vt -9.38632 15.2895
v 0.805791 -2.09267e-15 44.4027
vt -9.58632 15.2895
v 1.56414 -2.12006e-15 45.4089
vt -10.3447 14.2833
v 1.92654 4.33974e-16 45.553
vt -10.7071 14.1392
f 1/1/1 2/2/1 3/3/1 4/4/1 5/5/1 6/6/1 7/7/1 8/8/1 

vt 8.78709 -7.81489e-16
vn -7.52001e-16 1.80182e-16 1
vt 10.7071 1.74522e-15
v 1.92654 4 48.003
vt 10.7071 4
v 0.00656149 4 48.003
vt 8.78709 4
f 2/9/2 1/10/2 9/11/2 10/12/2 

vt 11.6892 -1.11078e-14
vn 1 1.00372e-15 -0
vt 14.1392 -1.11078e-14
v 1.92654 4 45.553
vt 14.1392 4
vt 11.6892 4
f 1/13/3 8/14/3 11/15/3 9/16/3 

vt -4.72499 -3.83869e-15
vn 0.369495 2.03438e-16 -0.929233
vt -4.33499 -6.39273e-15
v 1.56414 4 45.4089
vt -4.33499 4
vt -4.72499 4
f 8/17/4 7/18/4 12/19/4 11/20/4 

vt 5.1806 -1.45996e-14
vn 0.798601 6.93126e-16 -0.601861
vt 6.4406 -1.45722e-14
v 0.805791 4 44.4027
vt 6.4406 4
vt 5.1806 4
f 7/21/5 6/22/5 13/23/5 12/24/5 

vt -9.58632 -1.32711e-16
vn 0 -1.80182e-16 -1
vt -9.38632 -1.32711e-16
v 0.605791 4 44.4027
vt -9.38632 4
vt -9.58632 4
f 6/25/6 5/26/6 14/27/6 13/28/6 

vt 5.50184 -1.39001e-14
vn 0.759321 6.44898e-16 -0.650716
vt 6.05184 -1.39002e-14
v 0.247897 4 43.9851
vt 6.05184 4
vt 5.50184 4
f 5/29/7 4/30/7 15/31/7 14/32/7 

vt -9.02842 -5.75061e-17
vn 1.41966e-35 -1.80182e-16 -1
vt -8.78709 -5.75251e-17
v 0.00656149 4 43.9851
vt -8.78709 4
vt -9.02842 4
f 4/33/8 3/34/8 16/35/8 15/36/8 

vt -15.7071 -1.17074e-14
vn -1 -1.00372e-15 -0
vt -11.6892 -1.17074e-14
vt -11.6892 4
vt -15.7071 4
f 3/37/9 2/38/9 10/39/9 16/40/9 

vt 8.78709 11.6892
vn -1.00372e-15 1 -1.80182e-16
vt 10.7071 11.6892
vt 10.7071 14.1392
vt 10.3447 14.2833
vt 9.58632 15.2895
vt 9.38632 15.2895
vt 9.02842 15.7071
vt 8.78709 15.7071
f 10/41/10 9/42/10 11/43/10 12/44/10 13/45/10 14/46/10 15/47/10 16/48/10 

