# Alias OBJ Model File
# Exported from SketchUp, (c) 2000-2012 Trimble Navigation Limited
# File units = meters

mtllib A6 NE Mountain.mtl

g Mesh1 A6_NE_Mountain1 Model

usemtl FrontColor
v -31.9976 -2.09272e-15 48.003
vt 77.0499 0
vn 1 0 -0
v -31.9976 4 48.003
vt 77.0499 157.48
v -31.9976 4 49.9579
vt 0.0861571 157.48
v -31.9976 7.9493e-16 49.9579
vt 0.0861571 1.13687e-13
f 1/1/1 2/2/1 3/3/1 4/4/1 

vt -353.815 157.48
vn 0 0 -1
vt -353.815 0
v -40.9845 -2.09272e-15 48.003
vt 0 0
v -40.9845 4 48.003
vt 0 157.48
f 2/5/2 1/6/2 5/7/2 6/8/2 

usemtl _1
v -40.9845 7.9493e-16 49.466
vt 32.174 4.7362
vn -2.88141e-17 -1 1.53937e-15
vt 32.174 6.19918
vt 23.1871 6.19918
vt 23.1871 4.2443
v -40.1267 7.9493e-16 49.9601
vt 31.3161 4.24211
f 7/9/3 5/10/3 1/11/3 4/12/3 8/13/3 

v -40.9845 4 49.466
vt -4.7362 4
vn -1 0 -0
vt -6.19918 4
vt -6.19918 -2.88765e-15
vt -4.7362 0
f 9/14/4 6/15/4 5/16/4 7/17/4 

vt -23.1871 4.2443
vn 0 1 -0
vt -23.1871 6.19918
vt -32.174 6.19918
vt -32.174 4.7362
v -40.1267 4 49.9601
vt -31.3161 4.24211
f 3/18/5 2/19/5 6/20/5 9/21/5 10/22/5 

vt -30.2443 0
vn -0.49908 0 0.866556
vt -29.2543 0
vt -29.2543 4
vt -30.2443 4
f 7/23/6 8/24/6 10/25/6 9/26/6 

vt -31.315 -3.17357e-08
vn 0.000269207 0 1
vt -23.186 -3.17357e-08
vt -23.186 4
vt -31.315 4
f 8/27/7 4/28/7 3/29/7 10/30/7 

