# Alias OBJ Model File
# Exported from SketchUp, (c) 2000-2012 Trimble Navigation Limited
# File units = meters

mtllib A7 NW Mountain Cave.mtl

g Mesh1 A7_NW_Mountain1 Group1 Model

usemtl _1
v -20.4224 4 49.9549
vt -11.6108 4
vn 0.00026372 8.43178e-07 1
v -31.9976 4 49.9579
vt -23.186 4
v -31.9976 7.85113e-16 49.9579
vt -23.186 2.82305e-07
v -25.8049 7.85113e-16 49.9563
vt -16.9933 2.82294e-07
v -25.8049 2.5 49.9563
vt -16.9933 2.5
v -24.8049 2.5 49.956
vt -15.9933 2.5
v -24.8049 7.85113e-16 49.956
vt -15.9933 2.82296e-07
v -20.4224 7.85113e-16 49.9549
vt -11.6108 2.82307e-07
f 1/1/1 2/2/1 3/3/1 4/4/1 5/5/1 6/6/1 7/7/1 8/8/1 

v -20.028 4 49.2459
vt -11.2175 4.95635
vn 0 1 -0
v -20.028 4 48.003
vt -11.2175 6.19918
v -31.9976 4 48.003
vt -23.1871 6.19918
vt -23.1871 4.2443
vt -11.6119 4.24736
f 9/9/2 10/10/2 11/11/2 2/12/2 1/13/2 

v -20.028 7.85113e-16 49.2459
vt 5.54635 -4.38792e-14
vn 1 -3.79003e-15 2.90431e-15
v -20.028 7.85113e-16 48.003
vt 6.78918 -4.38792e-14
vt 6.78918 4
vt 5.54635 4
f 12/14/3 13/15/3 10/16/3 9/17/3 

v -31.9976 -2.10253e-15 48.003
vt 23.1871 6.19918
vn 1.13848e-16 -1 5.32098e-16
vt 11.2175 6.19918
vt 11.2175 4.95635
vt 11.6119 4.24736
vt 15.9944 4.24619
v -24.805 7.85113e-16 49.706
vt 15.9945 4.49619
v -24.565 7.85113e-16 49.706
vt 15.7545 4.49625
v -24.5653 7.85113e-16 48.516
vt 15.7548 5.68625
v -26.0653 7.85113e-16 48.5164
vt 17.2548 5.68585
v -26.065 7.85113e-16 49.7064
vt 17.2545 4.49585
v -25.805 7.85113e-16 49.7063
vt 16.9945 4.49592
vt 16.9944 4.24592
vt 23.1871 4.2443
f 14/18/4 13/19/4 12/20/4 8/21/4 7/22/4 15/23/4 16/24/4 17/25/4 18/26/4 19/27/4 20/28/4 4/29/4 3/30/4 

usemtl FrontColor
vt -4.01087 0
vn 0 0 1
vt 467.233 1.13687e-13
vt 467.233 157.48
vt -4.01087 157.48
f 14/31/5 13/32/5 10/33/5 11/34/5 

vt 0 1.13687e-13
vn 1 0 -0
vt 76.9638 0
vt 76.9638 157.48
vt 0 157.48
f 3/35/6 14/36/6 11/37/6 2/38/6 

usemtl _1
vt -1.21288 -3.65759e-14
vn 0.873906 -2.78679e-15 0.486094
vt -0.401586 -3.65759e-14
vt -0.401586 4
vt -1.21288 4
f 8/39/7 12/40/7 9/41/7 1/42/7 

vt -4.25045 -2.83861e-08
vn -1 1.77488e-09 0.000266555
vt -4.25045 2.5
v -24.805 2.5 49.706
vt -4.50045 2.5
vt -4.50045 -2.83861e-08
f 7/43/8 6/44/8 21/45/8 15/46/8 

vn 5.91624e-09 -1 -1.5768e-12
v -25.805 2.5 49.7063
f 5/29/9 22/28/9 21/23/9 6/22/9 

vt 4.50045 -6.03219e-08
vn 1 -3.54975e-09 -0.000266555
vt 4.50045 2.5
vt 4.25045 2.5
vt 4.25045 -6.03219e-08
f 20/47/10 22/48/10 5/49/10 4/50/10 

vt 17.2533 1.44411e-10
vn -0.000266591 -3.20881e-11 -1
v -26.065 2.55 49.7064
vt 17.2533 2.55
v -25.805 2.55 49.7063
vt 16.9933 2.55
vt 16.9933 2.5
vt 16.9933 1.44411e-10
f 19/51/11 23/52/11 24/53/11 22/54/11 20/55/11 

vt 5.69045 0
vn 1 0 -0.000266591
v -26.0653 2.55 48.5164
vt 5.69045 2.55
vt 4.50045 2.55
vt 4.50045 0
f 18/56/12 25/57/12 23/58/12 19/59/12 

vt -15.7533 1.52773e-09
vn 0.000266591 2.68472e-10 1
v -24.5653 2.55 48.516
vt -15.7533 2.55
vt -17.2533 2.55
vt -17.2533 1.52773e-09
f 17/60/13 26/61/13 25/62/13 18/63/13 

vt -5.69045 2.13981e-09
vn -1 -1.35832e-10 0.000266595
vt -4.50045 2.13981e-09
v -24.565 2.55 49.706
vt -4.50045 2.55
vt -5.69045 2.55
f 17/64/14 16/65/14 27/66/14 26/67/14 

vt 15.9933 -3.29391e-09
vn -0.00026664 7.31907e-10 -1
vt 15.9933 2.5
v -24.805 2.55 49.706
vt 15.9933 2.55
vt 15.7533 2.55
vt 15.7533 -3.29391e-09
f 15/68/15 21/69/15 28/70/15 27/71/15 16/72/15 

vn -0.000266555 -2.24833e-09 -1
f 21/69/16 22/54/16 24/53/16 28/70/16 

vn 3.26862e-09 -1 2.24749e-09
f 23/27/17 25/26/17 26/25/17 27/24/17 28/23/17 24/28/17 

g Mesh2 CaveEntrance1 Group1 Model

usemtl FrontColor
v -24.805 7.85113e-16 49.7063
vt -39.3701 9.84252
vn 0 -1 -0
v -24.805 7.85113e-16 49.9563
vt -39.3701 0
v -25.805 7.85113e-16 49.9563
vt 0 0
v -25.805 7.85113e-16 49.7063
vt 0 9.84252
f 29/73/18 30/74/18 31/75/18 32/76/18 

v -25.915 7.85113e-16 49.7063
vt 4.33071 9.84252
v -25.915 7.85113e-16 48.7063
vt 4.33071 49.2126
v -24.655 7.85113e-16 48.7063
vt -45.2756 49.2126
v -24.655 7.85113e-16 49.7063
vt -45.2756 9.84252
f 29/73/18 32/76/18 33/77/18 34/78/18 35/79/18 36/80/18 

usemtl _2
v -25.805 2.5 49.7063
vt 3.22912 2.5
vn 0 0 -1
vt 3.22912 0
vt 3.33912 0
v -25.915 2.5 49.7063
vt 3.33912 2.5
f 37/81/19 32/82/19 33/83/19 38/84/19 

vt 4.52118 0
vt 5.52118 0
v -25.915 2.5 48.7063
vt 5.52118 2.5
vt 4.52118 2.5
f 33/85/6 34/86/6 39/87/6 38/88/6 

vt -3.25991 0
vt -1.99991 0
v -24.655 2.5 48.7063
vt -1.99991 2.5
vt -3.25991 2.5
f 34/89/5 35/90/5 40/91/5 39/92/5 

vt -5.52118 0
vn -1 0 -0
vt -4.52118 0
v -24.655 2.5 49.7063
vt -4.52118 2.5
vt -5.52118 2.5
f 35/93/20 36/94/20 41/95/20 40/96/20 

vt 2.18317 0
v -24.805 2.5 49.7063
vt 2.18317 2.5
vt 2.03317 2.5
vt 2.03317 0
f 29/97/19 42/98/19 41/99/19 36/100/19 

vt 2.14991 4.52118
vt 3.14991 4.52118
vt 3.25991 4.52118
vt 3.25991 5.52118
vt 1.99991 5.52118
vt 1.99991 4.52118
f 42/101/18 37/102/18 38/103/18 39/104/18 40/105/18 41/106/18 

g Mesh3 A7FakeGreenWall1 Group1 Model

usemtl _1
v -24.8049 2.5 49.956
vn 0.000266555 0 1
v -25.8049 2.5 49.9563
vt -16.9933 0
v -24.8049 7.85113e-16 49.956
vt -15.9933 0
f 43/6/21 44/5/21 4/107/21 45/108/21 

