# Alias OBJ Model File
# Exported from SketchUp, (c) 2000-2012 Trimble Navigation Limited
# File units = meters

mtllib B6 SE Mountain.mtl

g Mesh1 B6_SE_Mountain1 Model

usemtl _1
v -40.9845 7.9493e-16 46.056
vt -8.1462 0
vn -1 0 -0
v -40.9845 -2.09272e-15 48.003
vt -6.19918 -2.88765e-15
v -40.9845 4 48.003
vt -6.19918 4
v -40.9845 4 46.056
vt -8.1462 4
f 1/1/1 2/2/1 3/3/1 4/4/1 

v -31.9976 2.23875e-15 46.056
vt 23.1871 8.1462
vn 7.94288e-17 -1 -1.85389e-15
v -31.9976 -2.09272e-15 48.003
vt 23.1871 6.19918
vt 32.174 6.19918
vt 32.174 8.1462
f 5/5/2 6/6/2 2/7/2 1/8/2 

usemtl FrontColor
v -31.9976 4 46.056
vt 76.6544 157.48
vn 1 0 -0
v -31.9976 4 48.003
vt 0 157.48
vt 0 0
vt 76.6544 1.7053e-13
f 7/9/3 8/10/3 6/11/3 5/12/3 

usemtl _1
vt -32.174 8.1462
vn 0 1 -0
vt -32.174 6.19918
vt -23.1871 6.19918
vt -23.1871 8.1462
f 4/13/4 3/14/4 8/15/4 7/16/4 

usemtl FrontColor
vn 0 0 1
vt 353.815 0
vt 353.815 157.48
f 3/10/5 2/11/5 6/17/5 8/18/5 

usemtl _1
vt 32.174 4
vn 0 0 -1
vt 23.1871 4
vt 23.1871 1.44382e-15
vt 32.174 0
f 4/19/6 7/20/6 5/21/6 1/22/6 

