# Alias OBJ Model File
# Exported from SketchUp, (c) 2000-2012 Trimble Navigation Limited
# File units = meters

mtllib B7 SW Mountain.mtl

g Mesh1 B7_SW_Mountain1 Model

usemtl FrontColor
v -31.9976 -2.09272e-15 48.003
vt -4.01087 0
vn 0 0 1
v -20.028 7.9493e-16 48.003
vt 467.233 1.13687e-13
v -20.028 4 48.003
vt 467.233 157.48
v -31.9976 4 48.003
vt -4.01087 157.48
f 1/1/1 2/2/1 3/3/1 4/4/1 

usemtl _1
v -31.9976 2.23875e-15 46.056
vt 23.1871 8.1462
vn 1.24765e-16 -1 -1.74139e-15
v -20.7824 4.04353e-15 46.056
vt 11.9719 8.1462
v -20.028 7.9493e-16 46.5159
vt 11.2175 7.68635
vt 11.2175 6.19918
vt 23.1871 6.19918
f 5/5/2 6/6/2 7/7/2 2/8/2 1/9/2 

vt 11.9719 3.2486e-15
vn 0 0 -1
vt 23.1871 1.44382e-15
v -31.9976 4 46.056
vt 23.1871 4
v -20.7824 4 46.056
vt 11.9719 4
f 6/10/3 5/11/3 8/12/3 9/13/3 

usemtl FrontColor
vt 0 0
vn 1 0 -0
vt 76.6544 1.7053e-13
vt 76.6544 157.48
vt 0 157.48
f 1/14/4 5/15/4 8/16/4 4/17/4 

usemtl _1
vt -23.1871 8.1462
vn 0 1 -0
vt -23.1871 6.19918
vt -11.2175 6.19918
v -20.028 4 46.5159
vt -11.2175 7.68635
vt -11.9719 8.1462
f 8/18/5 4/19/5 3/20/5 10/21/5 9/22/5 

vt 8.27635 4
vn 1 -1.98526e-15 4.85426e-16
vt 6.78918 4
vt 6.78918 -2.29843e-14
vt 8.27635 -2.29843e-14
f 10/23/6 3/24/6 2/25/6 7/26/6 

vt 14.5554 -6.09014e-17
vn 0.520499 -2.58762e-16 -0.853862
vt 15.4389 3.1877e-15
vt 15.4389 4
vt 14.5554 4
f 7/27/7 6/28/7 9/29/7 10/30/7 

