# Alias OBJ Model File
# Exported from SketchUp, (c) 2000-2012 Trimble Navigation Limited
# File units = meters

mtllib B6 NE Mountain.mtl

g Mesh1 B6_NE_Mountain1 Model

usemtl _1
v -35.9693 -2.09272e-15 33.9625
vt 27.1888 25.7297
vn 0 -1 -0
v -35.9693 -2.09272e-15 31.9996
vt 27.1888 27.6926
v -35.0693 -2.09272e-15 31.9996
vt 26.2888 27.6926
v -35.0693 -2.09272e-15 33.9625
vt 26.2888 25.7297
f 1/1/1 2/2/1 3/3/1 4/4/1 

vt -27.6926 -2.88765e-15
vn -1 0 -0
vt -25.7297 -2.88765e-15
v -35.9693 4 33.9625
vt -25.7297 4
v -35.9693 4 31.9996
vt -27.6926 4
f 2/5/2 1/6/2 5/7/2 6/8/2 

vt -27.1888 -2.88765e-15
vn 0 0 1
vt -26.2888 -2.88765e-15
v -35.0693 4 33.9625
vt -26.2888 4
vt -27.1888 4
f 1/9/3 4/10/3 7/11/3 5/12/3 

vt 25.7297 -2.88765e-15
vn 1 0 -0
vt 27.6926 -2.88765e-15
v -35.0693 4 31.9996
vt 27.6926 4
vt 25.7297 4
f 4/13/4 3/14/4 8/15/4 7/16/4 

vt 26.2888 -2.88765e-15
vn 0 0 -1
vt 27.1888 -2.88765e-15
vt 27.1888 4
vt 26.2888 4
f 3/17/5 2/18/5 6/19/5 8/20/5 

vt -27.1888 27.6926
vn 0 1 -0
vt -27.1888 25.7297
vt -26.2888 25.7297
vt -26.2888 27.6926
f 6/21/6 5/22/6 7/23/6 8/24/6 

g Mesh2 B6_NE_Mountain1 Model

v -33.9905 -2.09272e-15 33.4377
vt 25.2099 26.2545
vn -8.03591e-21 -1 4.26902e-21
v -33.9905 -2.09273e-15 32.0032
vt 25.2099 27.689
v -31.9976 -2.09274e-15 32.0032
vt 23.2171 27.689
v -31.9976 -2.09274e-15 33.9954
vt 23.2171 25.6968
v -33.1008 -2.09272e-15 33.9954
vt 24.3203 25.6968
f 9/25/7 10/26/7 11/27/7 12/28/7 13/29/7 

vt -27.689 -2.88786e-15
vn -1 8.03591e-21 -5.43322e-41
vt -26.2545 -2.88785e-15
v -33.9905 4 33.4377
vt -26.2545 4
v -33.9905 4 32.0032
vt -27.689 4
f 10/30/8 9/31/8 14/32/8 15/33/8 

vt -35.3046 -2.88758e-15
vn -0.531123 7.88517e-21 0.847295
vt -34.2546 -2.88758e-15
v -33.1008 4 33.9954
vt -34.2546 4
vt -35.3046 4
f 9/34/9 13/35/9 16/36/9 14/37/9 

vt -24.3203 -2.88754e-15
vn 7.50672e-41 4.26902e-21 1
vt -23.2171 -2.88756e-15
v -31.9976 4 33.9954
vt -23.2171 4
vt -24.3203 4
f 13/38/10 12/39/10 17/40/10 16/41/10 

vt 25.6968 -2.88785e-15
vn 1 -8.03591e-21 -0
vt 27.689 -2.88785e-15
v -31.9976 4 32.0032
vt 27.689 4
vt 25.6968 4
f 12/42/11 11/43/11 18/44/11 17/45/11 

vt 23.2171 -2.88755e-15
vn -2.07775e-41 -4.26902e-21 -1
vt 25.2099 -2.88754e-15
vt 25.2099 4
vt 23.2171 4
f 11/46/12 10/47/12 15/48/12 18/49/12 

vt -25.2099 27.689
vn 8.03591e-21 1 -4.26902e-21
vt -25.2099 26.2545
vt -24.3203 25.6968
vt -23.2171 25.6968
vt -23.2171 27.689
f 15/50/13 14/51/13 16/52/13 17/53/13 18/54/13 

g Mesh3 B6_NE_Mountain1 Model

v -37.9493 -2.09272e-15 33.9625
v -37.9493 -2.09272e-15 31.9996
v -37.0493 -2.09272e-15 31.9996
v -37.0493 -2.09272e-15 33.9625
f 19/1/1 20/2/1 21/3/1 22/4/1 

vt -29.6726 -2.88765e-15
vt -27.7097 -2.88765e-15
v -37.9493 4 33.9625
vt -27.7097 4
v -37.9493 4 31.9996
vt -29.6726 4
f 20/55/2 19/56/2 23/57/2 24/58/2 

vt -31.1488 -2.88765e-15
vt -30.2488 -2.88765e-15
v -37.0493 4 33.9625
vt -30.2488 4
vt -31.1488 4
f 19/59/3 22/60/3 25/61/3 23/62/3 

vt 23.7497 -2.88765e-15
vt 25.7126 -2.88765e-15
v -37.0493 4 31.9996
vt 25.7126 4
vt 23.7497 4
f 22/63/4 21/64/4 26/65/4 25/66/4 

f 21/17/5 20/18/5 24/19/5 26/20/5 

vt -31.1488 27.6926
vt -31.1488 25.7297
vt -30.2488 25.7297
vt -30.2488 27.6926
f 24/67/6 23/68/6 25/69/6 26/70/6 

