# Alias OBJ Model File
# Exported from SketchUp, (c) 2000-2012 Trimble Navigation Limited
# File units = meters

mtllib B7 N Mountain Cave.mtl

g Mesh1 CaveEntrance1 B7_N_Mountain1 Model

usemtl FrontColor
v -23.7141 -2.09273e-15 33.7454
vt -39.3701 9.84252
vn 0 -1 -0
v -23.7141 -2.09273e-15 33.9954
vt -39.3701 0
v -24.7141 -2.09273e-15 33.9954
vt 0 0
v -24.7141 -2.09273e-15 33.7454
vt 0 9.84252
f 1/1/1 2/2/1 3/3/1 4/4/1 

v -24.8241 -2.09273e-15 33.7454
vt 4.33071 9.84252
v -24.8241 -2.09273e-15 32.7454
vt 4.33071 49.2126
v -23.5641 -2.09273e-15 32.7454
vt -45.2756 49.2126
v -23.5641 -2.09273e-15 33.7454
vt -45.2756 9.84252
f 1/1/1 4/4/1 5/5/1 6/6/1 7/7/1 8/8/1 

usemtl _2
v -24.7141 2.5 33.7454
vt 3.22912 2.5
vn 0 0 -1
vt 3.22912 0
vt 3.33912 0
v -24.8241 2.5 33.7454
vt 3.33912 2.5
f 9/9/2 4/10/2 5/11/2 10/12/2 

vt 4.52118 0
vn 1 0 -0
vt 5.52118 0
v -24.8241 2.5 32.7454
vt 5.52118 2.5
vt 4.52118 2.5
f 5/13/3 6/14/3 11/15/3 10/16/3 

vt -3.25991 0
vn 0 0 1
vt -1.99991 0
v -23.5641 2.5 32.7454
vt -1.99991 2.5
vt -3.25991 2.5
f 6/17/4 7/18/4 12/19/4 11/20/4 

vt -5.52118 0
vn -1 0 -0
vt -4.52118 0
v -23.5641 2.5 33.7454
vt -4.52118 2.5
vt -5.52118 2.5
f 7/21/5 8/22/5 13/23/5 12/24/5 

vt 2.18317 0
v -23.7141 2.5 33.7454
vt 2.18317 2.5
vt 2.03317 2.5
vt 2.03317 0
f 1/25/2 14/26/2 13/27/2 8/28/2 

vt 2.14991 4.52118
vt 3.14991 4.52118
vt 3.25991 4.52118
vt 3.25991 5.52118
vt 1.99991 5.52118
vt 1.99991 4.52118
f 14/29/1 9/30/1 10/31/1 11/32/1 12/33/1 13/34/1 

g Mesh2 B7_N_Mountain1 Model

usemtl _1
v -29.0065 -2.09274e-15 32.0032
vt 20.226 27.689
vn 1.30574e-21 -1 3.67653e-22
v -15.9939 -2.09272e-15 32.0032
vt 7.2134 27.689
v -15.9939 -2.09272e-15 36.0209
vt 7.2134 23.6713
v -16.9847 -2.09272e-15 35.4571
vt 8.20417 24.2352
v -16.9847 -2.09272e-15 34.9971
vt 8.20417 24.6952
v -17.9708 -2.09272e-15 34.4054
vt 9.19028 25.2868
v -17.9708 -2.09272e-15 33.9954
vt 9.19028 25.6968
v -23.7141 -2.09272e-15 33.9954
vt 14.9335 25.6968
vt 14.9335 25.9468
v -23.4741 -2.09273e-15 33.7454
vt 14.6935 25.9468
v -23.4741 -2.09272e-15 32.6754
vt 14.6935 27.0168
v -24.8941 -2.09273e-15 32.6754
vt 16.1135 27.0168
v -24.8941 -2.09273e-15 33.7454
vt 16.1135 25.9468
vt 15.9335 25.9468
vt 15.9335 25.6968
v -31.9976 -2.09274e-15 33.9954
vt 23.2171 25.6968
v -31.9976 -2.09274e-15 32.0032
vt 23.2171 27.689
f 15/35/6 16/36/6 17/37/6 18/38/6 19/39/6 20/40/6 21/41/6 22/42/6 1/43/6 23/44/6 24/45/6 25/46/6 26/47/6 4/48/6 3/49/6 27/50/6 28/51/6 

vt 7.2134 -2.88764e-15
vn 5.48073e-43 -3.67653e-22 -1
vt 20.226 -2.88765e-15
v -29.0065 4 32.0032
vt 20.226 4
v -15.9939 4 32.0032
vt 7.2134 4
f 16/52/7 15/53/7 29/54/7 30/55/7 

vn 0 -3.67653e-22 -1
vt 23.2171 -2.88765e-15
v -31.9976 4 32.0032
vt 23.2171 4
f 15/53/8 28/56/8 31/57/8 29/54/8 

vt -27.689 -2.88763e-15
vn -1 -1.30574e-21 -0
vt -25.6968 -2.88763e-15
v -31.9976 4 33.9954
vt -25.6968 4
vt -27.689 4
f 28/58/9 27/59/9 32/60/9 31/61/9 

vt -23.2171 -2.88767e-15
vt -15.9335 -2.88766e-15
v -24.7141 2 33.9954
vt -15.9335 2
v -23.7141 2 33.9954
vt -14.9335 2
vt -14.9335 -2.88765e-15
vt -9.19028 -2.88765e-15
v -17.9708 4 33.9954
vt -9.19028 4
vt -23.2171 4
f 27/62/4 3/63/4 33/64/4 34/65/4 22/66/4 21/67/4 35/68/4 32/69/4 

vt 25.6968 -2.88766e-15
vt 25.9468 -2.88766e-15
v -24.7141 2 33.7454
vt 25.9468 2
vt 25.6968 2
f 3/70/3 4/71/3 36/72/3 33/73/3 

vt 15.9335 2
vt 15.9335 -2.88766e-15
vt 16.1135 -2.88766e-15
v -24.8941 2 33.7454
vt 16.1135 2
f 36/74/2 4/75/2 26/76/2 37/77/2 

v -24.8941 2 32.6754
vt 27.0168 2
vt 27.0168 -2.88766e-15
f 38/78/3 37/72/3 26/71/3 25/79/3 

v -23.4741 2 32.6754
v -23.4741 2 33.7454
v -23.7141 2 33.7454
f 34/42/1 33/49/1 36/48/1 37/47/1 38/46/1 39/45/1 40/44/1 41/43/1 

vt -16.1135 -2.88766e-15
vt -14.6935 -2.88765e-15
vt -14.6935 2
vt -16.1135 2
f 25/80/4 24/81/4 39/82/4 38/83/4 

vt -27.0168 -2.88765e-15
vt -25.9468 -2.88766e-15
vt -25.9468 2
vt -27.0168 2
f 24/84/5 23/85/5 40/86/5 39/87/5 

vt 14.9335 -2.88766e-15
vt 14.9335 2
vt 14.6935 2
vt 14.6935 -2.88766e-15
f 1/88/2 41/89/2 40/90/2 23/91/2 

vt -25.6968 2
vt -25.6968 -2.88765e-15
f 34/92/5 41/86/5 1/85/5 22/93/5 

vt -25.2868 -2.88763e-15
v -17.9708 4 34.4054
vt -25.2868 4
f 21/59/9 20/94/9 42/95/9 35/60/9 

vt -20.8907 -2.88765e-15
vn -0.514504 -3.56548e-22 0.857488
vt -19.7407 -2.88765e-15
v -16.9847 4 34.9971
vt -19.7407 4
vt -20.8907 4
f 20/96/10 19/97/10 43/98/10 42/99/10 

vt -24.6952 -2.88763e-15
vt -24.2352 -2.88763e-15
v -16.9847 4 35.4571
vt -24.2352 4
vt -24.6952 4
f 19/100/9 18/101/9 44/102/9 43/103/9 

vt -19.1178 -2.88765e-15
vn -0.494635 -3.26335e-22 0.869101
vt -17.9778 -2.88765e-15
v -15.9939 4 36.0209
vt -17.9778 4
vt -19.1178 4
f 18/104/11 17/105/11 45/106/11 44/107/11 

vt 23.6713 -2.88764e-15
vn 1 1.30574e-21 -0
vt 27.689 -2.88764e-15
vt 27.689 4
vt 23.6713 4
f 17/108/12 16/109/12 30/110/12 45/111/12 

vt -7.2134 27.689
vn -1.30574e-21 1 -3.67653e-22
vt -20.226 27.689
vt -23.2171 27.689
vt -23.2171 25.6968
vt -9.19028 25.6968
vt -9.19028 25.2868
vt -8.20417 24.6952
vt -8.20417 24.2352
vt -7.2134 23.6713
f 30/112/13 29/113/13 31/114/13 32/115/13 35/116/13 42/117/13 43/118/13 44/119/13 45/120/13 

