# Alias OBJ Model File
# Exported from SketchUp, (c) 2000-2012 Trimble Navigation Limited
# File units = meters

mtllib C6 SE Mountain.mtl

g Mesh1 C6_SE_Mountain1 Model

usemtl _1
v -37.0493 -2.09272e-15 30.0368
vt 26.2888 29.6554
vn 0 -1 -0
v -37.0493 -2.09272e-15 31.9996
vt 26.2888 27.6926
v -37.9493 -2.09272e-15 31.9996
vt 27.1888 27.6926
v -37.9493 -2.09272e-15 30.0368
vt 27.1888 29.6554
f 1/1/1 2/2/1 3/3/1 4/4/1 

vt 25.7126 -2.88765e-15
vn 1 0 -0
vt 27.6754 -2.88765e-15
v -37.0493 4 30.0368
vt 27.6754 4
v -37.0493 4 31.9996
vt 25.7126 4
f 2/5/2 1/6/2 5/7/2 6/8/2 

vt 26.2888 -2.88765e-15
vn 0 0 -1
vt 27.1888 -2.88765e-15
v -37.9493 4 30.0368
vt 27.1888 4
vt 26.2888 4
f 1/9/3 4/10/3 7/11/3 5/12/3 

vt -31.6354 -2.88765e-15
vn -1 0 -0
vt -29.6726 -2.88765e-15
v -37.9493 4 31.9996
vt -29.6726 4
vt -31.6354 4
f 4/13/4 3/14/4 8/15/4 7/16/4 

vt -31.1488 -2.88765e-15
vn 0 0 1
vt -30.2488 -2.88765e-15
vt -30.2488 4
vt -31.1488 4
f 3/17/5 2/18/5 6/19/5 8/20/5 

vt -30.2488 27.6926
vn 0 1 -0
vt -30.2488 29.6554
vt -31.1488 29.6554
vt -31.1488 27.6926
f 6/21/6 5/22/6 7/23/6 8/24/6 

g Mesh2 C6_SE_Mountain1 Model

v -31.9976 -2.09274e-15 27.0537
vt 23.2171 32.6385
vn -7.30055e-21 -1 -9.79821e-22
v -31.9976 -2.09274e-15 32.0032
vt 23.2171 27.689
v -33.9905 -2.09273e-15 32.0032
vt 25.2099 27.689
v -33.9905 -2.09272e-15 27.0537
vt 25.2099 32.6385
f 9/25/7 10/26/7 11/27/7 12/28/7 

vt 27.689 -2.88783e-15
vn 1 -7.30055e-21 -0
vt 32.6385 -2.88783e-15
v -31.9976 4 27.0537
vt 32.6385 4
v -31.9976 4 32.0032
vt 27.689 4
f 10/29/8 9/30/8 13/31/8 14/32/8 

vt 23.2171 -2.8877e-15
vn 9.53765e-42 9.79821e-22 -1
vt 25.2099 -2.88768e-15
v -33.9905 4 27.0537
vt 25.2099 4
vt 23.2171 4
f 9/33/9 12/34/9 15/35/9 13/36/9 

vt -32.6385 -2.88783e-15
vn -1 7.30055e-21 1.43065e-41
vt -27.689 -2.88784e-15
v -33.9905 4 32.0032
vt -27.689 4
vt -32.6385 4
f 12/37/10 11/38/10 16/39/10 15/40/10 

vt -25.2099 -2.88768e-15
vn -4.76882e-42 -9.79821e-22 1
vt -23.2171 -2.88769e-15
vt -23.2171 4
vt -25.2099 4
f 11/41/11 10/42/11 14/43/11 16/44/11 

vt -23.2171 27.689
vn 7.30055e-21 1 9.79821e-22
vt -23.2171 32.6385
vt -25.2099 32.6385
vt -25.2099 27.689
f 14/45/12 13/46/12 15/47/12 16/48/12 

g Mesh3 C6_SE_Mountain1 Model

v -35.0693 -2.09272e-15 30.0368
v -35.0693 -2.09272e-15 31.9996
v -35.9693 -2.09272e-15 31.9996
v -35.9693 -2.09272e-15 30.0368
f 17/1/1 18/2/1 19/3/1 20/4/1 

vt 27.6926 -2.88765e-15
vt 29.6554 -2.88765e-15
v -35.0693 4 30.0368
vt 29.6554 4
v -35.0693 4 31.9996
vt 27.6926 4
f 18/49/2 17/50/2 21/51/2 22/52/2 

v -35.9693 4 30.0368
f 17/9/3 20/10/3 23/11/3 21/12/3 

vt -29.6554 -2.88765e-15
vt -27.6926 -2.88765e-15
v -35.9693 4 31.9996
vt -27.6926 4
vt -29.6554 4
f 20/53/4 19/54/4 24/55/4 23/56/4 

vt -27.1888 -2.88765e-15
vt -26.2888 -2.88765e-15
vt -26.2888 4
vt -27.1888 4
f 19/57/5 18/58/5 22/59/5 24/60/5 

vt -26.2888 27.6926
vt -26.2888 29.6554
vt -27.1888 29.6554
vt -27.1888 27.6926
f 22/61/6 21/62/6 23/63/6 24/64/6 

