# Alias OBJ Model File
# Exported from SketchUp, (c) 2000-2012 Trimble Navigation Limited
# File units = meters

mtllib C7 SW Mountain.mtl

g Mesh1 C7_SW_Mountain1 Model

usemtl _1
v -31.9976 -2.09274e-15 32.0032
vt 23.2171 27.689
vn 0 -1 -0
v -31.9976 -2.09274e-15 27.0537
vt 23.2171 32.6385
v -29.0065 -2.09274e-15 27.0537
vt 20.226 32.6385
v -29.0065 -2.09274e-15 32.0032
vt 20.226 27.689
f 1/1/1 2/2/1 3/3/1 4/4/1 

vt -32.6385 -2.88767e-15
vn -1 0 -0
vt -27.689 -2.88767e-15
v -31.9976 4 32.0032
vt -27.689 4
v -31.9976 4 27.0537
vt -32.6385 4
f 2/5/2 1/6/2 5/7/2 6/8/2 

vt -23.2171 -2.88767e-15
vn 0 0 1
vt -20.226 -2.88767e-15
v -29.0065 4 32.0032
vt -20.226 4
vt -23.2171 4
f 1/9/3 4/10/3 7/11/3 5/12/3 

vt 27.689 -2.88767e-15
vn 1 0 -0
vt 32.6385 -2.88767e-15
v -29.0065 4 27.0537
vt 32.6385 4
vt 27.689 4
f 4/13/4 3/14/4 8/15/4 7/16/4 

vt 20.226 -2.88767e-15
vn 0 0 -1
vt 23.2171 -2.88767e-15
vt 23.2171 4
vt 20.226 4
f 3/17/5 2/18/5 6/19/5 8/20/5 

vt -23.2171 32.6385
vn 0 1 -0
vt -23.2171 27.689
vt -20.226 27.689
vt -20.226 32.6385
f 6/21/6 5/22/6 7/23/6 8/24/6 

