<?xml version="1.0" encoding="UTF-8" standalone="no" ?>
<COLLADA xmlns="http://www.collada.org/2005/11/COLLADASchema" version="1.4.1">
    <asset>
        <contributor>
            <authoring_tool>SketchUp 17.2.2555</authoring_tool>
        </contributor>
        <created>2017-10-05T02:42:27Z</created>
        <modified>2017-10-05T02:42:27Z</modified>
        <unit meter="0.0254" name="inch" />
        <up_axis>Z_UP</up_axis>
    </asset>
    <library_cameras>
        <camera id="ID1" name="skp_camera_Last_Saved_SketchUp_View">
            <optics>
                <technique_common>
                    <perspective>
                        <yfov>35</yfov>
                        <aspect_ratio>0</aspect_ratio>
                        <znear>1</znear>
                        <zfar>1000</zfar>
                    </perspective>
                </technique_common>
            </optics>
        </camera>
    </library_cameras>
    <library_visual_scenes>
        <visual_scene id="ID2">
            <node name="SketchUp">
                <node name="skp_camera_Last_Saved_SketchUp_View">
                    <matrix>-0.9991068 -0.03151532 0.02814885 25.43111 0.04225604 -0.7451519 0.6655547 834.5533 -6.245005e-17 0.6661497 0.7458181 845.6536 0 0 0 1</matrix>
                    <instance_camera url="#ID1" />
                </node>
                <node id="ID3" name="group_0">
                    <matrix>1 0 0 -295.2756 0 1 0 -295.2756 0 0 1 7.874016 0 0 0 1</matrix>
                    <instance_geometry url="#ID4">
                        <bind_material>
                            <technique_common>
                                <instance_material symbol="Material2" target="#ID5">
                                    <bind_vertex_input semantic="UVSET0" input_semantic="TEXCOORD" input_set="0" />
                                </instance_material>
                                <instance_material symbol="Material3" target="#ID15">
                                    <bind_vertex_input semantic="UVSET0" input_semantic="TEXCOORD" input_set="0" />
                                </instance_material>
                                <instance_material symbol="Material4" target="#ID17">
                                    <bind_vertex_input semantic="UVSET0" input_semantic="TEXCOORD" input_set="0" />
                                </instance_material>
                            </technique_common>
                        </bind_material>
                    </instance_geometry>
                </node>
            </node>
        </visual_scene>
    </library_visual_scenes>
    <library_geometries>
        <geometry id="ID4">
            <mesh>
                <source id="ID10">
                    <float_array id="ID19" count="498">318.8976 5.684342e-14 0 271.6535 1.574803 0 271.6535 3.979039e-13 0 590.5512 2.387424e-12 0 324.8031 1.574803 0 324.8031 0 0 590.5512 118.1102 0 265.748 4.547474e-13 0 5.684342e-14 118.1102 0 0 1.136868e-13 0 265.748 1.574803 0 318.8976 1.574803 0 324.8031 1.574803 0 318.8976 1.574803 0 590.5512 118.1102 0 318.8976 5.684342e-14 0 271.6535 1.574803 0 265.748 1.574803 0 5.684342e-14 118.1102 0 265.748 4.547474e-13 0 0 1.136868e-13 0 590.5512 2.387424e-12 0 324.8031 0 0 271.6535 3.979039e-13 0 590.5512 2.387424e-12 0 590.5512 118.1102 0 5.684342e-14 118.1102 0 0 1.136868e-13 0 265.748 4.547474e-13 0 265.748 1.574803 0 271.6535 1.574803 0 271.6535 3.979039e-13 0 318.8976 5.684342e-14 0 318.8976 1.574803 0 324.8031 1.574803 0 324.8031 0 0 5.684342e-14 118.1102 0 590.5512 118.1102 -39.37008 5.684342e-14 118.1102 -39.37008 590.5512 118.1102 0 590.5512 118.1102 0 5.684342e-14 118.1102 0 590.5512 118.1102 -39.37008 5.684342e-14 118.1102 -39.37008 590.5512 118.1102 -39.37008 5.684342e-14 118.1102 -39.37008 590.5512 157.4803 0 590.5512 118.1102 -39.37008 590.5512 118.1102 0 590.5512 157.4803 -39.37008 590.5512 157.4803 -39.37008 590.5512 157.4803 0 590.5512 118.1102 -39.37008 590.5512 118.1102 0 590.5512 157.4803 0 590.5512 157.4803 -39.37008 5.684342e-14 118.1102 -39.37008 590.5512 157.4803 -39.37008 0 157.4803 -39.37008 590.5512 118.1102 -39.37008 590.5512 118.1102 -39.37008 5.684342e-14 118.1102 -39.37008 590.5512 157.4803 -39.37008 0 157.4803 -39.37008 0 157.4803 -39.37008 0 157.4803 -39.37008 5.684342e-14 118.1102 0 5.684342e-14 118.1102 -39.37008 0 157.4803 0 0 157.4803 0 0 157.4803 -39.37008 5.684342e-14 118.1102 0 5.684342e-14 118.1102 -39.37008 0 157.4803 0 590.5512 157.4803 0 0 157.4803 -39.37008 590.5512 157.4803 -39.37008 0 157.4803 0 0 157.4803 0 590.5512 157.4803 0 0 157.4803 -39.37008 590.5512 157.4803 -39.37008 590.5512 157.4803 0 0 265.748 0 0 157.4803 0 0 324.8031 0 5.684342e-14 433.0709 1.24345e-14 590.5512 265.748 0 590.5512 433.0709 2.398082e-14 590.5512 324.8031 0 590.5512 324.8031 0 590.5512 265.748 0 590.5512 433.0709 2.398082e-14 5.684342e-14 433.0709 1.24345e-14 590.5512 157.4803 0 0 324.8031 0 0 265.748 0 0 157.4803 0 590.5512 324.8031 0 590.5512 433.0709 2.398082e-14 5.684342e-14 433.0709 1.24345e-14 0 324.8031 0 0 265.748 0 590.5512 265.748 0 5.684342e-14 433.0709 1.24345e-14 590.5512 433.0709 -39.37008 5.684342e-14 433.0709 -39.37008 590.5512 433.0709 2.398082e-14 590.5512 433.0709 2.398082e-14 5.684342e-14 433.0709 1.24345e-14 590.5512 433.0709 -39.37008 5.684342e-14 433.0709 -39.37008 590.5512 433.0709 -39.37008 5.684342e-14 433.0709 -39.37008 590.5512 472.4409 3.28626e-14 590.5512 433.0709 -39.37008 590.5512 433.0709 2.398082e-14 590.5512 472.4409 -39.37008 590.5512 472.4409 -39.37008 590.5512 472.4409 3.28626e-14 590.5512 433.0709 -39.37008 590.5512 433.0709 2.398082e-14 590.5512 472.4409 3.28626e-14 590.5512 472.4409 -39.37008 590.5512 433.0709 -39.37008 5.684342e-14 472.4409 -39.37008 5.684342e-14 433.0709 -39.37008 590.5512 472.4409 -39.37008 590.5512 472.4409 -39.37008 590.5512 433.0709 -39.37008 5.684342e-14 472.4409 -39.37008 5.684342e-14 433.0709 -39.37008 5.684342e-14 472.4409 -39.37008 5.684342e-14 472.4409 -39.37008 5.684342e-14 433.0709 1.24345e-14 5.684342e-14 433.0709 -39.37008 5.684342e-14 472.4409 2.842171e-14 5.684342e-14 472.4409 2.842171e-14 5.684342e-14 472.4409 -39.37008 5.684342e-14 433.0709 1.24345e-14 5.684342e-14 433.0709 -39.37008 5.684342e-14 472.4409 2.842171e-14 590.5512 472.4409 3.28626e-14 5.684342e-14 472.4409 -39.37008 590.5512 472.4409 -39.37008 5.684342e-14 472.4409 2.842171e-14 5.684342e-14 472.4409 2.842171e-14 590.5512 472.4409 3.28626e-14 5.684342e-14 472.4409 -39.37008 590.5512 472.4409 -39.37008 5.684342e-14 472.4409 2.842171e-14 265.748 590.5512 0 0 590.5512 0 590.5512 472.4409 3.28626e-14 324.8031 590.5512 0 590.5512 590.5512 0 590.5512 590.5512 0 590.5512 472.4409 3.28626e-14 324.8031 590.5512 0 265.748 590.5512 0 5.684342e-14 472.4409 2.842171e-14 0 590.5512 0 0 590.5512 0 590.5512 590.5512 0 324.8031 590.5512 0 265.748 590.5512 0</float_array>
                    <technique_common>
                        <accessor count="166" source="#ID19" stride="3">
                            <param name="X" type="float" />
                            <param name="Y" type="float" />
                            <param name="Z" type="float" />
                        </accessor>
                    </technique_common>
                </source>
                <source id="ID11">
                    <float_array id="ID20" count="498">0 0 1 0 0 1 0 0 1 0 0 1 0 0 1 0 0 1 0 0 1 0 0 1 0 0 1 0 0 1 0 0 1 0 0 1 -0 -0 -1 -0 -0 -1 -0 -0 -1 -0 -0 -1 -0 -0 -1 -0 -0 -1 -0 -0 -1 -0 -0 -1 -0 -0 -1 -0 -0 -1 -0 -0 -1 -0 -0 -1 0 0 0 0 0 0 0 0 0 0 0 0 0 0 0 0 0 0 0 0 0 0 0 0 0 0 0 0 0 0 0 0 0 0 0 0 -3.417047e-15 1 0 -3.417047e-15 1 0 -3.417047e-15 1 0 -3.417047e-15 1 0 3.417047e-15 -1 -0 3.417047e-15 -1 -0 3.417047e-15 -1 -0 3.417047e-15 -1 -0 0 0 0 0 0 0 -1 -2.887646e-15 -0 -1 -2.887646e-15 -0 -1 -2.887646e-15 -0 -1 -2.887646e-15 -0 1 2.887646e-15 0 1 2.887646e-15 0 1 2.887646e-15 0 1 2.887646e-15 0 0 0 0 0 0 0 0 0 1 0 0 1 0 0 1 0 0 1 -0 -0 -1 -0 -0 -1 -0 -0 -1 -0 -0 -1 0 0 0 1 1.443823e-15 0 1 1.443823e-15 0 1 1.443823e-15 0 1 1.443823e-15 0 -1 -1.443823e-15 -0 -1 -1.443823e-15 -0 -1 -1.443823e-15 -0 -1 -1.443823e-15 -0 0 0 0 -0 -1 -0 -0 -1 -0 -0 -1 -0 -0 -1 -0 0 1 0 0 1 0 0 1 0 0 1 0 -4.887942e-18 -6.316725e-17 1 -4.887942e-18 -6.316725e-17 1 -4.887942e-18 -6.316725e-17 1 -4.887942e-18 -6.316725e-17 1 -4.887942e-18 -6.316725e-17 1 -4.887942e-18 -6.316725e-17 1 -4.887942e-18 -6.316725e-17 1 -4.887942e-18 -6.316725e-17 1 4.887942e-18 6.316725e-17 -1 4.887942e-18 6.316725e-17 -1 4.887942e-18 6.316725e-17 -1 4.887942e-18 6.316725e-17 -1 4.887942e-18 6.316725e-17 -1 4.887942e-18 6.316725e-17 -1 4.887942e-18 6.316725e-17 -1 4.887942e-18 6.316725e-17 -1 0 0 0 0 0 0 0 0 0 0 0 0 0 0 0 0 0 0 -6.175157e-33 1 3.158362e-16 -6.175157e-33 1 3.158362e-16 -6.175157e-33 1 3.158362e-16 -6.175157e-33 1 3.158362e-16 6.175157e-33 -1 -3.158362e-16 6.175157e-33 -1 -3.158362e-16 6.175157e-33 -1 -3.158362e-16 6.175157e-33 -1 -3.158362e-16 0 0 0 0 0 0 -1 2.887646e-15 -1.353584e-17 -1 2.887646e-15 -1.353584e-17 -1 2.887646e-15 -1.353584e-17 -1 2.887646e-15 -1.353584e-17 1 -2.887646e-15 1.353584e-17 1 -2.887646e-15 1.353584e-17 1 -2.887646e-15 1.353584e-17 1 -2.887646e-15 1.353584e-17 0 0 0 0 0 0 -1.353584e-17 -3.158362e-16 1 -1.353584e-17 -3.158362e-16 1 -1.353584e-17 -3.158362e-16 1 -1.353584e-17 -3.158362e-16 1 1.353584e-17 3.158362e-16 -1 1.353584e-17 3.158362e-16 -1 1.353584e-17 3.158362e-16 -1 1.353584e-17 3.158362e-16 -1 0 0 0 1 -5.496568e-33 1.353584e-17 1 -5.496568e-33 1.353584e-17 1 -5.496568e-33 1.353584e-17 1 -5.496568e-33 1.353584e-17 -1 5.496568e-33 -1.353584e-17 -1 5.496568e-33 -1.353584e-17 -1 5.496568e-33 -1.353584e-17 -1 5.496568e-33 -1.353584e-17 0 0 0 1.299441e-15 -1 -3.158362e-16 1.299441e-15 -1 -3.158362e-16 1.299441e-15 -1 -3.158362e-16 1.299441e-15 -1 -3.158362e-16 -1.299441e-15 1 3.158362e-16 -1.299441e-15 1 3.158362e-16 -1.299441e-15 1 3.158362e-16 -1.299441e-15 1 3.158362e-16 -3.741249e-18 2.594369e-16 1 -3.741249e-18 2.594369e-16 1 -3.741249e-18 2.594369e-16 1 -3.741249e-18 2.594369e-16 1 -3.741249e-18 2.594369e-16 1 -3.741249e-18 2.594369e-16 1 3.741249e-18 -2.594369e-16 -1 3.741249e-18 -2.594369e-16 -1 3.741249e-18 -2.594369e-16 -1 3.741249e-18 -2.594369e-16 -1 3.741249e-18 -2.594369e-16 -1 3.741249e-18 -2.594369e-16 -1 0 0 0 0 0 0 0 0 0 0 0 0</float_array>
                    <technique_common>
                        <accessor count="166" source="#ID20" stride="3">
                            <param name="X" type="float" />
                            <param name="Y" type="float" />
                            <param name="Z" type="float" />
                        </accessor>
                    </technique_common>
                </source>
                <source id="ID12">
                    <Name_array id="ID22" count="0" />
                    <technique_common>
                        <accessor count="0" source="#ID22" stride="1">
                            <param name="skp_material" type="Name" />
                        </accessor>
                    </technique_common>
                </source>
                <source id="ID14">
                    <float_array id="ID21" count="116">12.1 3 10.9 3.04 10.9 3 19 3 12.25 3.04 12.25 3 19 6 10.75 3 4 6 4 3 10.75 3.04 12.1 3.04 19.00253 10.99772 4.002528 9.997724 19.00253 9.997724 4.002528 10.99772 15 10.7 16 9.7 16 10.7 15 9.7 19 7 4 7 8 9.7 7 10.7 7 9.7 8 10.7 18.99398 10.9935 3.993984 9.993505 18.99398 9.993505 3.993984 10.9935 4 9.75 4 11.25 4 14 19 9.75 19 14 19 11.25 19.00261 10.99708 4.002611 9.99708 19.00261 9.99708 4.002611 10.99708 7 10.7 8 9.7 8 10.7 7 9.7 4 15 19 15 16 9.7 15 10.7 15 9.7 16 10.7 18.9956 10.98805 3.995596 9.98805 18.9956 9.98805 3.995596 10.98805 10.75 18 4 18 12.25 18 19 18</float_array>
                    <technique_common>
                        <accessor count="58" source="#ID21" stride="2">
                            <param name="S" type="float" />
                            <param name="T" type="float" />
                        </accessor>
                    </technique_common>
                </source>
                <vertices id="ID13">
                    <input semantic="POSITION" source="#ID10" />
                    <input semantic="NORMAL" source="#ID11" />
                </vertices>
                <triangles count="40" material="Material2">
                    <input offset="0" semantic="VERTEX" source="#ID13" />
                    <input offset="1" semantic="TEXCOORD" source="#ID14" />
                    <p>0 0 1 1 2 2 3 3 4 4 5 5 4 4 3 3 6 6 7 7 8 8 9 9 8 8 7 7 10 10 8 8 10 10 6 6 6 6 10 10 1 1 6 6 1 1 11 11 11 11 1 1 0 0 6 6 11 11 4 4 36 12 37 13 38 14 37 13 36 12 39 15 46 16 47 17 48 18 47 17 46 16 49 19 56 8 57 20 58 21 57 20 56 8 59 6 65 22 66 23 67 24 66 23 65 22 68 25 74 26 75 27 76 28 75 27 74 26 77 29 82 20 83 30 84 21 83 30 82 20 85 31 85 31 82 20 86 32 86 32 82 20 87 33 87 33 88 34 86 32 88 34 87 33 89 35 104 36 105 37 106 38 105 37 104 36 107 39 114 40 115 41 116 42 115 41 114 40 117 43 124 34 125 44 126 32 125 44 124 34 127 45 133 46 134 47 135 48 134 47 133 46 136 49 142 50 143 51 144 52 143 51 142 50 145 53 150 44 151 54 152 55 151 54 150 44 153 45 151 54 153 45 154 56 154 56 153 45 155 57</p>
                </triangles>
                <triangles count="40" material="Material3">
                    <input offset="0" semantic="VERTEX" source="#ID13" />
                    <p>12 13 14 15 16 13 13 16 14 16 17 14 14 17 18 17 19 18 20 18 19 14 21 12 22 12 21 23 16 15 40 41 42 43 42 41 50 51 52 53 52 51 60 61 62 63 62 61 69 70 71 72 71 70 78 79 80 81 80 79 90 91 92 93 92 91 91 94 93 93 94 95 95 94 96 97 96 94 108 109 110 111 110 109 118 119 120 121 120 119 128 129 130 131 130 129 137 138 139 140 139 138 146 147 148 149 148 147 156 157 158 158 157 159 157 160 159 161 159 160</p>
                </triangles>
                <lines count="46" material="Material4">
                    <input offset="0" semantic="VERTEX" source="#ID13" />
                    <p>24 25 25 26 26 27 27 28 28 29 30 29 31 30 32 31 32 33 34 33 35 34 35 24 25 44 44 45 26 45 25 54 54 55 44 55 55 64 64 45 73 26 73 64 54 73 98 99 99 100 100 101 102 101 102 73 54 103 98 103 99 112 112 113 100 113 99 122 122 123 112 123 132 123 132 113 141 100 141 132 141 122 162 141 122 163 163 164 165 164 165 162</p>
                </lines>
            </mesh>
        </geometry>
    </library_geometries>
    <library_materials>
        <material id="ID5" name="material_1">
            <instance_effect url="#ID6" />
        </material>
        <material id="ID15" name="material_6">
            <instance_effect url="#ID16" />
        </material>
        <material id="ID17" name="edge_color0125129255">
            <instance_effect url="#ID18" />
        </material>
    </library_materials>
    <library_effects>
        <effect id="ID6">
            <profile_COMMON>
                <newparam sid="ID8">
                    <surface type="2D">
                        <init_from>ID7</init_from>
                    </surface>
                </newparam>
                <newparam sid="ID9">
                    <sampler2D>
                        <source>ID8</source>
                    </sampler2D>
                </newparam>
                <technique sid="COMMON">
                    <lambert>
                        <diffuse>
                            <texture texture="ID9" texcoord="UVSET0" />
                        </diffuse>
                    </lambert>
                </technique>
            </profile_COMMON>
        </effect>
        <effect id="ID16">
            <profile_COMMON>
                <technique sid="COMMON">
                    <lambert>
                        <diffuse>
                            <color>0 0.4901961 0.5058824 1</color>
                        </diffuse>
                    </lambert>
                </technique>
            </profile_COMMON>
        </effect>
        <effect id="ID18">
            <profile_COMMON>
                <technique sid="COMMON">
                    <constant>
                        <transparent opaque="A_ONE">
                            <color>0 0.4901961 0.5058824 1</color>
                        </transparent>
                        <transparency>
                            <float>1</float>
                        </transparency>
                    </constant>
                </technique>
            </profile_COMMON>
        </effect>
    </library_effects>
    <library_images>
        <image id="ID7">
            <init_from>Dungeon%20Floor%20Water%20=/material_1.png</init_from>
        </image>
    </library_images>
    <scene>
        <instance_visual_scene url="#ID2" />
    </scene>
</COLLADA>
