<?xml version="1.0" encoding="UTF-8" standalone="no" ?>
<COLLADA xmlns="http://www.collada.org/2005/11/COLLADASchema" version="1.4.1">
    <asset>
        <contributor>
            <authoring_tool>SketchUp 17.2.2555</authoring_tool>
        </contributor>
        <created>2017-10-04T19:27:37Z</created>
        <modified>2017-10-04T19:27:37Z</modified>
        <unit meter="0.0254" name="inch" />
        <up_axis>Z_UP</up_axis>
    </asset>
    <library_cameras>
        <camera id="ID1" name="skp_camera_Last_Saved_SketchUp_View">
            <optics>
                <technique_common>
                    <perspective>
                        <yfov>35</yfov>
                        <aspect_ratio>0</aspect_ratio>
                        <znear>1</znear>
                        <zfar>1000</zfar>
                    </perspective>
                </technique_common>
            </optics>
        </camera>
    </library_cameras>
    <library_visual_scenes>
        <visual_scene id="ID2">
            <node name="SketchUp">
                <node name="skp_camera_Last_Saved_SketchUp_View">
                    <matrix>0.00263538 -0.8082933 0.5887741 727.1714 0.9999965 0.002130168 -0.001551649 -1.282673 -2.168404e-19 0.5887762 0.8082961 912.8209 0 0 0 1</matrix>
                    <instance_camera url="#ID1" />
                </node>
                <node id="ID3" name="group_0">
                    <matrix>1 0 0 -295.2756 0 1 0 -295.2756 0 0 1 7.874016 0 0 0 1</matrix>
                    <instance_geometry url="#ID4">
                        <bind_material>
                            <technique_common>
                                <instance_material symbol="Material2" target="#ID5">
                                    <bind_vertex_input semantic="UVSET0" input_semantic="TEXCOORD" input_set="0" />
                                </instance_material>
                                <instance_material symbol="Material3" target="#ID15">
                                    <bind_vertex_input semantic="UVSET0" input_semantic="TEXCOORD" input_set="0" />
                                </instance_material>
                                <instance_material symbol="Material4" target="#ID17">
                                    <bind_vertex_input semantic="UVSET0" input_semantic="TEXCOORD" input_set="0" />
                                </instance_material>
                            </technique_common>
                        </bind_material>
                    </instance_geometry>
                </node>
            </node>
        </visual_scene>
    </library_visual_scenes>
    <library_geometries>
        <geometry id="ID4">
            <mesh>
                <source id="ID10">
                    <float_array id="ID19" count="126">590.5512 2.387424e-12 0 590.5512 265.748 0 324.8031 5.684342e-14 0 265.748 4.547474e-13 0 0 265.748 0 0 1.136868e-13 0 0 324.8031 0 0 590.5512 0 265.748 590.5512 0 324.8031 590.5512 0 271.6535 4.547474e-13 0 318.8976 5.684342e-14 0 590.5512 590.5512 0 590.5512 324.8031 0 590.5512 324.8031 0 590.5512 265.748 0 590.5512 590.5512 0 324.8031 5.684342e-14 0 324.8031 590.5512 0 318.8976 5.684342e-14 0 271.6535 4.547474e-13 0 265.748 4.547474e-13 0 265.748 590.5512 0 0 590.5512 0 0 324.8031 0 0 265.748 0 0 1.136868e-13 0 590.5512 2.387424e-12 0 0 265.748 0 0 1.136868e-13 0 265.748 4.547474e-13 0 271.6535 4.547474e-13 0 318.8976 5.684342e-14 0 324.8031 5.684342e-14 0 590.5512 2.387424e-12 0 590.5512 265.748 0 590.5512 324.8031 0 590.5512 590.5512 0 324.8031 590.5512 0 265.748 590.5512 0 0 590.5512 0 0 324.8031 0</float_array>
                    <technique_common>
                        <accessor count="42" source="#ID19" stride="3">
                            <param name="X" type="float" />
                            <param name="Y" type="float" />
                            <param name="Z" type="float" />
                        </accessor>
                    </technique_common>
                </source>
                <source id="ID11">
                    <float_array id="ID20" count="126">0 0 1 0 0 1 0 0 1 0 0 1 0 0 1 0 0 1 0 0 1 0 0 1 0 0 1 0 0 1 0 0 1 0 0 1 0 0 1 0 0 1 -0 -0 -1 -0 -0 -1 -0 -0 -1 -0 -0 -1 -0 -0 -1 -0 -0 -1 -0 -0 -1 -0 -0 -1 -0 -0 -1 -0 -0 -1 -0 -0 -1 -0 -0 -1 -0 -0 -1 -0 -0 -1 0 0 0 0 0 0 0 0 0 0 0 0 0 0 0 0 0 0 0 0 0 0 0 0 0 0 0 0 0 0 0 0 0 0 0 0 0 0 0 0 0 0</float_array>
                    <technique_common>
                        <accessor count="42" source="#ID20" stride="3">
                            <param name="X" type="float" />
                            <param name="Y" type="float" />
                            <param name="Z" type="float" />
                        </accessor>
                    </technique_common>
                </source>
                <source id="ID12">
                    <Name_array id="ID22" count="0" />
                    <technique_common>
                        <accessor count="0" source="#ID22" stride="1">
                            <param name="skp_material" type="Name" />
                        </accessor>
                    </technique_common>
                </source>
                <source id="ID14">
                    <float_array id="ID21" count="28">19 3 19 9.75 12.25 3 10.75 3 4 9.75 4 3 4 11.25 4 18 10.75 18 12.25 18 10.9 3 12.1 3 19 18 19 11.25</float_array>
                    <technique_common>
                        <accessor count="14" source="#ID21" stride="2">
                            <param name="S" type="float" />
                            <param name="T" type="float" />
                        </accessor>
                    </technique_common>
                </source>
                <vertices id="ID13">
                    <input semantic="POSITION" source="#ID10" />
                    <input semantic="NORMAL" source="#ID11" />
                </vertices>
                <triangles count="12" material="Material2">
                    <input offset="0" semantic="VERTEX" source="#ID13" />
                    <input offset="1" semantic="TEXCOORD" source="#ID14" />
                    <p>0 0 1 1 2 2 3 3 4 4 5 5 4 4 3 3 6 6 6 6 3 3 7 7 7 7 3 3 8 8 8 8 3 3 9 9 9 9 3 3 10 10 9 9 10 10 11 11 9 9 11 11 2 2 9 9 2 2 12 12 12 12 2 2 1 1 12 12 1 1 13 13</p>
                </triangles>
                <triangles count="12" material="Material3">
                    <input offset="0" semantic="VERTEX" source="#ID13" />
                    <p>14 15 16 15 17 16 16 17 18 17 19 18 19 20 18 20 21 18 18 21 22 22 21 23 23 21 24 24 21 25 26 25 21 17 15 27</p>
                </triangles>
                <lines count="14" material="Material4">
                    <input offset="0" semantic="VERTEX" source="#ID13" />
                    <p>28 29 29 30 31 30 32 31 33 32 33 34 34 35 36 35 36 37 37 38 39 38 39 40 40 41 28 41</p>
                </lines>
            </mesh>
        </geometry>
    </library_geometries>
    <library_materials>
        <material id="ID5" name="material_1">
            <instance_effect url="#ID6" />
        </material>
        <material id="ID15" name="material_6">
            <instance_effect url="#ID16" />
        </material>
        <material id="ID17" name="edge_color0125129255">
            <instance_effect url="#ID18" />
        </material>
    </library_materials>
    <library_effects>
        <effect id="ID6">
            <profile_COMMON>
                <newparam sid="ID8">
                    <surface type="2D">
                        <init_from>ID7</init_from>
                    </surface>
                </newparam>
                <newparam sid="ID9">
                    <sampler2D>
                        <source>ID8</source>
                    </sampler2D>
                </newparam>
                <technique sid="COMMON">
                    <lambert>
                        <diffuse>
                            <texture texture="ID9" texcoord="UVSET0" />
                        </diffuse>
                    </lambert>
                </technique>
            </profile_COMMON>
        </effect>
        <effect id="ID16">
            <profile_COMMON>
                <technique sid="COMMON">
                    <lambert>
                        <diffuse>
                            <color>0 0.4901961 0.5058824 1</color>
                        </diffuse>
                    </lambert>
                </technique>
            </profile_COMMON>
        </effect>
        <effect id="ID18">
            <profile_COMMON>
                <technique sid="COMMON">
                    <constant>
                        <transparent opaque="A_ONE">
                            <color>0 0.4901961 0.5058824 1</color>
                        </transparent>
                        <transparency>
                            <float>1</float>
                        </transparency>
                    </constant>
                </technique>
            </profile_COMMON>
        </effect>
    </library_effects>
    <library_images>
        <image id="ID7">
            <init_from>Dungeon%20Floor/material_1.png</init_from>
        </image>
    </library_images>
    <scene>
        <instance_visual_scene url="#ID2" />
    </scene>
</COLLADA>
