<?xml version="1.0" encoding="UTF-8" standalone="no" ?>
<COLLADA xmlns="http://www.collada.org/2005/11/COLLADASchema" version="1.4.1">
    <asset>
        <contributor>
            <authoring_tool>SketchUp 17.2.2555</authoring_tool>
        </contributor>
        <created>2017-10-05T16:38:33Z</created>
        <modified>2017-10-05T16:38:33Z</modified>
        <unit meter="0.0254" name="inch" />
        <up_axis>Z_UP</up_axis>
    </asset>
    <library_cameras>
        <camera id="ID1" name="skp_camera_Last_Saved_SketchUp_View">
            <optics>
                <technique_common>
                    <perspective>
                        <yfov>35</yfov>
                        <aspect_ratio>0</aspect_ratio>
                        <znear>1</znear>
                        <zfar>1000</zfar>
                    </perspective>
                </technique_common>
            </optics>
        </camera>
    </library_cameras>
    <library_visual_scenes>
        <visual_scene id="ID2">
            <node name="SketchUp">
                <node name="skp_camera_Last_Saved_SketchUp_View">
                    <matrix>0.01870108 0.9131553 -0.4071825 -487.7298 -0.9998251 0.01707998 -0.007616084 -4.308912 0 0.4072537 0.9133151 1001.065 0 0 0 1</matrix>
                    <instance_camera url="#ID1" />
                </node>
                <node id="ID3" name="group_0">
                    <matrix>1 0 0 -295.2756 0 1 0 -295.2756 0 0 1 7.874016 0 0 0 1</matrix>
                    <instance_geometry url="#ID4">
                        <bind_material>
                            <technique_common>
                                <instance_material symbol="Material2" target="#ID5">
                                    <bind_vertex_input semantic="UVSET0" input_semantic="TEXCOORD" input_set="0" />
                                </instance_material>
                                <instance_material symbol="Material3" target="#ID15">
                                    <bind_vertex_input semantic="UVSET0" input_semantic="TEXCOORD" input_set="0" />
                                </instance_material>
                                <instance_material symbol="Material4" target="#ID17">
                                    <bind_vertex_input semantic="UVSET0" input_semantic="TEXCOORD" input_set="0" />
                                </instance_material>
                            </technique_common>
                        </bind_material>
                    </instance_geometry>
                    <instance_geometry url="#ID23">
                        <bind_material>
                            <technique_common>
                                <instance_material symbol="Material2" target="#ID5">
                                    <bind_vertex_input semantic="UVSET0" input_semantic="TEXCOORD" input_set="0" />
                                </instance_material>
                                <instance_material symbol="Material3" target="#ID15">
                                    <bind_vertex_input semantic="UVSET0" input_semantic="TEXCOORD" input_set="0" />
                                </instance_material>
                                <instance_material symbol="Material4" target="#ID17">
                                    <bind_vertex_input semantic="UVSET0" input_semantic="TEXCOORD" input_set="0" />
                                </instance_material>
                            </technique_common>
                        </bind_material>
                    </instance_geometry>
                </node>
            </node>
        </visual_scene>
    </library_visual_scenes>
    <library_geometries>
        <geometry id="ID4">
            <mesh>
                <source id="ID10">
                    <float_array id="ID19" count="1812">78.74016 236.2205 0 0 265.748 0 0 236.2205 0 0 324.8031 0 0 354.3307 0 78.74016 354.3307 0 78.74016 354.3307 0 78.74016 236.2205 0 0 354.3307 0 0 324.8031 0 0 265.748 0 0 236.2205 0 0 265.748 0 0 236.2205 0 78.74016 236.2205 0 78.74016 354.3307 0 0 354.3307 0 0 324.8031 0 78.74016 236.2205 0 0 236.2205 -39.37008 78.74016 236.2205 -39.37008 0 236.2205 0 0 236.2205 0 78.74016 236.2205 0 0 236.2205 -39.37008 78.74016 236.2205 -39.37008 0 236.2205 -39.37008 78.74016 236.2205 -39.37008 78.74016 354.3307 -39.37008 78.74016 236.2205 0 78.74016 236.2205 -39.37008 78.74016 354.3307 0 78.74016 354.3307 0 78.74016 354.3307 -39.37008 78.74016 236.2205 0 78.74016 236.2205 -39.37008 78.74016 354.3307 -39.37008 0 354.3307 0 78.74016 354.3307 -39.37008 0 354.3307 -39.37008 78.74016 354.3307 0 78.74016 354.3307 0 0 354.3307 0 78.74016 354.3307 -39.37008 0 354.3307 -39.37008 0 354.3307 -39.37008 0 236.2205 -39.37008 0 1.136868e-13 0 0 1.136868e-13 -39.37008 0 236.2205 0 0 236.2205 0 0 236.2205 -39.37008 0 1.136868e-13 0 0 1.136868e-13 -39.37008 0 1.136868e-13 0 0 1.136868e-13 -39.37008 0 1.136868e-13 -39.37008 39.37008 39.37008 -39.37008 0 236.2205 -39.37008 236.2205 3.979039e-13 -39.37008 236.2205 39.37008 -39.37008 236.2205 354.3307 -39.37008 236.2205 433.0709 -39.37008 118.1102 354.3307 -39.37008 118.1102 393.7008 -39.37008 118.1102 472.4409 -39.37008 118.1102 433.0709 -39.37008 433.0709 472.4409 -39.37008 354.3307 433.0709 -39.37008 354.3307 354.3307 -39.37008 472.4409 354.3307 -39.37008 472.4409 472.4409 -39.37008 472.4409 393.7008 -39.37008 472.4409 236.2205 -39.37008 39.37008 196.8504 -39.37008 78.74016 236.2205 -39.37008 118.1102 196.8504 -39.37008 118.1102 236.2205 -39.37008 236.2205 236.2205 -39.37008 118.1102 118.1102 -39.37008 236.2205 157.4803 -39.37008 472.4409 118.1102 -39.37008 354.3307 157.4803 -39.37008 354.3307 236.2205 -39.37008 472.4409 196.8504 -39.37008 354.3307 3.410605e-13 -39.37008 551.1811 39.37008 -39.37008 354.3307 39.37008 -39.37008 590.5512 2.387424e-12 -39.37008 551.1811 196.8504 -39.37008 590.5512 236.2205 -39.37008 511.811 236.2205 -39.37008 511.811 354.3307 -39.37008 551.1811 393.7008 -39.37008 590.5512 354.3307 -39.37008 551.1811 551.1811 -39.37008 354.3307 590.5512 -39.37008 354.3307 551.1811 -39.37008 590.5512 590.5512 -39.37008 0 354.3307 -39.37008 39.37008 393.7008 -39.37008 0 590.5512 -39.37008 78.74016 354.3307 -39.37008 39.37008 551.1811 -39.37008 39.37008 433.0709 -39.37008 236.2205 590.5512 -39.37008 236.2205 551.1811 -39.37008 236.2205 551.1811 -39.37008 39.37008 551.1811 -39.37008 236.2205 590.5512 -39.37008 0 590.5512 -39.37008 39.37008 393.7008 -39.37008 39.37008 433.0709 -39.37008 78.74016 236.2205 -39.37008 78.74016 354.3307 -39.37008 118.1102 393.7008 -39.37008 0 354.3307 -39.37008 590.5512 354.3307 -39.37008 551.1811 393.7008 -39.37008 590.5512 590.5512 -39.37008 551.1811 551.1811 -39.37008 354.3307 590.5512 -39.37008 354.3307 551.1811 -39.37008 511.811 354.3307 -39.37008 472.4409 196.8504 -39.37008 472.4409 393.7008 -39.37008 590.5512 236.2205 -39.37008 551.1811 196.8504 -39.37008 511.811 236.2205 -39.37008 590.5512 2.387424e-12 -39.37008 551.1811 39.37008 -39.37008 354.3307 3.410605e-13 -39.37008 354.3307 39.37008 -39.37008 472.4409 236.2205 -39.37008 472.4409 118.1102 -39.37008 354.3307 236.2205 -39.37008 354.3307 157.4803 -39.37008 236.2205 157.4803 -39.37008 118.1102 118.1102 -39.37008 236.2205 236.2205 -39.37008 118.1102 196.8504 -39.37008 118.1102 236.2205 -39.37008 118.1102 354.3307 -39.37008 39.37008 196.8504 -39.37008 39.37008 39.37008 -39.37008 0 236.2205 -39.37008 472.4409 354.3307 -39.37008 472.4409 472.4409 -39.37008 433.0709 472.4409 -39.37008 354.3307 354.3307 -39.37008 354.3307 433.0709 -39.37008 236.2205 433.0709 -39.37008 118.1102 472.4409 -39.37008 118.1102 433.0709 -39.37008 236.2205 354.3307 -39.37008 236.2205 39.37008 -39.37008 236.2205 3.979039e-13 -39.37008 0 1.136868e-13 -39.37008 433.0709 472.4409 -39.37008 472.4409 472.4409 -39.37008 118.1102 472.4409 -39.37008 118.1102 433.0709 -39.37008 118.1102 393.7008 -39.37008 39.37008 393.7008 -39.37008 39.37008 433.0709 -39.37008 39.37008 551.1811 -39.37008 236.2205 551.1811 -39.37008 236.2205 590.5512 -39.37008 0 590.5512 -39.37008 236.2205 3.979039e-13 -39.37008 236.2205 39.37008 -39.37008 39.37008 39.37008 -39.37008 39.37008 196.8504 -39.37008 118.1102 196.8504 -39.37008 118.1102 118.1102 -39.37008 472.4409 118.1102 -39.37008 472.4409 196.8504 -39.37008 551.1811 196.8504 -39.37008 551.1811 39.37008 -39.37008 354.3307 39.37008 -39.37008 354.3307 3.410605e-13 -39.37008 590.5512 2.387424e-12 -39.37008 590.5512 236.2205 -39.37008 511.811 236.2205 -39.37008 511.811 354.3307 -39.37008 590.5512 354.3307 -39.37008 590.5512 590.5512 -39.37008 354.3307 590.5512 -39.37008 354.3307 551.1811 -39.37008 551.1811 551.1811 -39.37008 551.1811 393.7008 -39.37008 472.4409 393.7008 -39.37008 236.2205 236.2205 -39.37008 118.1102 236.2205 -39.37008 118.1102 354.3307 -39.37008 236.2205 354.3307 -39.37008 236.2205 433.0709 -39.37008 354.3307 433.0709 -39.37008 354.3307 354.3307 -39.37008 472.4409 354.3307 -39.37008 472.4409 236.2205 -39.37008 354.3307 236.2205 -39.37008 354.3307 157.4803 -39.37008 236.2205 157.4803 -39.37008 0 590.5512 -39.37008 0 354.3307 0 0 354.3307 -39.37008 0 590.5512 0 0 590.5512 0 0 590.5512 -39.37008 0 354.3307 0 0 354.3307 -39.37008 0 590.5512 0 0 1.136868e-13 0 236.2205 3.979039e-13 -39.37008 0 1.136868e-13 -39.37008 236.2205 3.979039e-13 0 236.2205 3.979039e-13 0 0 1.136868e-13 0 236.2205 3.979039e-13 -39.37008 0 1.136868e-13 -39.37008 236.2205 3.979039e-13 0 472.4409 472.4409 -39.37008 433.0709 472.4409 1.598721e-14 433.0709 472.4409 -39.37008 472.4409 472.4409 2.398082e-14 472.4409 472.4409 2.398082e-14 472.4409 472.4409 -39.37008 433.0709 472.4409 1.598721e-14 433.0709 472.4409 -39.37008 433.0709 472.4409 1.598721e-14 472.4409 472.4409 2.398082e-14 433.0709 472.4409 1.598721e-14 118.1102 472.4409 -39.37008 433.0709 472.4409 -39.37008 118.1102 472.4409 3.197442e-14 118.1102 472.4409 3.197442e-14 433.0709 472.4409 1.598721e-14 118.1102 472.4409 -39.37008 433.0709 472.4409 -39.37008 118.1102 472.4409 3.197442e-14 118.1102 472.4409 -39.37008 118.1102 433.0709 1.509903e-14 118.1102 433.0709 -39.37008 118.1102 472.4409 3.197442e-14 118.1102 472.4409 3.197442e-14 118.1102 472.4409 -39.37008 118.1102 433.0709 1.509903e-14 118.1102 433.0709 -39.37008 118.1102 433.0709 1.509903e-14 118.1102 433.0709 -39.37008 118.1102 393.7008 1.24345e-14 118.1102 393.7008 -39.37008 118.1102 433.0709 1.509903e-14 118.1102 433.0709 1.509903e-14 118.1102 433.0709 -39.37008 118.1102 393.7008 1.24345e-14 118.1102 393.7008 -39.37008 118.1102 393.7008 1.24345e-14 118.1102 393.7008 1.24345e-14 39.37008 393.7008 -39.37008 118.1102 393.7008 -39.37008 39.37008 393.7008 2.398082e-14 39.37008 393.7008 2.398082e-14 118.1102 393.7008 1.24345e-14 39.37008 393.7008 -39.37008 118.1102 393.7008 -39.37008 39.37008 393.7008 2.398082e-14 39.37008 433.0709 3.019807e-14 39.37008 393.7008 -39.37008 39.37008 393.7008 2.398082e-14 39.37008 433.0709 -39.37008 39.37008 433.0709 -39.37008 39.37008 433.0709 3.019807e-14 39.37008 393.7008 -39.37008 39.37008 393.7008 2.398082e-14 39.37008 433.0709 3.019807e-14 39.37008 551.1811 1.24345e-14 39.37008 433.0709 -39.37008 39.37008 433.0709 3.019807e-14 39.37008 551.1811 -39.37008 39.37008 551.1811 -39.37008 39.37008 551.1811 1.24345e-14 39.37008 433.0709 -39.37008 39.37008 433.0709 3.019807e-14 39.37008 551.1811 1.24345e-14 39.37008 551.1811 1.24345e-14 236.2205 551.1811 -39.37008 39.37008 551.1811 -39.37008 236.2205 551.1811 2.398082e-14 236.2205 551.1811 2.398082e-14 39.37008 551.1811 1.24345e-14 236.2205 551.1811 -39.37008 39.37008 551.1811 -39.37008 236.2205 551.1811 2.398082e-14 236.2205 590.5512 0 236.2205 551.1811 -39.37008 236.2205 551.1811 2.398082e-14 236.2205 590.5512 -39.37008 236.2205 590.5512 -39.37008 236.2205 590.5512 0 236.2205 551.1811 -39.37008 236.2205 551.1811 2.398082e-14 236.2205 590.5512 0 236.2205 590.5512 0 0 590.5512 -39.37008 236.2205 590.5512 -39.37008 0 590.5512 0 0 590.5512 0 236.2205 590.5512 0 0 590.5512 -39.37008 236.2205 590.5512 -39.37008 236.2205 39.37008 0 236.2205 3.979039e-13 -39.37008 236.2205 3.979039e-13 0 236.2205 39.37008 -39.37008 236.2205 39.37008 -39.37008 236.2205 39.37008 0 236.2205 3.979039e-13 -39.37008 236.2205 3.979039e-13 0 236.2205 39.37008 0 236.2205 39.37008 0 39.37008 39.37008 -39.37008 236.2205 39.37008 -39.37008 39.37008 39.37008 0 39.37008 39.37008 0 236.2205 39.37008 0 39.37008 39.37008 -39.37008 236.2205 39.37008 -39.37008 39.37008 39.37008 0 39.37008 196.8504 0 39.37008 39.37008 -39.37008 39.37008 39.37008 0 39.37008 196.8504 -39.37008 39.37008 196.8504 -39.37008 39.37008 196.8504 0 39.37008 39.37008 -39.37008 39.37008 39.37008 0 39.37008 196.8504 0 39.37008 196.8504 0 118.1102 196.8504 -39.37008 39.37008 196.8504 -39.37008 118.1102 196.8504 0 118.1102 196.8504 0 39.37008 196.8504 0 118.1102 196.8504 -39.37008 39.37008 196.8504 -39.37008 118.1102 196.8504 0 118.1102 196.8504 -39.37008 118.1102 118.1102 0 118.1102 118.1102 -39.37008 118.1102 196.8504 0 118.1102 196.8504 0 118.1102 196.8504 -39.37008 118.1102 118.1102 0 118.1102 118.1102 -39.37008 118.1102 118.1102 0 118.1102 118.1102 0 472.4409 118.1102 -39.37008 118.1102 118.1102 -39.37008 472.4409 118.1102 0 472.4409 118.1102 0 118.1102 118.1102 0 472.4409 118.1102 -39.37008 118.1102 118.1102 -39.37008 472.4409 118.1102 0 472.4409 196.8504 0 472.4409 118.1102 -39.37008 472.4409 118.1102 0 472.4409 196.8504 -39.37008 472.4409 196.8504 -39.37008 472.4409 196.8504 0 472.4409 118.1102 -39.37008 472.4409 118.1102 0 472.4409 196.8504 0 472.4409 196.8504 0 551.1811 196.8504 -39.37008 472.4409 196.8504 -39.37008 551.1811 196.8504 0 551.1811 196.8504 0 472.4409 196.8504 0 551.1811 196.8504 -39.37008 472.4409 196.8504 -39.37008 551.1811 196.8504 0 551.1811 196.8504 -39.37008 551.1811 39.37008 0 551.1811 39.37008 -39.37008 551.1811 196.8504 0 551.1811 196.8504 0 551.1811 196.8504 -39.37008 551.1811 39.37008 0 551.1811 39.37008 -39.37008 551.1811 39.37008 0 551.1811 39.37008 0 354.3307 39.37008 -39.37008 551.1811 39.37008 -39.37008 354.3307 39.37008 0 354.3307 39.37008 0 551.1811 39.37008 0 354.3307 39.37008 -39.37008 551.1811 39.37008 -39.37008 354.3307 39.37008 0 354.3307 39.37008 -39.37008 354.3307 3.410605e-13 0 354.3307 3.410605e-13 -39.37008 354.3307 39.37008 0 354.3307 39.37008 0 354.3307 39.37008 -39.37008 354.3307 3.410605e-13 0 354.3307 3.410605e-13 -39.37008 354.3307 3.410605e-13 0 354.3307 3.410605e-13 0 590.5512 2.387424e-12 -39.37008 354.3307 3.410605e-13 -39.37008 590.5512 2.387424e-12 0 590.5512 2.387424e-12 0 354.3307 3.410605e-13 0 590.5512 2.387424e-12 -39.37008 354.3307 3.410605e-13 -39.37008 590.5512 2.387424e-12 0 590.5512 236.2205 0 590.5512 2.387424e-12 -39.37008 590.5512 2.387424e-12 0 590.5512 236.2205 -39.37008 590.5512 236.2205 -39.37008 590.5512 236.2205 0 590.5512 2.387424e-12 -39.37008 590.5512 2.387424e-12 0 590.5512 236.2205 0 590.5512 236.2205 0 511.811 236.2205 -39.37008 590.5512 236.2205 -39.37008 511.811 236.2205 0 511.811 236.2205 0 590.5512 236.2205 0 511.811 236.2205 -39.37008 590.5512 236.2205 -39.37008 511.811 236.2205 0 511.811 354.3307 0 511.811 236.2205 -39.37008 511.811 236.2205 0 511.811 354.3307 -39.37008 511.811 354.3307 -39.37008 511.811 354.3307 0 511.811 236.2205 -39.37008 511.811 236.2205 0 511.811 354.3307 0 511.811 354.3307 0 590.5512 354.3307 -39.37008 511.811 354.3307 -39.37008 590.5512 354.3307 0 590.5512 354.3307 0 511.811 354.3307 0 590.5512 354.3307 -39.37008 511.811 354.3307 -39.37008 590.5512 354.3307 0 590.5512 590.5512 0 590.5512 354.3307 -39.37008 590.5512 354.3307 0 590.5512 590.5512 -39.37008 590.5512 590.5512 -39.37008 590.5512 590.5512 0 590.5512 354.3307 -39.37008 590.5512 354.3307 0 590.5512 590.5512 0 590.5512 590.5512 0 354.3307 590.5512 -39.37008 590.5512 590.5512 -39.37008 354.3307 590.5512 6.217249e-15 354.3307 590.5512 6.217249e-15 590.5512 590.5512 0 354.3307 590.5512 -39.37008 590.5512 590.5512 -39.37008 354.3307 590.5512 6.217249e-15 354.3307 590.5512 -39.37008 354.3307 551.1811 1.24345e-14 354.3307 551.1811 -39.37008 354.3307 590.5512 6.217249e-15 354.3307 590.5512 6.217249e-15 354.3307 590.5512 -39.37008 354.3307 551.1811 1.24345e-14 354.3307 551.1811 -39.37008 354.3307 551.1811 1.24345e-14 354.3307 551.1811 1.24345e-14 551.1811 551.1811 -39.37008 354.3307 551.1811 -39.37008 551.1811 551.1811 2.398082e-14 551.1811 551.1811 2.398082e-14 354.3307 551.1811 1.24345e-14 551.1811 551.1811 -39.37008 354.3307 551.1811 -39.37008 551.1811 551.1811 2.398082e-14 551.1811 551.1811 -39.37008 551.1811 393.7008 1.24345e-14 551.1811 393.7008 -39.37008 551.1811 551.1811 2.398082e-14 551.1811 551.1811 2.398082e-14 551.1811 551.1811 -39.37008 551.1811 393.7008 1.24345e-14 551.1811 393.7008 -39.37008 551.1811 393.7008 1.24345e-14 551.1811 393.7008 1.24345e-14 472.4409 393.7008 -39.37008 551.1811 393.7008 -39.37008 472.4409 393.7008 2.4869e-14 472.4409 393.7008 2.4869e-14 551.1811 393.7008 1.24345e-14 472.4409 393.7008 -39.37008 551.1811 393.7008 -39.37008 472.4409 393.7008 2.4869e-14 472.4409 472.4409 2.398082e-14 472.4409 393.7008 -39.37008 472.4409 393.7008 2.4869e-14 472.4409 472.4409 -39.37008 472.4409 472.4409 -39.37008 472.4409 472.4409 2.398082e-14 472.4409 393.7008 -39.37008 472.4409 393.7008 2.4869e-14 118.1102 393.7008 1.24345e-14 39.37008 433.0709 3.019807e-14 39.37008 393.7008 2.398082e-14 118.1102 433.0709 1.509903e-14 265.748 590.5512 0 236.2205 590.5512 0 236.2205 551.1811 2.398082e-14 39.37008 551.1811 1.24345e-14 118.1102 472.4409 3.197442e-14 433.0709 472.4409 1.598721e-14 354.3307 551.1811 1.24345e-14 324.8031 590.5512 0 551.1811 551.1811 2.398082e-14 472.4409 472.4409 2.398082e-14 472.4409 393.7008 2.4869e-14 551.1811 393.7008 1.24345e-14 354.3307 590.5512 6.217249e-15 354.3307 551.1811 1.24345e-14 324.8031 590.5512 0 354.3307 590.5512 6.217249e-15 551.1811 393.7008 1.24345e-14 472.4409 393.7008 2.4869e-14 551.1811 551.1811 2.398082e-14 472.4409 472.4409 2.398082e-14 433.0709 472.4409 1.598721e-14 265.748 590.5512 0 236.2205 551.1811 2.398082e-14 118.1102 472.4409 3.197442e-14 118.1102 433.0709 1.509903e-14 39.37008 433.0709 3.019807e-14 39.37008 551.1811 1.24345e-14 236.2205 590.5512 0 118.1102 393.7008 1.24345e-14 39.37008 393.7008 2.398082e-14 324.8031 590.5512 0 265.748 590.5512 0 354.3307 3.410605e-13 0 354.3307 39.37008 0 324.8031 5.684342e-14 0 39.37008 39.37008 0 118.1102 118.1102 0 39.37008 196.8504 0 236.2205 39.37008 0 118.1102 196.8504 0 472.4409 118.1102 0 236.2205 3.979039e-13 0 265.748 4.547474e-13 0 271.6535 4.547474e-13 0 318.8976 5.684342e-14 0 551.1811 39.37008 0 551.1811 196.8504 0 472.4409 196.8504 0 551.1811 39.37008 0 472.4409 118.1102 0 551.1811 196.8504 0 472.4409 196.8504 0 354.3307 39.37008 0 324.8031 5.684342e-14 0 318.8976 5.684342e-14 0 271.6535 4.547474e-13 0 265.748 4.547474e-13 0 236.2205 3.979039e-13 0 236.2205 39.37008 0 118.1102 118.1102 0 118.1102 196.8504 0 39.37008 196.8504 0 39.37008 39.37008 0 354.3307 3.410605e-13 0 324.8031 5.684342e-14 0 265.748 4.547474e-13 0 271.6535 4.547474e-13 0 318.8976 5.684342e-14 0 590.5512 236.2205 0 590.5512 265.748 0 511.811 236.2205 0 590.5512 354.3307 0 511.811 354.3307 0 590.5512 324.8031 0 590.5512 324.8031 0 590.5512 265.748 0 590.5512 354.3307 0 511.811 236.2205 0 511.811 354.3307 0 590.5512 236.2205 0 590.5512 324.8031 0 590.5512 265.748 0</float_array>
                    <technique_common>
                        <accessor count="604" source="#ID19" stride="3">
                            <param name="X" type="float" />
                            <param name="Y" type="float" />
                            <param name="Z" type="float" />
                        </accessor>
                    </technique_common>
                </source>
                <source id="ID11">
                    <float_array id="ID20" count="1812">0 0 1 0 0 1 0 0 1 0 0 1 0 0 1 0 0 1 -0 -0 -1 -0 -0 -1 -0 -0 -1 -0 -0 -1 -0 -0 -1 -0 -0 -1 0 0 0 0 0 0 0 0 0 0 0 0 0 0 0 0 0 0 1.173106e-15 -1 -2.707689e-17 1.173106e-15 -1 -2.707689e-17 1.173106e-15 -1 -2.707689e-17 1.173106e-15 -1 -2.707689e-17 -1.173106e-15 1 2.707689e-17 -1.173106e-15 1 2.707689e-17 -1.173106e-15 1 2.707689e-17 -1.173106e-15 1 2.707689e-17 0 0 0 0 0 0 1 3.850194e-15 -4.544501e-18 1 3.850194e-15 -4.544501e-18 1 3.850194e-15 -4.544501e-18 1 3.850194e-15 -4.544501e-18 -1 -3.850194e-15 4.544501e-18 -1 -3.850194e-15 4.544501e-18 -1 -3.850194e-15 4.544501e-18 -1 -3.850194e-15 4.544501e-18 0 0 0 -9.023893e-17 1 2.707689e-17 -9.023893e-17 1 2.707689e-17 -9.023893e-17 1 2.707689e-17 -9.023893e-17 1 2.707689e-17 9.023893e-17 -1 -2.707689e-17 9.023893e-17 -1 -2.707689e-17 9.023893e-17 -1 -2.707689e-17 9.023893e-17 -1 -2.707689e-17 0 0 0 1 0 -4.544501e-18 1 0 -4.544501e-18 1 0 -4.544501e-18 1 0 -4.544501e-18 -1 -0 4.544501e-18 -1 -0 4.544501e-18 -1 -0 4.544501e-18 -1 -0 4.544501e-18 0 0 0 0 0 0 6.678394e-19 -3.182834e-17 1 6.678394e-19 -3.182834e-17 1 6.678394e-19 -3.182834e-17 1 6.678394e-19 -3.182834e-17 1 6.678394e-19 -3.182834e-17 1 6.678394e-19 -3.182834e-17 1 6.678394e-19 -3.182834e-17 1 6.678394e-19 -3.182834e-17 1 6.678394e-19 -3.182834e-17 1 6.678394e-19 -3.182834e-17 1 6.678394e-19 -3.182834e-17 1 6.678394e-19 -3.182834e-17 1 6.678394e-19 -3.182834e-17 1 6.678394e-19 -3.182834e-17 1 6.678394e-19 -3.182834e-17 1 6.678394e-19 -3.182834e-17 1 6.678394e-19 -3.182834e-17 1 6.678394e-19 -3.182834e-17 1 6.678394e-19 -3.182834e-17 1 6.678394e-19 -3.182834e-17 1 6.678394e-19 -3.182834e-17 1 6.678394e-19 -3.182834e-17 1 6.678394e-19 -3.182834e-17 1 6.678394e-19 -3.182834e-17 1 6.678394e-19 -3.182834e-17 1 6.678394e-19 -3.182834e-17 1 6.678394e-19 -3.182834e-17 1 6.678394e-19 -3.182834e-17 1 6.678394e-19 -3.182834e-17 1 6.678394e-19 -3.182834e-17 1 6.678394e-19 -3.182834e-17 1 6.678394e-19 -3.182834e-17 1 6.678394e-19 -3.182834e-17 1 6.678394e-19 -3.182834e-17 1 6.678394e-19 -3.182834e-17 1 6.678394e-19 -3.182834e-17 1 6.678394e-19 -3.182834e-17 1 6.678394e-19 -3.182834e-17 1 6.678394e-19 -3.182834e-17 1 6.678394e-19 -3.182834e-17 1 6.678394e-19 -3.182834e-17 1 6.678394e-19 -3.182834e-17 1 6.678394e-19 -3.182834e-17 1 6.678394e-19 -3.182834e-17 1 6.678394e-19 -3.182834e-17 1 6.678394e-19 -3.182834e-17 1 6.678394e-19 -3.182834e-17 1 6.678394e-19 -3.182834e-17 1 6.678394e-19 -3.182834e-17 1 6.678394e-19 -3.182834e-17 1 6.678394e-19 -3.182834e-17 1 -6.678394e-19 3.182834e-17 -1 -6.678394e-19 3.182834e-17 -1 -6.678394e-19 3.182834e-17 -1 -6.678394e-19 3.182834e-17 -1 -6.678394e-19 3.182834e-17 -1 -6.678394e-19 3.182834e-17 -1 -6.678394e-19 3.182834e-17 -1 -6.678394e-19 3.182834e-17 -1 -6.678394e-19 3.182834e-17 -1 -6.678394e-19 3.182834e-17 -1 -6.678394e-19 3.182834e-17 -1 -6.678394e-19 3.182834e-17 -1 -6.678394e-19 3.182834e-17 -1 -6.678394e-19 3.182834e-17 -1 -6.678394e-19 3.182834e-17 -1 -6.678394e-19 3.182834e-17 -1 -6.678394e-19 3.182834e-17 -1 -6.678394e-19 3.182834e-17 -1 -6.678394e-19 3.182834e-17 -1 -6.678394e-19 3.182834e-17 -1 -6.678394e-19 3.182834e-17 -1 -6.678394e-19 3.182834e-17 -1 -6.678394e-19 3.182834e-17 -1 -6.678394e-19 3.182834e-17 -1 -6.678394e-19 3.182834e-17 -1 -6.678394e-19 3.182834e-17 -1 -6.678394e-19 3.182834e-17 -1 -6.678394e-19 3.182834e-17 -1 -6.678394e-19 3.182834e-17 -1 -6.678394e-19 3.182834e-17 -1 -6.678394e-19 3.182834e-17 -1 -6.678394e-19 3.182834e-17 -1 -6.678394e-19 3.182834e-17 -1 -6.678394e-19 3.182834e-17 -1 -6.678394e-19 3.182834e-17 -1 -6.678394e-19 3.182834e-17 -1 -6.678394e-19 3.182834e-17 -1 -6.678394e-19 3.182834e-17 -1 -6.678394e-19 3.182834e-17 -1 -6.678394e-19 3.182834e-17 -1 -6.678394e-19 3.182834e-17 -1 -6.678394e-19 3.182834e-17 -1 -6.678394e-19 3.182834e-17 -1 -6.678394e-19 3.182834e-17 -1 -6.678394e-19 3.182834e-17 -1 -6.678394e-19 3.182834e-17 -1 -6.678394e-19 3.182834e-17 -1 -6.678394e-19 3.182834e-17 -1 -6.678394e-19 3.182834e-17 -1 -6.678394e-19 3.182834e-17 -1 -6.678394e-19 3.182834e-17 -1 0 0 0 0 0 0 0 0 0 0 0 0 0 0 0 0 0 0 0 0 0 0 0 0 0 0 0 0 0 0 0 0 0 0 0 0 0 0 0 0 0 0 0 0 0 0 0 0 0 0 0 0 0 0 0 0 0 0 0 0 0 0 0 0 0 0 0 0 0 0 0 0 0 0 0 0 0 0 0 0 0 0 0 0 0 0 0 0 0 0 0 0 0 0 0 0 0 0 0 0 0 0 0 0 0 0 0 0 0 0 0 0 0 0 0 0 0 0 0 0 0 0 0 0 0 0 0 0 0 0 0 0 0 0 0 0 0 0 1 0 -4.544501e-18 1 0 -4.544501e-18 1 0 -4.544501e-18 1 0 -4.544501e-18 -1 -0 4.544501e-18 -1 -0 4.544501e-18 -1 -0 4.544501e-18 -1 -0 4.544501e-18 0 0 0 -1.203186e-15 1 2.707689e-17 -1.203186e-15 1 2.707689e-17 -1.203186e-15 1 2.707689e-17 -1.203186e-15 1 2.707689e-17 1.203186e-15 -1 -2.707689e-17 1.203186e-15 -1 -2.707689e-17 1.203186e-15 -1 -2.707689e-17 1.203186e-15 -1 -2.707689e-17 0 0 0 1.082867e-14 -1 -2.905445e-31 1.082867e-14 -1 -2.905445e-31 1.082867e-14 -1 -2.905445e-31 1.082867e-14 -1 -2.905445e-31 -1.082867e-14 1 2.905445e-31 -1.082867e-14 1 2.905445e-31 -1.082867e-14 1 2.905445e-31 -1.082867e-14 1 2.905445e-31 0 0 0 0 0 0 0 -1 0 0 -1 0 0 -1 0 0 -1 0 -0 1 -0 -0 1 -0 -0 1 -0 -0 1 -0 0 0 0 1 1.947932e-33 -4.544501e-18 1 1.947932e-33 -4.544501e-18 1 1.947932e-33 -4.544501e-18 1 1.947932e-33 -4.544501e-18 -1 -1.947932e-33 4.544501e-18 -1 -1.947932e-33 4.544501e-18 -1 -1.947932e-33 4.544501e-18 -1 -1.947932e-33 4.544501e-18 0 0 0 1 3.609557e-15 -4.544501e-18 1 3.609557e-15 -4.544501e-18 1 3.609557e-15 -4.544501e-18 1 3.609557e-15 -4.544501e-18 -1 -3.609557e-15 4.544501e-18 -1 -3.609557e-15 4.544501e-18 -1 -3.609557e-15 4.544501e-18 -1 -3.609557e-15 4.544501e-18 0 0 0 -1.227249e-14 -1 -2.707689e-17 -1.227249e-14 -1 -2.707689e-17 -1.227249e-14 -1 -2.707689e-17 -1.227249e-14 -1 -2.707689e-17 1.227249e-14 1 2.707689e-17 1.227249e-14 1 2.707689e-17 1.227249e-14 1 2.707689e-17 1.227249e-14 1 2.707689e-17 0 0 0 -1 1.227249e-14 4.544501e-18 -1 1.227249e-14 4.544501e-18 -1 1.227249e-14 4.544501e-18 -1 1.227249e-14 4.544501e-18 1 -1.227249e-14 -4.544501e-18 1 -1.227249e-14 -4.544501e-18 1 -1.227249e-14 -4.544501e-18 1 -1.227249e-14 -4.544501e-18 0 0 0 -1 -8.662937e-15 4.544501e-18 -1 -8.662937e-15 4.544501e-18 -1 -8.662937e-15 4.544501e-18 -1 -8.662937e-15 4.544501e-18 1 8.662937e-15 -4.544501e-18 1 8.662937e-15 -4.544501e-18 1 8.662937e-15 -4.544501e-18 1 8.662937e-15 -4.544501e-18 0 0 0 -8.662937e-15 1 2.707689e-17 -8.662937e-15 1 2.707689e-17 -8.662937e-15 1 2.707689e-17 -8.662937e-15 1 2.707689e-17 8.662937e-15 -1 -2.707689e-17 8.662937e-15 -1 -2.707689e-17 8.662937e-15 -1 -2.707689e-17 8.662937e-15 -1 -2.707689e-17 0 0 0 -1 -8.843415e-15 4.544501e-18 -1 -8.843415e-15 4.544501e-18 -1 -8.843415e-15 4.544501e-18 -1 -8.843415e-15 4.544501e-18 1 8.843415e-15 -4.544501e-18 1 8.843415e-15 -4.544501e-18 1 8.843415e-15 -4.544501e-18 1 8.843415e-15 -4.544501e-18 0 0 0 8.662937e-15 -1 -2.707689e-17 8.662937e-15 -1 -2.707689e-17 8.662937e-15 -1 -2.707689e-17 8.662937e-15 -1 -2.707689e-17 -8.662937e-15 1 2.707689e-17 -8.662937e-15 1 2.707689e-17 -8.662937e-15 1 2.707689e-17 -8.662937e-15 1 2.707689e-17 -1 -3.068124e-15 4.544501e-18 -1 -3.068124e-15 4.544501e-18 -1 -3.068124e-15 4.544501e-18 -1 -3.068124e-15 4.544501e-18 1 3.068124e-15 -4.544501e-18 1 3.068124e-15 -4.544501e-18 1 3.068124e-15 -4.544501e-18 1 3.068124e-15 -4.544501e-18 0 0 0 -0 -1 -2.707689e-17 -0 -1 -2.707689e-17 -0 -1 -2.707689e-17 -0 -1 -2.707689e-17 0 1 2.707689e-17 0 1 2.707689e-17 0 1 2.707689e-17 0 1 2.707689e-17 0 0 0 -1 0 4.544501e-18 -1 0 4.544501e-18 -1 0 4.544501e-18 -1 0 4.544501e-18 1 -0 -4.544501e-18 1 -0 -4.544501e-18 1 -0 -4.544501e-18 1 -0 -4.544501e-18 0 0 0 0 1 2.707689e-17 0 1 2.707689e-17 0 1 2.707689e-17 0 1 2.707689e-17 -0 -1 -2.707689e-17 -0 -1 -2.707689e-17 -0 -1 -2.707689e-17 -0 -1 -2.707689e-17 0 0 0 1 3.970513e-15 -4.544501e-18 1 3.970513e-15 -4.544501e-18 1 3.970513e-15 -4.544501e-18 1 3.970513e-15 -4.544501e-18 -1 -3.970513e-15 4.544501e-18 -1 -3.970513e-15 4.544501e-18 -1 -3.970513e-15 4.544501e-18 -1 -3.970513e-15 4.544501e-18 0 0 0 0 1 2.707689e-17 0 1 2.707689e-17 0 1 2.707689e-17 0 1 2.707689e-17 -0 -1 -2.707689e-17 -0 -1 -2.707689e-17 -0 -1 -2.707689e-17 -0 -1 -2.707689e-17 0 0 0 -1 -3.248601e-15 4.544501e-18 -1 -3.248601e-15 4.544501e-18 -1 -3.248601e-15 4.544501e-18 -1 -3.248601e-15 4.544501e-18 1 3.248601e-15 -4.544501e-18 1 3.248601e-15 -4.544501e-18 1 3.248601e-15 -4.544501e-18 1 3.248601e-15 -4.544501e-18 0 0 0 -3.248601e-15 1 2.707689e-17 -3.248601e-15 1 2.707689e-17 -3.248601e-15 1 2.707689e-17 -3.248601e-15 1 2.707689e-17 3.248601e-15 -1 -2.707689e-17 3.248601e-15 -1 -2.707689e-17 3.248601e-15 -1 -2.707689e-17 3.248601e-15 -1 -2.707689e-17 0 0 0 1 0 -4.544501e-18 1 0 -4.544501e-18 1 0 -4.544501e-18 1 0 -4.544501e-18 -1 -0 4.544501e-18 -1 -0 4.544501e-18 -1 -0 4.544501e-18 -1 -0 4.544501e-18 0 0 0 1.155058e-15 -1 -2.707689e-17 1.155058e-15 -1 -2.707689e-17 1.155058e-15 -1 -2.707689e-17 1.155058e-15 -1 -2.707689e-17 -1.155058e-15 1 2.707689e-17 -1.155058e-15 1 2.707689e-17 -1.155058e-15 1 2.707689e-17 -1.155058e-15 1 2.707689e-17 0 0 0 1 3.609557e-15 -4.544501e-18 1 3.609557e-15 -4.544501e-18 1 3.609557e-15 -4.544501e-18 1 3.609557e-15 -4.544501e-18 -1 -3.609557e-15 4.544501e-18 -1 -3.609557e-15 4.544501e-18 -1 -3.609557e-15 4.544501e-18 -1 -3.609557e-15 4.544501e-18 0 0 0 -8.662937e-15 1 2.707689e-17 -8.662937e-15 1 2.707689e-17 -8.662937e-15 1 2.707689e-17 -8.662937e-15 1 2.707689e-17 8.662937e-15 -1 -2.707689e-17 8.662937e-15 -1 -2.707689e-17 8.662937e-15 -1 -2.707689e-17 8.662937e-15 -1 -2.707689e-17 0 0 0 -1 -3.36892e-15 4.544501e-18 -1 -3.36892e-15 4.544501e-18 -1 -3.36892e-15 4.544501e-18 -1 -3.36892e-15 4.544501e-18 1 3.36892e-15 -4.544501e-18 1 3.36892e-15 -4.544501e-18 1 3.36892e-15 -4.544501e-18 1 3.36892e-15 -4.544501e-18 0 0 0 -0 -1 -2.707689e-17 -0 -1 -2.707689e-17 -0 -1 -2.707689e-17 -0 -1 -2.707689e-17 0 1 2.707689e-17 0 1 2.707689e-17 0 1 2.707689e-17 0 1 2.707689e-17 0 0 0 -1 -3.36892e-15 4.544501e-18 -1 -3.36892e-15 4.544501e-18 -1 -3.36892e-15 4.544501e-18 -1 -3.36892e-15 4.544501e-18 1 3.36892e-15 -4.544501e-18 1 3.36892e-15 -4.544501e-18 1 3.36892e-15 -4.544501e-18 1 3.36892e-15 -4.544501e-18 0 0 0 -3.429079e-15 1 2.707689e-17 -3.429079e-15 1 2.707689e-17 -3.429079e-15 1 2.707689e-17 -3.429079e-15 1 2.707689e-17 3.429079e-15 -1 -2.707689e-17 3.429079e-15 -1 -2.707689e-17 3.429079e-15 -1 -2.707689e-17 3.429079e-15 -1 -2.707689e-17 0 0 0 -1 2.647009e-15 4.544501e-18 -1 2.647009e-15 4.544501e-18 -1 2.647009e-15 4.544501e-18 -1 2.647009e-15 4.544501e-18 1 -2.647009e-15 -4.544501e-18 1 -2.647009e-15 -4.544501e-18 1 -2.647009e-15 -4.544501e-18 1 -2.647009e-15 -4.544501e-18 0 0 0 1.203186e-15 -1 -2.707689e-17 1.203186e-15 -1 -2.707689e-17 1.203186e-15 -1 -2.707689e-17 1.203186e-15 -1 -2.707689e-17 -1.203186e-15 1 2.707689e-17 -1.203186e-15 1 2.707689e-17 -1.203186e-15 1 2.707689e-17 -1.203186e-15 1 2.707689e-17 0 0 0 1 1.804779e-16 -4.544501e-18 1 1.804779e-16 -4.544501e-18 1 1.804779e-16 -4.544501e-18 1 1.804779e-16 -4.544501e-18 -1 -1.804779e-16 4.544501e-18 -1 -1.804779e-16 4.544501e-18 -1 -1.804779e-16 4.544501e-18 -1 -1.804779e-16 4.544501e-18 0 0 0 -3.465175e-15 1 2.707689e-17 -3.465175e-15 1 2.707689e-17 -3.465175e-15 1 2.707689e-17 -3.465175e-15 1 2.707689e-17 3.465175e-15 -1 -2.707689e-17 3.465175e-15 -1 -2.707689e-17 3.465175e-15 -1 -2.707689e-17 3.465175e-15 -1 -2.707689e-17 0 0 0 1 3.429079e-15 -4.544501e-18 1 3.429079e-15 -4.544501e-18 1 3.429079e-15 -4.544501e-18 1 3.429079e-15 -4.544501e-18 -1 -3.429079e-15 4.544501e-18 -1 -3.429079e-15 4.544501e-18 -1 -3.429079e-15 4.544501e-18 -1 -3.429079e-15 4.544501e-18 0 0 0 0 -1 0 0 -1 0 0 -1 0 0 -1 0 -0 1 -0 -0 1 -0 -0 1 -0 -0 1 -0 0 0 0 -1 -1.082867e-14 0 -1 -1.082867e-14 0 -1 -1.082867e-14 0 -1 -1.082867e-14 0 1 1.082867e-14 -0 1 1.082867e-14 -0 1 1.082867e-14 -0 1 1.082867e-14 -0 2.491379e-18 7.357921e-17 1 2.491379e-18 7.357921e-17 1 2.491379e-18 7.357921e-17 1 2.491379e-18 7.357921e-17 1 2.491379e-18 7.357921e-17 1 2.491379e-18 7.357921e-17 1 2.491379e-18 7.357921e-17 1 2.491379e-18 7.357921e-17 1 2.491379e-18 7.357921e-17 1 2.491379e-18 7.357921e-17 1 2.491379e-18 7.357921e-17 1 2.491379e-18 7.357921e-17 1 2.491379e-18 7.357921e-17 1 2.491379e-18 7.357921e-17 1 2.491379e-18 7.357921e-17 1 2.491379e-18 7.357921e-17 1 2.491379e-18 7.357921e-17 1 -2.491379e-18 -7.357921e-17 -1 -2.491379e-18 -7.357921e-17 -1 -2.491379e-18 -7.357921e-17 -1 -2.491379e-18 -7.357921e-17 -1 -2.491379e-18 -7.357921e-17 -1 -2.491379e-18 -7.357921e-17 -1 -2.491379e-18 -7.357921e-17 -1 -2.491379e-18 -7.357921e-17 -1 -2.491379e-18 -7.357921e-17 -1 -2.491379e-18 -7.357921e-17 -1 -2.491379e-18 -7.357921e-17 -1 -2.491379e-18 -7.357921e-17 -1 -2.491379e-18 -7.357921e-17 -1 -2.491379e-18 -7.357921e-17 -1 -2.491379e-18 -7.357921e-17 -1 -2.491379e-18 -7.357921e-17 -1 -2.491379e-18 -7.357921e-17 -1 0 0 0 0 0 0 0 0 1 0 0 1 0 0 1 0 0 1 0 0 1 0 0 1 0 0 1 0 0 1 0 0 1 0 0 1 0 0 1 0 0 1 0 0 1 0 0 1 0 0 1 0 0 1 -0 -0 -1 -0 -0 -1 -0 -0 -1 -0 -0 -1 -0 -0 -1 -0 -0 -1 -0 -0 -1 -0 -0 -1 -0 -0 -1 -0 -0 -1 -0 -0 -1 -0 -0 -1 -0 -0 -1 -0 -0 -1 -0 -0 -1 -0 -0 -1 0 0 0 0 0 0 0 0 0 0 0 0 0 0 1 0 0 1 0 0 1 0 0 1 0 0 1 0 0 1 -0 -0 -1 -0 -0 -1 -0 -0 -1 -0 -0 -1 -0 -0 -1 -0 -0 -1 0 0 0 0 0 0</float_array>
                    <technique_common>
                        <accessor count="604" source="#ID20" stride="3">
                            <param name="X" type="float" />
                            <param name="Y" type="float" />
                            <param name="Z" type="float" />
                        </accessor>
                    </technique_common>
                </source>
                <source id="ID12">
                    <Name_array id="ID22" count="0" />
                    <technique_common>
                        <accessor count="0" source="#ID22" stride="1">
                            <param name="skp_material" type="Name" />
                        </accessor>
                    </technique_common>
                </source>
                <source id="ID14">
                    <float_array id="ID21" count="416">6 9 4 9.75 4 9 4 11.25 4 12 6 12 6 10.7 4 9.7 6 9.7 4 10.7 13 9.7 10 10.7 10 9.7 13 10.7 19 10.7 17 9.7 19 9.7 17 10.7 9.989521 10.00399 3.989521 11.00399 3.989521 10.00399 9.989521 11.00399 4 3 5 4 10 3 10 4 10 12 10 14 7 12 7 13 7 15 7 14 15 15 13 14 13 12 16 12 16 15 16 13 16 9 5 8 7 8 7 9 10 9 7 6 10 7 16 6 13 7 13 9 16 8 13 3 18 4 13 4 19 3 18 8 19 9 17 9 17 12 18 13 19 12 18 17 13 18 13 17 19 18 5 13 4 18 5 17 5 14 10 18 10 17 20.00255 9.994224 14.00255 10.99422 14.00255 9.994224 20.00255 10.99422 19.00005 10.99777 13.00005 9.997766 19.00005 9.997766 13.00005 10.99777 16 9.7 15 10.7 15 9.7 16 10.7 15 10.7 7 9.7 15 9.7 7 10.7 16 9.7 15 10.7 15 9.7 16 10.7 15 9.7 14 10.7 14 9.7 15 10.7 7 10.7 5 9.7 7 9.7 5 10.7 8 10.7 9 9.7 9 10.7 8 9.7 5 10.7 8 9.7 8 10.7 5 9.7 18 10.7 13 9.7 18 9.7 13 10.7 4 10.7 5 9.7 5 10.7 4 9.7 10.00348 10.99345 4.003481 9.993453 10.00348 9.993453 4.003481 10.99345 18 10.7 19 9.7 19 10.7 18 9.7 10 10.7 5 9.7 10 9.7 5 10.7 14 10.7 18 9.7 18 10.7 14 9.7 18 10.7 18 9.7 9 9.7 7 10.7 7 9.7 9 10.7 16 10.7 7 9.7 16 9.7 7 10.7 14 10.7 16 9.7 16 10.7 14 9.7 5 9.7 5 10.7 9 9.7 5 10.7 5 9.7 9 10.7 13 9.7 13 10.7 5 9.7 4 10.7 4 9.7 5 10.7 10.00199 10.99711 4.001987 9.99711 10.00199 9.99711 4.001987 10.99711 13.00149 10.9979 19.00149 9.997904 19.00149 10.9979 13.00149 9.997904 19 10.7 17 9.7 19 9.7 17 10.7 10 10.7 13 9.7 13 10.7 10 9.7 6 10.7 4 9.7 6 9.7 4 10.7 4.008363 10.99713 10.00836 9.997126 10.00836 10.99713 4.008363 9.997126 19.01002 10.99624 13.01002 9.996235 19.01002 9.996235 13.01002 10.99624 19 9.7 18 10.7 18 9.7 19 10.7 10 10.7 10 9.7 18 9.7 18 10.7 18 10.7 16 9.7 18 9.7 16 10.7 7 10.7 9 9.7 9 10.7 7 9.7 10.75 18 12.25 18 13 3 12.25 3 10.75 3 10.9 3 12.1 3 19 9.75 19 11.25</float_array>
                    <technique_common>
                        <accessor count="208" source="#ID21" stride="2">
                            <param name="S" type="float" />
                            <param name="T" type="float" />
                        </accessor>
                    </technique_common>
                </source>
                <vertices id="ID13">
                    <input semantic="POSITION" source="#ID10" />
                    <input semantic="NORMAL" source="#ID11" />
                </vertices>
                <triangles count="166" material="Material2">
                    <input offset="0" semantic="VERTEX" source="#ID13" />
                    <input offset="1" semantic="TEXCOORD" source="#ID14" />
                    <p>0 0 1 1 2 2 1 1 0 0 3 3 3 3 0 0 4 4 4 4 0 0 5 5 18 6 19 7 20 8 19 7 18 6 21 9 28 10 29 11 30 12 29 11 28 10 31 13 37 14 38 15 39 16 38 15 37 14 40 17 46 18 47 19 48 20 47 19 46 18 49 21 56 22 57 23 58 2 57 23 56 22 59 24 57 23 59 24 60 25 61 26 62 27 63 28 64 29 65 30 66 31 65 30 64 29 62 27 65 30 62 27 67 32 62 27 64 29 63 28 67 32 62 27 68 33 67 32 68 33 69 34 67 32 69 34 70 35 67 32 70 35 71 36 71 36 70 35 72 37 72 37 70 35 73 38 58 2 74 39 75 0 74 39 58 2 57 23 75 0 74 39 76 40 75 0 76 40 77 41 75 0 77 41 64 29 64 29 77 41 63 28 77 41 76 40 78 42 78 42 76 40 79 43 78 42 79 43 80 44 80 44 79 43 81 45 80 44 81 45 82 46 82 46 81 45 83 47 83 47 81 45 73 38 73 38 81 45 84 48 73 38 84 48 72 37 85 49 86 50 87 51 86 50 85 49 88 52 86 50 88 52 89 53 89 53 88 52 90 54 84 48 91 55 92 56 91 55 84 48 89 53 91 55 89 53 90 54 72 37 92 56 93 57 92 56 72 37 84 48 93 57 92 56 94 58 95 59 96 60 97 61 96 60 95 59 98 62 98 62 95 59 93 57 98 62 93 57 94 58 99 4 100 63 101 64 100 63 99 4 102 5 101 64 100 63 103 65 100 63 102 5 64 29 64 29 102 5 75 0 104 66 103 65 100 63 103 65 105 67 101 64 105 67 103 65 106 68 204 69 205 70 206 71 205 70 204 69 207 72 213 73 214 74 215 75 214 74 213 73 216 76 222 77 223 78 224 79 223 78 222 77 225 80 232 81 233 82 234 83 233 82 232 81 235 84 241 85 242 86 243 87 242 86 241 85 244 88 250 89 251 90 252 91 251 90 250 89 253 92 259 93 260 94 261 95 260 94 259 93 262 96 268 97 269 98 270 99 269 98 268 97 271 100 277 101 278 102 279 103 278 102 277 101 280 104 286 105 287 106 288 107 287 106 286 105 289 108 295 109 296 110 297 111 296 110 295 109 298 112 304 113 305 114 306 115 305 114 304 113 307 116 312 117 313 118 314 119 313 118 312 117 315 120 321 121 322 122 323 123 322 122 321 121 324 124 330 125 331 126 332 127 331 126 330 125 333 128 339 129 340 85 341 130 340 85 339 129 342 88 348 131 349 132 350 133 349 132 348 131 351 134 357 135 358 136 359 137 358 136 357 135 360 138 366 139 367 140 368 141 367 140 366 139 369 142 375 84 376 143 377 82 376 143 375 84 378 144 384 145 385 146 386 147 385 146 384 145 387 148 393 117 394 149 395 120 394 149 393 117 396 150 402 151 403 152 404 153 403 152 402 151 405 154 411 155 412 156 413 157 412 156 411 155 414 158 420 159 421 160 422 161 421 160 420 159 423 162 429 163 430 164 431 165 430 164 429 163 432 166 438 167 439 168 440 169 439 168 438 167 441 170 447 171 448 172 449 173 448 172 447 171 450 174 456 175 457 176 458 177 457 176 456 175 459 178 465 179 466 180 467 181 466 180 465 179 468 182 474 183 475 184 476 185 475 184 474 183 477 186 483 187 484 143 485 188 484 143 483 187 486 144 492 189 493 90 494 91 493 90 492 189 495 190 501 191 502 192 503 193 502 192 501 191 504 194 510 195 511 196 512 197 511 196 510 195 513 198 518 29 519 66 520 63 519 66 518 29 521 31 522 199 523 67 524 68 519 66 524 68 525 65 524 68 519 66 526 30 526 30 519 66 521 31 524 68 526 30 527 32 524 68 527 32 522 199 522 199 527 32 528 61 522 199 528 61 529 200 528 61 527 32 530 59 530 59 527 32 531 36 530 59 531 36 532 37 530 59 532 37 533 57 534 60 529 200 528 61 554 201 555 51 556 202 557 23 558 43 559 39 558 43 557 23 560 25 559 39 558 43 561 40 558 43 560 25 562 45 562 45 560 25 563 24 562 45 563 24 564 203 562 45 564 203 565 204 562 45 565 204 555 51 555 51 565 204 566 205 555 51 566 205 556 202 562 45 555 51 567 50 562 45 568 53 569 48 568 53 562 45 567 50 590 54 591 206 592 55 592 55 593 58 594 56 593 58 592 55 591 206 593 58 591 206 595 207</p>
                </triangles>
                <triangles count="166" material="Material3">
                    <input offset="0" semantic="VERTEX" source="#ID13" />
                    <p>6 7 8 8 7 9 9 7 10 11 10 7 22 23 24 25 24 23 32 33 34 35 34 33 41 42 43 44 43 42 50 51 52 53 52 51 107 108 109 110 109 108 111 108 112 113 114 115 115 114 111 108 111 110 114 116 111 110 111 116 117 118 119 118 120 119 119 120 121 122 121 120 117 123 118 124 125 123 118 123 125 126 127 128 127 124 128 123 128 124 126 129 127 127 129 130 129 131 130 132 130 131 125 124 133 124 134 133 133 134 135 135 134 136 136 134 137 134 138 137 137 138 139 138 140 139 139 140 141 142 141 115 115 141 113 141 140 113 140 143 113 144 145 143 113 143 145 133 146 125 125 146 147 147 146 148 146 149 148 149 150 148 150 151 148 142 115 151 148 151 152 151 115 152 153 152 115 142 151 154 155 156 144 156 157 144 145 144 157 208 209 210 211 210 209 217 218 219 220 219 218 226 227 228 229 228 227 236 237 238 239 238 237 245 246 247 248 247 246 254 255 256 257 256 255 263 264 265 266 265 264 272 273 274 275 274 273 281 282 283 284 283 282 290 291 292 293 292 291 299 300 301 302 301 300 308 309 310 311 310 309 316 317 318 319 318 317 325 326 327 328 327 326 334 335 336 337 336 335 343 344 345 346 345 344 352 353 354 355 354 353 361 362 363 364 363 362 370 371 372 373 372 371 379 380 381 382 381 380 388 389 390 391 390 389 397 398 399 400 399 398 406 407 408 409 408 407 415 416 417 418 417 416 424 425 426 427 426 425 433 434 435 436 435 434 442 443 444 445 444 443 451 452 453 454 453 452 460 461 462 463 462 461 469 470 471 472 471 470 478 479 480 481 480 479 487 488 489 490 489 488 496 497 498 499 498 497 505 506 507 508 507 506 514 515 516 517 516 515 535 536 537 538 539 540 539 541 540 541 542 540 540 542 535 536 535 543 535 542 543 543 542 544 542 545 544 546 547 545 545 547 544 548 544 547 544 549 543 546 550 547 551 547 550 570 571 572 573 572 571 570 574 571 575 576 574 576 577 574 574 577 571 577 578 571 578 579 571 579 580 571 571 580 581 582 581 583 580 584 581 583 581 584 575 574 585 596 597 598 597 599 598 600 598 599 599 597 601</p>
                </triangles>
                <lines count="143" material="Material4">
                    <input offset="0" semantic="VERTEX" source="#ID13" />
                    <p>12 13 13 14 14 15 15 16 16 17 12 17 13 26 26 27 14 27 27 36 15 36 36 45 16 45 13 54 54 55 26 55 158 159 160 158 161 160 162 161 163 162 164 163 165 164 166 165 167 166 167 168 168 45 55 169 169 170 170 171 171 172 172 173 173 174 174 175 175 176 176 177 177 178 178 179 179 180 180 181 181 182 182 183 183 184 184 185 185 186 186 187 188 187 189 188 190 189 191 190 159 191 192 193 193 194 194 195 195 196 196 197 197 198 198 199 199 200 200 201 201 202 202 203 203 192 212 16 212 168 54 221 221 169 230 231 230 158 231 159 240 230 240 160 249 240 249 161 258 249 258 162 267 258 267 163 276 267 276 164 285 276 285 165 294 285 294 166 303 294 303 167 303 212 221 320 320 170 320 329 329 171 329 338 338 172 338 347 347 173 347 356 356 174 356 365 365 175 365 374 374 176 374 383 383 177 383 392 392 178 392 401 401 179 401 410 410 180 410 419 419 181 419 428 428 182 428 437 437 183 437 446 446 184 446 455 455 185 455 464 464 186 464 473 473 187 482 473 482 188 491 482 491 189 500 491 500 190 509 191 509 500 231 509 473 552 553 552 553 303 586 410 221 587 588 587 589 588 586 589 602 455 428 603 602 603</p>
                </lines>
            </mesh>
        </geometry>
        <geometry id="ID23">
            <mesh>
                <source id="ID24">
                    <float_array id="ID29" count="432">118.1102 236.2205 0 236.2205 354.3307 0 118.1102 354.3307 0 236.2205 236.2205 0 354.3307 433.0709 1.24345e-14 236.2205 433.0709 2.398082e-14 236.2205 157.4803 0 354.3307 157.4803 0 354.3307 354.3307 0 354.3307 236.2205 0 472.4409 354.3307 0 472.4409 236.2205 0 472.4409 236.2205 0 354.3307 236.2205 0 472.4409 354.3307 0 354.3307 354.3307 0 354.3307 157.4803 0 354.3307 433.0709 1.24345e-14 236.2205 157.4803 0 236.2205 236.2205 0 236.2205 354.3307 0 236.2205 433.0709 2.398082e-14 118.1102 236.2205 0 118.1102 354.3307 0 236.2205 236.2205 0 118.1102 236.2205 0 236.2205 157.4803 0 354.3307 157.4803 0 354.3307 236.2205 0 472.4409 236.2205 0 472.4409 354.3307 0 354.3307 354.3307 0 354.3307 433.0709 1.24345e-14 236.2205 433.0709 2.398082e-14 236.2205 354.3307 0 118.1102 354.3307 0 236.2205 236.2205 0 118.1102 236.2205 -39.37008 236.2205 236.2205 -39.37008 118.1102 236.2205 0 118.1102 236.2205 0 236.2205 236.2205 0 118.1102 236.2205 -39.37008 236.2205 236.2205 -39.37008 118.1102 236.2205 -39.37008 236.2205 236.2205 -39.37008 236.2205 236.2205 0 236.2205 157.4803 -39.37008 236.2205 157.4803 0 236.2205 236.2205 -39.37008 236.2205 236.2205 -39.37008 236.2205 236.2205 0 236.2205 157.4803 -39.37008 236.2205 157.4803 0 236.2205 157.4803 -39.37008 354.3307 157.4803 0 236.2205 157.4803 -39.37008 354.3307 157.4803 -39.37008 236.2205 157.4803 0 236.2205 157.4803 0 354.3307 157.4803 0 236.2205 157.4803 -39.37008 354.3307 157.4803 -39.37008 354.3307 157.4803 -39.37008 354.3307 236.2205 -39.37008 354.3307 157.4803 0 354.3307 157.4803 -39.37008 354.3307 236.2205 0 354.3307 236.2205 0 354.3307 236.2205 -39.37008 354.3307 157.4803 0 354.3307 157.4803 -39.37008 354.3307 236.2205 -39.37008 472.4409 236.2205 0 354.3307 236.2205 -39.37008 472.4409 236.2205 -39.37008 354.3307 236.2205 0 354.3307 236.2205 0 472.4409 236.2205 0 354.3307 236.2205 -39.37008 472.4409 236.2205 -39.37008 472.4409 236.2205 -39.37008 472.4409 354.3307 -39.37008 472.4409 236.2205 0 472.4409 236.2205 -39.37008 472.4409 354.3307 0 472.4409 354.3307 0 472.4409 354.3307 -39.37008 472.4409 236.2205 0 472.4409 236.2205 -39.37008 472.4409 354.3307 -39.37008 354.3307 354.3307 0 472.4409 354.3307 -39.37008 354.3307 354.3307 -39.37008 472.4409 354.3307 0 472.4409 354.3307 0 354.3307 354.3307 0 472.4409 354.3307 -39.37008 354.3307 354.3307 -39.37008 354.3307 354.3307 -39.37008 354.3307 433.0709 -39.37008 354.3307 354.3307 0 354.3307 354.3307 -39.37008 354.3307 433.0709 1.24345e-14 354.3307 433.0709 1.24345e-14 354.3307 433.0709 -39.37008 354.3307 354.3307 0 354.3307 354.3307 -39.37008 354.3307 433.0709 -39.37008 236.2205 433.0709 -39.37008 354.3307 433.0709 1.24345e-14 354.3307 433.0709 -39.37008 236.2205 433.0709 2.398082e-14 236.2205 433.0709 2.398082e-14 236.2205 433.0709 -39.37008 354.3307 433.0709 1.24345e-14 354.3307 433.0709 -39.37008 236.2205 433.0709 -39.37008 236.2205 433.0709 2.398082e-14 236.2205 354.3307 -39.37008 236.2205 354.3307 0 236.2205 433.0709 -39.37008 236.2205 433.0709 -39.37008 236.2205 433.0709 2.398082e-14 236.2205 354.3307 -39.37008 236.2205 354.3307 0 236.2205 354.3307 -39.37008 118.1102 354.3307 0 236.2205 354.3307 -39.37008 118.1102 354.3307 -39.37008 236.2205 354.3307 0 236.2205 354.3307 0 118.1102 354.3307 0 236.2205 354.3307 -39.37008 118.1102 354.3307 -39.37008 118.1102 354.3307 -39.37008 118.1102 354.3307 0 118.1102 236.2205 -39.37008 118.1102 236.2205 0 118.1102 354.3307 -39.37008 118.1102 354.3307 -39.37008 118.1102 354.3307 0 118.1102 236.2205 -39.37008 118.1102 236.2205 0</float_array>
                    <technique_common>
                        <accessor count="144" source="#ID29" stride="3">
                            <param name="X" type="float" />
                            <param name="Y" type="float" />
                            <param name="Z" type="float" />
                        </accessor>
                    </technique_common>
                </source>
                <source id="ID25">
                    <float_array id="ID30" count="432">4.443584e-18 -4.831823e-17 1 4.443584e-18 -4.831823e-17 1 4.443584e-18 -4.831823e-17 1 4.443584e-18 -4.831823e-17 1 4.443584e-18 -4.831823e-17 1 4.443584e-18 -4.831823e-17 1 4.443584e-18 -4.831823e-17 1 4.443584e-18 -4.831823e-17 1 4.443584e-18 -4.831823e-17 1 4.443584e-18 -4.831823e-17 1 4.443584e-18 -4.831823e-17 1 4.443584e-18 -4.831823e-17 1 -4.443584e-18 4.831823e-17 -1 -4.443584e-18 4.831823e-17 -1 -4.443584e-18 4.831823e-17 -1 -4.443584e-18 4.831823e-17 -1 -4.443584e-18 4.831823e-17 -1 -4.443584e-18 4.831823e-17 -1 -4.443584e-18 4.831823e-17 -1 -4.443584e-18 4.831823e-17 -1 -4.443584e-18 4.831823e-17 -1 -4.443584e-18 4.831823e-17 -1 -4.443584e-18 4.831823e-17 -1 -4.443584e-18 4.831823e-17 -1 0 0 0 0 0 0 0 0 0 0 0 0 0 0 0 0 0 0 0 0 0 0 0 0 0 0 0 0 0 0 0 0 0 0 0 0 1.263345e-15 -1 -2.707689e-17 1.263345e-15 -1 -2.707689e-17 1.263345e-15 -1 -2.707689e-17 1.263345e-15 -1 -2.707689e-17 -1.263345e-15 1 2.707689e-17 -1.263345e-15 1 2.707689e-17 -1.263345e-15 1 2.707689e-17 -1.263345e-15 1 2.707689e-17 0 0 0 0 0 0 -1 -3.519318e-15 4.544501e-18 -1 -3.519318e-15 4.544501e-18 -1 -3.519318e-15 4.544501e-18 -1 -3.519318e-15 4.544501e-18 1 3.519318e-15 -4.544501e-18 1 3.519318e-15 -4.544501e-18 1 3.519318e-15 -4.544501e-18 1 3.519318e-15 -4.544501e-18 0 0 0 1.203186e-15 -1 -2.707689e-17 1.203186e-15 -1 -2.707689e-17 1.203186e-15 -1 -2.707689e-17 1.203186e-15 -1 -2.707689e-17 -1.203186e-15 1 2.707689e-17 -1.203186e-15 1 2.707689e-17 -1.203186e-15 1 2.707689e-17 -1.203186e-15 1 2.707689e-17 0 0 0 1 0 -4.544501e-18 1 0 -4.544501e-18 1 0 -4.544501e-18 1 0 -4.544501e-18 -1 -0 4.544501e-18 -1 -0 4.544501e-18 -1 -0 4.544501e-18 -1 -0 4.544501e-18 0 0 0 3.308761e-15 -1 -2.707689e-17 3.308761e-15 -1 -2.707689e-17 3.308761e-15 -1 -2.707689e-17 3.308761e-15 -1 -2.707689e-17 -3.308761e-15 1 2.707689e-17 -3.308761e-15 1 2.707689e-17 -3.308761e-15 1 2.707689e-17 -3.308761e-15 1 2.707689e-17 0 0 0 1 3.36892e-15 -4.544501e-18 1 3.36892e-15 -4.544501e-18 1 3.36892e-15 -4.544501e-18 1 3.36892e-15 -4.544501e-18 -1 -3.36892e-15 4.544501e-18 -1 -3.36892e-15 4.544501e-18 -1 -3.36892e-15 4.544501e-18 -1 -3.36892e-15 4.544501e-18 0 0 0 0 1 2.707689e-17 0 1 2.707689e-17 0 1 2.707689e-17 0 1 2.707689e-17 -0 -1 -2.707689e-17 -0 -1 -2.707689e-17 -0 -1 -2.707689e-17 -0 -1 -2.707689e-17 0 0 0 1 3.33884e-15 -4.544501e-18 1 3.33884e-15 -4.544501e-18 1 3.33884e-15 -4.544501e-18 1 3.33884e-15 -4.544501e-18 -1 -3.33884e-15 4.544501e-18 -1 -3.33884e-15 4.544501e-18 -1 -3.33884e-15 4.544501e-18 -1 -3.33884e-15 4.544501e-18 0 0 0 2.647006e-33 1 2.707689e-17 2.647006e-33 1 2.707689e-17 2.647006e-33 1 2.707689e-17 2.647006e-33 1 2.707689e-17 -2.647006e-33 -1 -2.707689e-17 -2.647006e-33 -1 -2.707689e-17 -2.647006e-33 -1 -2.707689e-17 -2.647006e-33 -1 -2.707689e-17 0 0 0 -1 -3.248601e-15 4.544501e-18 -1 -3.248601e-15 4.544501e-18 -1 -3.248601e-15 4.544501e-18 -1 -3.248601e-15 4.544501e-18 1 3.248601e-15 -4.544501e-18 1 3.248601e-15 -4.544501e-18 1 3.248601e-15 -4.544501e-18 1 3.248601e-15 -4.544501e-18 0 0 0 -3.007964e-15 1 2.707689e-17 -3.007964e-15 1 2.707689e-17 -3.007964e-15 1 2.707689e-17 -3.007964e-15 1 2.707689e-17 3.007964e-15 -1 -2.707689e-17 3.007964e-15 -1 -2.707689e-17 3.007964e-15 -1 -2.707689e-17 3.007964e-15 -1 -2.707689e-17 0 0 0 -1 -3.128283e-15 4.544501e-18 -1 -3.128283e-15 4.544501e-18 -1 -3.128283e-15 4.544501e-18 -1 -3.128283e-15 4.544501e-18 1 3.128283e-15 -4.544501e-18 1 3.128283e-15 -4.544501e-18 1 3.128283e-15 -4.544501e-18 1 3.128283e-15 -4.544501e-18</float_array>
                    <technique_common>
                        <accessor count="144" source="#ID30" stride="3">
                            <param name="X" type="float" />
                            <param name="Y" type="float" />
                            <param name="Z" type="float" />
                        </accessor>
                    </technique_common>
                </source>
                <source id="ID26">
                    <Name_array id="ID32" count="0" />
                    <technique_common>
                        <accessor count="0" source="#ID32" stride="1">
                            <param name="skp_material" type="Name" />
                        </accessor>
                    </technique_common>
                </source>
                <source id="ID28">
                    <float_array id="ID31" count="112">7 9 10 12 7 12 10 9 13 14 10 14 10 7 13 7 13 12 13 9 16 12 16 9 10 10.7 7 9.7 10 9.7 7 10.7 13 10.7 15 9.7 15 10.7 13 9.7 13 10.7 10 9.7 13 9.7 10 10.7 10 9.7 8 10.7 8 9.7 10 10.7 16 10.7 16 9.7 13 9.7 10 10.7 10 9.7 13 10.7 10 10.7 7 9.7 10 9.7 7 10.7 15 9.7 13 10.7 13 9.7 15 10.7 13 9.7 10 10.7 10 9.7 13 10.7 8 10.7 10 9.7 10 10.7 8 9.7 16 10.7 13 9.7 16 9.7 13 10.7 13 9.7 13 10.7</float_array>
                    <technique_common>
                        <accessor count="56" source="#ID31" stride="2">
                            <param name="S" type="float" />
                            <param name="T" type="float" />
                        </accessor>
                    </technique_common>
                </source>
                <vertices id="ID27">
                    <input semantic="POSITION" source="#ID24" />
                    <input semantic="NORMAL" source="#ID25" />
                </vertices>
                <triangles count="34" material="Material2">
                    <input offset="0" semantic="VERTEX" source="#ID27" />
                    <input offset="1" semantic="TEXCOORD" source="#ID28" />
                    <p>0 0 1 1 2 2 1 1 0 0 3 3 1 1 4 4 5 5 4 4 1 1 3 3 4 4 3 3 6 6 4 4 6 6 7 7 4 4 7 7 8 8 8 8 7 7 9 9 8 8 9 9 10 10 10 10 9 9 11 11 36 12 37 13 38 14 37 13 36 12 39 15 46 16 47 17 48 18 47 17 46 16 49 19 55 20 56 21 57 22 56 21 55 20 58 23 64 24 65 25 66 26 65 25 64 24 67 27 73 28 74 22 75 29 74 22 73 28 76 20 82 30 83 31 84 32 83 31 82 30 85 33 91 34 92 35 93 36 92 35 91 34 94 37 100 38 101 39 102 40 101 39 100 38 103 41 109 42 110 43 111 44 110 43 109 42 112 45 118 46 119 47 120 48 119 47 118 46 121 49 127 50 128 51 129 52 128 51 127 50 130 53 136 43 137 54 138 55 137 54 136 43 139 44</p>
                </triangles>
                <triangles count="34" material="Material3">
                    <input offset="0" semantic="VERTEX" source="#ID27" />
                    <p>12 13 14 14 13 15 13 16 15 15 16 17 16 18 17 18 19 17 19 20 17 21 17 20 19 22 20 23 20 22 40 41 42 43 42 41 50 51 52 53 52 51 59 60 61 62 61 60 68 69 70 71 70 69 77 78 79 80 79 78 86 87 88 89 88 87 95 96 97 98 97 96 104 105 106 107 106 105 113 114 115 116 115 114 122 123 124 125 124 123 131 132 133 134 133 132 140 141 142 143 142 141</p>
                </triangles>
                <lines count="36" material="Material4">
                    <input offset="0" semantic="VERTEX" source="#ID27" />
                    <p>24 25 26 24 27 26 28 27 29 28 30 29 31 30 32 31 33 32 34 33 35 34 25 35 25 44 45 44 24 45 54 45 26 54 63 54 27 63 72 63 28 72 81 72 29 81 90 81 30 90 99 90 31 99 108 99 32 108 117 108 33 117 126 117 34 126 135 126 35 135 44 135</p>
                </lines>
            </mesh>
        </geometry>
    </library_geometries>
    <library_materials>
        <material id="ID5" name="material_1">
            <instance_effect url="#ID6" />
        </material>
        <material id="ID15" name="material_6">
            <instance_effect url="#ID16" />
        </material>
        <material id="ID17" name="edge_color0125129255">
            <instance_effect url="#ID18" />
        </material>
    </library_materials>
    <library_effects>
        <effect id="ID6">
            <profile_COMMON>
                <newparam sid="ID8">
                    <surface type="2D">
                        <init_from>ID7</init_from>
                    </surface>
                </newparam>
                <newparam sid="ID9">
                    <sampler2D>
                        <source>ID8</source>
                    </sampler2D>
                </newparam>
                <technique sid="COMMON">
                    <lambert>
                        <diffuse>
                            <texture texture="ID9" texcoord="UVSET0" />
                        </diffuse>
                    </lambert>
                </technique>
            </profile_COMMON>
        </effect>
        <effect id="ID16">
            <profile_COMMON>
                <technique sid="COMMON">
                    <lambert>
                        <diffuse>
                            <color>0 0.4901961 0.5058824 1</color>
                        </diffuse>
                    </lambert>
                </technique>
            </profile_COMMON>
        </effect>
        <effect id="ID18">
            <profile_COMMON>
                <technique sid="COMMON">
                    <constant>
                        <transparent opaque="A_ONE">
                            <color>0 0.4901961 0.5058824 1</color>
                        </transparent>
                        <transparency>
                            <float>1</float>
                        </transparency>
                    </constant>
                </technique>
            </profile_COMMON>
        </effect>
    </library_effects>
    <library_images>
        <image id="ID7">
            <init_from>Dungeon%20Floor%20Water%20[+]/material_1.png</init_from>
        </image>
    </library_images>
    <scene>
        <instance_visual_scene url="#ID2" />
    </scene>
</COLLADA>
