<?xml version="1.0" encoding="UTF-8" standalone="no" ?>
<COLLADA xmlns="http://www.collada.org/2005/11/COLLADASchema" version="1.4.1">
    <asset>
        <contributor>
            <authoring_tool>SketchUp 17.2.2555</authoring_tool>
        </contributor>
        <created>2017-10-05T02:12:48Z</created>
        <modified>2017-10-05T02:12:48Z</modified>
        <unit meter="0.0254" name="inch" />
        <up_axis>Z_UP</up_axis>
    </asset>
    <library_cameras>
        <camera id="ID1" name="skp_camera_Last_Saved_SketchUp_View">
            <optics>
                <technique_common>
                    <perspective>
                        <yfov>35</yfov>
                        <aspect_ratio>0</aspect_ratio>
                        <znear>1</znear>
                        <zfar>1000</zfar>
                    </perspective>
                </technique_common>
            </optics>
        </camera>
    </library_cameras>
    <library_visual_scenes>
        <visual_scene id="ID2">
            <node name="SketchUp">
                <node name="skp_camera_Last_Saved_SketchUp_View">
                    <matrix>-0.9977099 0.05787138 -0.03501214 -26.05265 -0.06763836 -0.8536407 0.516452 631.3772 -3.469447e-18 0.5176374 0.8556001 952.8126 0 0 0 1</matrix>
                    <instance_camera url="#ID1" />
                </node>
                <node id="ID3" name="group_0">
                    <matrix>1 0 0 -295.2756 0 1 0 -295.2756 0 0 1 7.874016 0 0 0 1</matrix>
                    <instance_geometry url="#ID4">
                        <bind_material>
                            <technique_common>
                                <instance_material symbol="Material2" target="#ID5">
                                    <bind_vertex_input semantic="UVSET0" input_semantic="TEXCOORD" input_set="0" />
                                </instance_material>
                                <instance_material symbol="Material3" target="#ID15">
                                    <bind_vertex_input semantic="UVSET0" input_semantic="TEXCOORD" input_set="0" />
                                </instance_material>
                                <instance_material symbol="Material4" target="#ID17">
                                    <bind_vertex_input semantic="UVSET0" input_semantic="TEXCOORD" input_set="0" />
                                </instance_material>
                            </technique_common>
                        </bind_material>
                    </instance_geometry>
                    <instance_geometry url="#ID23">
                        <bind_material>
                            <technique_common>
                                <instance_material symbol="Material2" target="#ID5">
                                    <bind_vertex_input semantic="UVSET0" input_semantic="TEXCOORD" input_set="0" />
                                </instance_material>
                                <instance_material symbol="Material3" target="#ID15">
                                    <bind_vertex_input semantic="UVSET0" input_semantic="TEXCOORD" input_set="0" />
                                </instance_material>
                                <instance_material symbol="Material4" target="#ID17">
                                    <bind_vertex_input semantic="UVSET0" input_semantic="TEXCOORD" input_set="0" />
                                </instance_material>
                            </technique_common>
                        </bind_material>
                    </instance_geometry>
                    <instance_geometry url="#ID33">
                        <bind_material>
                            <technique_common>
                                <instance_material symbol="Material2" target="#ID5">
                                    <bind_vertex_input semantic="UVSET0" input_semantic="TEXCOORD" input_set="0" />
                                </instance_material>
                                <instance_material symbol="Material3" target="#ID15">
                                    <bind_vertex_input semantic="UVSET0" input_semantic="TEXCOORD" input_set="0" />
                                </instance_material>
                                <instance_material symbol="Material4" target="#ID17">
                                    <bind_vertex_input semantic="UVSET0" input_semantic="TEXCOORD" input_set="0" />
                                </instance_material>
                            </technique_common>
                        </bind_material>
                    </instance_geometry>
                </node>
            </node>
        </visual_scene>
    </library_visual_scenes>
    <library_geometries>
        <geometry id="ID4">
            <mesh>
                <source id="ID10">
                    <float_array id="ID19" count="162">0 1.136868e-13 0 78.74016 78.74016 1.24345e-14 0 265.748 0 265.748 4.547474e-13 0 0 324.8031 0 0 590.5512 0 511.811 78.74016 6.217249e-15 271.6535 4.547474e-13 0 318.8976 5.684342e-14 0 324.8031 5.684342e-14 0 590.5512 2.387424e-12 0 590.5512 265.748 0 78.74016 511.811 2.398082e-14 265.748 590.5512 0 511.811 511.811 2.398082e-14 324.8031 590.5512 0 590.5512 590.5512 0 590.5512 324.8031 0 590.5512 324.8031 0 590.5512 265.748 0 590.5512 590.5512 0 511.811 78.74016 6.217249e-15 511.811 511.811 2.398082e-14 324.8031 590.5512 0 265.748 590.5512 0 78.74016 511.811 2.398082e-14 78.74016 78.74016 1.24345e-14 0 590.5512 0 590.5512 2.387424e-12 0 324.8031 5.684342e-14 0 318.8976 5.684342e-14 0 271.6535 4.547474e-13 0 265.748 4.547474e-13 0 0 324.8031 0 0 265.748 0 0 1.136868e-13 0 0 265.748 0 0 1.136868e-13 0 265.748 4.547474e-13 0 271.6535 4.547474e-13 0 318.8976 5.684342e-14 0 324.8031 5.684342e-14 0 590.5512 2.387424e-12 0 590.5512 265.748 0 590.5512 324.8031 0 590.5512 590.5512 0 324.8031 590.5512 0 265.748 590.5512 0 0 590.5512 0 0 324.8031 0 511.811 78.74016 6.217249e-15 511.811 511.811 2.398082e-14 78.74016 78.74016 1.24345e-14 78.74016 511.811 2.398082e-14</float_array>
                    <technique_common>
                        <accessor count="54" source="#ID19" stride="3">
                            <param name="X" type="float" />
                            <param name="Y" type="float" />
                            <param name="Z" type="float" />
                        </accessor>
                    </technique_common>
                </source>
                <source id="ID11">
                    <float_array id="ID20" count="162">0 0 1 0 0 1 0 0 1 0 0 1 0 0 1 0 0 1 0 0 1 0 0 1 0 0 1 0 0 1 0 0 1 0 0 1 0 0 1 0 0 1 0 0 1 0 0 1 0 0 1 0 0 1 -0 -0 -1 -0 -0 -1 -0 -0 -1 -0 -0 -1 -0 -0 -1 -0 -0 -1 -0 -0 -1 -0 -0 -1 -0 -0 -1 -0 -0 -1 -0 -0 -1 -0 -0 -1 -0 -0 -1 -0 -0 -1 -0 -0 -1 -0 -0 -1 -0 -0 -1 -0 -0 -1 0 0 0 0 0 0 0 0 0 0 0 0 0 0 0 0 0 0 0 0 0 0 0 0 0 0 0 0 0 0 0 0 0 0 0 0 0 0 0 0 0 0 0 0 0 0 0 0 0 0 0 0 0 0</float_array>
                    <technique_common>
                        <accessor count="54" source="#ID20" stride="3">
                            <param name="X" type="float" />
                            <param name="Y" type="float" />
                            <param name="Z" type="float" />
                        </accessor>
                    </technique_common>
                </source>
                <source id="ID12">
                    <Name_array id="ID22" count="0" />
                    <technique_common>
                        <accessor count="0" source="#ID22" stride="1">
                            <param name="skp_material" type="Name" />
                        </accessor>
                    </technique_common>
                </source>
                <source id="ID14">
                    <float_array id="ID21" count="36">4 3 6 5 4 9.75 10.75 3 4 11.25 4 18 17 5 10.9 3 12.1 3 12.25 3 19 3 19 9.75 6 16 10.75 18 17 16 12.25 18 19 18 19 11.25</float_array>
                    <technique_common>
                        <accessor count="18" source="#ID21" stride="2">
                            <param name="S" type="float" />
                            <param name="T" type="float" />
                        </accessor>
                    </technique_common>
                </source>
                <vertices id="ID13">
                    <input semantic="POSITION" source="#ID10" />
                    <input semantic="NORMAL" source="#ID11" />
                </vertices>
                <triangles count="18" material="Material2">
                    <input offset="0" semantic="VERTEX" source="#ID13" />
                    <input offset="1" semantic="TEXCOORD" source="#ID14" />
                    <p>0 0 1 1 2 2 1 1 0 0 3 3 2 2 1 1 4 4 4 4 1 1 5 5 1 1 3 3 6 6 6 6 3 3 7 7 6 6 7 7 8 8 6 6 8 8 9 9 6 6 9 9 10 10 6 6 10 10 11 11 5 5 12 12 13 13 12 12 5 5 1 1 13 13 12 12 14 14 13 13 14 14 15 15 15 15 14 14 16 16 16 16 14 14 6 6 16 16 6 6 11 11 16 16 11 11 17 17</p>
                </triangles>
                <triangles count="18" material="Material3">
                    <input offset="0" semantic="VERTEX" source="#ID13" />
                    <p>18 19 20 19 21 20 21 22 20 20 22 23 23 22 24 22 25 24 26 27 25 24 25 27 19 28 21 28 29 21 29 30 21 30 31 21 31 32 21 21 32 26 27 26 33 33 26 34 32 35 26 34 26 35</p>
                </triangles>
                <lines count="18" material="Material4">
                    <input offset="0" semantic="VERTEX" source="#ID13" />
                    <p>36 37 37 38 39 38 40 39 41 40 41 42 42 43 44 43 44 45 45 46 47 46 47 48 48 49 36 49 50 51 52 50 53 52 51 53</p>
                </lines>
            </mesh>
        </geometry>
        <geometry id="ID23">
            <mesh>
                <source id="ID24">
                    <float_array id="ID29" count="144">118.1102 118.1102 8.881784e-16 472.4409 472.4409 2.398082e-14 118.1102 472.4409 1.332268e-14 472.4409 118.1102 -8.881784e-16 472.4409 118.1102 -8.881784e-16 118.1102 118.1102 8.881784e-16 472.4409 472.4409 2.398082e-14 118.1102 472.4409 1.332268e-14 472.4409 118.1102 -8.881784e-16 472.4409 472.4409 2.398082e-14 118.1102 472.4409 1.332268e-14 118.1102 118.1102 8.881784e-16 472.4409 472.4409 -39.37008 472.4409 118.1102 -8.881784e-16 472.4409 118.1102 -39.37008 472.4409 472.4409 2.398082e-14 472.4409 472.4409 2.398082e-14 472.4409 472.4409 -39.37008 472.4409 118.1102 -8.881784e-16 472.4409 118.1102 -39.37008 472.4409 118.1102 -39.37008 472.4409 472.4409 -39.37008 118.1102 472.4409 1.332268e-14 472.4409 472.4409 -39.37008 118.1102 472.4409 -39.37008 472.4409 472.4409 2.398082e-14 472.4409 472.4409 2.398082e-14 118.1102 472.4409 1.332268e-14 472.4409 472.4409 -39.37008 118.1102 472.4409 -39.37008 118.1102 472.4409 -39.37008 118.1102 472.4409 1.332268e-14 118.1102 118.1102 -39.37008 118.1102 118.1102 8.881784e-16 118.1102 472.4409 -39.37008 118.1102 472.4409 -39.37008 118.1102 472.4409 1.332268e-14 118.1102 118.1102 -39.37008 118.1102 118.1102 8.881784e-16 118.1102 118.1102 -39.37008 472.4409 118.1102 -8.881784e-16 118.1102 118.1102 -39.37008 472.4409 118.1102 -39.37008 118.1102 118.1102 8.881784e-16 118.1102 118.1102 8.881784e-16 472.4409 118.1102 -8.881784e-16 118.1102 118.1102 -39.37008 472.4409 118.1102 -39.37008</float_array>
                    <technique_common>
                        <accessor count="48" source="#ID29" stride="3">
                            <param name="X" type="float" />
                            <param name="Y" type="float" />
                            <param name="Z" type="float" />
                        </accessor>
                    </technique_common>
                </source>
                <source id="ID25">
                    <float_array id="ID30" count="144">-1.253318e-17 -5.263937e-17 1 -1.253318e-17 -5.263937e-17 1 -1.253318e-17 -5.263937e-17 1 -1.253318e-17 -5.263937e-17 1 1.253318e-17 5.263937e-17 -1 1.253318e-17 5.263937e-17 -1 1.253318e-17 5.263937e-17 -1 1.253318e-17 5.263937e-17 -1 0 0 0 0 0 0 0 0 0 0 0 0 1 3.36892e-15 -7.178097e-18 1 3.36892e-15 -7.178097e-18 1 3.36892e-15 -7.178097e-18 1 3.36892e-15 -7.178097e-18 -1 -3.36892e-15 7.178097e-18 -1 -3.36892e-15 7.178097e-18 -1 -3.36892e-15 7.178097e-18 -1 -3.36892e-15 7.178097e-18 0 0 0 0 0 0 -3.36892e-15 1 3.38396e-17 -3.36892e-15 1 3.38396e-17 -3.36892e-15 1 3.38396e-17 -3.36892e-15 1 3.38396e-17 3.36892e-15 -1 -3.38396e-17 3.36892e-15 -1 -3.38396e-17 3.36892e-15 -1 -3.38396e-17 3.36892e-15 -1 -3.38396e-17 0 0 0 -1 -3.36892e-15 7.178097e-18 -1 -3.36892e-15 7.178097e-18 -1 -3.36892e-15 7.178097e-18 -1 -3.36892e-15 7.178097e-18 1 3.36892e-15 -7.178097e-18 1 3.36892e-15 -7.178097e-18 1 3.36892e-15 -7.178097e-18 1 3.36892e-15 -7.178097e-18 0 0 0 3.36892e-15 -1 -3.38396e-17 3.36892e-15 -1 -3.38396e-17 3.36892e-15 -1 -3.38396e-17 3.36892e-15 -1 -3.38396e-17 -3.36892e-15 1 3.38396e-17 -3.36892e-15 1 3.38396e-17 -3.36892e-15 1 3.38396e-17 -3.36892e-15 1 3.38396e-17</float_array>
                    <technique_common>
                        <accessor count="48" source="#ID30" stride="3">
                            <param name="X" type="float" />
                            <param name="Y" type="float" />
                            <param name="Z" type="float" />
                        </accessor>
                    </technique_common>
                </source>
                <source id="ID26">
                    <Name_array id="ID32" count="0" />
                    <technique_common>
                        <accessor count="0" source="#ID32" stride="1">
                            <param name="skp_material" type="Name" />
                        </accessor>
                    </technique_common>
                </source>
                <source id="ID28">
                    <float_array id="ID31" count="40">7 6 16 15 7 15 16 6 16 9.7 7 10.7 7 9.7 16 10.7 16 10.7 7 9.7 16 9.7 7 10.7 7 10.7 16 9.7 16 10.7 7 9.7 16 10.7 7 9.7 16 9.7 7 10.7</float_array>
                    <technique_common>
                        <accessor count="20" source="#ID31" stride="2">
                            <param name="S" type="float" />
                            <param name="T" type="float" />
                        </accessor>
                    </technique_common>
                </source>
                <vertices id="ID27">
                    <input semantic="POSITION" source="#ID24" />
                    <input semantic="NORMAL" source="#ID25" />
                </vertices>
                <triangles count="10" material="Material2">
                    <input offset="0" semantic="VERTEX" source="#ID27" />
                    <input offset="1" semantic="TEXCOORD" source="#ID28" />
                    <p>0 0 1 1 2 2 1 1 0 0 3 3 12 4 13 5 14 6 13 5 12 4 15 7 22 8 23 9 24 10 23 9 22 8 25 11 31 12 32 13 33 14 32 13 31 12 34 15 40 16 41 17 42 18 41 17 40 16 43 19</p>
                </triangles>
                <triangles count="10" material="Material3">
                    <input offset="0" semantic="VERTEX" source="#ID27" />
                    <p>4 5 6 7 6 5 16 17 18 19 18 17 26 27 28 29 28 27 35 36 37 38 37 36 44 45 46 47 46 45</p>
                </triangles>
                <lines count="12" material="Material4">
                    <input offset="0" semantic="VERTEX" source="#ID27" />
                    <p>8 9 9 10 10 11 11 8 8 20 20 21 9 21 21 30 10 30 30 39 11 39 39 20</p>
                </lines>
            </mesh>
        </geometry>
        <geometry id="ID33">
            <mesh>
                <source id="ID34">
                    <float_array id="ID39" count="180">78.74016 78.74016 -39.37008 118.1102 118.1102 -39.37008 78.74016 511.811 -39.37008 511.811 78.74016 -39.37008 118.1102 472.4409 -39.37008 472.4409 118.1102 -39.37008 511.811 511.811 -39.37008 472.4409 472.4409 -39.37008 472.4409 118.1102 -39.37008 472.4409 472.4409 -39.37008 511.811 511.811 -39.37008 118.1102 472.4409 -39.37008 78.74016 511.811 -39.37008 511.811 78.74016 -39.37008 118.1102 118.1102 -39.37008 78.74016 78.74016 -39.37008 511.811 78.74016 -39.37008 511.811 511.811 -39.37008 78.74016 511.811 -39.37008 78.74016 78.74016 -39.37008 472.4409 118.1102 -39.37008 472.4409 472.4409 -39.37008 118.1102 118.1102 -39.37008 118.1102 472.4409 -39.37008 511.811 511.811 2.398082e-14 511.811 78.74016 -39.37008 511.811 78.74016 6.217249e-15 511.811 511.811 -39.37008 511.811 511.811 -39.37008 511.811 511.811 2.398082e-14 511.811 78.74016 -39.37008 511.811 78.74016 6.217249e-15 511.811 78.74016 6.217249e-15 511.811 511.811 2.398082e-14 511.811 511.811 2.398082e-14 78.74016 511.811 -39.37008 511.811 511.811 -39.37008 78.74016 511.811 2.398082e-14 78.74016 511.811 2.398082e-14 511.811 511.811 2.398082e-14 78.74016 511.811 -39.37008 511.811 511.811 -39.37008 78.74016 511.811 2.398082e-14 78.74016 511.811 -39.37008 78.74016 78.74016 1.24345e-14 78.74016 78.74016 -39.37008 78.74016 511.811 2.398082e-14 78.74016 511.811 2.398082e-14 78.74016 511.811 -39.37008 78.74016 78.74016 1.24345e-14 78.74016 78.74016 -39.37008 78.74016 78.74016 1.24345e-14 78.74016 78.74016 -39.37008 511.811 78.74016 6.217249e-15 511.811 78.74016 -39.37008 78.74016 78.74016 1.24345e-14 78.74016 78.74016 1.24345e-14 78.74016 78.74016 -39.37008 511.811 78.74016 6.217249e-15 511.811 78.74016 -39.37008</float_array>
                    <technique_common>
                        <accessor count="60" source="#ID39" stride="3">
                            <param name="X" type="float" />
                            <param name="Y" type="float" />
                            <param name="Z" type="float" />
                        </accessor>
                    </technique_common>
                </source>
                <source id="ID35">
                    <float_array id="ID40" count="180">7.178097e-18 -3.38396e-17 1 7.178097e-18 -3.38396e-17 1 7.178097e-18 -3.38396e-17 1 7.178097e-18 -3.38396e-17 1 7.178097e-18 -3.38396e-17 1 7.178097e-18 -3.38396e-17 1 7.178097e-18 -3.38396e-17 1 7.178097e-18 -3.38396e-17 1 -7.178097e-18 3.38396e-17 -1 -7.178097e-18 3.38396e-17 -1 -7.178097e-18 3.38396e-17 -1 -7.178097e-18 3.38396e-17 -1 -7.178097e-18 3.38396e-17 -1 -7.178097e-18 3.38396e-17 -1 -7.178097e-18 3.38396e-17 -1 -7.178097e-18 3.38396e-17 -1 0 0 0 0 0 0 0 0 0 0 0 0 0 0 0 0 0 0 0 0 0 0 0 0 -1 -3.412672e-15 7.178097e-18 -1 -3.412672e-15 7.178097e-18 -1 -3.412672e-15 7.178097e-18 -1 -3.412672e-15 7.178097e-18 1 3.412672e-15 -7.178097e-18 1 3.412672e-15 -7.178097e-18 1 3.412672e-15 -7.178097e-18 1 3.412672e-15 -7.178097e-18 0 0 0 0 0 0 1.312566e-15 -1 -3.38396e-17 1.312566e-15 -1 -3.38396e-17 1.312566e-15 -1 -3.38396e-17 1.312566e-15 -1 -3.38396e-17 -1.312566e-15 1 3.38396e-17 -1.312566e-15 1 3.38396e-17 -1.312566e-15 1 3.38396e-17 -1.312566e-15 1 3.38396e-17 0 0 0 1 -6.562831e-17 -7.178097e-18 1 -6.562831e-17 -7.178097e-18 1 -6.562831e-17 -7.178097e-18 1 -6.562831e-17 -7.178097e-18 -1 6.562831e-17 7.178097e-18 -1 6.562831e-17 7.178097e-18 -1 6.562831e-17 7.178097e-18 -1 6.562831e-17 7.178097e-18 0 0 0 4.858078e-34 1 3.38396e-17 4.858078e-34 1 3.38396e-17 4.858078e-34 1 3.38396e-17 4.858078e-34 1 3.38396e-17 -4.858078e-34 -1 -3.38396e-17 -4.858078e-34 -1 -3.38396e-17 -4.858078e-34 -1 -3.38396e-17 -4.858078e-34 -1 -3.38396e-17</float_array>
                    <technique_common>
                        <accessor count="60" source="#ID40" stride="3">
                            <param name="X" type="float" />
                            <param name="Y" type="float" />
                            <param name="Z" type="float" />
                        </accessor>
                    </technique_common>
                </source>
                <source id="ID36">
                    <Name_array id="ID42" count="0" />
                    <technique_common>
                        <accessor count="0" source="#ID42" stride="1">
                            <param name="skp_material" type="Name" />
                        </accessor>
                    </technique_common>
                </source>
                <source id="ID38">
                    <float_array id="ID41" count="48">6 5 7 6 6 16 17 5 7 15 16 6 17 16 16 15 6.000507 10.997 17.00051 9.997005 17.00051 10.997 6.000507 9.997005 16.99896 10.9884 5.998959 9.988403 16.99896 9.988403 5.998959 10.9884 17.00314 9.990494 6.003136 10.99049 6.003136 9.990494 17.00314 10.99049 16.99472 9.992076 5.994724 10.99208 5.994724 9.992076 16.99472 10.99208</float_array>
                    <technique_common>
                        <accessor count="24" source="#ID41" stride="2">
                            <param name="S" type="float" />
                            <param name="T" type="float" />
                        </accessor>
                    </technique_common>
                </source>
                <vertices id="ID37">
                    <input semantic="POSITION" source="#ID34" />
                    <input semantic="NORMAL" source="#ID35" />
                </vertices>
                <triangles count="16" material="Material2">
                    <input offset="0" semantic="VERTEX" source="#ID37" />
                    <input offset="1" semantic="TEXCOORD" source="#ID38" />
                    <p>0 0 1 1 2 2 1 1 0 0 3 3 2 2 1 1 4 4 1 1 3 3 5 5 5 5 3 3 6 6 4 4 6 6 2 2 6 6 4 4 7 7 6 6 7 7 5 5 24 8 25 9 26 10 25 9 24 8 27 11 34 12 35 13 36 14 35 13 34 12 37 15 43 16 44 17 45 18 44 17 43 16 46 19 52 20 53 21 54 22 53 21 52 20 55 23</p>
                </triangles>
                <triangles count="16" material="Material3">
                    <input offset="0" semantic="VERTEX" source="#ID37" />
                    <p>8 9 10 9 11 10 12 10 11 10 13 8 8 13 14 11 14 12 13 15 14 12 14 15 28 29 30 31 30 29 38 39 40 41 40 39 47 48 49 50 49 48 56 57 58 59 58 57</p>
                </triangles>
                <lines count="16" material="Material4">
                    <input offset="0" semantic="VERTEX" source="#ID37" />
                    <p>16 17 17 18 18 19 19 16 20 21 22 20 23 22 21 23 32 33 33 17 32 16 33 42 42 18 42 51 51 19 51 32</p>
                </lines>
            </mesh>
        </geometry>
    </library_geometries>
    <library_materials>
        <material id="ID5" name="material_1">
            <instance_effect url="#ID6" />
        </material>
        <material id="ID15" name="material_6">
            <instance_effect url="#ID16" />
        </material>
        <material id="ID17" name="edge_color0125129255">
            <instance_effect url="#ID18" />
        </material>
    </library_materials>
    <library_effects>
        <effect id="ID6">
            <profile_COMMON>
                <newparam sid="ID8">
                    <surface type="2D">
                        <init_from>ID7</init_from>
                    </surface>
                </newparam>
                <newparam sid="ID9">
                    <sampler2D>
                        <source>ID8</source>
                    </sampler2D>
                </newparam>
                <technique sid="COMMON">
                    <lambert>
                        <diffuse>
                            <texture texture="ID9" texcoord="UVSET0" />
                        </diffuse>
                    </lambert>
                </technique>
            </profile_COMMON>
        </effect>
        <effect id="ID16">
            <profile_COMMON>
                <technique sid="COMMON">
                    <lambert>
                        <diffuse>
                            <color>0 0.4901961 0.5058824 1</color>
                        </diffuse>
                    </lambert>
                </technique>
            </profile_COMMON>
        </effect>
        <effect id="ID18">
            <profile_COMMON>
                <technique sid="COMMON">
                    <constant>
                        <transparent opaque="A_ONE">
                            <color>0 0.4901961 0.5058824 1</color>
                        </transparent>
                        <transparency>
                            <float>1</float>
                        </transparency>
                    </constant>
                </technique>
            </profile_COMMON>
        </effect>
    </library_effects>
    <library_images>
        <image id="ID7">
            <init_from>Dungeon%20Floor%20Water%20[]/material_1.png</init_from>
        </image>
    </library_images>
    <scene>
        <instance_visual_scene url="#ID2" />
    </scene>
</COLLADA>
