<?xml version="1.0" encoding="UTF-8" standalone="no" ?>
<COLLADA xmlns="http://www.collada.org/2005/11/COLLADASchema" version="1.4.1">
    <asset>
        <contributor>
            <authoring_tool>SketchUp 17.2.2555</authoring_tool>
        </contributor>
        <created>2017-10-05T02:28:13Z</created>
        <modified>2017-10-05T02:28:13Z</modified>
        <unit meter="0.0254" name="inch" />
        <up_axis>Z_UP</up_axis>
    </asset>
    <library_cameras>
        <camera id="ID1" name="skp_camera_Last_Saved_SketchUp_View">
            <optics>
                <technique_common>
                    <perspective>
                        <yfov>35</yfov>
                        <aspect_ratio>0</aspect_ratio>
                        <znear>1</znear>
                        <zfar>1000</zfar>
                    </perspective>
                </technique_common>
            </optics>
        </camera>
    </library_cameras>
    <library_visual_scenes>
        <visual_scene id="ID2">
            <node name="SketchUp">
                <node name="skp_camera_Last_Saved_SketchUp_View">
                    <matrix>-0.9999149 0.01145368 -0.006248313 -4.288624 -0.01304715 -0.8777934 0.4788616 579.3636 1.734723e-18 0.4789024 0.8778682 975.6014 0 0 0 1</matrix>
                    <instance_camera url="#ID1" />
                </node>
                <node id="ID3" name="group_0">
                    <matrix>1 0 0 -295.2756 0 1 0 -295.2756 0 0 1 7.874016 0 0 0 1</matrix>
                    <instance_geometry url="#ID4">
                        <bind_material>
                            <technique_common>
                                <instance_material symbol="Material2" target="#ID5">
                                    <bind_vertex_input semantic="UVSET0" input_semantic="TEXCOORD" input_set="0" />
                                </instance_material>
                                <instance_material symbol="Material3" target="#ID11">
                                    <bind_vertex_input semantic="UVSET0" input_semantic="TEXCOORD" input_set="0" />
                                </instance_material>
                                <instance_material symbol="Material4" target="#ID13">
                                    <bind_vertex_input semantic="UVSET0" input_semantic="TEXCOORD" input_set="0" />
                                </instance_material>
                            </technique_common>
                        </bind_material>
                    </instance_geometry>
                    <instance_geometry url="#ID18">
                        <bind_material>
                            <technique_common>
                                <instance_material symbol="Material2" target="#ID5">
                                    <bind_vertex_input semantic="UVSET0" input_semantic="TEXCOORD" input_set="0" />
                                </instance_material>
                                <instance_material symbol="Material3" target="#ID11">
                                    <bind_vertex_input semantic="UVSET0" input_semantic="TEXCOORD" input_set="0" />
                                </instance_material>
                                <instance_material symbol="Material4" target="#ID13">
                                    <bind_vertex_input semantic="UVSET0" input_semantic="TEXCOORD" input_set="0" />
                                </instance_material>
                            </technique_common>
                        </bind_material>
                    </instance_geometry>
                    <instance_geometry url="#ID26">
                        <bind_material>
                            <technique_common>
                                <instance_material symbol="Material2" target="#ID5">
                                    <bind_vertex_input semantic="UVSET0" input_semantic="TEXCOORD" input_set="0" />
                                </instance_material>
                                <instance_material symbol="Material3" target="#ID11">
                                    <bind_vertex_input semantic="UVSET0" input_semantic="TEXCOORD" input_set="0" />
                                </instance_material>
                                <instance_material symbol="Material4" target="#ID13">
                                    <bind_vertex_input semantic="UVSET0" input_semantic="TEXCOORD" input_set="0" />
                                </instance_material>
                            </technique_common>
                        </bind_material>
                    </instance_geometry>
                    <instance_geometry url="#ID34">
                        <bind_material>
                            <technique_common>
                                <instance_material symbol="Material2" target="#ID5">
                                    <bind_vertex_input semantic="UVSET0" input_semantic="TEXCOORD" input_set="0" />
                                </instance_material>
                                <instance_material symbol="Material3" target="#ID11">
                                    <bind_vertex_input semantic="UVSET0" input_semantic="TEXCOORD" input_set="0" />
                                </instance_material>
                                <instance_material symbol="Material4" target="#ID13">
                                    <bind_vertex_input semantic="UVSET0" input_semantic="TEXCOORD" input_set="0" />
                                </instance_material>
                            </technique_common>
                        </bind_material>
                    </instance_geometry>
                    <instance_geometry url="#ID42">
                        <bind_material>
                            <technique_common>
                                <instance_material symbol="Material2" target="#ID11">
                                    <bind_vertex_input semantic="UVSET0" input_semantic="TEXCOORD" input_set="0" />
                                </instance_material>
                                <instance_material symbol="Material3" target="#ID43">
                                    <bind_vertex_input semantic="UVSET0" input_semantic="TEXCOORD" input_set="0" />
                                </instance_material>
                                <instance_material symbol="Material4" target="#ID13">
                                    <bind_vertex_input semantic="UVSET0" input_semantic="TEXCOORD" input_set="0" />
                                </instance_material>
                            </technique_common>
                        </bind_material>
                    </instance_geometry>
                </node>
            </node>
        </visual_scene>
    </library_visual_scenes>
    <library_geometries>
        <geometry id="ID4">
            <mesh>
                <source id="ID7">
                    <float_array id="ID15" count="216">196.8504 433.0709 2.398082e-14 196.8504 511.811 2.930989e-14 78.74016 433.0709 3.552714e-14 0 1.136868e-13 0 78.74016 157.4803 0 0 265.748 0 271.6535 4.547474e-13 0 0 324.8031 0 0 590.5512 0 157.4803 118.1102 0 157.4803 157.4803 0 433.0709 118.1102 0 318.8976 5.684342e-14 0 324.8031 5.684342e-14 0 590.5512 2.387424e-12 0 511.811 157.4803 0 590.5512 265.748 0 265.748 590.5512 0 393.7008 511.811 3.552714e-14 590.5512 590.5512 0 393.7008 433.0709 2.398082e-14 511.811 433.0709 2.398082e-14 590.5512 324.8031 0 433.0709 157.4803 0 433.0709 118.1102 0 433.0709 157.4803 0 511.811 157.4803 0 590.5512 324.8031 0 590.5512 265.748 0 590.5512 590.5512 0 511.811 433.0709 2.398082e-14 393.7008 433.0709 2.398082e-14 393.7008 511.811 3.552714e-14 265.748 590.5512 0 196.8504 511.811 2.930989e-14 78.74016 433.0709 3.552714e-14 78.74016 157.4803 0 0 590.5512 0 590.5512 2.387424e-12 0 324.8031 5.684342e-14 0 318.8976 5.684342e-14 0 271.6535 4.547474e-13 0 157.4803 118.1102 0 157.4803 157.4803 0 0 324.8031 0 0 265.748 0 0 1.136868e-13 0 196.8504 433.0709 2.398082e-14 265.748 590.5512 0 0 590.5512 0 0 324.8031 0 0 265.748 0 0 1.136868e-13 0 271.6535 4.547474e-13 0 318.8976 5.684342e-14 0 324.8031 5.684342e-14 0 590.5512 2.387424e-12 0 590.5512 265.748 0 590.5512 324.8031 0 590.5512 590.5512 0 196.8504 433.0709 2.398082e-14 196.8504 511.811 2.930989e-14 393.7008 511.811 3.552714e-14 393.7008 433.0709 2.398082e-14 511.811 433.0709 2.398082e-14 511.811 157.4803 0 433.0709 157.4803 0 433.0709 118.1102 0 157.4803 118.1102 0 157.4803 157.4803 0 78.74016 157.4803 0 78.74016 433.0709 3.552714e-14</float_array>
                    <technique_common>
                        <accessor count="72" source="#ID15" stride="3">
                            <param name="X" type="float" />
                            <param name="Y" type="float" />
                            <param name="Z" type="float" />
                        </accessor>
                    </technique_common>
                </source>
                <source id="ID8">
                    <float_array id="ID16" count="216">3.363794e-18 -2.332812e-17 1 3.363794e-18 -2.332812e-17 1 3.363794e-18 -2.332812e-17 1 3.363794e-18 -2.332812e-17 1 3.363794e-18 -2.332812e-17 1 3.363794e-18 -2.332812e-17 1 3.363794e-18 -2.332812e-17 1 3.363794e-18 -2.332812e-17 1 3.363794e-18 -2.332812e-17 1 3.363794e-18 -2.332812e-17 1 3.363794e-18 -2.332812e-17 1 3.363794e-18 -2.332812e-17 1 3.363794e-18 -2.332812e-17 1 3.363794e-18 -2.332812e-17 1 3.363794e-18 -2.332812e-17 1 3.363794e-18 -2.332812e-17 1 3.363794e-18 -2.332812e-17 1 3.363794e-18 -2.332812e-17 1 3.363794e-18 -2.332812e-17 1 3.363794e-18 -2.332812e-17 1 3.363794e-18 -2.332812e-17 1 3.363794e-18 -2.332812e-17 1 3.363794e-18 -2.332812e-17 1 3.363794e-18 -2.332812e-17 1 -3.363794e-18 2.332812e-17 -1 -3.363794e-18 2.332812e-17 -1 -3.363794e-18 2.332812e-17 -1 -3.363794e-18 2.332812e-17 -1 -3.363794e-18 2.332812e-17 -1 -3.363794e-18 2.332812e-17 -1 -3.363794e-18 2.332812e-17 -1 -3.363794e-18 2.332812e-17 -1 -3.363794e-18 2.332812e-17 -1 -3.363794e-18 2.332812e-17 -1 -3.363794e-18 2.332812e-17 -1 -3.363794e-18 2.332812e-17 -1 -3.363794e-18 2.332812e-17 -1 -3.363794e-18 2.332812e-17 -1 -3.363794e-18 2.332812e-17 -1 -3.363794e-18 2.332812e-17 -1 -3.363794e-18 2.332812e-17 -1 -3.363794e-18 2.332812e-17 -1 -3.363794e-18 2.332812e-17 -1 -3.363794e-18 2.332812e-17 -1 -3.363794e-18 2.332812e-17 -1 -3.363794e-18 2.332812e-17 -1 -3.363794e-18 2.332812e-17 -1 -3.363794e-18 2.332812e-17 -1 0 0 0 0 0 0 0 0 0 0 0 0 0 0 0 0 0 0 0 0 0 0 0 0 0 0 0 0 0 0 0 0 0 0 0 0 0 0 0 0 0 0 0 0 0 0 0 0 0 0 0 0 0 0 0 0 0 0 0 0 0 0 0 0 0 0 0 0 0 0 0 0</float_array>
                    <technique_common>
                        <accessor count="72" source="#ID16" stride="3">
                            <param name="X" type="float" />
                            <param name="Y" type="float" />
                            <param name="Z" type="float" />
                        </accessor>
                    </technique_common>
                </source>
                <source id="ID9">
                    <Name_array id="ID17" count="0" />
                    <technique_common>
                        <accessor count="0" source="#ID17" stride="1">
                            <param name="skp_material" type="Name" />
                        </accessor>
                    </technique_common>
                </source>
                <vertices id="ID10">
                    <input semantic="POSITION" source="#ID7" />
                    <input semantic="NORMAL" source="#ID8" />
                </vertices>
                <triangles count="24" material="Material2">
                    <input offset="0" semantic="VERTEX" source="#ID10" />
                    <p>0 1 2 3 4 5 4 3 6 5 4 7 7 4 8 4 6 9 4 9 10 9 6 11 11 6 12 11 12 13 11 13 14 11 14 15 15 14 16 8 2 17 2 8 4 17 2 1 17 1 18 17 18 19 19 18 20 19 20 21 19 21 15 19 15 16 19 16 22 15 23 11</p>
                </triangles>
                <triangles count="24" material="Material3">
                    <input offset="0" semantic="VERTEX" source="#ID10" />
                    <p>24 25 26 27 28 29 28 26 29 26 30 29 30 31 29 31 32 29 29 32 33 32 34 33 34 35 33 36 37 35 33 35 37 28 38 26 26 38 24 38 39 24 39 40 24 40 41 24 24 41 42 43 42 36 42 41 36 37 36 44 44 36 45 41 46 36 45 36 46 35 34 47</p>
                </triangles>
                <lines count="24" material="Material4">
                    <input offset="0" semantic="VERTEX" source="#ID10" />
                    <p>48 49 49 50 51 50 51 52 53 52 54 53 55 54 55 56 56 57 58 57 58 59 48 59 60 61 62 61 62 63 63 64 64 65 65 66 66 67 67 68 68 69 69 70 70 71 71 60</p>
                </lines>
            </mesh>
        </geometry>
        <geometry id="ID18">
            <mesh>
                <source id="ID19">
                    <float_array id="ID23" count="36">236.2205 393.7008 3.552714e-14 354.3307 433.0709 3.552714e-14 236.2205 433.0709 2.398082e-14 354.3307 393.7008 2.398082e-14 354.3307 393.7008 2.398082e-14 236.2205 393.7008 3.552714e-14 354.3307 433.0709 3.552714e-14 236.2205 433.0709 2.398082e-14 236.2205 393.7008 3.552714e-14 354.3307 393.7008 2.398082e-14 354.3307 433.0709 3.552714e-14 236.2205 433.0709 2.398082e-14</float_array>
                    <technique_common>
                        <accessor count="12" source="#ID23" stride="3">
                            <param name="X" type="float" />
                            <param name="Y" type="float" />
                            <param name="Z" type="float" />
                        </accessor>
                    </technique_common>
                </source>
                <source id="ID20">
                    <float_array id="ID24" count="36">-2.261962e-34 1.058598e-31 1 -2.261962e-34 1.058598e-31 1 -2.261962e-34 1.058598e-31 1 -2.261962e-34 1.058598e-31 1 2.261962e-34 -1.058598e-31 -1 2.261962e-34 -1.058598e-31 -1 2.261962e-34 -1.058598e-31 -1 2.261962e-34 -1.058598e-31 -1 0 0 0 0 0 0 0 0 0 0 0 0</float_array>
                    <technique_common>
                        <accessor count="12" source="#ID24" stride="3">
                            <param name="X" type="float" />
                            <param name="Y" type="float" />
                            <param name="Z" type="float" />
                        </accessor>
                    </technique_common>
                </source>
                <source id="ID21">
                    <Name_array id="ID25" count="0" />
                    <technique_common>
                        <accessor count="0" source="#ID25" stride="1">
                            <param name="skp_material" type="Name" />
                        </accessor>
                    </technique_common>
                </source>
                <vertices id="ID22">
                    <input semantic="POSITION" source="#ID19" />
                    <input semantic="NORMAL" source="#ID20" />
                </vertices>
                <triangles count="2" material="Material2">
                    <input offset="0" semantic="VERTEX" source="#ID22" />
                    <p>0 1 2 1 0 3</p>
                </triangles>
                <triangles count="2" material="Material3">
                    <input offset="0" semantic="VERTEX" source="#ID22" />
                    <p>4 5 6 7 6 5</p>
                </triangles>
                <lines count="4" material="Material4">
                    <input offset="0" semantic="VERTEX" source="#ID22" />
                    <p>8 9 9 10 10 11 11 8</p>
                </lines>
            </mesh>
        </geometry>
        <geometry id="ID26">
            <mesh>
                <source id="ID27">
                    <float_array id="ID31" count="54">433.0709 196.8504 0 433.0709 236.2205 0 354.3307 196.8504 0 472.4409 354.3307 0 354.3307 354.3307 0 472.4409 236.2205 0 472.4409 236.2205 0 433.0709 236.2205 0 472.4409 354.3307 0 354.3307 196.8504 0 354.3307 354.3307 0 433.0709 196.8504 0 354.3307 196.8504 0 433.0709 196.8504 0 433.0709 236.2205 0 472.4409 236.2205 0 472.4409 354.3307 0 354.3307 354.3307 0</float_array>
                    <technique_common>
                        <accessor count="18" source="#ID31" stride="3">
                            <param name="X" type="float" />
                            <param name="Y" type="float" />
                            <param name="Z" type="float" />
                        </accessor>
                    </technique_common>
                </source>
                <source id="ID28">
                    <float_array id="ID32" count="54">0 0 1 0 0 1 0 0 1 0 0 1 0 0 1 0 0 1 -0 -0 -1 -0 -0 -1 -0 -0 -1 -0 -0 -1 -0 -0 -1 -0 -0 -1 0 0 0 0 0 0 0 0 0 0 0 0 0 0 0 0 0 0</float_array>
                    <technique_common>
                        <accessor count="18" source="#ID32" stride="3">
                            <param name="X" type="float" />
                            <param name="Y" type="float" />
                            <param name="Z" type="float" />
                        </accessor>
                    </technique_common>
                </source>
                <source id="ID29">
                    <Name_array id="ID33" count="0" />
                    <technique_common>
                        <accessor count="0" source="#ID33" stride="1">
                            <param name="skp_material" type="Name" />
                        </accessor>
                    </technique_common>
                </source>
                <vertices id="ID30">
                    <input semantic="POSITION" source="#ID27" />
                    <input semantic="NORMAL" source="#ID28" />
                </vertices>
                <triangles count="4" material="Material2">
                    <input offset="0" semantic="VERTEX" source="#ID30" />
                    <p>0 1 2 2 3 4 3 2 1 3 1 5</p>
                </triangles>
                <triangles count="4" material="Material3">
                    <input offset="0" semantic="VERTEX" source="#ID30" />
                    <p>6 7 8 7 9 8 10 8 9 9 7 11</p>
                </triangles>
                <lines count="6" material="Material4">
                    <input offset="0" semantic="VERTEX" source="#ID30" />
                    <p>12 13 13 14 14 15 15 16 16 17 17 12</p>
                </lines>
            </mesh>
        </geometry>
        <geometry id="ID34">
            <mesh>
                <source id="ID35">
                    <float_array id="ID39" count="54">236.2205 196.8504 0 157.4803 236.2205 0 157.4803 196.8504 0 118.1102 354.3307 0 118.1102 236.2205 0 236.2205 354.3307 0 236.2205 196.8504 0 157.4803 236.2205 0 236.2205 354.3307 0 118.1102 354.3307 0 118.1102 236.2205 0 157.4803 196.8504 0 157.4803 196.8504 0 236.2205 196.8504 0 236.2205 354.3307 0 118.1102 354.3307 0 118.1102 236.2205 0 157.4803 236.2205 0</float_array>
                    <technique_common>
                        <accessor count="18" source="#ID39" stride="3">
                            <param name="X" type="float" />
                            <param name="Y" type="float" />
                            <param name="Z" type="float" />
                        </accessor>
                    </technique_common>
                </source>
                <source id="ID36">
                    <float_array id="ID40" count="54">0 0 1 0 0 1 0 0 1 0 0 1 0 0 1 0 0 1 -0 -0 -1 -0 -0 -1 -0 -0 -1 -0 -0 -1 -0 -0 -1 -0 -0 -1 0 0 0 0 0 0 0 0 0 0 0 0 0 0 0 0 0 0</float_array>
                    <technique_common>
                        <accessor count="18" source="#ID40" stride="3">
                            <param name="X" type="float" />
                            <param name="Y" type="float" />
                            <param name="Z" type="float" />
                        </accessor>
                    </technique_common>
                </source>
                <source id="ID37">
                    <Name_array id="ID41" count="0" />
                    <technique_common>
                        <accessor count="0" source="#ID41" stride="1">
                            <param name="skp_material" type="Name" />
                        </accessor>
                    </technique_common>
                </source>
                <vertices id="ID38">
                    <input semantic="POSITION" source="#ID35" />
                    <input semantic="NORMAL" source="#ID36" />
                </vertices>
                <triangles count="4" material="Material2">
                    <input offset="0" semantic="VERTEX" source="#ID38" />
                    <p>0 1 2 1 3 4 3 1 5 5 1 0</p>
                </triangles>
                <triangles count="4" material="Material3">
                    <input offset="0" semantic="VERTEX" source="#ID38" />
                    <p>6 7 8 8 7 9 10 9 7 11 7 6</p>
                </triangles>
                <lines count="6" material="Material4">
                    <input offset="0" semantic="VERTEX" source="#ID38" />
                    <p>12 13 13 14 14 15 15 16 16 17 17 12</p>
                </lines>
            </mesh>
        </geometry>
        <geometry id="ID42">
            <mesh>
                <source id="ID48">
                    <float_array id="ID53" count="252">78.74016 157.4803 0 118.1102 236.2205 0 78.74016 433.0709 3.552714e-14 157.4803 157.4803 0 157.4803 196.8504 0 236.2205 196.8504 0 157.4803 118.1102 0 433.0709 118.1102 0 354.3307 196.8504 0 236.2205 354.3307 0 354.3307 393.7008 2.398082e-14 354.3307 433.0709 3.552714e-14 354.3307 354.3307 0 433.0709 196.8504 0 433.0709 157.4803 0 472.4409 236.2205 0 433.0709 236.2205 0 511.811 157.4803 0 511.811 433.0709 2.398082e-14 196.8504 433.0709 2.398082e-14 393.7008 511.811 3.552714e-14 196.8504 511.811 2.930989e-14 236.2205 433.0709 2.398082e-14 393.7008 433.0709 2.398082e-14 472.4409 354.3307 0 118.1102 354.3307 0 236.2205 393.7008 3.552714e-14 157.4803 236.2205 0 157.4803 196.8504 0 118.1102 236.2205 0 157.4803 236.2205 0 354.3307 393.7008 2.398082e-14 236.2205 354.3307 0 236.2205 393.7008 3.552714e-14 236.2205 433.0709 2.398082e-14 196.8504 433.0709 2.398082e-14 118.1102 354.3307 0 78.74016 433.0709 3.552714e-14 472.4409 236.2205 0 472.4409 354.3307 0 511.811 433.0709 2.398082e-14 393.7008 433.0709 2.398082e-14 354.3307 354.3307 0 393.7008 511.811 3.552714e-14 354.3307 433.0709 3.552714e-14 196.8504 511.811 2.930989e-14 511.811 157.4803 0 433.0709 157.4803 0 433.0709 196.8504 0 433.0709 236.2205 0 433.0709 118.1102 0 354.3307 196.8504 0 236.2205 196.8504 0 157.4803 118.1102 0 157.4803 157.4803 0 78.74016 157.4803 0 78.74016 157.4803 0 78.74016 433.0709 3.552714e-14 157.4803 157.4803 0 157.4803 118.1102 0 433.0709 118.1102 0 433.0709 157.4803 0 511.811 157.4803 0 511.811 433.0709 2.398082e-14 393.7008 433.0709 2.398082e-14 393.7008 511.811 3.552714e-14 196.8504 511.811 2.930989e-14 196.8504 433.0709 2.398082e-14 157.4803 196.8504 0 236.2205 196.8504 0 157.4803 236.2205 0 118.1102 236.2205 0 118.1102 354.3307 0 236.2205 354.3307 0 433.0709 236.2205 0 472.4409 236.2205 0 433.0709 196.8504 0 354.3307 196.8504 0 354.3307 354.3307 0 472.4409 354.3307 0 236.2205 393.7008 3.552714e-14 354.3307 393.7008 2.398082e-14 236.2205 433.0709 2.398082e-14 354.3307 433.0709 3.552714e-14</float_array>
                    <technique_common>
                        <accessor count="84" source="#ID53" stride="3">
                            <param name="X" type="float" />
                            <param name="Y" type="float" />
                            <param name="Z" type="float" />
                        </accessor>
                    </technique_common>
                </source>
                <source id="ID49">
                    <float_array id="ID54" count="252">6.24731e-18 -9.001182e-17 1 6.24731e-18 -9.001182e-17 1 6.24731e-18 -9.001182e-17 1 6.24731e-18 -9.001182e-17 1 6.24731e-18 -9.001182e-17 1 6.24731e-18 -9.001182e-17 1 6.24731e-18 -9.001182e-17 1 6.24731e-18 -9.001182e-17 1 6.24731e-18 -9.001182e-17 1 6.24731e-18 -9.001182e-17 1 6.24731e-18 -9.001182e-17 1 6.24731e-18 -9.001182e-17 1 6.24731e-18 -9.001182e-17 1 6.24731e-18 -9.001182e-17 1 6.24731e-18 -9.001182e-17 1 6.24731e-18 -9.001182e-17 1 6.24731e-18 -9.001182e-17 1 6.24731e-18 -9.001182e-17 1 6.24731e-18 -9.001182e-17 1 6.24731e-18 -9.001182e-17 1 6.24731e-18 -9.001182e-17 1 6.24731e-18 -9.001182e-17 1 6.24731e-18 -9.001182e-17 1 6.24731e-18 -9.001182e-17 1 6.24731e-18 -9.001182e-17 1 6.24731e-18 -9.001182e-17 1 6.24731e-18 -9.001182e-17 1 6.24731e-18 -9.001182e-17 1 -6.24731e-18 9.001182e-17 -1 -6.24731e-18 9.001182e-17 -1 -6.24731e-18 9.001182e-17 -1 -6.24731e-18 9.001182e-17 -1 -6.24731e-18 9.001182e-17 -1 -6.24731e-18 9.001182e-17 -1 -6.24731e-18 9.001182e-17 -1 -6.24731e-18 9.001182e-17 -1 -6.24731e-18 9.001182e-17 -1 -6.24731e-18 9.001182e-17 -1 -6.24731e-18 9.001182e-17 -1 -6.24731e-18 9.001182e-17 -1 -6.24731e-18 9.001182e-17 -1 -6.24731e-18 9.001182e-17 -1 -6.24731e-18 9.001182e-17 -1 -6.24731e-18 9.001182e-17 -1 -6.24731e-18 9.001182e-17 -1 -6.24731e-18 9.001182e-17 -1 -6.24731e-18 9.001182e-17 -1 -6.24731e-18 9.001182e-17 -1 -6.24731e-18 9.001182e-17 -1 -6.24731e-18 9.001182e-17 -1 -6.24731e-18 9.001182e-17 -1 -6.24731e-18 9.001182e-17 -1 -6.24731e-18 9.001182e-17 -1 -6.24731e-18 9.001182e-17 -1 -6.24731e-18 9.001182e-17 -1 -6.24731e-18 9.001182e-17 -1 0 0 0 0 0 0 0 0 0 0 0 0 0 0 0 0 0 0 0 0 0 0 0 0 0 0 0 0 0 0 0 0 0 0 0 0 0 0 0 0 0 0 0 0 0 0 0 0 0 0 0 0 0 0 0 0 0 0 0 0 0 0 0 0 0 0 0 0 0 0 0 0 0 0 0 0 0 0 0 0 0 0 0 0</float_array>
                    <technique_common>
                        <accessor count="84" source="#ID54" stride="3">
                            <param name="X" type="float" />
                            <param name="Y" type="float" />
                            <param name="Z" type="float" />
                        </accessor>
                    </technique_common>
                </source>
                <source id="ID50">
                    <Name_array id="ID56" count="0" />
                    <technique_common>
                        <accessor count="0" source="#ID56" stride="1">
                            <param name="skp_material" type="Name" />
                        </accessor>
                    </technique_common>
                </source>
                <source id="ID52">
                    <float_array id="ID55" count="56">6 7 7 9 6 14 8 7 8 8 10 8 8 6 15 6 13 8 10 12 13 13 13 14 13 12 15 8 15 7 16 9 15 9 17 7 17 14 9 14 14 16 9 16 10 14 14 14 16 12 7 12 10 13 8 9</float_array>
                    <technique_common>
                        <accessor count="28" source="#ID55" stride="2">
                            <param name="S" type="float" />
                            <param name="T" type="float" />
                        </accessor>
                    </technique_common>
                </source>
                <vertices id="ID51">
                    <input semantic="POSITION" source="#ID48" />
                    <input semantic="NORMAL" source="#ID49" />
                </vertices>
                <triangles count="32" material="Material3">
                    <input offset="0" semantic="VERTEX" source="#ID51" />
                    <input offset="1" semantic="TEXCOORD" source="#ID52" />
                    <p>0 0 1 1 2 2 1 1 0 0 3 3 1 1 3 3 4 4 4 4 3 3 5 5 5 5 3 3 6 6 5 5 6 6 7 7 5 5 7 7 8 8 5 5 8 8 9 9 9 9 8 8 10 10 10 10 8 8 11 11 11 11 8 8 12 12 8 8 7 7 13 13 13 13 7 7 14 14 13 13 15 15 16 16 15 15 13 13 14 14 15 15 14 14 17 17 15 15 17 17 18 18 19 19 20 20 21 21 20 20 19 19 22 22 20 20 22 22 11 11 20 20 11 11 12 12 20 20 12 12 23 23 23 23 12 12 24 24 23 23 24 24 18 18 18 18 24 24 15 15 2 2 25 25 19 19 25 25 2 2 1 1 19 19 25 25 9 9 19 19 9 9 26 26 19 19 26 26 22 22 26 26 9 9 10 10 27 27 1 1 4 4</p>
                </triangles>
                <triangles count="32" material="Material2">
                    <input offset="0" semantic="VERTEX" source="#ID51" />
                    <p>28 29 30 31 32 33 34 33 35 33 32 35 32 36 35 29 37 36 35 36 37 38 39 40 40 39 41 39 42 41 41 42 43 42 44 43 44 34 43 34 35 43 45 43 35 40 46 38 46 47 38 47 48 38 49 38 48 47 50 48 48 50 51 42 51 44 44 51 31 31 51 32 32 51 52 51 50 52 50 53 52 53 54 52 52 54 28 28 54 29 54 55 29 37 29 55</p>
                </triangles>
                <lines count="28" material="Material4">
                    <input offset="0" semantic="VERTEX" source="#ID51" />
                    <p>56 57 58 56 59 58 60 59 61 60 62 61 63 62 64 63 65 64 65 66 67 66 57 67 68 69 70 68 71 70 72 71 73 72 69 73 74 75 76 74 77 76 78 77 79 78 75 79 80 81 82 80 83 82 81 83</p>
                </lines>
            </mesh>
        </geometry>
    </library_geometries>
    <library_materials>
        <material id="ID5" name="Color_M09">
            <instance_effect url="#ID6" />
        </material>
        <material id="ID11" name="material_6">
            <instance_effect url="#ID12" />
        </material>
        <material id="ID13" name="edge_color0125129255">
            <instance_effect url="#ID14" />
        </material>
        <material id="ID43" name="material_1">
            <instance_effect url="#ID44" />
        </material>
    </library_materials>
    <library_effects>
        <effect id="ID6">
            <profile_COMMON>
                <technique sid="COMMON">
                    <lambert>
                        <diffuse>
                            <color>0 0 0 1</color>
                        </diffuse>
                    </lambert>
                </technique>
            </profile_COMMON>
        </effect>
        <effect id="ID12">
            <profile_COMMON>
                <technique sid="COMMON">
                    <lambert>
                        <diffuse>
                            <color>0 0.4901961 0.5058824 1</color>
                        </diffuse>
                    </lambert>
                </technique>
            </profile_COMMON>
        </effect>
        <effect id="ID14">
            <profile_COMMON>
                <technique sid="COMMON">
                    <constant>
                        <transparent opaque="A_ONE">
                            <color>0 0.4901961 0.5058824 1</color>
                        </transparent>
                        <transparency>
                            <float>1</float>
                        </transparency>
                    </constant>
                </technique>
            </profile_COMMON>
        </effect>
        <effect id="ID44">
            <profile_COMMON>
                <newparam sid="ID46">
                    <surface type="2D">
                        <init_from>ID45</init_from>
                    </surface>
                </newparam>
                <newparam sid="ID47">
                    <sampler2D>
                        <source>ID46</source>
                    </sampler2D>
                </newparam>
                <technique sid="COMMON">
                    <lambert>
                        <diffuse>
                            <texture texture="ID47" texcoord="UVSET0" />
                        </diffuse>
                    </lambert>
                </technique>
            </profile_COMMON>
        </effect>
    </library_effects>
    <library_images>
        <image id="ID45">
            <init_from>Dungeon%20Floor%20Skull/material_1.png</init_from>
        </image>
    </library_images>
    <scene>
        <instance_visual_scene url="#ID2" />
    </scene>
</COLLADA>
