<?xml version="1.0" encoding="UTF-8" standalone="no" ?>
<COLLADA xmlns="http://www.collada.org/2005/11/COLLADASchema" version="1.4.1">
    <asset>
        <contributor>
            <authoring_tool>SketchUp 17.2.2555</authoring_tool>
        </contributor>
        <created>2017-10-04T20:14:15Z</created>
        <modified>2017-10-04T20:14:15Z</modified>
        <unit meter="0.0254" name="inch" />
        <up_axis>Z_UP</up_axis>
    </asset>
    <library_cameras>
        <camera id="ID1" name="skp_camera_Last_Saved_SketchUp_View">
            <optics>
                <technique_common>
                    <perspective>
                        <yfov>35</yfov>
                        <aspect_ratio>0</aspect_ratio>
                        <znear>1</znear>
                        <zfar>1000</zfar>
                    </perspective>
                </technique_common>
            </optics>
        </camera>
    </library_cameras>
    <library_visual_scenes>
        <visual_scene id="ID2">
            <node name="SketchUp">
                <node name="skp_camera_Last_Saved_SketchUp_View">
                    <matrix>-0.03093796 -0.7363015 0.675946 854.2861 0.9995213 -0.02279057 0.0209224 19.25174 -5.20417e-18 0.6762697 0.7366541 831.4939 0 0 0 1</matrix>
                    <instance_camera url="#ID1" />
                </node>
                <node id="ID3" name="group_0">
                    <matrix>1 0 0 -295.2756 0 1 0 -295.2756 0 0 1 7.874016 0 0 0 1</matrix>
                    <instance_geometry url="#ID4">
                        <bind_material>
                            <technique_common>
                                <instance_material symbol="Material2" target="#ID5">
                                    <bind_vertex_input semantic="UVSET0" input_semantic="TEXCOORD" input_set="0" />
                                </instance_material>
                                <instance_material symbol="Material3" target="#ID15">
                                    <bind_vertex_input semantic="UVSET0" input_semantic="TEXCOORD" input_set="0" />
                                </instance_material>
                                <instance_material symbol="Material4" target="#ID17">
                                    <bind_vertex_input semantic="UVSET0" input_semantic="TEXCOORD" input_set="0" />
                                </instance_material>
                            </technique_common>
                        </bind_material>
                    </instance_geometry>
                </node>
            </node>
        </visual_scene>
    </library_visual_scenes>
    <library_geometries>
        <geometry id="ID4">
            <mesh>
                <source id="ID10">
                    <float_array id="ID19" count="630">0 1.136868e-13 0 78.74016 78.74016 0 0 265.748 0 265.748 4.547474e-13 0 0 324.8031 0 0 590.5512 0 78.74016 511.811 2.398082e-14 590.5512 78.74016 0 271.6535 4.547474e-13 0 318.8976 5.684342e-14 0 324.8031 5.684342e-14 0 590.5512 2.387424e-12 0 265.748 590.5512 0 590.5512 511.811 4.796163e-14 324.8031 590.5512 0 590.5512 590.5512 0 590.5512 590.5512 0 590.5512 511.811 4.796163e-14 324.8031 590.5512 0 265.748 590.5512 0 78.74016 511.811 2.398082e-14 0 590.5512 0 590.5512 2.387424e-12 0 324.8031 5.684342e-14 0 590.5512 78.74016 0 318.8976 5.684342e-14 0 271.6535 4.547474e-13 0 265.748 4.547474e-13 0 78.74016 78.74016 0 0 324.8031 0 0 265.748 0 0 1.136868e-13 0 590.5512 2.387424e-12 0 590.5512 78.74016 0 78.74016 78.74016 0 78.74016 511.811 2.398082e-14 590.5512 511.811 4.796163e-14 590.5512 590.5512 0 324.8031 590.5512 0 265.748 590.5512 0 0 590.5512 0 0 324.8031 0 0 265.748 0 0 1.136868e-13 0 265.748 4.547474e-13 0 271.6535 4.547474e-13 0 318.8976 5.684342e-14 0 324.8031 5.684342e-14 0 78.74016 78.74016 0 590.5512 78.74016 -39.37008 78.74016 78.74016 -39.37008 590.5512 78.74016 0 590.5512 78.74016 0 78.74016 78.74016 0 590.5512 78.74016 -39.37008 78.74016 78.74016 -39.37008 590.5512 78.74016 -39.37008 78.74016 78.74016 -39.37008 78.74016 511.811 -39.37008 78.74016 78.74016 0 78.74016 78.74016 -39.37008 78.74016 511.811 2.398082e-14 78.74016 511.811 2.398082e-14 78.74016 511.811 -39.37008 78.74016 78.74016 0 78.74016 78.74016 -39.37008 78.74016 511.811 -39.37008 590.5512 511.811 -39.37008 78.74016 511.811 2.398082e-14 78.74016 511.811 -39.37008 590.5512 511.811 4.796163e-14 590.5512 511.811 4.796163e-14 590.5512 511.811 -39.37008 78.74016 511.811 2.398082e-14 78.74016 511.811 -39.37008 590.5512 511.811 -39.37008 590.5512 236.2205 0 590.5512 78.74016 -39.37008 590.5512 78.74016 0 590.5512 236.2205 -39.37008 590.5512 236.2205 -39.37008 590.5512 236.2205 0 590.5512 78.74016 -39.37008 590.5512 78.74016 0 590.5512 236.2205 0 590.5512 236.2205 -39.37008 78.74016 78.74016 -39.37008 236.2205 157.4803 -39.37008 236.2205 433.0709 -39.37008 590.5512 78.74016 -39.37008 433.0709 157.4803 -39.37008 433.0709 236.2205 -39.37008 590.5512 236.2205 -39.37008 78.74016 511.811 -39.37008 590.5512 511.811 -39.37008 433.0709 433.0709 -39.37008 433.0709 354.3307 -39.37008 590.5512 354.3307 -39.37008 590.5512 354.3307 -39.37008 433.0709 354.3307 -39.37008 590.5512 511.811 -39.37008 433.0709 433.0709 -39.37008 236.2205 433.0709 -39.37008 78.74016 78.74016 -39.37008 78.74016 511.811 -39.37008 590.5512 236.2205 -39.37008 590.5512 78.74016 -39.37008 433.0709 236.2205 -39.37008 433.0709 157.4803 -39.37008 236.2205 157.4803 -39.37008 590.5512 354.3307 -39.37008 433.0709 236.2205 -39.37008 433.0709 157.4803 -39.37008 236.2205 157.4803 -39.37008 236.2205 433.0709 -39.37008 433.0709 433.0709 -39.37008 433.0709 354.3307 -39.37008 590.5512 511.811 4.796163e-14 590.5512 354.3307 -39.37008 590.5512 354.3307 1.24345e-14 590.5512 511.811 -39.37008 590.5512 511.811 -39.37008 590.5512 511.811 4.796163e-14 590.5512 354.3307 -39.37008 590.5512 354.3307 1.24345e-14 590.5512 354.3307 1.24345e-14 590.5512 236.2205 0 433.0709 236.2205 -39.37008 590.5512 236.2205 -39.37008 433.0709 236.2205 0 433.0709 236.2205 0 590.5512 236.2205 0 433.0709 236.2205 -39.37008 590.5512 236.2205 -39.37008 433.0709 236.2205 0 433.0709 236.2205 -39.37008 433.0709 157.4803 0 433.0709 157.4803 -39.37008 433.0709 236.2205 0 433.0709 236.2205 0 433.0709 236.2205 -39.37008 433.0709 157.4803 0 433.0709 157.4803 -39.37008 433.0709 157.4803 0 433.0709 157.4803 0 236.2205 157.4803 -39.37008 433.0709 157.4803 -39.37008 236.2205 157.4803 0 236.2205 157.4803 0 433.0709 157.4803 0 236.2205 157.4803 -39.37008 433.0709 157.4803 -39.37008 236.2205 157.4803 0 236.2205 433.0709 2.398082e-14 236.2205 157.4803 -39.37008 236.2205 157.4803 0 236.2205 433.0709 -39.37008 236.2205 433.0709 -39.37008 236.2205 433.0709 2.398082e-14 236.2205 157.4803 -39.37008 236.2205 157.4803 0 236.2205 433.0709 2.398082e-14 236.2205 433.0709 2.398082e-14 433.0709 433.0709 -39.37008 236.2205 433.0709 -39.37008 433.0709 433.0709 4.796163e-14 433.0709 433.0709 4.796163e-14 236.2205 433.0709 2.398082e-14 433.0709 433.0709 -39.37008 236.2205 433.0709 -39.37008 433.0709 433.0709 4.796163e-14 433.0709 433.0709 -39.37008 433.0709 354.3307 2.398082e-14 433.0709 354.3307 -39.37008 433.0709 433.0709 4.796163e-14 433.0709 433.0709 4.796163e-14 433.0709 433.0709 -39.37008 433.0709 354.3307 2.398082e-14 433.0709 354.3307 -39.37008 433.0709 354.3307 2.398082e-14 433.0709 354.3307 -39.37008 590.5512 354.3307 1.24345e-14 590.5512 354.3307 -39.37008 433.0709 354.3307 2.398082e-14 433.0709 354.3307 2.398082e-14 433.0709 354.3307 -39.37008 590.5512 354.3307 1.24345e-14 590.5512 354.3307 -39.37008 590.5512 236.2205 0 590.5512 265.748 0 433.0709 236.2205 0 236.2205 157.4803 0 433.0709 433.0709 4.796163e-14 236.2205 433.0709 2.398082e-14 433.0709 157.4803 0 433.0709 354.3307 2.398082e-14 590.5512 354.3307 1.24345e-14 590.5512 324.8031 0 590.5512 324.8031 0 590.5512 265.748 0 590.5512 354.3307 1.24345e-14 433.0709 236.2205 0 433.0709 354.3307 2.398082e-14 433.0709 157.4803 0 433.0709 433.0709 4.796163e-14 236.2205 157.4803 0 236.2205 433.0709 2.398082e-14 590.5512 236.2205 0 590.5512 324.8031 0 590.5512 265.748 0</float_array>
                    <technique_common>
                        <accessor count="210" source="#ID19" stride="3">
                            <param name="X" type="float" />
                            <param name="Y" type="float" />
                            <param name="Z" type="float" />
                        </accessor>
                    </technique_common>
                </source>
                <source id="ID11">
                    <float_array id="ID20" count="630">-1.428332e-17 -1.776238e-17 1 -1.428332e-17 -1.776238e-17 1 -1.428332e-17 -1.776238e-17 1 -1.428332e-17 -1.776238e-17 1 -1.428332e-17 -1.776238e-17 1 -1.428332e-17 -1.776238e-17 1 -1.428332e-17 -1.776238e-17 1 -1.428332e-17 -1.776238e-17 1 -1.428332e-17 -1.776238e-17 1 -1.428332e-17 -1.776238e-17 1 -1.428332e-17 -1.776238e-17 1 -1.428332e-17 -1.776238e-17 1 -1.428332e-17 -1.776238e-17 1 -1.428332e-17 -1.776238e-17 1 -1.428332e-17 -1.776238e-17 1 -1.428332e-17 -1.776238e-17 1 1.428332e-17 1.776238e-17 -1 1.428332e-17 1.776238e-17 -1 1.428332e-17 1.776238e-17 -1 1.428332e-17 1.776238e-17 -1 1.428332e-17 1.776238e-17 -1 1.428332e-17 1.776238e-17 -1 1.428332e-17 1.776238e-17 -1 1.428332e-17 1.776238e-17 -1 1.428332e-17 1.776238e-17 -1 1.428332e-17 1.776238e-17 -1 1.428332e-17 1.776238e-17 -1 1.428332e-17 1.776238e-17 -1 1.428332e-17 1.776238e-17 -1 1.428332e-17 1.776238e-17 -1 1.428332e-17 1.776238e-17 -1 1.428332e-17 1.776238e-17 -1 0 0 0 0 0 0 0 0 0 0 0 0 0 0 0 0 0 0 0 0 0 0 0 0 0 0 0 0 0 0 0 0 0 0 0 0 0 0 0 0 0 0 0 0 0 0 0 0 0 1 9.962831e-17 0 1 9.962831e-17 0 1 9.962831e-17 0 1 9.962831e-17 -0 -1 -9.962831e-17 -0 -1 -9.962831e-17 -0 -1 -9.962831e-17 -0 -1 -9.962831e-17 0 0 0 0 0 0 1 3.347044e-15 8.288992e-18 1 3.347044e-15 8.288992e-18 1 3.347044e-15 8.288992e-18 1 3.347044e-15 8.288992e-18 -1 -3.347044e-15 -8.288992e-18 -1 -3.347044e-15 -8.288992e-18 -1 -3.347044e-15 -8.288992e-18 -1 -3.347044e-15 -8.288992e-18 0 0 0 1.277228e-15 -1 -9.962831e-17 1.277228e-15 -1 -9.962831e-17 1.277228e-15 -1 -9.962831e-17 1.277228e-15 -1 -9.962831e-17 -1.277228e-15 1 9.962831e-17 -1.277228e-15 1 9.962831e-17 -1.277228e-15 1 9.962831e-17 -1.277228e-15 1 9.962831e-17 0 0 0 -1 -3.248601e-15 -8.288992e-18 -1 -3.248601e-15 -8.288992e-18 -1 -3.248601e-15 -8.288992e-18 -1 -3.248601e-15 -8.288992e-18 1 3.248601e-15 8.288992e-18 1 3.248601e-15 8.288992e-18 1 3.248601e-15 8.288992e-18 1 3.248601e-15 8.288992e-18 0 0 0 0 0 0 -8.288992e-18 -9.962831e-17 1 -8.288992e-18 -9.962831e-17 1 -8.288992e-18 -9.962831e-17 1 -8.288992e-18 -9.962831e-17 1 -8.288992e-18 -9.962831e-17 1 -8.288992e-18 -9.962831e-17 1 -8.288992e-18 -9.962831e-17 1 -8.288992e-18 -9.962831e-17 1 -8.288992e-18 -9.962831e-17 1 -8.288992e-18 -9.962831e-17 1 -8.288992e-18 -9.962831e-17 1 -8.288992e-18 -9.962831e-17 1 8.288992e-18 9.962831e-17 -1 8.288992e-18 9.962831e-17 -1 8.288992e-18 9.962831e-17 -1 8.288992e-18 9.962831e-17 -1 8.288992e-18 9.962831e-17 -1 8.288992e-18 9.962831e-17 -1 8.288992e-18 9.962831e-17 -1 8.288992e-18 9.962831e-17 -1 8.288992e-18 9.962831e-17 -1 8.288992e-18 9.962831e-17 -1 8.288992e-18 9.962831e-17 -1 8.288992e-18 9.962831e-17 -1 0 0 0 0 0 0 0 0 0 0 0 0 0 0 0 0 0 0 0 0 0 -1 -7.219114e-16 -8.288992e-18 -1 -7.219114e-16 -8.288992e-18 -1 -7.219114e-16 -8.288992e-18 -1 -7.219114e-16 -8.288992e-18 1 7.219114e-16 8.288992e-18 1 7.219114e-16 8.288992e-18 1 7.219114e-16 8.288992e-18 1 7.219114e-16 8.288992e-18 0 0 0 3.429079e-15 -1 -9.962831e-17 3.429079e-15 -1 -9.962831e-17 3.429079e-15 -1 -9.962831e-17 3.429079e-15 -1 -9.962831e-17 -3.429079e-15 1 9.962831e-17 -3.429079e-15 1 9.962831e-17 -3.429079e-15 1 9.962831e-17 -3.429079e-15 1 9.962831e-17 0 0 0 1 0 8.288992e-18 1 0 8.288992e-18 1 0 8.288992e-18 1 0 8.288992e-18 -1 -0 -8.288992e-18 -1 -0 -8.288992e-18 -1 -0 -8.288992e-18 -1 -0 -8.288992e-18 0 0 0 1.299441e-15 -1 -9.962831e-17 1.299441e-15 -1 -9.962831e-17 1.299441e-15 -1 -9.962831e-17 1.299441e-15 -1 -9.962831e-17 -1.299441e-15 1 9.962831e-17 -1.299441e-15 1 9.962831e-17 -1.299441e-15 1 9.962831e-17 -1.299441e-15 1 9.962831e-17 0 0 0 -1 -3.429079e-15 -8.288992e-18 -1 -3.429079e-15 -8.288992e-18 -1 -3.429079e-15 -8.288992e-18 -1 -3.429079e-15 -8.288992e-18 1 3.429079e-15 8.288992e-18 1 3.429079e-15 8.288992e-18 1 3.429079e-15 8.288992e-18 1 3.429079e-15 8.288992e-18 0 0 0 -1.299441e-15 1 9.962831e-17 -1.299441e-15 1 9.962831e-17 -1.299441e-15 1 9.962831e-17 -1.299441e-15 1 9.962831e-17 1.299441e-15 -1 -9.962831e-17 1.299441e-15 -1 -9.962831e-17 1.299441e-15 -1 -9.962831e-17 1.299441e-15 -1 -9.962831e-17 0 0 0 1 1.443823e-15 8.288992e-18 1 1.443823e-15 8.288992e-18 1 1.443823e-15 8.288992e-18 1 1.443823e-15 8.288992e-18 -1 -1.443823e-15 -8.288992e-18 -1 -1.443823e-15 -8.288992e-18 -1 -1.443823e-15 -8.288992e-18 -1 -1.443823e-15 -8.288992e-18 0 0 0 7.304661e-33 1 9.962831e-17 7.304661e-33 1 9.962831e-17 7.304661e-33 1 9.962831e-17 7.304661e-33 1 9.962831e-17 -7.304661e-33 -1 -9.962831e-17 -7.304661e-33 -1 -9.962831e-17 -7.304661e-33 -1 -9.962831e-17 -7.304661e-33 -1 -9.962831e-17 3.110137e-17 -1.316382e-16 1 3.110137e-17 -1.316382e-16 1 3.110137e-17 -1.316382e-16 1 3.110137e-17 -1.316382e-16 1 3.110137e-17 -1.316382e-16 1 3.110137e-17 -1.316382e-16 1 3.110137e-17 -1.316382e-16 1 3.110137e-17 -1.316382e-16 1 3.110137e-17 -1.316382e-16 1 3.110137e-17 -1.316382e-16 1 -3.110137e-17 1.316382e-16 -1 -3.110137e-17 1.316382e-16 -1 -3.110137e-17 1.316382e-16 -1 -3.110137e-17 1.316382e-16 -1 -3.110137e-17 1.316382e-16 -1 -3.110137e-17 1.316382e-16 -1 -3.110137e-17 1.316382e-16 -1 -3.110137e-17 1.316382e-16 -1 -3.110137e-17 1.316382e-16 -1 -3.110137e-17 1.316382e-16 -1 0 0 0 0 0 0</float_array>
                    <technique_common>
                        <accessor count="210" source="#ID20" stride="3">
                            <param name="X" type="float" />
                            <param name="Y" type="float" />
                            <param name="Z" type="float" />
                        </accessor>
                    </technique_common>
                </source>
                <source id="ID12">
                    <Name_array id="ID22" count="0" />
                    <technique_common>
                        <accessor count="0" source="#ID22" stride="1">
                            <param name="skp_material" type="Name" />
                        </accessor>
                    </technique_common>
                </source>
                <source id="ID14">
                    <float_array id="ID21" count="136">4 3 6 5 4 9.75 10.75 3 4 11.25 4 18 6 16 19 5 10.9 3 12.1 3 12.25 3 19 3 10.75 18 19 16 12.25 18 19 18 17 10.7 4 9.7 17 9.7 4 10.7 17 9.7 6 10.7 6 9.7 17 10.7 19 9.7 6 10.7 6 9.7 19 10.7 13 10.7 17 9.7 17 10.7 13 9.7 10 7 10 14 15 7 15 9 19 9 15 14 15 12 19 12 6 10.7 10 9.7 10 10.7 6 9.7 19 10.7 15 9.7 19 9.7 15 10.7 10 9.7 8 10.7 8 9.7 10 10.7 15 10.7 15 9.7 8 10.7 8 9.7 13 10.7 8 9.7 13 9.7 8 10.7 15 9.7 13 10.7 13 9.7 15 10.7 8 9.7 8 10.7 19 9.75 19 11.25</float_array>
                    <technique_common>
                        <accessor count="68" source="#ID21" stride="2">
                            <param name="S" type="float" />
                            <param name="T" type="float" />
                        </accessor>
                    </technique_common>
                </source>
                <vertices id="ID13">
                    <input semantic="POSITION" source="#ID10" />
                    <input semantic="NORMAL" source="#ID11" />
                </vertices>
                <triangles count="56" material="Material2">
                    <input offset="0" semantic="VERTEX" source="#ID13" />
                    <input offset="1" semantic="TEXCOORD" source="#ID14" />
                    <p>0 0 1 1 2 2 1 1 0 0 3 3 2 2 1 1 4 4 4 4 1 1 5 5 5 5 1 1 6 6 1 1 3 3 7 7 7 7 3 3 8 8 7 7 8 8 9 9 7 7 9 9 10 10 7 7 10 10 11 11 6 6 12 12 5 5 12 12 6 6 13 13 12 12 13 13 14 14 14 14 13 13 15 15 48 16 49 17 50 18 49 17 48 16 51 19 58 20 59 21 60 22 59 21 58 20 61 23 67 24 68 25 69 26 68 25 67 24 70 27 76 28 77 29 78 30 77 29 76 28 79 31 86 1 87 32 88 33 87 32 86 1 89 7 87 32 89 7 90 34 90 34 89 7 91 35 91 35 89 7 92 36 93 6 88 33 94 13 88 33 93 6 86 1 94 13 88 33 95 37 94 13 95 37 96 38 94 13 96 38 97 39 117 40 118 41 119 42 118 41 117 40 120 43 126 44 127 45 128 46 127 45 126 44 129 47 135 48 136 49 137 50 136 49 135 48 138 51 144 52 145 41 146 53 145 41 144 52 147 42 153 54 154 45 155 47 154 45 153 54 156 55 162 56 163 57 164 58 163 57 162 56 165 59 171 60 172 61 173 62 172 61 171 60 174 63 180 64 181 19 182 17 181 19 180 64 183 65 188 36 189 66 190 35 191 32 192 37 193 33 192 37 191 32 194 34 192 37 194 34 195 38 195 38 194 34 190 35 195 38 190 35 196 39 196 39 190 35 189 66 196 39 189 66 197 67</p>
                </triangles>
                <triangles count="56" material="Material3">
                    <input offset="0" semantic="VERTEX" source="#ID13" />
                    <p>16 17 18 18 17 19 17 20 19 21 19 20 22 23 24 23 25 24 25 26 24 26 27 24 24 27 28 20 28 21 21 28 29 29 28 30 27 31 28 30 28 31 52 53 54 55 54 53 62 63 64 65 64 63 71 72 73 74 73 72 80 81 82 83 82 81 98 99 100 99 101 100 101 102 100 103 104 102 100 102 104 105 106 107 107 106 108 108 106 109 106 103 109 102 109 103 121 122 123 124 123 122 130 131 132 133 132 131 139 140 141 142 141 140 148 149 150 151 150 149 157 158 159 160 159 158 166 167 168 169 168 167 175 176 177 178 177 176 184 185 186 187 186 185 198 199 200 199 201 200 200 201 202 201 203 202 202 203 204 203 205 204 206 204 205 201 199 207</p>
                </triangles>
                <lines count="52" material="Material4">
                    <input offset="0" semantic="VERTEX" source="#ID13" />
                    <p>32 33 33 34 34 35 35 36 36 37 37 38 39 38 39 40 40 41 42 41 42 43 43 44 45 44 46 45 47 46 47 32 33 56 56 57 34 57 57 66 35 66 66 75 36 75 33 84 84 85 56 85 110 75 85 111 111 112 112 113 113 114 114 115 115 116 116 110 125 36 125 110 84 134 134 111 134 143 143 112 143 152 152 113 152 161 161 114 161 170 170 115 170 179 179 116 179 125 208 125 84 209 208 209</p>
                </lines>
            </mesh>
        </geometry>
    </library_geometries>
    <library_materials>
        <material id="ID5" name="material_1">
            <instance_effect url="#ID6" />
        </material>
        <material id="ID15" name="material_6">
            <instance_effect url="#ID16" />
        </material>
        <material id="ID17" name="edge_color0125129255">
            <instance_effect url="#ID18" />
        </material>
    </library_materials>
    <library_effects>
        <effect id="ID6">
            <profile_COMMON>
                <newparam sid="ID8">
                    <surface type="2D">
                        <init_from>ID7</init_from>
                    </surface>
                </newparam>
                <newparam sid="ID9">
                    <sampler2D>
                        <source>ID8</source>
                    </sampler2D>
                </newparam>
                <technique sid="COMMON">
                    <lambert>
                        <diffuse>
                            <texture texture="ID9" texcoord="UVSET0" />
                        </diffuse>
                    </lambert>
                </technique>
            </profile_COMMON>
        </effect>
        <effect id="ID16">
            <profile_COMMON>
                <technique sid="COMMON">
                    <lambert>
                        <diffuse>
                            <color>0 0.4901961 0.5058824 1</color>
                        </diffuse>
                    </lambert>
                </technique>
            </profile_COMMON>
        </effect>
        <effect id="ID18">
            <profile_COMMON>
                <technique sid="COMMON">
                    <constant>
                        <transparent opaque="A_ONE">
                            <color>0 0.4901961 0.5058824 1</color>
                        </transparent>
                        <transparency>
                            <float>1</float>
                        </transparency>
                    </constant>
                </technique>
            </profile_COMMON>
        </effect>
    </library_effects>
    <library_images>
        <image id="ID7">
            <init_from>Dungeon%20Floor%20Water%20T/material_1.png</init_from>
        </image>
    </library_images>
    <scene>
        <instance_visual_scene url="#ID2" />
    </scene>
</COLLADA>
