<?xml version="1.0" encoding="UTF-8" standalone="no" ?>
<COLLADA xmlns="http://www.collada.org/2005/11/COLLADASchema" version="1.4.1">
    <asset>
        <contributor>
            <authoring_tool>SketchUp 17.2.2555</authoring_tool>
        </contributor>
        <created>2017-10-05T12:42:10Z</created>
        <modified>2017-10-05T12:42:10Z</modified>
        <unit meter="0.0254" name="inch" />
        <up_axis>Z_UP</up_axis>
    </asset>
    <library_cameras>
        <camera id="ID1" name="skp_camera_Last_Saved_SketchUp_View">
            <optics>
                <technique_common>
                    <perspective>
                        <yfov>35</yfov>
                        <aspect_ratio>0</aspect_ratio>
                        <znear>1</znear>
                        <zfar>1000</zfar>
                    </perspective>
                </technique_common>
            </optics>
        </camera>
    </library_cameras>
    <library_visual_scenes>
        <visual_scene id="ID2">
            <node name="SketchUp">
                <node name="skp_camera_Last_Saved_SketchUp_View">
                    <matrix>-0.9984691 0.04259242 -0.03528834 -30.99066 -0.05531167 -0.7688652 0.6370141 795.3124 -3.469447e-18 0.6379908 0.770044 870.295 0 0 0 1</matrix>
                    <instance_camera url="#ID1" />
                </node>
                <node id="ID3" name="group_0">
                    <matrix>1 0 0 -295.2756 0 1 0 -295.2756 0 0 1 7.874016 0 0 0 1</matrix>
                    <instance_geometry url="#ID4">
                        <bind_material>
                            <technique_common>
                                <instance_material symbol="Material2" target="#ID5">
                                    <bind_vertex_input semantic="UVSET0" input_semantic="TEXCOORD" input_set="0" />
                                </instance_material>
                                <instance_material symbol="Material3" target="#ID15">
                                    <bind_vertex_input semantic="UVSET0" input_semantic="TEXCOORD" input_set="0" />
                                </instance_material>
                                <instance_material symbol="Material4" target="#ID17">
                                    <bind_vertex_input semantic="UVSET0" input_semantic="TEXCOORD" input_set="0" />
                                </instance_material>
                            </technique_common>
                        </bind_material>
                    </instance_geometry>
                    <instance_geometry url="#ID23">
                        <bind_material>
                            <technique_common>
                                <instance_material symbol="Material2" target="#ID15">
                                    <bind_vertex_input semantic="UVSET0" input_semantic="TEXCOORD" input_set="0" />
                                </instance_material>
                                <instance_material symbol="Material3" target="#ID24">
                                    <bind_vertex_input semantic="UVSET0" input_semantic="TEXCOORD" input_set="0" />
                                </instance_material>
                                <instance_material symbol="Material4" target="#ID17">
                                    <bind_vertex_input semantic="UVSET0" input_semantic="TEXCOORD" input_set="0" />
                                </instance_material>
                            </technique_common>
                        </bind_material>
                    </instance_geometry>
                </node>
            </node>
        </visual_scene>
    </library_visual_scenes>
    <library_geometries>
        <geometry id="ID4">
            <mesh>
                <source id="ID10">
                    <float_array id="ID19" count="180">271.6535 4.547474e-13 0 0 265.748 0 0 1.136868e-13 0 0 324.8031 0 0 590.5512 0 196.8504 196.8504 0 236.2205 157.4803 0 236.2205 196.8504 0 354.3307 157.4803 0 318.8976 5.684342e-14 0 324.8031 5.684342e-14 0 590.5512 2.387424e-12 0 354.3307 196.8504 0 393.7008 196.8504 0 590.5512 265.748 0 196.8504 354.3307 0 265.748 590.5512 0 393.7008 354.3307 0 590.5512 590.5512 0 590.5512 324.8031 0 590.5512 324.8031 0 590.5512 265.748 0 590.5512 590.5512 0 393.7008 196.8504 0 393.7008 354.3307 0 265.748 590.5512 0 196.8504 354.3307 0 196.8504 196.8504 0 0 590.5512 0 590.5512 2.387424e-12 0 354.3307 196.8504 0 354.3307 157.4803 0 324.8031 5.684342e-14 0 318.8976 5.684342e-14 0 271.6535 4.547474e-13 0 236.2205 157.4803 0 236.2205 196.8504 0 0 324.8031 0 0 265.748 0 0 1.136868e-13 0 265.748 590.5512 0 0 590.5512 0 0 324.8031 0 0 265.748 0 0 1.136868e-13 0 271.6535 4.547474e-13 0 318.8976 5.684342e-14 0 324.8031 5.684342e-14 0 590.5512 2.387424e-12 0 590.5512 265.748 0 590.5512 324.8031 0 590.5512 590.5512 0 393.7008 196.8504 0 393.7008 354.3307 0 354.3307 196.8504 0 354.3307 157.4803 0 236.2205 157.4803 0 236.2205 196.8504 0 196.8504 196.8504 0 196.8504 354.3307 0</float_array>
                    <technique_common>
                        <accessor count="60" source="#ID19" stride="3">
                            <param name="X" type="float" />
                            <param name="Y" type="float" />
                            <param name="Z" type="float" />
                        </accessor>
                    </technique_common>
                </source>
                <source id="ID11">
                    <float_array id="ID20" count="180">0 0 1 0 0 1 0 0 1 0 0 1 0 0 1 0 0 1 0 0 1 0 0 1 0 0 1 0 0 1 0 0 1 0 0 1 0 0 1 0 0 1 0 0 1 0 0 1 0 0 1 0 0 1 0 0 1 0 0 1 -0 -0 -1 -0 -0 -1 -0 -0 -1 -0 -0 -1 -0 -0 -1 -0 -0 -1 -0 -0 -1 -0 -0 -1 -0 -0 -1 -0 -0 -1 -0 -0 -1 -0 -0 -1 -0 -0 -1 -0 -0 -1 -0 -0 -1 -0 -0 -1 -0 -0 -1 -0 -0 -1 -0 -0 -1 -0 -0 -1 0 0 0 0 0 0 0 0 0 0 0 0 0 0 0 0 0 0 0 0 0 0 0 0 0 0 0 0 0 0 0 0 0 0 0 0 0 0 0 0 0 0 0 0 0 0 0 0 0 0 0 0 0 0 0 0 0 0 0 0</float_array>
                    <technique_common>
                        <accessor count="60" source="#ID20" stride="3">
                            <param name="X" type="float" />
                            <param name="Y" type="float" />
                            <param name="Z" type="float" />
                        </accessor>
                    </technique_common>
                </source>
                <source id="ID12">
                    <Name_array id="ID22" count="0" />
                    <technique_common>
                        <accessor count="0" source="#ID22" stride="1">
                            <param name="skp_material" type="Name" />
                        </accessor>
                    </technique_common>
                </source>
                <source id="ID14">
                    <float_array id="ID21" count="40">6.9 1.155058e-14 0 6.75 0 2.887646e-15 0 8.25 0 15 5 5 6 4 6 5 9 4 8.1 1.443823e-15 8.25 1.443823e-15 15 6.064056e-14 9 5 10 5 15 6.75 5 9 6.75 15 10 9 15 15 15 8.25</float_array>
                    <technique_common>
                        <accessor count="20" source="#ID21" stride="2">
                            <param name="S" type="float" />
                            <param name="T" type="float" />
                        </accessor>
                    </technique_common>
                </source>
                <vertices id="ID13">
                    <input semantic="POSITION" source="#ID10" />
                    <input semantic="NORMAL" source="#ID11" />
                </vertices>
                <triangles count="20" material="Material2">
                    <input offset="0" semantic="VERTEX" source="#ID13" />
                    <input offset="1" semantic="TEXCOORD" source="#ID14" />
                    <p>0 0 1 1 2 2 1 1 0 0 3 3 3 3 0 0 4 4 4 4 0 0 5 5 5 5 0 0 6 6 5 5 6 6 7 7 6 6 0 0 8 8 8 8 0 0 9 9 8 8 9 9 10 10 8 8 10 10 11 11 8 8 11 11 12 12 12 12 11 11 13 13 13 13 11 11 14 14 4 4 15 15 16 16 15 15 4 4 5 5 16 16 15 15 17 17 16 16 17 17 18 18 18 18 17 17 13 13 18 18 13 13 14 14 18 18 14 14 19 19</p>
                </triangles>
                <triangles count="20" material="Material3">
                    <input offset="0" semantic="VERTEX" source="#ID13" />
                    <p>20 21 22 21 23 22 23 24 22 22 24 25 24 26 25 27 28 26 25 26 28 21 29 23 23 29 30 30 29 31 29 32 31 32 33 31 33 34 31 31 34 35 36 35 27 35 34 27 27 34 28 28 34 37 37 34 38 39 38 34</p>
                </triangles>
                <lines count="20" material="Material4">
                    <input offset="0" semantic="VERTEX" source="#ID13" />
                    <p>40 41 41 42 43 42 43 44 45 44 46 45 47 46 47 48 48 49 50 49 50 51 40 51 52 53 54 52 55 54 56 55 57 56 58 57 59 58 53 59</p>
                </lines>
            </mesh>
        </geometry>
        <geometry id="ID23">
            <mesh>
                <source id="ID26">
                    <float_array id="ID30" count="72">236.2205 196.8504 0 196.8504 354.3307 0 196.8504 196.8504 0 393.7008 354.3307 0 236.2205 157.4803 0 354.3307 196.8504 0 354.3307 157.4803 0 393.7008 196.8504 0 393.7008 196.8504 0 354.3307 196.8504 0 393.7008 354.3307 0 354.3307 157.4803 0 236.2205 157.4803 0 236.2205 196.8504 0 196.8504 354.3307 0 196.8504 196.8504 0 393.7008 196.8504 0 393.7008 354.3307 0 196.8504 354.3307 0 196.8504 196.8504 0 236.2205 196.8504 0 236.2205 157.4803 0 354.3307 157.4803 0 354.3307 196.8504 0</float_array>
                    <technique_common>
                        <accessor count="24" source="#ID30" stride="3">
                            <param name="X" type="float" />
                            <param name="Y" type="float" />
                            <param name="Z" type="float" />
                        </accessor>
                    </technique_common>
                </source>
                <source id="ID27">
                    <float_array id="ID31" count="72">0 0 1 0 0 1 0 0 1 0 0 1 0 0 1 0 0 1 0 0 1 0 0 1 -0 -0 -1 -0 -0 -1 -0 -0 -1 -0 -0 -1 -0 -0 -1 -0 -0 -1 -0 -0 -1 -0 -0 -1 0 0 0 0 0 0 0 0 0 0 0 0 0 0 0 0 0 0 0 0 0 0 0 0</float_array>
                    <technique_common>
                        <accessor count="24" source="#ID31" stride="3">
                            <param name="X" type="float" />
                            <param name="Y" type="float" />
                            <param name="Z" type="float" />
                        </accessor>
                    </technique_common>
                </source>
                <source id="ID28">
                    <Name_array id="ID32" count="0" />
                    <technique_common>
                        <accessor count="0" source="#ID32" stride="1">
                            <param name="skp_material" type="Name" />
                        </accessor>
                    </technique_common>
                </source>
                <vertices id="ID29">
                    <input semantic="POSITION" source="#ID26" />
                    <input semantic="NORMAL" source="#ID27" />
                </vertices>
                <triangles count="6" material="Material3">
                    <input offset="0" semantic="VERTEX" source="#ID29" />
                    <p>0 1 2 1 0 3 3 0 4 3 4 5 5 4 6 3 5 7</p>
                </triangles>
                <triangles count="6" material="Material2">
                    <input offset="0" semantic="VERTEX" source="#ID29" />
                    <p>8 9 10 11 12 9 9 12 10 12 13 10 10 13 14 15 14 13</p>
                </triangles>
                <lines count="8" material="Material4">
                    <input offset="0" semantic="VERTEX" source="#ID29" />
                    <p>16 17 17 18 18 19 19 20 20 21 21 22 22 23 23 16</p>
                </lines>
            </mesh>
        </geometry>
    </library_geometries>
    <library_materials>
        <material id="ID5" name="material_1">
            <instance_effect url="#ID6" />
        </material>
        <material id="ID15" name="material_6">
            <instance_effect url="#ID16" />
        </material>
        <material id="ID17" name="edge_color0125129255">
            <instance_effect url="#ID18" />
        </material>
        <material id="ID24" name="Color_M09">
            <instance_effect url="#ID25" />
        </material>
    </library_materials>
    <library_effects>
        <effect id="ID6">
            <profile_COMMON>
                <newparam sid="ID8">
                    <surface type="2D">
                        <init_from>ID7</init_from>
                    </surface>
                </newparam>
                <newparam sid="ID9">
                    <sampler2D>
                        <source>ID8</source>
                    </sampler2D>
                </newparam>
                <technique sid="COMMON">
                    <lambert>
                        <diffuse>
                            <texture texture="ID9" texcoord="UVSET0" />
                        </diffuse>
                    </lambert>
                </technique>
            </profile_COMMON>
        </effect>
        <effect id="ID16">
            <profile_COMMON>
                <technique sid="COMMON">
                    <lambert>
                        <diffuse>
                            <color>0 0.4901961 0.5058824 1</color>
                        </diffuse>
                    </lambert>
                </technique>
            </profile_COMMON>
        </effect>
        <effect id="ID18">
            <profile_COMMON>
                <technique sid="COMMON">
                    <constant>
                        <transparent opaque="A_ONE">
                            <color>0 0.4901961 0.5058824 1</color>
                        </transparent>
                        <transparency>
                            <float>1</float>
                        </transparency>
                    </constant>
                </technique>
            </profile_COMMON>
        </effect>
        <effect id="ID25">
            <profile_COMMON>
                <technique sid="COMMON">
                    <lambert>
                        <diffuse>
                            <color>0 0 0 1</color>
                        </diffuse>
                    </lambert>
                </technique>
            </profile_COMMON>
        </effect>
    </library_effects>
    <library_images>
        <image id="ID7">
            <init_from>Dungeon%20Floor%20Zelda%20Prison/material_1.png</init_from>
        </image>
    </library_images>
    <scene>
        <instance_visual_scene url="#ID2" />
    </scene>
</COLLADA>
