# Alias OBJ Model File
# Exported from SketchUp, (c) 2000-2012 Trimble Navigation Limited
# File units = meters

mtllib A7 Rocks.mtl

g Mesh1 GreenRock1 A7_Rocks1 Model

usemtl _1
v -22.5367 0.42 55.5035
vt 15.2538 0.719856
vn 1 -1.48983e-08 -1.49019e-08
v -22.5367 0.78 55.5035
vt 15.2538 1.07986
v -22.5367 0.78 55.5635
vt 15.1938 1.07986
v -22.5367 0.84 55.5635
vt 15.1938 1.13986
v -22.5367 0.84 55.6235
vt 15.1338 1.13986
v -22.5367 0.900747 55.6235
vt 15.1338 1.2006
v -22.5367 0.900747 55.7935
vt 14.9638 1.2006
v -22.5367 0.84 55.7935
vt 14.9638 1.13986
v -22.5367 0.84 55.8635
vt 14.8938 1.13986
v -22.5367 0.78 55.8635
vt 14.8938 1.07986
v -22.5367 0.78 56.2235
vt 14.5338 1.07986
v -22.5367 0.72 56.2235
vt 14.5338 1.01986
v -22.5367 0.72 56.2835
vt 14.4738 1.01986
v -22.5367 0.66 56.2835
vt 14.4738 0.959856
v -22.5367 0.66 56.3435
vt 14.4138 0.959856
v -22.5367 0.54 56.3435
vt 14.4138 0.839856
v -22.5367 0.54 56.4035
vt 14.3538 0.839856
v -22.5367 0.12 56.4035
vt 14.3538 0.419856
v -22.5367 0.12 56.3435
vt 14.4138 0.419856
v -22.5367 -1.49004e-08 56.3435
vt 14.4138 0.299856
v -22.5367 -1.49011e-08 55.5635
vt 15.1938 0.299856
v -22.5367 0.06 55.5635
vt 15.1938 0.359856
v -22.5367 0.06 55.5035
vt 15.2538 0.359856
v -22.5367 0.24 55.5035
vt 15.2538 0.539856
v -22.5367 0.24 55.5635
vt 15.1938 0.539856
v -22.5367 0.42 55.5635
vt 15.1938 0.719856
f 1/1/1 2/2/1 3/3/1 4/4/1 5/5/1 6/6/1 7/7/1 8/8/1 9/9/1 10/10/1 11/11/1 12/12/1 13/13/1 14/14/1 15/15/1 16/16/1 17/17/1 18/18/1 19/19/1 20/20/1 21/21/1 22/22/1 23/23/1 24/24/1 25/25/1 26/26/1 

vt -1.07986 0
vn -1.49019e-08 -9.06232e-13 -1
vt -0.719856 0
v -23.5367 0.42 55.5035
vt -0.719856 1
v -23.5367 0.78 55.5035
vt -1.07986 1
f 2/27/2 1/28/2 27/29/2 28/30/2 

vt -15.2538 0
vn -1.48983e-08 -1 9.06454e-13
vt -15.1938 0
v -23.5367 0.42 55.5635
vt -15.1938 1
vt -15.2538 1
f 1/31/3 26/32/3 29/33/3 27/34/3 

vt -0.539856 0
v -23.5367 0.24 55.5635
vt -0.539856 1
f 26/28/2 25/35/2 30/36/2 29/29/2 

vt 15.1938 0
vn 1.48983e-08 1 -9.06454e-13
vt 15.2538 0
v -23.5367 0.24 55.5035
vt 15.2538 1
vt 15.1938 1
f 25/37/4 24/38/4 31/39/4 30/40/4 

vt -0.359856 0
v -23.5367 0.06 55.5035
vt -0.359856 1
f 24/35/2 23/41/2 32/42/2 31/36/2 

v -23.5367 0.06 55.5635
f 23/31/3 22/32/3 33/33/3 32/34/3 

vt -0.299856 0
v -23.5367 -2.82976e-12 55.5635
vt -0.299856 1
f 22/41/2 21/43/2 34/44/2 33/42/2 

vt -14.4138 0
v -23.5367 -2.1229e-12 56.3435
vt -14.4138 1
f 21/32/3 20/45/3 35/46/3 34/33/3 

vt 0.299856 0
vn 1.49019e-08 9.06232e-13 1
vt 0.419856 0
v -23.5367 0.12 56.3435
vt 0.419856 1
vt 0.299856 1
f 20/47/5 19/48/5 36/49/5 35/50/5 

vt -14.3538 0
v -23.5367 0.12 56.4035
vt -14.3538 1
f 19/45/3 18/51/3 37/52/3 36/46/3 

vt 0.839856 0
v -23.5367 0.54 56.4035
vt 0.839856 1
f 18/48/5 17/53/5 38/54/5 37/49/5 

vt 14.3538 0
vt 14.4138 0
v -23.5367 0.54 56.3435
vt 14.4138 1
vt 14.3538 1
f 17/55/4 16/56/4 39/57/4 38/58/4 

vt 0.959856 0
v -23.5367 0.66 56.3435
vt 0.959856 1
f 16/53/5 15/59/5 40/60/5 39/54/5 

vt 14.4738 0
v -23.5367 0.66 56.2835
vt 14.4738 1
f 15/56/4 14/61/4 41/62/4 40/57/4 

vt 1.01986 0
v -23.5367 0.72 56.2835
vt 1.01986 1
f 14/59/5 13/63/5 42/64/5 41/60/5 

vt 14.5338 0
v -23.5367 0.72 56.2235
vt 14.5338 1
f 13/61/4 12/65/4 43/66/4 42/62/4 

vt 1.07986 0
v -23.5367 0.78 56.2235
vt 1.07986 1
f 12/63/5 11/67/5 44/68/5 43/64/5 

vt 14.8938 0
v -23.5367 0.78 55.8635
vt 14.8938 1
f 11/65/4 10/69/4 45/70/4 44/66/4 

vt 1.13986 0
v -23.5367 0.84 55.8635
vt 1.13986 1
f 10/67/5 9/71/5 46/72/5 45/68/5 

vt 14.9638 0
v -23.5367 0.84 55.7935
vt 14.9638 1
f 9/69/4 8/73/4 47/74/4 46/70/4 

vt 1.2006 0
v -23.5367 0.900747 55.7935
vt 1.2006 1
f 8/71/5 7/75/5 48/76/5 47/72/5 

vt 15.1338 0
v -23.5367 0.900747 55.6235
vt 15.1338 1
f 7/73/4 6/77/4 49/78/4 48/74/4 

vt -1.2006 0
vt -1.13986 0
v -23.5367 0.84 55.6235
vt -1.13986 1
vt -1.2006 1
f 6/79/2 5/80/2 50/81/2 49/82/2 

v -23.5367 0.84 55.5635
f 5/77/4 4/37/4 51/40/4 50/78/4 

v -23.5367 0.78 55.5635
f 4/80/2 3/27/2 52/30/2 51/81/2 

f 3/37/4 2/38/4 28/39/4 52/40/4 

vt -15.2538 1.07986
vn -1 1.48983e-08 1.49019e-08
vt -15.2538 0.719856
vt -15.1938 0.719856
vt -15.1938 0.539856
vt -15.2538 0.539856
vt -15.2538 0.359856
vt -15.1938 0.359856
vt -15.1938 0.299856
vt -14.4138 0.299856
vt -14.4138 0.419856
vt -14.3538 0.419856
vt -14.3538 0.839856
vt -14.4138 0.839856
vt -14.4138 0.959856
vt -14.4738 0.959856
vt -14.4738 1.01986
vt -14.5338 1.01986
vt -14.5338 1.07986
vt -14.8938 1.07986
vt -14.8938 1.13986
vt -14.9638 1.13986
vt -14.9638 1.2006
vt -15.1338 1.2006
vt -15.1338 1.13986
vt -15.1938 1.13986
vt -15.1938 1.07986
f 28/83/6 27/84/6 29/85/6 30/86/6 31/87/6 32/88/6 33/89/6 34/90/6 35/91/6 36/92/6 37/93/6 38/94/6 39/95/6 40/96/6 41/97/6 42/98/6 43/99/6 44/100/6 45/101/6 46/102/6 47/103/6 48/104/6 49/105/6 50/106/6 51/107/6 52/108/6 

g Mesh2 GreenRock2 A7_Rocks1 Model

v -19.9033 0.42 53.8915
v -19.9033 0.78 53.8915
v -19.9033 0.78 53.9515
v -19.9033 0.84 53.9515
v -19.9033 0.84 54.0115
v -19.9033 0.900747 54.0115
v -19.9033 0.900747 54.1815
v -19.9033 0.84 54.1815
v -19.9033 0.84 54.2515
v -19.9033 0.78 54.2515
v -19.9033 0.78 54.6115
v -19.9033 0.72 54.6115
v -19.9033 0.72 54.6715
v -19.9033 0.66 54.6715
v -19.9033 0.66 54.7315
v -19.9033 0.54 54.7315
v -19.9033 0.54 54.7915
v -19.9033 0.12 54.7915
v -19.9033 0.12 54.7315
v -19.9033 -1.49004e-08 54.7315
v -19.9033 -1.49011e-08 53.9515
v -19.9033 0.06 53.9515
v -19.9033 0.06 53.8915
v -19.9033 0.24 53.8915
v -19.9033 0.24 53.9515
v -19.9033 0.42 53.9515
f 53/1/1 54/2/1 55/3/1 56/4/1 57/5/1 58/6/1 59/7/1 60/8/1 61/9/1 62/10/1 63/11/1 64/12/1 65/13/1 66/14/1 67/15/1 68/16/1 69/17/1 70/18/1 71/19/1 72/20/1 73/21/1 74/22/1 75/23/1 76/24/1 77/25/1 78/26/1 

v -20.9033 0.42 53.8915
v -20.9033 0.78 53.8915
f 54/27/2 53/28/2 79/29/2 80/30/2 

v -20.9033 0.42 53.9515
f 53/31/3 78/32/3 81/33/3 79/34/3 

v -20.9033 0.24 53.9515
f 78/28/2 77/35/2 82/36/2 81/29/2 

v -20.9033 0.24 53.8915
f 77/37/4 76/38/4 83/39/4 82/40/4 

v -20.9033 0.06 53.8915
f 76/35/2 75/41/2 84/42/2 83/36/2 

v -20.9033 0.06 53.9515
f 75/31/3 74/32/3 85/33/3 84/34/3 

v -20.9033 -2.82976e-12 53.9515
f 74/41/2 73/43/2 86/44/2 85/42/2 

v -20.9033 -2.1229e-12 54.7315
f 73/32/3 72/45/3 87/46/3 86/33/3 

v -20.9033 0.12 54.7315
f 72/47/5 71/48/5 88/49/5 87/50/5 

v -20.9033 0.12 54.7915
f 71/45/3 70/51/3 89/52/3 88/46/3 

v -20.9033 0.54 54.7915
f 70/48/5 69/53/5 90/54/5 89/49/5 

v -20.9033 0.54 54.7315
f 69/55/4 68/56/4 91/57/4 90/58/4 

v -20.9033 0.66 54.7315
f 68/53/5 67/59/5 92/60/5 91/54/5 

v -20.9033 0.66 54.6715
f 67/56/4 66/61/4 93/62/4 92/57/4 

v -20.9033 0.72 54.6715
f 66/59/5 65/63/5 94/64/5 93/60/5 

v -20.9033 0.72 54.6115
f 65/61/4 64/65/4 95/66/4 94/62/4 

v -20.9033 0.78 54.6115
f 64/63/5 63/67/5 96/68/5 95/64/5 

v -20.9033 0.78 54.2515
f 63/65/4 62/69/4 97/70/4 96/66/4 

v -20.9033 0.84 54.2515
f 62/67/5 61/71/5 98/72/5 97/68/5 

v -20.9033 0.84 54.1815
f 61/69/4 60/73/4 99/74/4 98/70/4 

v -20.9033 0.900747 54.1815
f 60/71/5 59/75/5 100/76/5 99/72/5 

v -20.9033 0.900747 54.0115
f 59/73/4 58/77/4 101/78/4 100/74/4 

v -20.9033 0.84 54.0115
f 58/79/2 57/80/2 102/81/2 101/82/2 

v -20.9033 0.84 53.9515
f 57/77/4 56/37/4 103/40/4 102/78/4 

v -20.9033 0.78 53.9515
f 56/80/2 55/27/2 104/30/2 103/81/2 

f 55/37/4 54/38/4 80/39/4 104/40/4 

f 80/83/6 79/84/6 81/85/6 82/86/6 83/87/6 84/88/6 85/89/6 86/90/6 87/91/6 88/92/6 89/93/6 90/94/6 91/95/6 92/96/6 93/97/6 94/98/6 95/99/6 96/100/6 97/101/6 98/102/6 99/103/6 100/104/6 101/105/6 102/106/6 103/107/6 104/108/6 

g Mesh3 GreenRock3 A7_Rocks1 Model

v -19.9033 0.42 56.8215
v -19.9033 0.78 56.8215
v -19.9033 0.78 56.8815
v -19.9033 0.84 56.8815
v -19.9033 0.84 56.9415
v -19.9033 0.900747 56.9415
v -19.9033 0.900747 57.1115
v -19.9033 0.84 57.1115
v -19.9033 0.84 57.1815
v -19.9033 0.78 57.1815
v -19.9033 0.78 57.5415
v -19.9033 0.72 57.5415
v -19.9033 0.72 57.6015
v -19.9033 0.66 57.6015
v -19.9033 0.66 57.6615
v -19.9033 0.54 57.6615
v -19.9033 0.54 57.7215
v -19.9033 0.12 57.7215
v -19.9033 0.12 57.6615
v -19.9033 -1.49004e-08 57.6615
v -19.9033 -1.49011e-08 56.8815
v -19.9033 0.06 56.8815
v -19.9033 0.06 56.8215
v -19.9033 0.24 56.8215
v -19.9033 0.24 56.8815
v -19.9033 0.42 56.8815
f 105/1/1 106/2/1 107/3/1 108/4/1 109/5/1 110/6/1 111/7/1 112/8/1 113/9/1 114/10/1 115/11/1 116/12/1 117/13/1 118/14/1 119/15/1 120/16/1 121/17/1 122/18/1 123/19/1 124/20/1 125/21/1 126/22/1 127/23/1 128/24/1 129/25/1 130/26/1 

v -20.9033 0.42 56.8215
v -20.9033 0.78 56.8215
f 106/27/2 105/28/2 131/29/2 132/30/2 

v -20.9033 0.42 56.8815
f 105/31/3 130/32/3 133/33/3 131/34/3 

v -20.9033 0.24 56.8815
f 130/28/2 129/35/2 134/36/2 133/29/2 

v -20.9033 0.24 56.8215
f 129/37/4 128/38/4 135/39/4 134/40/4 

v -20.9033 0.06 56.8215
f 128/35/2 127/41/2 136/42/2 135/36/2 

v -20.9033 0.06 56.8815
f 127/31/3 126/32/3 137/33/3 136/34/3 

v -20.9033 -2.82976e-12 56.8815
f 126/41/2 125/43/2 138/44/2 137/42/2 

v -20.9033 -2.1229e-12 57.6615
f 125/32/3 124/45/3 139/46/3 138/33/3 

v -20.9033 0.12 57.6615
f 124/47/5 123/48/5 140/49/5 139/50/5 

v -20.9033 0.12 57.7215
f 123/45/3 122/51/3 141/52/3 140/46/3 

v -20.9033 0.54 57.7215
f 122/48/5 121/53/5 142/54/5 141/49/5 

v -20.9033 0.54 57.6615
f 121/55/4 120/56/4 143/57/4 142/58/4 

v -20.9033 0.66 57.6615
f 120/53/5 119/59/5 144/60/5 143/54/5 

v -20.9033 0.66 57.6015
f 119/56/4 118/61/4 145/62/4 144/57/4 

v -20.9033 0.72 57.6015
f 118/59/5 117/63/5 146/64/5 145/60/5 

v -20.9033 0.72 57.5415
f 117/61/4 116/65/4 147/66/4 146/62/4 

v -20.9033 0.78 57.5415
f 116/63/5 115/67/5 148/68/5 147/64/5 

v -20.9033 0.78 57.1815
f 115/65/4 114/69/4 149/70/4 148/66/4 

v -20.9033 0.84 57.1815
f 114/67/5 113/71/5 150/72/5 149/68/5 

v -20.9033 0.84 57.1115
f 113/69/4 112/73/4 151/74/4 150/70/4 

v -20.9033 0.900747 57.1115
f 112/71/5 111/75/5 152/76/5 151/72/5 

v -20.9033 0.900747 56.9415
f 111/73/4 110/77/4 153/78/4 152/74/4 

v -20.9033 0.84 56.9415
f 110/79/2 109/80/2 154/81/2 153/82/2 

v -20.9033 0.84 56.8815
f 109/77/4 108/37/4 155/40/4 154/78/4 

v -20.9033 0.78 56.8815
f 108/80/2 107/27/2 156/30/2 155/81/2 

f 107/37/4 106/38/4 132/39/4 156/40/4 

f 132/83/6 131/84/6 133/85/6 134/86/6 135/87/6 136/88/6 137/89/6 138/90/6 139/91/6 140/92/6 141/93/6 142/94/6 143/95/6 144/96/6 145/97/6 146/98/6 147/99/6 148/100/6 149/101/6 150/102/6 151/103/6 152/104/6 153/105/6 154/106/6 155/107/6 156/108/6 

g Mesh4 GreenRock4 A7_Rocks1 Model

v -22.5367 0.42 58.5735
v -22.5367 0.78 58.5735
v -22.5367 0.78 58.6335
v -22.5367 0.84 58.6335
v -22.5367 0.84 58.6935
v -22.5367 0.900747 58.6935
v -22.5367 0.900747 58.8635
v -22.5367 0.84 58.8635
v -22.5367 0.84 58.9335
v -22.5367 0.78 58.9335
v -22.5367 0.78 59.2935
v -22.5367 0.72 59.2935
v -22.5367 0.72 59.3535
v -22.5367 0.66 59.3535
v -22.5367 0.66 59.4135
v -22.5367 0.54 59.4135
v -22.5367 0.54 59.4735
v -22.5367 0.12 59.4735
v -22.5367 0.12 59.4135
v -22.5367 -1.49004e-08 59.4135
v -22.5367 -1.49011e-08 58.6335
v -22.5367 0.06 58.6335
v -22.5367 0.06 58.5735
v -22.5367 0.24 58.5735
v -22.5367 0.24 58.6335
v -22.5367 0.42 58.6335
f 157/1/1 158/2/1 159/3/1 160/4/1 161/5/1 162/6/1 163/7/1 164/8/1 165/9/1 166/10/1 167/11/1 168/12/1 169/13/1 170/14/1 171/15/1 172/16/1 173/17/1 174/18/1 175/19/1 176/20/1 177/21/1 178/22/1 179/23/1 180/24/1 181/25/1 182/26/1 

v -23.5367 0.42 58.5735
v -23.5367 0.78 58.5735
f 158/27/2 157/28/2 183/29/2 184/30/2 

v -23.5367 0.42 58.6335
f 157/31/3 182/32/3 185/33/3 183/34/3 

v -23.5367 0.24 58.6335
f 182/28/2 181/35/2 186/36/2 185/29/2 

v -23.5367 0.24 58.5735
f 181/37/4 180/38/4 187/39/4 186/40/4 

v -23.5367 0.06 58.5735
f 180/35/2 179/41/2 188/42/2 187/36/2 

v -23.5367 0.06 58.6335
f 179/31/3 178/32/3 189/33/3 188/34/3 

v -23.5367 -2.82976e-12 58.6335
f 178/41/2 177/43/2 190/44/2 189/42/2 

v -23.5367 -2.1229e-12 59.4135
f 177/32/3 176/45/3 191/46/3 190/33/3 

v -23.5367 0.12 59.4135
f 176/47/5 175/48/5 192/49/5 191/50/5 

v -23.5367 0.12 59.4735
f 175/45/3 174/51/3 193/52/3 192/46/3 

v -23.5367 0.54 59.4735
f 174/48/5 173/53/5 194/54/5 193/49/5 

v -23.5367 0.54 59.4135
f 173/55/4 172/56/4 195/57/4 194/58/4 

v -23.5367 0.66 59.4135
f 172/53/5 171/59/5 196/60/5 195/54/5 

v -23.5367 0.66 59.3535
f 171/56/4 170/61/4 197/62/4 196/57/4 

v -23.5367 0.72 59.3535
f 170/59/5 169/63/5 198/64/5 197/60/5 

v -23.5367 0.72 59.2935
f 169/61/4 168/65/4 199/66/4 198/62/4 

v -23.5367 0.78 59.2935
f 168/63/5 167/67/5 200/68/5 199/64/5 

v -23.5367 0.78 58.9335
f 167/65/4 166/69/4 201/70/4 200/66/4 

v -23.5367 0.84 58.9335
f 166/67/5 165/71/5 202/72/5 201/68/5 

v -23.5367 0.84 58.8635
f 165/69/4 164/73/4 203/74/4 202/70/4 

v -23.5367 0.900747 58.8635
f 164/71/5 163/75/5 204/76/5 203/72/5 

v -23.5367 0.900747 58.6935
f 163/73/4 162/77/4 205/78/4 204/74/4 

v -23.5367 0.84 58.6935
f 162/79/2 161/80/2 206/81/2 205/82/2 

v -23.5367 0.84 58.6335
f 161/77/4 160/37/4 207/40/4 206/78/4 

v -23.5367 0.78 58.6335
f 160/80/2 159/27/2 208/30/2 207/81/2 

f 159/37/4 158/38/4 184/39/4 208/40/4 

f 184/83/6 183/84/6 185/85/6 186/86/6 187/87/6 188/88/6 189/89/6 190/90/6 191/91/6 192/92/6 193/93/6 194/94/6 195/95/6 196/96/6 197/97/6 198/98/6 199/99/6 200/100/6 201/101/6 202/102/6 203/103/6 204/104/6 205/105/6 206/106/6 207/107/6 208/108/6 

g Mesh5 GreenRock5 A7_Rocks1 Model

v -22.5367 0.42 52.4588
v -22.5367 0.78 52.4588
v -22.5367 0.78 52.5188
v -22.5367 0.84 52.5188
v -22.5367 0.84 52.5788
v -22.5367 0.900747 52.5788
v -22.5367 0.900747 52.7488
v -22.5367 0.84 52.7488
v -22.5367 0.84 52.8188
v -22.5367 0.78 52.8188
v -22.5367 0.78 53.1788
v -22.5367 0.72 53.1788
v -22.5367 0.72 53.2388
v -22.5367 0.66 53.2388
v -22.5367 0.66 53.2988
v -22.5367 0.54 53.2988
v -22.5367 0.54 53.3588
v -22.5367 0.12 53.3588
v -22.5367 0.12 53.2988
v -22.5367 -1.49004e-08 53.2988
v -22.5367 -1.49011e-08 52.5188
v -22.5367 0.06 52.5188
v -22.5367 0.06 52.4588
v -22.5367 0.24 52.4588
v -22.5367 0.24 52.5188
v -22.5367 0.42 52.5188
f 209/1/1 210/2/1 211/3/1 212/4/1 213/5/1 214/6/1 215/7/1 216/8/1 217/9/1 218/10/1 219/11/1 220/12/1 221/13/1 222/14/1 223/15/1 224/16/1 225/17/1 226/18/1 227/19/1 228/20/1 229/21/1 230/22/1 231/23/1 232/24/1 233/25/1 234/26/1 

v -23.5367 0.42 52.4588
v -23.5367 0.78 52.4588
f 210/27/2 209/28/2 235/29/2 236/30/2 

v -23.5367 0.42 52.5188
f 209/31/3 234/32/3 237/33/3 235/34/3 

v -23.5367 0.24 52.5188
f 234/28/2 233/35/2 238/36/2 237/29/2 

v -23.5367 0.24 52.4588
f 233/37/4 232/38/4 239/39/4 238/40/4 

v -23.5367 0.06 52.4588
f 232/35/2 231/41/2 240/42/2 239/36/2 

v -23.5367 0.06 52.5188
f 231/31/3 230/32/3 241/33/3 240/34/3 

v -23.5367 -2.82976e-12 52.5188
f 230/41/2 229/43/2 242/44/2 241/42/2 

v -23.5367 -2.1229e-12 53.2988
f 229/32/3 228/45/3 243/46/3 242/33/3 

v -23.5367 0.12 53.2988
f 228/47/5 227/48/5 244/49/5 243/50/5 

v -23.5367 0.12 53.3588
f 227/45/3 226/51/3 245/52/3 244/46/3 

v -23.5367 0.54 53.3588
f 226/48/5 225/53/5 246/54/5 245/49/5 

v -23.5367 0.54 53.2988
f 225/55/4 224/56/4 247/57/4 246/58/4 

v -23.5367 0.66 53.2988
f 224/53/5 223/59/5 248/60/5 247/54/5 

v -23.5367 0.66 53.2388
f 223/56/4 222/61/4 249/62/4 248/57/4 

v -23.5367 0.72 53.2388
f 222/59/5 221/63/5 250/64/5 249/60/5 

v -23.5367 0.72 53.1788
f 221/61/4 220/65/4 251/66/4 250/62/4 

v -23.5367 0.78 53.1788
f 220/63/5 219/67/5 252/68/5 251/64/5 

v -23.5367 0.78 52.8188
f 219/65/4 218/69/4 253/70/4 252/66/4 

v -23.5367 0.84 52.8188
f 218/67/5 217/71/5 254/72/5 253/68/5 

v -23.5367 0.84 52.7488
f 217/69/4 216/73/4 255/74/4 254/70/4 

v -23.5367 0.900747 52.7488
f 216/71/5 215/75/5 256/76/5 255/72/5 

v -23.5367 0.900747 52.5788
f 215/73/4 214/77/4 257/78/4 256/74/4 

v -23.5367 0.84 52.5788
f 214/79/2 213/80/2 258/81/2 257/82/2 

v -23.5367 0.84 52.5188
f 213/77/4 212/37/4 259/40/4 258/78/4 

v -23.5367 0.78 52.5188
f 212/80/2 211/27/2 260/30/2 259/81/2 

f 211/37/4 210/38/4 236/39/4 260/40/4 

f 236/83/6 235/84/6 237/85/6 238/86/6 239/87/6 240/88/6 241/89/6 242/90/6 243/91/6 244/92/6 245/93/6 246/94/6 247/95/6 248/96/6 249/97/6 250/98/6 251/99/6 252/100/6 253/101/6 254/102/6 255/103/6 256/104/6 257/105/6 258/106/6 259/107/6 260/108/6 

g Mesh6 GreenRock6 A7_Rocks1 Model

v -25.7859 0.42 55.5035
v -25.7859 0.78 55.5035
v -25.7859 0.78 55.5635
v -25.7859 0.84 55.5635
v -25.7859 0.84 55.6235
v -25.7859 0.900747 55.6235
v -25.7859 0.900747 55.7935
v -25.7859 0.84 55.7935
v -25.7859 0.84 55.8635
v -25.7859 0.78 55.8635
v -25.7859 0.78 56.2235
v -25.7859 0.72 56.2235
v -25.7859 0.72 56.2835
v -25.7859 0.66 56.2835
v -25.7859 0.66 56.3435
v -25.7859 0.54 56.3435
v -25.7859 0.54 56.4035
v -25.7859 0.12 56.4035
v -25.7859 0.12 56.3435
v -25.7859 -1.49004e-08 56.3435
v -25.7859 -1.49011e-08 55.5635
v -25.7859 0.06 55.5635
v -25.7859 0.06 55.5035
v -25.7859 0.24 55.5035
v -25.7859 0.24 55.5635
v -25.7859 0.42 55.5635
f 261/1/1 262/2/1 263/3/1 264/4/1 265/5/1 266/6/1 267/7/1 268/8/1 269/9/1 270/10/1 271/11/1 272/12/1 273/13/1 274/14/1 275/15/1 276/16/1 277/17/1 278/18/1 279/19/1 280/20/1 281/21/1 282/22/1 283/23/1 284/24/1 285/25/1 286/26/1 

v -26.7859 0.42 55.5035
v -26.7859 0.78 55.5035
f 262/27/2 261/28/2 287/29/2 288/30/2 

v -26.7859 0.42 55.5635
f 261/31/3 286/32/3 289/33/3 287/34/3 

v -26.7859 0.24 55.5635
f 286/28/2 285/35/2 290/36/2 289/29/2 

v -26.7859 0.24 55.5035
f 285/37/4 284/38/4 291/39/4 290/40/4 

v -26.7859 0.06 55.5035
f 284/35/2 283/41/2 292/42/2 291/36/2 

v -26.7859 0.06 55.5635
f 283/31/3 282/32/3 293/33/3 292/34/3 

v -26.7859 -2.82976e-12 55.5635
f 282/41/2 281/43/2 294/44/2 293/42/2 

v -26.7859 -2.1229e-12 56.3435
f 281/32/3 280/45/3 295/46/3 294/33/3 

v -26.7859 0.12 56.3435
f 280/47/5 279/48/5 296/49/5 295/50/5 

v -26.7859 0.12 56.4035
f 279/45/3 278/51/3 297/52/3 296/46/3 

v -26.7859 0.54 56.4035
f 278/48/5 277/53/5 298/54/5 297/49/5 

v -26.7859 0.54 56.3435
f 277/55/4 276/56/4 299/57/4 298/58/4 

v -26.7859 0.66 56.3435
f 276/53/5 275/59/5 300/60/5 299/54/5 

v -26.7859 0.66 56.2835
f 275/56/4 274/61/4 301/62/4 300/57/4 

v -26.7859 0.72 56.2835
f 274/59/5 273/63/5 302/64/5 301/60/5 

v -26.7859 0.72 56.2235
f 273/61/4 272/65/4 303/66/4 302/62/4 

v -26.7859 0.78 56.2235
f 272/63/5 271/67/5 304/68/5 303/64/5 

v -26.7859 0.78 55.8635
f 271/65/4 270/69/4 305/70/4 304/66/4 

v -26.7859 0.84 55.8635
f 270/67/5 269/71/5 306/72/5 305/68/5 

v -26.7859 0.84 55.7935
f 269/69/4 268/73/4 307/74/4 306/70/4 

v -26.7859 0.900747 55.7935
f 268/71/5 267/75/5 308/76/5 307/72/5 

v -26.7859 0.900747 55.6235
f 267/73/4 266/77/4 309/78/4 308/74/4 

v -26.7859 0.84 55.6235
f 266/79/2 265/80/2 310/81/2 309/82/2 

v -26.7859 0.84 55.5635
f 265/77/4 264/37/4 311/40/4 310/78/4 

v -26.7859 0.78 55.5635
f 264/80/2 263/27/2 312/30/2 311/81/2 

f 263/37/4 262/38/4 288/39/4 312/40/4 

f 288/83/6 287/84/6 289/85/6 290/86/6 291/87/6 292/88/6 293/89/6 294/90/6 295/91/6 296/92/6 297/93/6 298/94/6 299/95/6 300/96/6 301/97/6 302/98/6 303/99/6 304/100/6 305/101/6 306/102/6 307/103/6 308/104/6 309/105/6 310/106/6 311/107/6 312/108/6 

g Mesh7 GreenRock7 A7_Rocks1 Model

v -29.0705 0.42 55.5035
v -29.0705 0.78 55.5035
v -29.0705 0.78 55.5635
v -29.0705 0.84 55.5635
v -29.0705 0.84 55.6235
v -29.0705 0.900747 55.6235
v -29.0705 0.900747 55.7935
v -29.0705 0.84 55.7935
v -29.0705 0.84 55.8635
v -29.0705 0.78 55.8635
v -29.0705 0.78 56.2235
v -29.0705 0.72 56.2235
v -29.0705 0.72 56.2835
v -29.0705 0.66 56.2835
v -29.0705 0.66 56.3435
v -29.0705 0.54 56.3435
v -29.0705 0.54 56.4035
v -29.0705 0.12 56.4035
v -29.0705 0.12 56.3435
v -29.0705 -1.49004e-08 56.3435
v -29.0705 -1.49011e-08 55.5635
v -29.0705 0.06 55.5635
v -29.0705 0.06 55.5035
v -29.0705 0.24 55.5035
v -29.0705 0.24 55.5635
v -29.0705 0.42 55.5635
f 313/1/1 314/2/1 315/3/1 316/4/1 317/5/1 318/6/1 319/7/1 320/8/1 321/9/1 322/10/1 323/11/1 324/12/1 325/13/1 326/14/1 327/15/1 328/16/1 329/17/1 330/18/1 331/19/1 332/20/1 333/21/1 334/22/1 335/23/1 336/24/1 337/25/1 338/26/1 

v -30.0705 0.42 55.5035
v -30.0705 0.78 55.5035
f 314/27/2 313/28/2 339/29/2 340/30/2 

v -30.0705 0.42 55.5635
f 313/31/3 338/32/3 341/33/3 339/34/3 

v -30.0705 0.24 55.5635
f 338/28/2 337/35/2 342/36/2 341/29/2 

v -30.0705 0.24 55.5035
f 337/37/4 336/38/4 343/39/4 342/40/4 

v -30.0705 0.06 55.5035
f 336/35/2 335/41/2 344/42/2 343/36/2 

v -30.0705 0.06 55.5635
f 335/31/3 334/32/3 345/33/3 344/34/3 

v -30.0705 -2.82976e-12 55.5635
f 334/41/2 333/43/2 346/44/2 345/42/2 

v -30.0705 -2.1229e-12 56.3435
f 333/32/3 332/45/3 347/46/3 346/33/3 

v -30.0705 0.12 56.3435
f 332/47/5 331/48/5 348/49/5 347/50/5 

v -30.0705 0.12 56.4035
f 331/45/3 330/51/3 349/52/3 348/46/3 

v -30.0705 0.54 56.4035
f 330/48/5 329/53/5 350/54/5 349/49/5 

v -30.0705 0.54 56.3435
f 329/55/4 328/56/4 351/57/4 350/58/4 

v -30.0705 0.66 56.3435
f 328/53/5 327/59/5 352/60/5 351/54/5 

v -30.0705 0.66 56.2835
f 327/56/4 326/61/4 353/62/4 352/57/4 

v -30.0705 0.72 56.2835
f 326/59/5 325/63/5 354/64/5 353/60/5 

v -30.0705 0.72 56.2235
f 325/61/4 324/65/4 355/66/4 354/62/4 

v -30.0705 0.78 56.2235
f 324/63/5 323/67/5 356/68/5 355/64/5 

v -30.0705 0.78 55.8635
f 323/65/4 322/69/4 357/70/4 356/66/4 

v -30.0705 0.84 55.8635
f 322/67/5 321/71/5 358/72/5 357/68/5 

v -30.0705 0.84 55.7935
f 321/69/4 320/73/4 359/74/4 358/70/4 

v -30.0705 0.900747 55.7935
f 320/71/5 319/75/5 360/76/5 359/72/5 

v -30.0705 0.900747 55.6235
f 319/73/4 318/77/4 361/78/4 360/74/4 

v -30.0705 0.84 55.6235
f 318/79/2 317/80/2 362/81/2 361/82/2 

v -30.0705 0.84 55.5635
f 317/77/4 316/37/4 363/40/4 362/78/4 

v -30.0705 0.78 55.5635
f 316/80/2 315/27/2 364/30/2 363/81/2 

f 315/37/4 314/38/4 340/39/4 364/40/4 

f 340/83/6 339/84/6 341/85/6 342/86/6 343/87/6 344/88/6 345/89/6 346/90/6 347/91/6 348/92/6 349/93/6 350/94/6 351/95/6 352/96/6 353/97/6 354/98/6 355/99/6 356/100/6 357/101/6 358/102/6 359/103/6 360/104/6 361/105/6 362/106/6 363/107/6 364/108/6 

