# Alias OBJ Model File
# Exported from SketchUp, (c) 2000-2012 Trimble Navigation Limited
# File units = meters

mtllib B6 Rocks.mtl

g Mesh1 BrownRock1 B6_Rocks1 Model

usemtl _4
v -38.035 0.78 43.0771
vt -0.9 0.78
vn -1 1.48983e-08 1.49019e-08
v -38.035 0.42 43.0771
vt -0.9 0.42
v -38.035 0.42 43.1371
vt -0.84 0.42
v -38.035 0.24 43.1371
vt -0.84 0.24
v -38.035 0.24 43.0771
vt -0.9 0.24
v -38.035 0.06 43.0771
vt -0.9 0.06
v -38.035 0.06 43.1371
vt -0.84 0.06
v -38.035 1.48983e-08 43.1371
vt -0.84 1.48983e-08
v -38.035 1.4899e-08 43.9171
vt -0.06 1.4899e-08
v -38.035 0.12 43.9171
vt -0.06 0.12
v -38.035 0.12 43.9771
vt 2.1318e-16 0.12
v -38.035 0.54 43.9771
vt -3.79419e-13 0.54
v -38.035 0.54 43.9171
vt -0.06 0.54
v -38.035 0.66 43.9171
vt -0.06 0.66
v -38.035 0.66 43.8571
vt -0.12 0.66
v -38.035 0.72 43.8571
vt -0.12 0.72
v -38.035 0.72 43.7971
vt -0.18 0.72
v -38.035 0.78 43.7971
vt -0.18 0.78
v -38.035 0.78 43.4371
vt -0.54 0.78
v -38.035 0.84 43.4371
vt -0.54 0.84
v -38.035 0.84 43.3671
vt -0.61 0.84
v -38.035 0.900747 43.3671
vt -0.61 0.900747
v -38.035 0.900747 43.1971
vt -0.78 0.900747
v -38.035 0.84 43.1971
vt -0.78 0.84
v -38.035 0.84 43.1371
vt -0.84 0.84
v -38.035 0.78 43.1371
vt -0.84 0.78
f 1/1/1 2/2/1 3/3/1 4/4/1 5/5/1 6/6/1 7/7/1 8/8/1 9/9/1 10/10/1 11/11/1 12/12/1 13/13/1 14/14/1 15/15/1 16/16/1 17/17/1 18/18/1 19/19/1 20/20/1 21/21/1 22/22/1 23/23/1 24/24/1 25/25/1 26/26/1 

v -37.035 0.78 43.0771
vt -1 0.78
vn -1.49019e-08 -9.06232e-13 -1
v -37.035 0.42 43.0771
vt -1 0.42
vt -1.87751e-08 0.42
vt -2.41385e-08 0.78
f 27/27/2 28/28/2 2/29/2 1/30/2 

vt 0.9 0.42
vn 1 -1.48983e-08 -1.49019e-08
vt 0.9 0.78
v -37.035 0.78 43.1371
vt 0.84 0.78
v -37.035 0.84 43.1371
vt 0.84 0.84
v -37.035 0.84 43.1971
vt 0.78 0.84
v -37.035 0.900747 43.1971
vt 0.78 0.900747
v -37.035 0.900747 43.3671
vt 0.61 0.900747
v -37.035 0.84 43.3671
vt 0.61 0.84
v -37.035 0.84 43.4371
vt 0.54 0.84
v -37.035 0.78 43.4371
vt 0.54 0.78
v -37.035 0.78 43.7971
vt 0.18 0.78
v -37.035 0.72 43.7971
vt 0.18 0.72
v -37.035 0.72 43.8571
vt 0.12 0.72
v -37.035 0.66 43.8571
vt 0.12 0.66
v -37.035 0.66 43.9171
vt 0.06 0.66
v -37.035 0.54 43.9171
vt 0.06 0.54
v -37.035 0.54 43.9771
vt 3.79495e-13 0.54
v -37.035 0.12 43.9771
vt -1.37075e-16 0.12
v -37.035 0.12 43.9171
vt 0.06 0.12
v -37.035 7.07656e-13 43.9171
vt 0.06 1.4899e-08
v -37.035 7.9493e-16 43.1371
vt 0.84 1.48983e-08
v -37.035 0.06 43.1371
vt 0.84 0.06
v -37.035 0.06 43.0771
vt 0.9 0.06
v -37.035 0.24 43.0771
vt 0.9 0.24
v -37.035 0.24 43.1371
vt 0.84 0.24
v -37.035 0.42 43.1371
vt 0.84 0.42
f 28/31/3 27/32/3 29/33/3 30/34/3 31/35/3 32/36/3 33/37/3 34/38/3 35/39/3 36/40/3 37/41/3 38/42/3 39/43/3 40/44/3 41/45/3 42/46/3 43/47/3 44/48/3 45/49/3 46/50/3 47/51/3 48/52/3 49/53/3 50/54/3 51/55/3 52/56/3 

vt 1 0.84
vn 1.48983e-08 1 -9.06454e-13
vt 1 0.9
vt -8.93898e-10 0.9
vt 2.12892e-13 0.84
f 29/57/4 27/58/4 1/59/4 26/60/4 

vt -1 0.84
vt -2.41384e-08 0.78
vt -2.50323e-08 0.84
f 30/61/2 29/27/2 26/62/2 25/63/2 

vt 1 0.78
vt 2.12404e-13 0.84
vt 8.94326e-10 0.78
f 31/64/4 30/57/4 25/65/4 24/66/4 

vt -1 0.900747
vt -2.59374e-08 0.900747
f 32/67/2 31/61/2 24/63/2 23/68/2 

vt 1 0.61
vt 8.94325e-10 0.78
vt 3.42764e-09 0.61
f 33/69/4 32/64/4 23/70/4 22/71/4 

vn 1.49019e-08 9.06232e-13 1
vt 1 0.900747
vt 2.59374e-08 0.900747
vt 2.50323e-08 0.84
f 34/57/5 33/72/5 22/73/5 21/74/5 

vt 1 0.54
vt 4.47078e-09 0.54
f 35/75/4 34/69/4 21/71/4 20/76/4 

vt 2.41384e-08 0.78
f 36/64/5 35/57/5 20/74/5 19/77/5 

vt 1 0.18
vt 4.47077e-09 0.54
vt 9.83545e-09 0.18
f 37/78/4 36/75/4 19/79/4 18/80/4 

vt 1 0.72
vt 2.32446e-08 0.72
f 38/81/5 37/64/5 18/77/5 17/82/5 

vt 1 0.12
vt 1.07296e-08 0.12
f 39/83/4 38/78/4 17/80/4 16/84/4 

vt 1 0.66
vt 2.23507e-08 0.66
f 40/85/5 39/81/5 16/82/5 15/86/5 

vt 1 0.06
vt 1.16237e-08 0.06
f 41/87/4 40/83/4 15/84/4 14/88/4 

vt 2.05629e-08 0.54
f 42/75/5 41/85/5 14/86/5 13/89/5 

vt 1 1.49018e-08
vt 1.25178e-08 -1.0976e-13
f 43/90/4 42/87/4 13/88/4 12/91/4 

vt 1.43056e-08 0.12
f 44/83/5 43/75/5 12/89/5 11/92/5 

vt -1 0.06
vn -1.48983e-08 -1 9.06454e-13
vt -1 1.49018e-08
vt -1.25178e-08 -1.08774e-13
vt -1.16237e-08 0.06
f 45/93/6 44/94/6 11/95/6 10/96/6 

vt 1 7.61235e-13
vt 1.25178e-08 1.4899e-08
f 46/97/5 45/83/5 10/92/5 9/98/5 

vt -2.13464e-13 0.84
f 47/61/6 46/93/6 9/96/6 8/99/6 

vt -1 7.61235e-13
vt -1.25178e-08 1.4899e-08
vt -1.34117e-08 0.06
f 48/93/2 47/100/2 8/101/2 7/102/2 

vt -1 0.9
vt -2.12976e-13 0.84
vt 8.93897e-10 0.9
f 49/103/6 48/61/6 7/104/6 6/105/6 

vt -1 0.24
vt -1.60934e-08 0.24
f 50/106/2 49/93/2 6/102/2 5/107/2 

vt -8.93899e-10 0.9
vt 2.14399e-13 0.84
f 51/57/4 50/58/4 5/108/4 4/109/4 

f 52/28/2 51/106/2 4/107/2 3/29/2 

vt -2.12934e-13 0.84
vt 8.939e-10 0.9
f 28/103/6 52/61/6 3/110/6 2/111/6 

g Mesh2 BrownRock2 B6_Rocks1 Model

v -38.035 0.78 39.8271
v -38.035 0.42 39.8271
v -38.035 0.42 39.8871
v -38.035 0.24 39.8871
v -38.035 0.24 39.8271
v -38.035 0.06 39.8271
v -38.035 0.06 39.8871
v -38.035 1.48983e-08 39.8871
v -38.035 1.4899e-08 40.6671
v -38.035 0.12 40.6671
v -38.035 0.12 40.7271
v -38.035 0.54 40.7271
v -38.035 0.54 40.6671
v -38.035 0.66 40.6671
v -38.035 0.66 40.6071
v -38.035 0.72 40.6071
v -38.035 0.72 40.5471
v -38.035 0.78 40.5471
v -38.035 0.78 40.1871
v -38.035 0.84 40.1871
v -38.035 0.84 40.1171
v -38.035 0.900747 40.1171
v -38.035 0.900747 39.9471
v -38.035 0.84 39.9471
v -38.035 0.84 39.8871
v -38.035 0.78 39.8871
f 53/1/1 54/2/1 55/3/1 56/4/1 57/5/1 58/6/1 59/7/1 60/8/1 61/9/1 62/10/1 63/11/1 64/12/1 65/13/1 66/14/1 67/15/1 68/16/1 69/17/1 70/18/1 71/19/1 72/20/1 73/21/1 74/22/1 75/23/1 76/24/1 77/25/1 78/26/1 

v -37.035 0.78 39.8271
v -37.035 0.42 39.8271
f 79/27/2 80/28/2 54/29/2 53/30/2 

v -37.035 0.78 39.8871
v -37.035 0.84 39.8871
v -37.035 0.84 39.9471
v -37.035 0.900747 39.9471
v -37.035 0.900747 40.1171
v -37.035 0.84 40.1171
v -37.035 0.84 40.1871
v -37.035 0.78 40.1871
v -37.035 0.78 40.5471
v -37.035 0.72 40.5471
v -37.035 0.72 40.6071
v -37.035 0.66 40.6071
v -37.035 0.66 40.6671
v -37.035 0.54 40.6671
v -37.035 0.54 40.7271
v -37.035 0.12 40.7271
v -37.035 0.12 40.6671
v -37.035 7.07656e-13 40.6671
v -37.035 7.9493e-16 39.8871
v -37.035 0.06 39.8871
v -37.035 0.06 39.8271
v -37.035 0.24 39.8271
v -37.035 0.24 39.8871
v -37.035 0.42 39.8871
f 80/31/3 79/32/3 81/33/3 82/34/3 83/35/3 84/36/3 85/37/3 86/38/3 87/39/3 88/40/3 89/41/3 90/42/3 91/43/3 92/44/3 93/45/3 94/46/3 95/47/3 96/48/3 97/49/3 98/50/3 99/51/3 100/52/3 101/53/3 102/54/3 103/55/3 104/56/3 

f 81/57/4 79/58/4 53/59/4 78/60/4 

f 82/61/2 81/27/2 78/62/2 77/63/2 

f 83/64/4 82/57/4 77/65/4 76/66/4 

f 84/67/2 83/61/2 76/63/2 75/68/2 

f 85/69/4 84/64/4 75/70/4 74/71/4 

f 86/57/5 85/72/5 74/73/5 73/74/5 

f 87/75/4 86/69/4 73/71/4 72/76/4 

f 88/64/5 87/57/5 72/74/5 71/77/5 

f 89/78/4 88/75/4 71/79/4 70/80/4 

f 90/81/5 89/64/5 70/77/5 69/82/5 

f 91/83/4 90/78/4 69/80/4 68/84/4 

f 92/85/5 91/81/5 68/82/5 67/86/5 

f 93/87/4 92/83/4 67/84/4 66/88/4 

f 94/75/5 93/85/5 66/86/5 65/89/5 

f 95/90/4 94/87/4 65/88/4 64/91/4 

f 96/83/5 95/75/5 64/89/5 63/92/5 

f 97/93/6 96/94/6 63/95/6 62/96/6 

f 98/97/5 97/83/5 62/92/5 61/98/5 

f 99/61/6 98/93/6 61/96/6 60/99/6 

f 100/93/2 99/100/2 60/101/2 59/102/2 

f 101/103/6 100/61/6 59/104/6 58/105/6 

f 102/106/2 101/93/2 58/102/2 57/107/2 

f 103/57/4 102/58/4 57/108/4 56/109/4 

f 104/28/2 103/106/2 56/107/2 55/29/2 

f 80/103/6 104/61/6 55/110/6 54/111/6 

g Mesh3 BrownRock3 B6_Rocks1 Model

v -35.5915 0.78 41.4971
v -35.5915 0.42 41.4971
v -35.5915 0.42 41.5571
v -35.5915 0.24 41.5571
v -35.5915 0.24 41.4971
v -35.5915 0.06 41.4971
v -35.5915 0.06 41.5571
v -35.5915 1.48983e-08 41.5571
v -35.5915 1.4899e-08 42.3371
v -35.5915 0.12 42.3371
v -35.5915 0.12 42.3971
v -35.5915 0.54 42.3971
v -35.5915 0.54 42.3371
v -35.5915 0.66 42.3371
v -35.5915 0.66 42.2771
v -35.5915 0.72 42.2771
v -35.5915 0.72 42.2171
v -35.5915 0.78 42.2171
v -35.5915 0.78 41.8571
v -35.5915 0.84 41.8571
v -35.5915 0.84 41.7871
v -35.5915 0.900747 41.7871
v -35.5915 0.900747 41.6171
v -35.5915 0.84 41.6171
v -35.5915 0.84 41.5571
v -35.5915 0.78 41.5571
f 105/1/1 106/2/1 107/3/1 108/4/1 109/5/1 110/6/1 111/7/1 112/8/1 113/9/1 114/10/1 115/11/1 116/12/1 117/13/1 118/14/1 119/15/1 120/16/1 121/17/1 122/18/1 123/19/1 124/20/1 125/21/1 126/22/1 127/23/1 128/24/1 129/25/1 130/26/1 

v -34.5915 0.78 41.4971
v -34.5915 0.42 41.4971
f 131/27/2 132/28/2 106/29/2 105/30/2 

v -34.5915 0.78 41.5571
v -34.5915 0.84 41.5571
v -34.5915 0.84 41.6171
v -34.5915 0.900747 41.6171
v -34.5915 0.900747 41.7871
v -34.5915 0.84 41.7871
v -34.5915 0.84 41.8571
v -34.5915 0.78 41.8571
v -34.5915 0.78 42.2171
v -34.5915 0.72 42.2171
v -34.5915 0.72 42.2771
v -34.5915 0.66 42.2771
v -34.5915 0.66 42.3371
v -34.5915 0.54 42.3371
v -34.5915 0.54 42.3971
v -34.5915 0.12 42.3971
v -34.5915 0.12 42.3371
v -34.5915 7.07656e-13 42.3371
v -34.5915 7.9493e-16 41.5571
v -34.5915 0.06 41.5571
v -34.5915 0.06 41.4971
v -34.5915 0.24 41.4971
v -34.5915 0.24 41.5571
v -34.5915 0.42 41.5571
f 132/31/3 131/32/3 133/33/3 134/34/3 135/35/3 136/36/3 137/37/3 138/38/3 139/39/3 140/40/3 141/41/3 142/42/3 143/43/3 144/44/3 145/45/3 146/46/3 147/47/3 148/48/3 149/49/3 150/50/3 151/51/3 152/52/3 153/53/3 154/54/3 155/55/3 156/56/3 

f 133/57/4 131/58/4 105/59/4 130/60/4 

f 134/61/2 133/27/2 130/62/2 129/63/2 

f 135/64/4 134/57/4 129/65/4 128/66/4 

f 136/67/2 135/61/2 128/63/2 127/68/2 

f 137/69/4 136/64/4 127/70/4 126/71/4 

f 138/57/5 137/72/5 126/73/5 125/74/5 

f 139/75/4 138/69/4 125/71/4 124/76/4 

f 140/64/5 139/57/5 124/74/5 123/77/5 

f 141/78/4 140/75/4 123/79/4 122/80/4 

f 142/81/5 141/64/5 122/77/5 121/82/5 

f 143/83/4 142/78/4 121/80/4 120/84/4 

f 144/85/5 143/81/5 120/82/5 119/86/5 

f 145/87/4 144/83/4 119/84/4 118/88/4 

f 146/75/5 145/85/5 118/86/5 117/89/5 

f 147/90/4 146/87/4 117/88/4 116/91/4 

f 148/83/5 147/75/5 116/89/5 115/92/5 

f 149/93/6 148/94/6 115/95/6 114/96/6 

f 150/97/5 149/83/5 114/92/5 113/98/5 

f 151/61/6 150/93/6 113/96/6 112/99/6 

f 152/93/2 151/100/2 112/101/2 111/102/2 

f 153/103/6 152/61/6 111/104/6 110/105/6 

f 154/106/2 153/93/2 110/102/2 109/107/2 

f 155/57/4 154/58/4 109/108/4 108/109/4 

f 156/28/2 155/106/2 108/107/2 107/29/2 

f 132/103/6 156/61/6 107/110/6 106/111/6 

g Mesh4 BrownRock4 B6_Rocks1 Model

v -35.5915 0.78 38.0521
v -35.5915 0.42 38.0521
v -35.5915 0.42 38.1121
v -35.5915 0.24 38.1121
v -35.5915 0.24 38.0521
v -35.5915 0.06 38.0521
v -35.5915 0.06 38.1121
v -35.5915 1.48983e-08 38.1121
v -35.5915 1.4899e-08 38.8921
v -35.5915 0.12 38.8921
v -35.5915 0.12 38.9521
v -35.5915 0.54 38.9521
v -35.5915 0.54 38.8921
v -35.5915 0.66 38.8921
v -35.5915 0.66 38.8321
v -35.5915 0.72 38.8321
v -35.5915 0.72 38.7721
v -35.5915 0.78 38.7721
v -35.5915 0.78 38.4121
v -35.5915 0.84 38.4121
v -35.5915 0.84 38.3421
v -35.5915 0.900747 38.3421
v -35.5915 0.900747 38.1721
v -35.5915 0.84 38.1721
v -35.5915 0.84 38.1121
v -35.5915 0.78 38.1121
f 157/1/1 158/2/1 159/3/1 160/4/1 161/5/1 162/6/1 163/7/1 164/8/1 165/9/1 166/10/1 167/11/1 168/12/1 169/13/1 170/14/1 171/15/1 172/16/1 173/17/1 174/18/1 175/19/1 176/20/1 177/21/1 178/22/1 179/23/1 180/24/1 181/25/1 182/26/1 

v -34.5915 0.78 38.0521
v -34.5915 0.42 38.0521
f 183/27/2 184/28/2 158/29/2 157/30/2 

v -34.5915 0.78 38.1121
v -34.5915 0.84 38.1121
v -34.5915 0.84 38.1721
v -34.5915 0.900747 38.1721
v -34.5915 0.900747 38.3421
v -34.5915 0.84 38.3421
v -34.5915 0.84 38.4121
v -34.5915 0.78 38.4121
v -34.5915 0.78 38.7721
v -34.5915 0.72 38.7721
v -34.5915 0.72 38.8321
v -34.5915 0.66 38.8321
v -34.5915 0.66 38.8921
v -34.5915 0.54 38.8921
v -34.5915 0.54 38.9521
v -34.5915 0.12 38.9521
v -34.5915 0.12 38.8921
v -34.5915 7.07656e-13 38.8921
v -34.5915 7.9493e-16 38.1121
v -34.5915 0.06 38.1121
v -34.5915 0.06 38.0521
v -34.5915 0.24 38.0521
v -34.5915 0.24 38.1121
v -34.5915 0.42 38.1121
f 184/31/3 183/32/3 185/33/3 186/34/3 187/35/3 188/36/3 189/37/3 190/38/3 191/39/3 192/40/3 193/41/3 194/42/3 195/43/3 196/44/3 197/45/3 198/46/3 199/47/3 200/48/3 201/49/3 202/50/3 203/51/3 204/52/3 205/53/3 206/54/3 207/55/3 208/56/3 

f 185/57/4 183/58/4 157/59/4 182/60/4 

f 186/61/2 185/27/2 182/62/2 181/63/2 

f 187/64/4 186/57/4 181/65/4 180/66/4 

f 188/67/2 187/61/2 180/63/2 179/68/2 

f 189/69/4 188/64/4 179/70/4 178/71/4 

f 190/57/5 189/72/5 178/73/5 177/74/5 

f 191/75/4 190/69/4 177/71/4 176/76/4 

f 192/64/5 191/57/5 176/74/5 175/77/5 

f 193/78/4 192/75/4 175/79/4 174/80/4 

f 194/81/5 193/64/5 174/77/5 173/82/5 

f 195/83/4 194/78/4 173/80/4 172/84/4 

f 196/85/5 195/81/5 172/82/5 171/86/5 

f 197/87/4 196/83/4 171/84/4 170/88/4 

f 198/75/5 197/85/5 170/86/5 169/89/5 

f 199/90/4 198/87/4 169/88/4 168/91/4 

f 200/83/5 199/75/5 168/89/5 167/92/5 

f 201/93/6 200/94/6 167/95/6 166/96/6 

f 202/97/5 201/83/5 166/92/5 165/98/5 

f 203/61/6 202/93/6 165/96/6 164/99/6 

f 204/93/2 203/100/2 164/101/2 163/102/2 

f 205/103/6 204/61/6 163/104/6 162/105/6 

f 206/106/2 205/93/2 162/102/2 161/107/2 

f 207/57/4 206/58/4 161/108/4 160/109/4 

f 208/28/2 207/106/2 160/107/2 159/29/2 

f 184/103/6 208/61/6 159/110/6 158/111/6 

g Mesh5 BrownRock5 B6_Rocks1 Model

v -38.035 0.78 36.3391
v -38.035 0.42 36.3391
v -38.035 0.42 36.3991
v -38.035 0.24 36.3991
v -38.035 0.24 36.3391
v -38.035 0.06 36.3391
v -38.035 0.06 36.3991
v -38.035 1.48983e-08 36.3991
v -38.035 1.4899e-08 37.1791
v -38.035 0.12 37.1791
v -38.035 0.12 37.2391
v -38.035 0.54 37.2391
v -38.035 0.54 37.1791
v -38.035 0.66 37.1791
v -38.035 0.66 37.1191
v -38.035 0.72 37.1191
v -38.035 0.72 37.0591
v -38.035 0.78 37.0591
v -38.035 0.78 36.6991
v -38.035 0.84 36.6991
v -38.035 0.84 36.6291
v -38.035 0.900747 36.6291
v -38.035 0.900747 36.4591
v -38.035 0.84 36.4591
v -38.035 0.84 36.3991
v -38.035 0.78 36.3991
f 209/1/1 210/2/1 211/3/1 212/4/1 213/5/1 214/6/1 215/7/1 216/8/1 217/9/1 218/10/1 219/11/1 220/12/1 221/13/1 222/14/1 223/15/1 224/16/1 225/17/1 226/18/1 227/19/1 228/20/1 229/21/1 230/22/1 231/23/1 232/24/1 233/25/1 234/26/1 

v -37.035 0.78 36.3391
v -37.035 0.42 36.3391
f 235/27/2 236/28/2 210/29/2 209/30/2 

v -37.035 0.78 36.3991
v -37.035 0.84 36.3991
v -37.035 0.84 36.4591
v -37.035 0.900747 36.4591
v -37.035 0.900747 36.6291
v -37.035 0.84 36.6291
v -37.035 0.84 36.6991
v -37.035 0.78 36.6991
v -37.035 0.78 37.0591
v -37.035 0.72 37.0591
v -37.035 0.72 37.1191
v -37.035 0.66 37.1191
v -37.035 0.66 37.1791
v -37.035 0.54 37.1791
v -37.035 0.54 37.2391
v -37.035 0.12 37.2391
v -37.035 0.12 37.1791
v -37.035 7.07656e-13 37.1791
v -37.035 7.9493e-16 36.3991
v -37.035 0.06 36.3991
v -37.035 0.06 36.3391
v -37.035 0.24 36.3391
v -37.035 0.24 36.3991
v -37.035 0.42 36.3991
f 236/31/3 235/32/3 237/33/3 238/34/3 239/35/3 240/36/3 241/37/3 242/38/3 243/39/3 244/40/3 245/41/3 246/42/3 247/43/3 248/44/3 249/45/3 250/46/3 251/47/3 252/48/3 253/49/3 254/50/3 255/51/3 256/52/3 257/53/3 258/54/3 259/55/3 260/56/3 

f 237/57/4 235/58/4 209/59/4 234/60/4 

f 238/61/2 237/27/2 234/62/2 233/63/2 

f 239/64/4 238/57/4 233/65/4 232/66/4 

f 240/67/2 239/61/2 232/63/2 231/68/2 

f 241/69/4 240/64/4 231/70/4 230/71/4 

f 242/57/5 241/72/5 230/73/5 229/74/5 

f 243/75/4 242/69/4 229/71/4 228/76/4 

f 244/64/5 243/57/5 228/74/5 227/77/5 

f 245/78/4 244/75/4 227/79/4 226/80/4 

f 246/81/5 245/64/5 226/77/5 225/82/5 

f 247/83/4 246/78/4 225/80/4 224/84/4 

f 248/85/5 247/81/5 224/82/5 223/86/5 

f 249/87/4 248/83/4 223/84/4 222/88/4 

f 250/75/5 249/85/5 222/86/5 221/89/5 

f 251/90/4 250/87/4 221/88/4 220/91/4 

f 252/83/5 251/75/5 220/89/5 219/92/5 

f 253/93/6 252/94/6 219/95/6 218/96/6 

f 254/97/5 253/83/5 218/92/5 217/98/5 

f 255/61/6 254/93/6 217/96/6 216/99/6 

f 256/93/2 255/100/2 216/101/2 215/102/2 

f 257/103/6 256/61/6 215/104/6 214/105/6 

f 258/106/2 257/93/2 214/102/2 213/107/2 

f 259/57/4 258/58/4 213/108/4 212/109/4 

f 260/28/2 259/106/2 212/107/2 211/29/2 

f 236/103/6 260/61/6 211/110/6 210/111/6 

