# Alias OBJ Model File
# Exported from SketchUp, (c) 2000-2012 Trimble Navigation Limited
# File units = meters

mtllib B8 Rocks.mtl

g Mesh1 GreenRock1 B8_Rocks1 Model

usemtl _1
v -8.88237 0.42 39.6323
vt 15.2538 0.719856
vn 1 -1.48983e-08 -1.49019e-08
v -8.88237 0.78 39.6323
vt 15.2538 1.07986
v -8.88237 0.78 39.6923
vt 15.1938 1.07986
v -8.88237 0.84 39.6923
vt 15.1938 1.13986
v -8.88237 0.84 39.7523
vt 15.1338 1.13986
v -8.88237 0.900747 39.7523
vt 15.1338 1.2006
v -8.88237 0.900747 39.9223
vt 14.9638 1.2006
v -8.88237 0.84 39.9223
vt 14.9638 1.13986
v -8.88237 0.84 39.9923
vt 14.8938 1.13986
v -8.88237 0.78 39.9923
vt 14.8938 1.07986
v -8.88237 0.78 40.3523
vt 14.5338 1.07986
v -8.88237 0.72 40.3523
vt 14.5338 1.01986
v -8.88237 0.72 40.4123
vt 14.4738 1.01986
v -8.88237 0.66 40.4123
vt 14.4738 0.959856
v -8.88237 0.66 40.4723
vt 14.4138 0.959856
v -8.88237 0.54 40.4723
vt 14.4138 0.839856
v -8.88237 0.54 40.5323
vt 14.3538 0.839856
v -8.88237 0.12 40.5323
vt 14.3538 0.419856
v -8.88237 0.12 40.4723
vt 14.4138 0.419856
v -8.88237 -1.49004e-08 40.4723
vt 14.4138 0.299856
v -8.88237 -1.49011e-08 39.6923
vt 15.1938 0.299856
v -8.88237 0.06 39.6923
vt 15.1938 0.359856
v -8.88237 0.06 39.6323
vt 15.2538 0.359856
v -8.88237 0.24 39.6323
vt 15.2538 0.539856
v -8.88237 0.24 39.6923
vt 15.1938 0.539856
v -8.88237 0.42 39.6923
vt 15.1938 0.719856
f 1/1/1 2/2/1 3/3/1 4/4/1 5/5/1 6/6/1 7/7/1 8/8/1 9/9/1 10/10/1 11/11/1 12/12/1 13/13/1 14/14/1 15/15/1 16/16/1 17/17/1 18/18/1 19/19/1 20/20/1 21/21/1 22/22/1 23/23/1 24/24/1 25/25/1 26/26/1 

vt -1.07986 0
vn -1.49019e-08 -9.06232e-13 -1
vt -0.719856 0
v -9.88237 0.42 39.6323
vt -0.719856 1
v -9.88237 0.78 39.6323
vt -1.07986 1
f 2/27/2 1/28/2 27/29/2 28/30/2 

vt -15.2538 0
vn -1.48983e-08 -1 9.06454e-13
vt -15.1938 0
v -9.88237 0.42 39.6923
vt -15.1938 1
vt -15.2538 1
f 1/31/3 26/32/3 29/33/3 27/34/3 

vt -0.539856 0
v -9.88237 0.24 39.6923
vt -0.539856 1
f 26/28/2 25/35/2 30/36/2 29/29/2 

vt 15.1938 0
vn 1.48983e-08 1 -9.06454e-13
vt 15.2538 0
v -9.88237 0.24 39.6323
vt 15.2538 1
vt 15.1938 1
f 25/37/4 24/38/4 31/39/4 30/40/4 

vt -0.359856 0
v -9.88237 0.06 39.6323
vt -0.359856 1
f 24/35/2 23/41/2 32/42/2 31/36/2 

v -9.88237 0.06 39.6923
f 23/31/3 22/32/3 33/33/3 32/34/3 

vt -0.299856 0
v -9.88237 -2.82972e-12 39.6923
vt -0.299856 1
f 22/41/2 21/43/2 34/44/2 33/42/2 

vt -14.4138 0
v -9.88237 -2.12286e-12 40.4723
vt -14.4138 1
f 21/32/3 20/45/3 35/46/3 34/33/3 

vt 0.299856 0
vn 1.49019e-08 9.06232e-13 1
vt 0.419856 0
v -9.88237 0.12 40.4723
vt 0.419856 1
vt 0.299856 1
f 20/47/5 19/48/5 36/49/5 35/50/5 

vt -14.3538 0
v -9.88237 0.12 40.5323
vt -14.3538 1
f 19/45/3 18/51/3 37/52/3 36/46/3 

vt 0.839856 0
v -9.88237 0.54 40.5323
vt 0.839856 1
f 18/48/5 17/53/5 38/54/5 37/49/5 

vt 14.3538 0
vt 14.4138 0
v -9.88237 0.54 40.4723
vt 14.4138 1
vt 14.3538 1
f 17/55/4 16/56/4 39/57/4 38/58/4 

vt 0.959856 0
v -9.88237 0.66 40.4723
vt 0.959856 1
f 16/53/5 15/59/5 40/60/5 39/54/5 

vt 14.4738 0
v -9.88237 0.66 40.4123
vt 14.4738 1
f 15/56/4 14/61/4 41/62/4 40/57/4 

vt 1.01986 0
v -9.88237 0.72 40.4123
vt 1.01986 1
f 14/59/5 13/63/5 42/64/5 41/60/5 

vt 14.5338 0
v -9.88237 0.72 40.3523
vt 14.5338 1
f 13/61/4 12/65/4 43/66/4 42/62/4 

vt 1.07986 0
v -9.88237 0.78 40.3523
vt 1.07986 1
f 12/63/5 11/67/5 44/68/5 43/64/5 

vt 14.8938 0
v -9.88237 0.78 39.9923
vt 14.8938 1
f 11/65/4 10/69/4 45/70/4 44/66/4 

vt 1.13986 0
v -9.88237 0.84 39.9923
vt 1.13986 1
f 10/67/5 9/71/5 46/72/5 45/68/5 

vt 14.9638 0
v -9.88237 0.84 39.9223
vt 14.9638 1
f 9/69/4 8/73/4 47/74/4 46/70/4 

vt 1.2006 0
v -9.88237 0.900747 39.9223
vt 1.2006 1
f 8/71/5 7/75/5 48/76/5 47/72/5 

vt 15.1338 0
v -9.88237 0.900747 39.7523
vt 15.1338 1
f 7/73/4 6/77/4 49/78/4 48/74/4 

vt -1.2006 0
vt -1.13986 0
v -9.88237 0.84 39.7523
vt -1.13986 1
vt -1.2006 1
f 6/79/2 5/80/2 50/81/2 49/82/2 

v -9.88237 0.84 39.6923
f 5/77/4 4/37/4 51/40/4 50/78/4 

v -9.88237 0.78 39.6923
f 4/80/2 3/27/2 52/30/2 51/81/2 

f 3/37/4 2/38/4 28/39/4 52/40/4 

vt -15.2538 1.07986
vn -1 1.48983e-08 1.49019e-08
vt -15.2538 0.719856
vt -15.1938 0.719856
vt -15.1938 0.539856
vt -15.2538 0.539856
vt -15.2538 0.359856
vt -15.1938 0.359856
vt -15.1938 0.299856
vt -14.4138 0.299856
vt -14.4138 0.419856
vt -14.3538 0.419856
vt -14.3538 0.839856
vt -14.4138 0.839856
vt -14.4138 0.959856
vt -14.4738 0.959856
vt -14.4738 1.01986
vt -14.5338 1.01986
vt -14.5338 1.07986
vt -14.8938 1.07986
vt -14.8938 1.13986
vt -14.9638 1.13986
vt -14.9638 1.2006
vt -15.1338 1.2006
vt -15.1338 1.13986
vt -15.1938 1.13986
vt -15.1938 1.07986
f 28/83/6 27/84/6 29/85/6 30/86/6 31/87/6 32/88/6 33/89/6 34/90/6 35/91/6 36/92/6 37/93/6 38/94/6 39/95/6 40/96/6 41/97/6 42/98/6 43/99/6 44/100/6 45/101/6 46/102/6 47/103/6 48/104/6 49/105/6 50/106/6 51/107/6 52/108/6 

g Mesh2 GreenRock2 B8_Rocks1 Model

v -12.0858 0.42 36.66
v -12.0858 0.78 36.66
v -12.0858 0.78 36.72
v -12.0858 0.84 36.72
v -12.0858 0.84 36.78
v -12.0858 0.900747 36.78
v -12.0858 0.900747 36.95
v -12.0858 0.84 36.95
v -12.0858 0.84 37.02
v -12.0858 0.78 37.02
v -12.0858 0.78 37.38
v -12.0858 0.72 37.38
v -12.0858 0.72 37.44
v -12.0858 0.66 37.44
v -12.0858 0.66 37.5
v -12.0858 0.54 37.5
v -12.0858 0.54 37.56
v -12.0858 0.12 37.56
v -12.0858 0.12 37.5
v -12.0858 -1.49004e-08 37.5
v -12.0858 -1.49011e-08 36.72
v -12.0858 0.06 36.72
v -12.0858 0.06 36.66
v -12.0858 0.24 36.66
v -12.0858 0.24 36.72
v -12.0858 0.42 36.72
f 53/1/1 54/2/1 55/3/1 56/4/1 57/5/1 58/6/1 59/7/1 60/8/1 61/9/1 62/10/1 63/11/1 64/12/1 65/13/1 66/14/1 67/15/1 68/16/1 69/17/1 70/18/1 71/19/1 72/20/1 73/21/1 74/22/1 75/23/1 76/24/1 77/25/1 78/26/1 

v -13.0858 0.42 36.66
v -13.0858 0.78 36.66
f 54/27/2 53/28/2 79/29/2 80/30/2 

v -13.0858 0.42 36.72
f 53/31/3 78/32/3 81/33/3 79/34/3 

v -13.0858 0.24 36.72
f 78/28/2 77/35/2 82/36/2 81/29/2 

v -13.0858 0.24 36.66
f 77/37/4 76/38/4 83/39/4 82/40/4 

v -13.0858 0.06 36.66
f 76/35/2 75/41/2 84/42/2 83/36/2 

v -13.0858 0.06 36.72
f 75/31/3 74/32/3 85/33/3 84/34/3 

v -13.0858 -2.82972e-12 36.72
f 74/41/2 73/43/2 86/44/2 85/42/2 

v -13.0858 -2.12286e-12 37.5
f 73/32/3 72/45/3 87/46/3 86/33/3 

v -13.0858 0.12 37.5
f 72/47/5 71/48/5 88/49/5 87/50/5 

v -13.0858 0.12 37.56
f 71/45/3 70/51/3 89/52/3 88/46/3 

v -13.0858 0.54 37.56
f 70/48/5 69/53/5 90/54/5 89/49/5 

v -13.0858 0.54 37.5
f 69/55/4 68/56/4 91/57/4 90/58/4 

v -13.0858 0.66 37.5
f 68/53/5 67/59/5 92/60/5 91/54/5 

v -13.0858 0.66 37.44
f 67/56/4 66/61/4 93/62/4 92/57/4 

v -13.0858 0.72 37.44
f 66/59/5 65/63/5 94/64/5 93/60/5 

v -13.0858 0.72 37.38
f 65/61/4 64/65/4 95/66/4 94/62/4 

v -13.0858 0.78 37.38
f 64/63/5 63/67/5 96/68/5 95/64/5 

v -13.0858 0.78 37.02
f 63/65/4 62/69/4 97/70/4 96/66/4 

v -13.0858 0.84 37.02
f 62/67/5 61/71/5 98/72/5 97/68/5 

v -13.0858 0.84 36.95
f 61/69/4 60/73/4 99/74/4 98/70/4 

v -13.0858 0.900747 36.95
f 60/71/5 59/75/5 100/76/5 99/72/5 

v -13.0858 0.900747 36.78
f 59/73/4 58/77/4 101/78/4 100/74/4 

v -13.0858 0.84 36.78
f 58/79/2 57/80/2 102/81/2 101/82/2 

v -13.0858 0.84 36.72
f 57/77/4 56/37/4 103/40/4 102/78/4 

v -13.0858 0.78 36.72
f 56/80/2 55/27/2 104/30/2 103/81/2 

f 55/37/4 54/38/4 80/39/4 104/40/4 

f 80/83/6 79/84/6 81/85/6 82/86/6 83/87/6 84/88/6 85/89/6 86/90/6 87/91/6 88/92/6 89/93/6 90/94/6 91/95/6 92/96/6 93/97/6 94/98/6 95/99/6 96/100/6 97/101/6 98/102/6 99/103/6 100/104/6 101/105/6 102/106/6 103/107/6 104/108/6 

g Mesh3 GreenRock3 B8_Rocks1 Model

v -3.06237 0.42 42.7396
v -3.06237 0.78 42.7396
v -3.06237 0.78 42.7996
v -3.06237 0.84 42.7996
v -3.06237 0.84 42.8596
v -3.06237 0.900747 42.8596
v -3.06237 0.900747 43.0296
v -3.06237 0.84 43.0296
v -3.06237 0.84 43.0996
v -3.06237 0.78 43.0996
v -3.06237 0.78 43.4596
v -3.06237 0.72 43.4596
v -3.06237 0.72 43.5196
v -3.06237 0.66 43.5196
v -3.06237 0.66 43.5796
v -3.06237 0.54 43.5796
v -3.06237 0.54 43.6396
v -3.06237 0.12 43.6396
v -3.06237 0.12 43.5796
v -3.06237 -1.49004e-08 43.5796
v -3.06237 -1.49011e-08 42.7996
v -3.06237 0.06 42.7996
v -3.06237 0.06 42.7396
v -3.06237 0.24 42.7396
v -3.06237 0.24 42.7996
v -3.06237 0.42 42.7996
f 105/1/1 106/2/1 107/3/1 108/4/1 109/5/1 110/6/1 111/7/1 112/8/1 113/9/1 114/10/1 115/11/1 116/12/1 117/13/1 118/14/1 119/15/1 120/16/1 121/17/1 122/18/1 123/19/1 124/20/1 125/21/1 126/22/1 127/23/1 128/24/1 129/25/1 130/26/1 

v -4.06237 0.42 42.7396
v -4.06237 0.78 42.7396
f 106/27/2 105/28/2 131/29/2 132/30/2 

v -4.06237 0.42 42.7996
f 105/31/3 130/32/3 133/33/3 131/34/3 

v -4.06237 0.24 42.7996
f 130/28/2 129/35/2 134/36/2 133/29/2 

v -4.06237 0.24 42.7396
f 129/37/4 128/38/4 135/39/4 134/40/4 

v -4.06237 0.06 42.7396
f 128/35/2 127/41/2 136/42/2 135/36/2 

v -4.06237 0.06 42.7996
f 127/31/3 126/32/3 137/33/3 136/34/3 

v -4.06237 -2.82972e-12 42.7996
f 126/41/2 125/43/2 138/44/2 137/42/2 

v -4.06237 -2.12286e-12 43.5796
f 125/32/3 124/45/3 139/46/3 138/33/3 

v -4.06237 0.12 43.5796
f 124/47/5 123/48/5 140/49/5 139/50/5 

v -4.06237 0.12 43.6396
f 123/45/3 122/51/3 141/52/3 140/46/3 

v -4.06237 0.54 43.6396
f 122/48/5 121/53/5 142/54/5 141/49/5 

v -4.06237 0.54 43.5796
f 121/55/4 120/56/4 143/57/4 142/58/4 

v -4.06237 0.66 43.5796
f 120/53/5 119/59/5 144/60/5 143/54/5 

v -4.06237 0.66 43.5196
f 119/56/4 118/61/4 145/62/4 144/57/4 

v -4.06237 0.72 43.5196
f 118/59/5 117/63/5 146/64/5 145/60/5 

v -4.06237 0.72 43.4596
f 117/61/4 116/65/4 147/66/4 146/62/4 

v -4.06237 0.78 43.4596
f 116/63/5 115/67/5 148/68/5 147/64/5 

v -4.06237 0.78 43.0996
f 115/65/4 114/69/4 149/70/4 148/66/4 

v -4.06237 0.84 43.0996
f 114/67/5 113/71/5 150/72/5 149/68/5 

v -4.06237 0.84 43.0296
f 113/69/4 112/73/4 151/74/4 150/70/4 

v -4.06237 0.900747 43.0296
f 112/71/5 111/75/5 152/76/5 151/72/5 

v -4.06237 0.900747 42.8596
f 111/73/4 110/77/4 153/78/4 152/74/4 

v -4.06237 0.84 42.8596
f 110/79/2 109/80/2 154/81/2 153/82/2 

v -4.06237 0.84 42.7996
f 109/77/4 108/37/4 155/40/4 154/78/4 

v -4.06237 0.78 42.7996
f 108/80/2 107/27/2 156/30/2 155/81/2 

f 107/37/4 106/38/4 132/39/4 156/40/4 

f 132/83/6 131/84/6 133/85/6 134/86/6 135/87/6 136/88/6 137/89/6 138/90/6 139/91/6 140/92/6 141/93/6 142/94/6 143/95/6 144/96/6 145/97/6 146/98/6 147/99/6 148/100/6 149/101/6 150/102/6 151/103/6 152/104/6 153/105/6 154/106/6 155/107/6 156/108/6 

g Mesh4 GreenRock4 B8_Rocks1 Model

v -12.0858 0.42 42.7396
v -12.0858 0.78 42.7396
v -12.0858 0.78 42.7996
v -12.0858 0.84 42.7996
v -12.0858 0.84 42.8596
v -12.0858 0.900747 42.8596
v -12.0858 0.900747 43.0296
v -12.0858 0.84 43.0296
v -12.0858 0.84 43.0996
v -12.0858 0.78 43.0996
v -12.0858 0.78 43.4596
v -12.0858 0.72 43.4596
v -12.0858 0.72 43.5196
v -12.0858 0.66 43.5196
v -12.0858 0.66 43.5796
v -12.0858 0.54 43.5796
v -12.0858 0.54 43.6396
v -12.0858 0.12 43.6396
v -12.0858 0.12 43.5796
v -12.0858 -1.49004e-08 43.5796
v -12.0858 -1.49011e-08 42.7996
v -12.0858 0.06 42.7996
v -12.0858 0.06 42.7396
v -12.0858 0.24 42.7396
v -12.0858 0.24 42.7996
v -12.0858 0.42 42.7996
f 157/1/1 158/2/1 159/3/1 160/4/1 161/5/1 162/6/1 163/7/1 164/8/1 165/9/1 166/10/1 167/11/1 168/12/1 169/13/1 170/14/1 171/15/1 172/16/1 173/17/1 174/18/1 175/19/1 176/20/1 177/21/1 178/22/1 179/23/1 180/24/1 181/25/1 182/26/1 

v -13.0858 0.42 42.7396
v -13.0858 0.78 42.7396
f 158/27/2 157/28/2 183/29/2 184/30/2 

v -13.0858 0.42 42.7996
f 157/31/3 182/32/3 185/33/3 183/34/3 

v -13.0858 0.24 42.7996
f 182/28/2 181/35/2 186/36/2 185/29/2 

v -13.0858 0.24 42.7396
f 181/37/4 180/38/4 187/39/4 186/40/4 

v -13.0858 0.06 42.7396
f 180/35/2 179/41/2 188/42/2 187/36/2 

v -13.0858 0.06 42.7996
f 179/31/3 178/32/3 189/33/3 188/34/3 

v -13.0858 -2.82972e-12 42.7996
f 178/41/2 177/43/2 190/44/2 189/42/2 

v -13.0858 -2.12286e-12 43.5796
f 177/32/3 176/45/3 191/46/3 190/33/3 

v -13.0858 0.12 43.5796
f 176/47/5 175/48/5 192/49/5 191/50/5 

v -13.0858 0.12 43.6396
f 175/45/3 174/51/3 193/52/3 192/46/3 

v -13.0858 0.54 43.6396
f 174/48/5 173/53/5 194/54/5 193/49/5 

v -13.0858 0.54 43.5796
f 173/55/4 172/56/4 195/57/4 194/58/4 

v -13.0858 0.66 43.5796
f 172/53/5 171/59/5 196/60/5 195/54/5 

v -13.0858 0.66 43.5196
f 171/56/4 170/61/4 197/62/4 196/57/4 

v -13.0858 0.72 43.5196
f 170/59/5 169/63/5 198/64/5 197/60/5 

v -13.0858 0.72 43.4596
f 169/61/4 168/65/4 199/66/4 198/62/4 

v -13.0858 0.78 43.4596
f 168/63/5 167/67/5 200/68/5 199/64/5 

v -13.0858 0.78 43.0996
f 167/65/4 166/69/4 201/70/4 200/66/4 

v -13.0858 0.84 43.0996
f 166/67/5 165/71/5 202/72/5 201/68/5 

v -13.0858 0.84 43.0296
f 165/69/4 164/73/4 203/74/4 202/70/4 

v -13.0858 0.900747 43.0296
f 164/71/5 163/75/5 204/76/5 203/72/5 

v -13.0858 0.900747 42.8596
f 163/73/4 162/77/4 205/78/4 204/74/4 

v -13.0858 0.84 42.8596
f 162/79/2 161/80/2 206/81/2 205/82/2 

v -13.0858 0.84 42.7996
f 161/77/4 160/37/4 207/40/4 206/78/4 

v -13.0858 0.78 42.7996
f 160/80/2 159/27/2 208/30/2 207/81/2 

f 159/37/4 158/38/4 184/39/4 208/40/4 

f 184/83/6 183/84/6 185/85/6 186/86/6 187/87/6 188/88/6 189/89/6 190/90/6 191/91/6 192/92/6 193/93/6 194/94/6 195/95/6 196/96/6 197/97/6 198/98/6 199/99/6 200/100/6 201/101/6 202/102/6 203/103/6 204/104/6 205/105/6 206/106/6 207/107/6 208/108/6 

g Mesh5 GreenRock5 B8_Rocks1 Model

v -8.88237 0.42 36.66
v -8.88237 0.78 36.66
v -8.88237 0.78 36.72
v -8.88237 0.84 36.72
v -8.88237 0.84 36.78
v -8.88237 0.900747 36.78
v -8.88237 0.900747 36.95
v -8.88237 0.84 36.95
v -8.88237 0.84 37.02
v -8.88237 0.78 37.02
v -8.88237 0.78 37.38
v -8.88237 0.72 37.38
v -8.88237 0.72 37.44
v -8.88237 0.66 37.44
v -8.88237 0.66 37.5
v -8.88237 0.54 37.5
v -8.88237 0.54 37.56
v -8.88237 0.12 37.56
v -8.88237 0.12 37.5
v -8.88237 -1.49004e-08 37.5
v -8.88237 -1.49011e-08 36.72
v -8.88237 0.06 36.72
v -8.88237 0.06 36.66
v -8.88237 0.24 36.66
v -8.88237 0.24 36.72
v -8.88237 0.42 36.72
f 209/1/1 210/2/1 211/3/1 212/4/1 213/5/1 214/6/1 215/7/1 216/8/1 217/9/1 218/10/1 219/11/1 220/12/1 221/13/1 222/14/1 223/15/1 224/16/1 225/17/1 226/18/1 227/19/1 228/20/1 229/21/1 230/22/1 231/23/1 232/24/1 233/25/1 234/26/1 

v -9.88237 0.42 36.66
v -9.88237 0.78 36.66
f 210/27/2 209/28/2 235/29/2 236/30/2 

v -9.88237 0.42 36.72
f 209/31/3 234/32/3 237/33/3 235/34/3 

v -9.88237 0.24 36.72
f 234/28/2 233/35/2 238/36/2 237/29/2 

v -9.88237 0.24 36.66
f 233/37/4 232/38/4 239/39/4 238/40/4 

v -9.88237 0.06 36.66
f 232/35/2 231/41/2 240/42/2 239/36/2 

v -9.88237 0.06 36.72
f 231/31/3 230/32/3 241/33/3 240/34/3 

v -9.88237 -2.82972e-12 36.72
f 230/41/2 229/43/2 242/44/2 241/42/2 

v -9.88237 -2.12286e-12 37.5
f 229/32/3 228/45/3 243/46/3 242/33/3 

v -9.88237 0.12 37.5
f 228/47/5 227/48/5 244/49/5 243/50/5 

v -9.88237 0.12 37.56
f 227/45/3 226/51/3 245/52/3 244/46/3 

v -9.88237 0.54 37.56
f 226/48/5 225/53/5 246/54/5 245/49/5 

v -9.88237 0.54 37.5
f 225/55/4 224/56/4 247/57/4 246/58/4 

v -9.88237 0.66 37.5
f 224/53/5 223/59/5 248/60/5 247/54/5 

v -9.88237 0.66 37.44
f 223/56/4 222/61/4 249/62/4 248/57/4 

v -9.88237 0.72 37.44
f 222/59/5 221/63/5 250/64/5 249/60/5 

v -9.88237 0.72 37.38
f 221/61/4 220/65/4 251/66/4 250/62/4 

v -9.88237 0.78 37.38
f 220/63/5 219/67/5 252/68/5 251/64/5 

v -9.88237 0.78 37.02
f 219/65/4 218/69/4 253/70/4 252/66/4 

v -9.88237 0.84 37.02
f 218/67/5 217/71/5 254/72/5 253/68/5 

v -9.88237 0.84 36.95
f 217/69/4 216/73/4 255/74/4 254/70/4 

v -9.88237 0.900747 36.95
f 216/71/5 215/75/5 256/76/5 255/72/5 

v -9.88237 0.900747 36.78
f 215/73/4 214/77/4 257/78/4 256/74/4 

v -9.88237 0.84 36.78
f 214/79/2 213/80/2 258/81/2 257/82/2 

v -9.88237 0.84 36.72
f 213/77/4 212/37/4 259/40/4 258/78/4 

v -9.88237 0.78 36.72
f 212/80/2 211/27/2 260/30/2 259/81/2 

f 211/37/4 210/38/4 236/39/4 260/40/4 

f 236/83/6 235/84/6 237/85/6 238/86/6 239/87/6 240/88/6 241/89/6 242/90/6 243/91/6 244/92/6 245/93/6 246/94/6 247/95/6 248/96/6 249/97/6 250/98/6 251/99/6 252/100/6 253/101/6 254/102/6 255/103/6 256/104/6 257/105/6 258/106/6 259/107/6 260/108/6 

g Mesh6 GreenRock6 B8_Rocks1 Model

v -3.06237 0.42 39.5623
v -3.06237 0.78 39.5623
v -3.06237 0.78 39.6223
v -3.06237 0.84 39.6223
v -3.06237 0.84 39.6823
v -3.06237 0.900747 39.6823
v -3.06237 0.900747 39.8523
v -3.06237 0.84 39.8523
v -3.06237 0.84 39.9223
v -3.06237 0.78 39.9223
v -3.06237 0.78 40.2823
v -3.06237 0.72 40.2823
v -3.06237 0.72 40.3423
v -3.06237 0.66 40.3423
v -3.06237 0.66 40.4023
v -3.06237 0.54 40.4023
v -3.06237 0.54 40.4623
v -3.06237 0.12 40.4623
v -3.06237 0.12 40.4023
v -3.06237 -1.49004e-08 40.4023
v -3.06237 -1.49011e-08 39.6223
v -3.06237 0.06 39.6223
v -3.06237 0.06 39.5623
v -3.06237 0.24 39.5623
v -3.06237 0.24 39.6223
v -3.06237 0.42 39.6223
f 261/1/1 262/2/1 263/3/1 264/4/1 265/5/1 266/6/1 267/7/1 268/8/1 269/9/1 270/10/1 271/11/1 272/12/1 273/13/1 274/14/1 275/15/1 276/16/1 277/17/1 278/18/1 279/19/1 280/20/1 281/21/1 282/22/1 283/23/1 284/24/1 285/25/1 286/26/1 

v -4.06237 0.42 39.5623
v -4.06237 0.78 39.5623
f 262/27/2 261/28/2 287/29/2 288/30/2 

v -4.06237 0.42 39.6223
f 261/31/3 286/32/3 289/33/3 287/34/3 

v -4.06237 0.24 39.6223
f 286/28/2 285/35/2 290/36/2 289/29/2 

v -4.06237 0.24 39.5623
f 285/37/4 284/38/4 291/39/4 290/40/4 

v -4.06237 0.06 39.5623
f 284/35/2 283/41/2 292/42/2 291/36/2 

v -4.06237 0.06 39.6223
f 283/31/3 282/32/3 293/33/3 292/34/3 

v -4.06237 -2.82972e-12 39.6223
f 282/41/2 281/43/2 294/44/2 293/42/2 

v -4.06237 -2.12286e-12 40.4023
f 281/32/3 280/45/3 295/46/3 294/33/3 

v -4.06237 0.12 40.4023
f 280/47/5 279/48/5 296/49/5 295/50/5 

v -4.06237 0.12 40.4623
f 279/45/3 278/51/3 297/52/3 296/46/3 

v -4.06237 0.54 40.4623
f 278/48/5 277/53/5 298/54/5 297/49/5 

v -4.06237 0.54 40.4023
f 277/55/4 276/56/4 299/57/4 298/58/4 

v -4.06237 0.66 40.4023
f 276/53/5 275/59/5 300/60/5 299/54/5 

v -4.06237 0.66 40.3423
f 275/56/4 274/61/4 301/62/4 300/57/4 

v -4.06237 0.72 40.3423
f 274/59/5 273/63/5 302/64/5 301/60/5 

v -4.06237 0.72 40.2823
f 273/61/4 272/65/4 303/66/4 302/62/4 

v -4.06237 0.78 40.2823
f 272/63/5 271/67/5 304/68/5 303/64/5 

v -4.06237 0.78 39.9223
f 271/65/4 270/69/4 305/70/4 304/66/4 

v -4.06237 0.84 39.9223
f 270/67/5 269/71/5 306/72/5 305/68/5 

v -4.06237 0.84 39.8523
f 269/69/4 268/73/4 307/74/4 306/70/4 

v -4.06237 0.900747 39.8523
f 268/71/5 267/75/5 308/76/5 307/72/5 

v -4.06237 0.900747 39.6823
f 267/73/4 266/77/4 309/78/4 308/74/4 

v -4.06237 0.84 39.6823
f 266/79/2 265/80/2 310/81/2 309/82/2 

v -4.06237 0.84 39.6223
f 265/77/4 264/37/4 311/40/4 310/78/4 

v -4.06237 0.78 39.6223
f 264/80/2 263/27/2 312/30/2 311/81/2 

f 263/37/4 262/38/4 288/39/4 312/40/4 

f 288/83/6 287/84/6 289/85/6 290/86/6 291/87/6 292/88/6 293/89/6 294/90/6 295/91/6 296/92/6 297/93/6 298/94/6 299/95/6 300/96/6 301/97/6 302/98/6 303/99/6 304/100/6 305/101/6 306/102/6 307/103/6 308/104/6 309/105/6 310/106/6 311/107/6 312/108/6 

g Mesh7 GreenRock7 B8_Rocks1 Model

v -8.88237 0.42 42.7396
v -8.88237 0.78 42.7396
v -8.88237 0.78 42.7996
v -8.88237 0.84 42.7996
v -8.88237 0.84 42.8596
v -8.88237 0.900747 42.8596
v -8.88237 0.900747 43.0296
v -8.88237 0.84 43.0296
v -8.88237 0.84 43.0996
v -8.88237 0.78 43.0996
v -8.88237 0.78 43.4596
v -8.88237 0.72 43.4596
v -8.88237 0.72 43.5196
v -8.88237 0.66 43.5196
v -8.88237 0.66 43.5796
v -8.88237 0.54 43.5796
v -8.88237 0.54 43.6396
v -8.88237 0.12 43.6396
v -8.88237 0.12 43.5796
v -8.88237 -1.49004e-08 43.5796
v -8.88237 -1.49011e-08 42.7996
v -8.88237 0.06 42.7996
v -8.88237 0.06 42.7396
v -8.88237 0.24 42.7396
v -8.88237 0.24 42.7996
v -8.88237 0.42 42.7996
f 313/1/1 314/2/1 315/3/1 316/4/1 317/5/1 318/6/1 319/7/1 320/8/1 321/9/1 322/10/1 323/11/1 324/12/1 325/13/1 326/14/1 327/15/1 328/16/1 329/17/1 330/18/1 331/19/1 332/20/1 333/21/1 334/22/1 335/23/1 336/24/1 337/25/1 338/26/1 

v -9.88237 0.42 42.7396
v -9.88237 0.78 42.7396
f 314/27/2 313/28/2 339/29/2 340/30/2 

v -9.88237 0.42 42.7996
f 313/31/3 338/32/3 341/33/3 339/34/3 

v -9.88237 0.24 42.7996
f 338/28/2 337/35/2 342/36/2 341/29/2 

v -9.88237 0.24 42.7396
f 337/37/4 336/38/4 343/39/4 342/40/4 

v -9.88237 0.06 42.7396
f 336/35/2 335/41/2 344/42/2 343/36/2 

v -9.88237 0.06 42.7996
f 335/31/3 334/32/3 345/33/3 344/34/3 

v -9.88237 -2.82972e-12 42.7996
f 334/41/2 333/43/2 346/44/2 345/42/2 

v -9.88237 -2.12286e-12 43.5796
f 333/32/3 332/45/3 347/46/3 346/33/3 

v -9.88237 0.12 43.5796
f 332/47/5 331/48/5 348/49/5 347/50/5 

v -9.88237 0.12 43.6396
f 331/45/3 330/51/3 349/52/3 348/46/3 

v -9.88237 0.54 43.6396
f 330/48/5 329/53/5 350/54/5 349/49/5 

v -9.88237 0.54 43.5796
f 329/55/4 328/56/4 351/57/4 350/58/4 

v -9.88237 0.66 43.5796
f 328/53/5 327/59/5 352/60/5 351/54/5 

v -9.88237 0.66 43.5196
f 327/56/4 326/61/4 353/62/4 352/57/4 

v -9.88237 0.72 43.5196
f 326/59/5 325/63/5 354/64/5 353/60/5 

v -9.88237 0.72 43.4596
f 325/61/4 324/65/4 355/66/4 354/62/4 

v -9.88237 0.78 43.4596
f 324/63/5 323/67/5 356/68/5 355/64/5 

v -9.88237 0.78 43.0996
f 323/65/4 322/69/4 357/70/4 356/66/4 

v -9.88237 0.84 43.0996
f 322/67/5 321/71/5 358/72/5 357/68/5 

v -9.88237 0.84 43.0296
f 321/69/4 320/73/4 359/74/4 358/70/4 

v -9.88237 0.900747 43.0296
f 320/71/5 319/75/5 360/76/5 359/72/5 

v -9.88237 0.900747 42.8596
f 319/73/4 318/77/4 361/78/4 360/74/4 

v -9.88237 0.84 42.8596
f 318/79/2 317/80/2 362/81/2 361/82/2 

v -9.88237 0.84 42.7996
f 317/77/4 316/37/4 363/40/4 362/78/4 

v -9.88237 0.78 42.7996
f 316/80/2 315/27/2 364/30/2 363/81/2 

f 315/37/4 314/38/4 340/39/4 364/40/4 

f 340/83/6 339/84/6 341/85/6 342/86/6 343/87/6 344/88/6 345/89/6 346/90/6 347/91/6 348/92/6 349/93/6 350/94/6 351/95/6 352/96/6 353/97/6 354/98/6 355/99/6 356/100/6 357/101/6 358/102/6 359/103/6 360/104/6 361/105/6 362/106/6 363/107/6 364/108/6 

g Mesh8 GreenRock8 B8_Rocks1 Model

v -12.0858 0.42 39.6323
v -12.0858 0.78 39.6323
v -12.0858 0.78 39.6923
v -12.0858 0.84 39.6923
v -12.0858 0.84 39.7523
v -12.0858 0.900747 39.7523
v -12.0858 0.900747 39.9223
v -12.0858 0.84 39.9223
v -12.0858 0.84 39.9923
v -12.0858 0.78 39.9923
v -12.0858 0.78 40.3523
v -12.0858 0.72 40.3523
v -12.0858 0.72 40.4123
v -12.0858 0.66 40.4123
v -12.0858 0.66 40.4723
v -12.0858 0.54 40.4723
v -12.0858 0.54 40.5323
v -12.0858 0.12 40.5323
v -12.0858 0.12 40.4723
v -12.0858 -1.49004e-08 40.4723
v -12.0858 -1.49011e-08 39.6923
v -12.0858 0.06 39.6923
v -12.0858 0.06 39.6323
v -12.0858 0.24 39.6323
v -12.0858 0.24 39.6923
v -12.0858 0.42 39.6923
f 365/1/1 366/2/1 367/3/1 368/4/1 369/5/1 370/6/1 371/7/1 372/8/1 373/9/1 374/10/1 375/11/1 376/12/1 377/13/1 378/14/1 379/15/1 380/16/1 381/17/1 382/18/1 383/19/1 384/20/1 385/21/1 386/22/1 387/23/1 388/24/1 389/25/1 390/26/1 

v -13.0858 0.42 39.6323
v -13.0858 0.78 39.6323
f 366/27/2 365/28/2 391/29/2 392/30/2 

v -13.0858 0.42 39.6923
f 365/31/3 390/32/3 393/33/3 391/34/3 

v -13.0858 0.24 39.6923
f 390/28/2 389/35/2 394/36/2 393/29/2 

v -13.0858 0.24 39.6323
f 389/37/4 388/38/4 395/39/4 394/40/4 

v -13.0858 0.06 39.6323
f 388/35/2 387/41/2 396/42/2 395/36/2 

v -13.0858 0.06 39.6923
f 387/31/3 386/32/3 397/33/3 396/34/3 

v -13.0858 -2.82972e-12 39.6923
f 386/41/2 385/43/2 398/44/2 397/42/2 

v -13.0858 -2.12286e-12 40.4723
f 385/32/3 384/45/3 399/46/3 398/33/3 

v -13.0858 0.12 40.4723
f 384/47/5 383/48/5 400/49/5 399/50/5 

v -13.0858 0.12 40.5323
f 383/45/3 382/51/3 401/52/3 400/46/3 

v -13.0858 0.54 40.5323
f 382/48/5 381/53/5 402/54/5 401/49/5 

v -13.0858 0.54 40.4723
f 381/55/4 380/56/4 403/57/4 402/58/4 

v -13.0858 0.66 40.4723
f 380/53/5 379/59/5 404/60/5 403/54/5 

v -13.0858 0.66 40.4123
f 379/56/4 378/61/4 405/62/4 404/57/4 

v -13.0858 0.72 40.4123
f 378/59/5 377/63/5 406/64/5 405/60/5 

v -13.0858 0.72 40.3523
f 377/61/4 376/65/4 407/66/4 406/62/4 

v -13.0858 0.78 40.3523
f 376/63/5 375/67/5 408/68/5 407/64/5 

v -13.0858 0.78 39.9923
f 375/65/4 374/69/4 409/70/4 408/66/4 

v -13.0858 0.84 39.9923
f 374/67/5 373/71/5 410/72/5 409/68/5 

v -13.0858 0.84 39.9223
f 373/69/4 372/73/4 411/74/4 410/70/4 

v -13.0858 0.900747 39.9223
f 372/71/5 371/75/5 412/76/5 411/72/5 

v -13.0858 0.900747 39.7523
f 371/73/4 370/77/4 413/78/4 412/74/4 

v -13.0858 0.84 39.7523
f 370/79/2 369/80/2 414/81/2 413/82/2 

v -13.0858 0.84 39.6923
f 369/77/4 368/37/4 415/40/4 414/78/4 

v -13.0858 0.78 39.6923
f 368/80/2 367/27/2 416/30/2 415/81/2 

f 367/37/4 366/38/4 392/39/4 416/40/4 

f 392/83/6 391/84/6 393/85/6 394/86/6 395/87/6 396/88/6 397/89/6 398/90/6 399/91/6 400/92/6 401/93/6 402/94/6 403/95/6 404/96/6 405/97/6 406/98/6 407/99/6 408/100/6 409/101/6 410/102/6 411/103/6 412/104/6 413/105/6 414/106/6 415/107/6 416/108/6 

g Mesh9 GreenRock9 B8_Rocks1 Model

v -3.06237 0.42 36.66
v -3.06237 0.78 36.66
v -3.06237 0.78 36.72
v -3.06237 0.84 36.72
v -3.06237 0.84 36.78
v -3.06237 0.900747 36.78
v -3.06237 0.900747 36.95
v -3.06237 0.84 36.95
v -3.06237 0.84 37.02
v -3.06237 0.78 37.02
v -3.06237 0.78 37.38
v -3.06237 0.72 37.38
v -3.06237 0.72 37.44
v -3.06237 0.66 37.44
v -3.06237 0.66 37.5
v -3.06237 0.54 37.5
v -3.06237 0.54 37.56
v -3.06237 0.12 37.56
v -3.06237 0.12 37.5
v -3.06237 -1.49004e-08 37.5
v -3.06237 -1.49011e-08 36.72
v -3.06237 0.06 36.72
v -3.06237 0.06 36.66
v -3.06237 0.24 36.66
v -3.06237 0.24 36.72
v -3.06237 0.42 36.72
f 417/1/1 418/2/1 419/3/1 420/4/1 421/5/1 422/6/1 423/7/1 424/8/1 425/9/1 426/10/1 427/11/1 428/12/1 429/13/1 430/14/1 431/15/1 432/16/1 433/17/1 434/18/1 435/19/1 436/20/1 437/21/1 438/22/1 439/23/1 440/24/1 441/25/1 442/26/1 

v -4.06237 0.42 36.66
v -4.06237 0.78 36.66
f 418/27/2 417/28/2 443/29/2 444/30/2 

v -4.06237 0.42 36.72
f 417/31/3 442/32/3 445/33/3 443/34/3 

v -4.06237 0.24 36.72
f 442/28/2 441/35/2 446/36/2 445/29/2 

v -4.06237 0.24 36.66
f 441/37/4 440/38/4 447/39/4 446/40/4 

v -4.06237 0.06 36.66
f 440/35/2 439/41/2 448/42/2 447/36/2 

v -4.06237 0.06 36.72
f 439/31/3 438/32/3 449/33/3 448/34/3 

v -4.06237 -2.82972e-12 36.72
f 438/41/2 437/43/2 450/44/2 449/42/2 

v -4.06237 -2.12286e-12 37.5
f 437/32/3 436/45/3 451/46/3 450/33/3 

v -4.06237 0.12 37.5
f 436/47/5 435/48/5 452/49/5 451/50/5 

v -4.06237 0.12 37.56
f 435/45/3 434/51/3 453/52/3 452/46/3 

v -4.06237 0.54 37.56
f 434/48/5 433/53/5 454/54/5 453/49/5 

v -4.06237 0.54 37.5
f 433/55/4 432/56/4 455/57/4 454/58/4 

v -4.06237 0.66 37.5
f 432/53/5 431/59/5 456/60/5 455/54/5 

v -4.06237 0.66 37.44
f 431/56/4 430/61/4 457/62/4 456/57/4 

v -4.06237 0.72 37.44
f 430/59/5 429/63/5 458/64/5 457/60/5 

v -4.06237 0.72 37.38
f 429/61/4 428/65/4 459/66/4 458/62/4 

v -4.06237 0.78 37.38
f 428/63/5 427/67/5 460/68/5 459/64/5 

v -4.06237 0.78 37.02
f 427/65/4 426/69/4 461/70/4 460/66/4 

v -4.06237 0.84 37.02
f 426/67/5 425/71/5 462/72/5 461/68/5 

v -4.06237 0.84 36.95
f 425/69/4 424/73/4 463/74/4 462/70/4 

v -4.06237 0.900747 36.95
f 424/71/5 423/75/5 464/76/5 463/72/5 

v -4.06237 0.900747 36.78
f 423/73/4 422/77/4 465/78/4 464/74/4 

v -4.06237 0.84 36.78
f 422/79/2 421/80/2 466/81/2 465/82/2 

v -4.06237 0.84 36.72
f 421/77/4 420/37/4 467/40/4 466/78/4 

v -4.06237 0.78 36.72
f 420/80/2 419/27/2 468/30/2 467/81/2 

f 419/37/4 418/38/4 444/39/4 468/40/4 

f 444/83/6 443/84/6 445/85/6 446/86/6 447/87/6 448/88/6 449/89/6 450/90/6 451/91/6 452/92/6 453/93/6 454/94/6 455/95/6 456/96/6 457/97/6 458/98/6 459/99/6 460/100/6 461/101/6 462/102/6 463/103/6 464/104/6 465/105/6 466/106/6 467/107/6 468/108/6 

