<?xml version="1.0" encoding="UTF-8" standalone="no" ?>
<COLLADA xmlns="http://www.collada.org/2005/11/COLLADASchema" version="1.4.1">
    <asset>
        <contributor>
            <authoring_tool>SketchUp 17.1.174</authoring_tool>
        </contributor>
        <created>2017-05-29T02:30:00Z</created>
        <modified>2017-05-29T02:30:00Z</modified>
        <unit meter="0.0254" name="inch" />
        <up_axis>Z_UP</up_axis>
    </asset>
    <library_cameras>
        <camera id="ID1" name="skp_camera_Last_Saved_SketchUp_View">
            <optics>
                <technique_common>
                    <perspective>
                        <yfov>35</yfov>
                        <aspect_ratio>0</aspect_ratio>
                        <znear>1</znear>
                        <zfar>1000</zfar>
                    </perspective>
                </technique_common>
            </optics>
        </camera>
    </library_cameras>
    <library_visual_scenes>
        <visual_scene id="ID2">
            <node name="SketchUp">
                <node name="skp_camera_Last_Saved_SketchUp_View">
                    <matrix>0.2550261 -0.5794976 0.7740441 136.7867 0.9669341 0.1528408 -0.2041519 -717.2018 -2.775558e-17 0.8005137 0.5993144 152.756 0 0 0 1</matrix>
                    <instance_camera url="#ID1" />
                </node>
                <node id="ID3" name="instance_0">
                    <matrix>1 0 0 0 0 1 0 -714.1732 0 0 1 2.524355e-29 0 0 0 1</matrix>
                    <instance_geometry url="#ID81">
                        <bind_material>
                            <technique_common>
                                <instance_material symbol="Material2" target="#ID7">
                                    <bind_vertex_input semantic="UVSET0" input_semantic="TEXCOORD" input_set="0" />
                                </instance_material>
                                <instance_material symbol="Material3" target="#ID40">
                                    <bind_vertex_input semantic="UVSET0" input_semantic="TEXCOORD" input_set="0" />
                                </instance_material>
                                <instance_material symbol="Material4" target="#ID14">
                                    <bind_vertex_input semantic="UVSET0" input_semantic="TEXCOORD" input_set="0" />
                                </instance_material>
                            </technique_common>
                        </bind_material>
                    </instance_geometry>
                    <node id="ID4" name="group_0">
                        <matrix>1 0 0 18.11024 0 1 0 5.905512 0 0 1 1.022681e-14 0 0 0 1</matrix>
                        <instance_geometry url="#ID5">
                            <bind_material>
                                <technique_common>
                                    <instance_material symbol="Material2" target="#ID7">
                                        <bind_vertex_input semantic="UVSET0" input_semantic="TEXCOORD" input_set="0" />
                                    </instance_material>
                                    <instance_material symbol="Material3" target="#ID12">
                                        <bind_vertex_input semantic="UVSET0" input_semantic="TEXCOORD" input_set="0" />
                                    </instance_material>
                                    <instance_material symbol="Material4" target="#ID14">
                                        <bind_vertex_input semantic="UVSET0" input_semantic="TEXCOORD" input_set="0" />
                                    </instance_material>
                                    <instance_material symbol="Material5" target="#ID16">
                                        <bind_vertex_input semantic="UVSET0" input_semantic="TEXCOORD" input_set="0" />
                                    </instance_material>
                                </technique_common>
                            </bind_material>
                        </instance_geometry>
                        <instance_geometry url="#ID21">
                            <bind_material>
                                <technique_common>
                                    <instance_material symbol="Material2" target="#ID12">
                                        <bind_vertex_input semantic="UVSET0" input_semantic="TEXCOORD" input_set="0" />
                                    </instance_material>
                                    <instance_material symbol="Material3" target="#ID22">
                                        <bind_vertex_input semantic="UVSET0" input_semantic="TEXCOORD" input_set="0" />
                                    </instance_material>
                                    <instance_material symbol="Material4" target="#ID14">
                                        <bind_vertex_input semantic="UVSET0" input_semantic="TEXCOORD" input_set="0" />
                                    </instance_material>
                                    <instance_material symbol="Material5" target="#ID16">
                                        <bind_vertex_input semantic="UVSET0" input_semantic="TEXCOORD" input_set="0" />
                                    </instance_material>
                                </technique_common>
                            </bind_material>
                        </instance_geometry>
                        <instance_geometry url="#ID31">
                            <bind_material>
                                <technique_common>
                                    <instance_material symbol="Material2" target="#ID7">
                                        <bind_vertex_input semantic="UVSET0" input_semantic="TEXCOORD" input_set="0" />
                                    </instance_material>
                                    <instance_material symbol="Material3" target="#ID22">
                                        <bind_vertex_input semantic="UVSET0" input_semantic="TEXCOORD" input_set="0" />
                                    </instance_material>
                                    <instance_material symbol="Material4" target="#ID14">
                                        <bind_vertex_input semantic="UVSET0" input_semantic="TEXCOORD" input_set="0" />
                                    </instance_material>
                                </technique_common>
                            </bind_material>
                        </instance_geometry>
                        <instance_geometry url="#ID39">
                            <bind_material>
                                <technique_common>
                                    <instance_material symbol="Material2" target="#ID40">
                                        <bind_vertex_input semantic="UVSET0" input_semantic="TEXCOORD" input_set="0" />
                                    </instance_material>
                                    <instance_material symbol="Material3" target="#ID14">
                                        <bind_vertex_input semantic="UVSET0" input_semantic="TEXCOORD" input_set="0" />
                                    </instance_material>
                                </technique_common>
                            </bind_material>
                        </instance_geometry>
                        <instance_geometry url="#ID49">
                            <bind_material>
                                <technique_common>
                                    <instance_material symbol="Material2" target="#ID12">
                                        <bind_vertex_input semantic="UVSET0" input_semantic="TEXCOORD" input_set="0" />
                                    </instance_material>
                                    <instance_material symbol="Material3" target="#ID40">
                                        <bind_vertex_input semantic="UVSET0" input_semantic="TEXCOORD" input_set="0" />
                                    </instance_material>
                                    <instance_material symbol="Material4" target="#ID14">
                                        <bind_vertex_input semantic="UVSET0" input_semantic="TEXCOORD" input_set="0" />
                                    </instance_material>
                                </technique_common>
                            </bind_material>
                        </instance_geometry>
                        <instance_geometry url="#ID57">
                            <bind_material>
                                <technique_common>
                                    <instance_material symbol="Material2" target="#ID7">
                                        <bind_vertex_input semantic="UVSET0" input_semantic="TEXCOORD" input_set="0" />
                                    </instance_material>
                                    <instance_material symbol="Material3" target="#ID12">
                                        <bind_vertex_input semantic="UVSET0" input_semantic="TEXCOORD" input_set="0" />
                                    </instance_material>
                                    <instance_material symbol="Material4" target="#ID14">
                                        <bind_vertex_input semantic="UVSET0" input_semantic="TEXCOORD" input_set="0" />
                                    </instance_material>
                                </technique_common>
                            </bind_material>
                        </instance_geometry>
                        <instance_geometry url="#ID65">
                            <bind_material>
                                <technique_common>
                                    <instance_material symbol="Material2" target="#ID7">
                                        <bind_vertex_input semantic="UVSET0" input_semantic="TEXCOORD" input_set="0" />
                                    </instance_material>
                                    <instance_material symbol="Material3" target="#ID12">
                                        <bind_vertex_input semantic="UVSET0" input_semantic="TEXCOORD" input_set="0" />
                                    </instance_material>
                                    <instance_material symbol="Material4" target="#ID14">
                                        <bind_vertex_input semantic="UVSET0" input_semantic="TEXCOORD" input_set="0" />
                                    </instance_material>
                                </technique_common>
                            </bind_material>
                        </instance_geometry>
                        <instance_geometry url="#ID73">
                            <bind_material>
                                <technique_common>
                                    <instance_material symbol="Material2" target="#ID12">
                                        <bind_vertex_input semantic="UVSET0" input_semantic="TEXCOORD" input_set="0" />
                                    </instance_material>
                                    <instance_material symbol="Material3" target="#ID22">
                                        <bind_vertex_input semantic="UVSET0" input_semantic="TEXCOORD" input_set="0" />
                                    </instance_material>
                                    <instance_material symbol="Material4" target="#ID14">
                                        <bind_vertex_input semantic="UVSET0" input_semantic="TEXCOORD" input_set="0" />
                                    </instance_material>
                                </technique_common>
                            </bind_material>
                        </instance_geometry>
                    </node>
                </node>
            </node>
        </visual_scene>
    </library_visual_scenes>
    <library_geometries>
        <geometry id="ID5">
            <mesh>
                <source id="ID8">
                    <float_array id="ID18" count="498">1.574803 24.77356 46.68133 1.147882e-11 24.43629 46.42253 6.505019e-12 24.77356 46.68133 1.574803 24.43629 46.42253 1.574803 24.43629 46.42253 1.574803 24.77356 46.68133 1.147882e-11 24.43629 46.42253 6.505019e-12 24.77356 46.68133 1.574803 24.43629 46.42253 1.574803 24.77356 46.68133 1.147882e-11 24.43629 46.42253 6.505019e-12 24.77356 46.68133 1.726264e-11 24.04353 46.25984 1.574803 24.04353 46.25984 1.574803 24.04353 46.25984 1.726264e-11 24.04353 46.25984 1.574803 24.04353 46.25984 1.726264e-11 24.04353 46.25984 2.69651e-12 25.03236 47.0186 1.574803 25.03236 47.0186 1.574803 25.03236 47.0186 2.69651e-12 25.03236 47.0186 1.574803 25.03236 47.0186 2.69651e-12 25.03236 47.0186 1.726264e-11 24.04353 46.25984 1.574803 25.25053 41.99647 4.743939e-11 25.25053 41.99647 1.574803 24.04353 46.25984 1.574803 24.04353 46.25984 1.726264e-11 24.04353 46.25984 1.574803 25.25053 41.99647 4.743939e-11 25.25053 41.99647 1.574803 25.25053 41.99647 4.743939e-11 25.25053 41.99647 2.948752e-13 25.19505 47.41136 1.574803 25.19505 47.41136 1.574803 25.19505 47.41136 2.948752e-13 25.19505 47.41136 1.574803 25.19505 47.41136 2.948752e-13 25.19505 47.41136 1.574803 25.25053 41.99647 4.743939e-11 21.99356 41.99647 4.743939e-11 25.25053 41.99647 1.574803 21.99356 41.99647 1.574803 21.99356 41.99647 1.574803 25.25053 41.99647 4.743939e-11 21.99356 41.99647 4.743939e-11 25.25053 41.99647 1.574803 21.99356 41.99647 4.743939e-11 21.99356 41.99647 -5.222489e-13 25.25053 47.83284 1.574803 25.25053 47.83284 1.574803 25.25053 47.83284 -5.222489e-13 25.25053 47.83284 1.574803 25.25053 47.83284 -5.222489e-13 25.25053 47.83284 1.574803 21.99356 41.99647 2.967582e-11 23.20056 46.25984 4.743939e-11 21.99356 41.99647 1.574803 23.20056 46.25984 1.574803 23.20056 46.25984 1.574803 21.99356 41.99647 2.967582e-11 23.20056 46.25984 4.743939e-11 21.99356 41.99647 1.574803 23.20056 46.25984 2.967582e-11 23.20056 46.25984 2.948752e-13 25.19505 48.25432 1.574803 25.19505 48.25432 1.574803 25.19505 48.25432 2.948752e-13 25.19505 48.25432 1.574803 25.19505 48.25432 2.948752e-13 25.19505 48.25432 1.574803 23.20056 46.25984 3.545253e-11 22.8078 46.42253 2.967582e-11 23.20056 46.25984 1.574803 22.8078 46.42253 1.574803 22.8078 46.42253 1.574803 23.20056 46.25984 3.545253e-11 22.8078 46.42253 2.967582e-11 23.20056 46.25984 1.574803 22.8078 46.42253 3.545253e-11 22.8078 46.42253 2.682299e-12 25.03236 48.64708 1.574803 25.03236 48.64708 1.574803 25.03236 48.64708 2.682299e-12 25.03236 48.64708 1.574803 25.03236 48.64708 2.682299e-12 25.03236 48.64708 4.042633e-11 22.47053 46.68133 1.574803 22.47053 46.68133 1.574803 22.47053 46.68133 4.042633e-11 22.47053 46.68133 1.574803 22.47053 46.68133 4.042633e-11 22.47053 46.68133 6.490808e-12 24.77356 48.98435 1.574803 24.77356 48.98435 1.574803 24.77356 48.98435 6.490808e-12 24.77356 48.98435 1.574803 24.77356 48.98435 6.490808e-12 24.77356 48.98435 4.423484e-11 22.21174 47.0186 1.574803 22.21174 47.0186 1.574803 22.21174 47.0186 4.423484e-11 22.21174 47.0186 1.574803 22.21174 47.0186 4.423484e-11 22.21174 47.0186 1.146461e-11 24.43629 49.24315 1.574803 24.43629 49.24315 1.574803 24.43629 49.24315 1.146461e-11 24.43629 49.24315 1.574803 24.43629 49.24315 1.146461e-11 24.43629 49.24315 4.662226e-11 22.04905 47.41136 1.574803 22.04905 47.41136 1.574803 22.04905 47.41136 4.662226e-11 22.04905 47.41136 1.574803 22.04905 47.41136 4.662226e-11 22.04905 47.41136 1.724132e-11 24.04353 49.40584 1.574803 24.04353 49.40584 1.574803 24.04353 49.40584 1.724132e-11 24.04353 49.40584 1.574803 24.04353 49.40584 1.724132e-11 24.04353 49.40584 4.743939e-11 21.99356 47.83284 1.574803 21.99356 47.83284 1.574803 21.99356 47.83284 4.743939e-11 21.99356 47.83284 1.574803 21.99356 47.83284 4.743939e-11 21.99356 47.83284 2.344436e-11 23.62205 49.46133 1.574803 23.62205 49.46133 1.574803 23.62205 49.46133 2.344436e-11 23.62205 49.46133 1.574803 23.62205 49.46133 2.344436e-11 23.62205 49.46133 4.662226e-11 22.04905 48.25432 1.574803 22.04905 48.25432 1.574803 22.04905 48.25432 4.662226e-11 22.04905 48.25432 1.574803 22.04905 48.25432 4.662226e-11 22.04905 48.25432 2.96545e-11 23.20056 49.40584 1.574803 23.20056 49.40584 1.574803 23.20056 49.40584 2.96545e-11 23.20056 49.40584 1.574803 23.20056 49.40584 2.96545e-11 23.20056 49.40584 4.422063e-11 22.21174 48.64708 1.574803 22.21174 48.64708 1.574803 22.21174 48.64708 4.422063e-11 22.21174 48.64708 1.574803 22.21174 48.64708 4.422063e-11 22.21174 48.64708 3.543832e-11 22.8078 49.24315 1.574803 22.8078 49.24315 1.574803 22.8078 49.24315 3.543832e-11 22.8078 49.24315 1.574803 22.8078 49.24315 3.543832e-11 22.8078 49.24315 4.041212e-11 22.47053 48.98435 1.574803 22.47053 48.98435 1.574803 22.47053 48.98435 4.041212e-11 22.47053 48.98435 1.574803 22.47053 48.98435 4.041212e-11 22.47053 48.98435</float_array>
                    <technique_common>
                        <accessor count="166" source="#ID18" stride="3">
                            <param name="X" type="float" />
                            <param name="Y" type="float" />
                            <param name="Z" type="float" />
                        </accessor>
                    </technique_common>
                </source>
                <source id="ID9">
                    <float_array id="ID19" count="498">-6.904086e-12 0.7071068 -0.7071068 -3.858005e-12 0.5 -0.8660254 -6.904086e-12 0.7071068 -0.7071068 -3.858005e-12 0.5 -0.8660254 3.858005e-12 -0.5 0.8660254 6.904086e-12 -0.7071068 0.7071068 3.858005e-12 -0.5 0.8660254 6.904086e-12 -0.7071068 0.7071068 0 0 0 0 0 0 0 0 0 0 0 0 -2.222515e-12 0.3826834 -0.9238795 -2.222515e-12 0.3826834 -0.9238795 2.222515e-12 -0.3826834 0.9238795 2.222515e-12 -0.3826834 0.9238795 0 0 0 0 0 0 -9.479666e-12 0.8660254 -0.5 -9.479666e-12 0.8660254 -0.5 9.479666e-12 -0.8660254 0.5 9.479666e-12 -0.8660254 0.5 0 0 0 0 0 0 -1.284823e-11 0.9621831 0.2724035 -1.284823e-11 0.9621831 0.2724035 -1.284823e-11 0.9621831 0.2724035 -1.284823e-11 0.9621831 0.2724035 1.284823e-11 -0.9621831 -0.2724035 1.284823e-11 -0.9621831 -0.2724035 1.284823e-11 -0.9621831 -0.2724035 1.284823e-11 -0.9621831 -0.2724035 0 0 0 0 0 0 -1.140922e-11 0.9659258 -0.258819 -1.140922e-11 0.9659258 -0.258819 1.140922e-11 -0.9659258 0.258819 1.140922e-11 -0.9659258 0.258819 0 0 0 0 0 0 2.797407e-12 3.688531e-30 -1 2.797407e-12 3.688531e-30 -1 2.797407e-12 3.688531e-30 -1 2.797407e-12 3.688531e-30 -1 -2.797407e-12 -3.688531e-30 1 -2.797407e-12 -3.688531e-30 1 -2.797407e-12 -3.688531e-30 1 -2.797407e-12 -3.688531e-30 1 0 0 0 0 0 0 -1.256126e-11 1 -2.324641e-13 -1.256126e-11 1 2.324463e-13 1.256126e-11 -1 -2.324463e-13 1.256126e-11 -1 2.324641e-13 0 0 0 0 0 0 1.132418e-11 -0.9621831 0.2724035 1.132418e-11 -0.9621831 0.2724035 1.132418e-11 -0.9621831 0.2724035 1.132418e-11 -0.9621831 0.2724035 -1.132418e-11 0.9621831 -0.2724035 -1.132418e-11 0.9621831 -0.2724035 -1.132418e-11 0.9621831 -0.2724035 -1.132418e-11 0.9621831 -0.2724035 0 0 0 0 0 0 -1.285726e-11 0.9659258 0.258819 -1.285726e-11 0.9659258 0.258819 1.285726e-11 -0.9659258 -0.258819 1.285726e-11 -0.9659258 -0.258819 0 0 0 0 0 0 7.391448e-12 -0.3826834 -0.9238795 8.703258e-12 -0.5 -0.8660254 7.391448e-12 -0.3826834 -0.9238795 8.703258e-12 -0.5 -0.8660254 -8.703258e-12 0.5 0.8660254 -7.391448e-12 0.3826834 0.9238795 -8.703258e-12 0.5 0.8660254 -7.391448e-12 0.3826834 0.9238795 0 0 0 0 0 0 -1.227707e-11 0.8660254 0.5 -1.227707e-11 0.8660254 0.5 1.227707e-11 -0.8660254 -0.5 1.227707e-11 -0.8660254 -0.5 0 0 0 0 0 0 1.086022e-11 -0.7071068 -0.7071068 1.086022e-11 -0.7071068 -0.7071068 -1.086022e-11 0.7071068 0.7071068 -1.086022e-11 0.7071068 0.7071068 0 0 0 0 0 0 -1.086022e-11 0.7071068 0.7071068 -1.086022e-11 0.7071068 0.7071068 1.086022e-11 -0.7071068 -0.7071068 1.086022e-11 -0.7071068 -0.7071068 0 0 0 0 0 0 1.227707e-11 -0.8660254 -0.5 1.227707e-11 -0.8660254 -0.5 -1.227707e-11 0.8660254 0.5 -1.227707e-11 0.8660254 0.5 0 0 0 0 0 0 -8.703258e-12 0.5 0.8660254 -8.703258e-12 0.5 0.8660254 8.703258e-12 -0.5 -0.8660254 8.703258e-12 -0.5 -0.8660254 0 0 0 0 0 0 1.285726e-11 -0.9659258 -0.258819 1.285726e-11 -0.9659258 -0.258819 -1.285726e-11 0.9659258 0.258819 -1.285726e-11 0.9659258 0.258819 0 0 0 0 0 0 -5.953178e-12 0.258819 0.9659258 -5.953178e-12 0.258819 0.9659258 5.953178e-12 -0.258819 -0.9659258 5.953178e-12 -0.258819 -0.9659258 0 0 0 0 0 0 1.256126e-11 -1 -2.324463e-13 1.256126e-11 -1 2.324641e-13 -1.256126e-11 1 -2.324641e-13 -1.256126e-11 1 2.324463e-13 0 0 0 0 0 0 -2.797407e-12 1.79844e-13 1 -2.797407e-12 -1.798351e-13 1 2.797407e-12 1.798351e-13 -1 2.797407e-12 -1.79844e-13 -1 0 0 0 0 0 0 1.140922e-11 -0.9659258 0.258819 1.140922e-11 -0.9659258 0.258819 -1.140922e-11 0.9659258 -0.258819 -1.140922e-11 0.9659258 -0.258819 0 0 0 0 0 0 5.490042e-13 -0.258819 0.9659258 5.490042e-13 -0.258819 0.9659258 -5.490042e-13 0.258819 -0.9659258 -5.490042e-13 0.258819 -0.9659258 0 0 0 0 0 0 9.479666e-12 -0.8660254 0.5 9.479666e-12 -0.8660254 0.5 -9.479666e-12 0.8660254 -0.5 -9.479666e-12 0.8660254 -0.5 0 0 0 0 0 0 3.858005e-12 -0.5 0.8660254 3.858005e-12 -0.5 0.8660254 -3.858005e-12 0.5 -0.8660254 -3.858005e-12 0.5 -0.8660254 0 0 0 0 0 0 6.904086e-12 -0.7071068 0.7071068 6.904086e-12 -0.7071068 0.7071068 -6.904086e-12 0.7071068 -0.7071068 -6.904086e-12 0.7071068 -0.7071068 0 0 0 0 0 0</float_array>
                    <technique_common>
                        <accessor count="166" source="#ID19" stride="3">
                            <param name="X" type="float" />
                            <param name="Y" type="float" />
                            <param name="Z" type="float" />
                        </accessor>
                    </technique_common>
                </source>
                <source id="ID10">
                    <Name_array id="ID20" count="0" />
                    <technique_common>
                        <accessor count="0" source="#ID20" stride="1">
                            <param name="skp_material" type="Name" />
                        </accessor>
                    </technique_common>
                </source>
                <vertices id="ID11">
                    <input semantic="POSITION" source="#ID8" />
                    <input semantic="NORMAL" source="#ID9" />
                </vertices>
                <triangles count="50" material="Material2">
                    <input offset="0" semantic="VERTEX" source="#ID11" />
                    <p>0 1 2 1 0 3 3 12 1 12 3 13 18 0 2 0 18 19 24 25 26 25 24 27 34 19 18 19 34 35 40 41 42 41 40 43 50 35 34 35 50 51 56 57 58 57 56 59 66 51 50 51 66 67 72 73 74 73 72 75 82 67 66 67 82 83 75 88 73 88 75 89 94 83 82 83 94 95 89 100 88 100 89 101 106 95 94 95 106 107 101 112 100 112 101 113 118 107 106 107 118 119 113 124 112 124 113 125 130 119 118 119 130 131 125 136 124 136 125 137 142 131 130 131 142 143 137 148 136 148 137 149 154 143 142 143 154 155 149 160 148 160 149 161 160 155 154 155 160 161</p>
                </triangles>
                <triangles count="50" material="Material3">
                    <input offset="0" semantic="VERTEX" source="#ID11" />
                    <p>4 5 6 7 6 5 14 4 15 6 15 4 20 21 5 7 5 21 28 29 30 31 30 29 36 37 20 21 20 37 44 45 46 47 46 45 52 53 36 37 36 53 60 61 62 63 62 61 68 69 52 53 52 69 76 77 78 79 78 77 84 85 68 69 68 85 90 76 91 78 91 76 96 97 84 85 84 97 102 90 103 91 103 90 108 109 96 97 96 109 114 102 115 103 115 102 120 121 108 109 108 121 126 114 127 115 127 114 132 133 120 121 120 133 138 126 139 127 139 126 144 145 132 133 132 145 150 138 151 139 151 138 156 157 144 145 144 157 162 150 163 151 163 150 162 163 156 157 156 163</p>
                </triangles>
                <lines count="74" material="Material4">
                    <input offset="0" semantic="VERTEX" source="#ID11" />
                    <p>8 9 8 10 10 11 9 11 16 8 16 17 17 10 9 22 11 23 22 23 32 16 32 33 33 17 22 38 23 39 38 39 48 32 48 49 49 33 38 54 39 55 54 55 64 65 65 49 54 70 55 71 70 71 80 64 80 81 81 65 70 86 71 87 86 87 92 80 92 93 93 81 86 98 87 99 98 99 104 92 104 105 105 93 98 110 99 111 110 111 116 104 116 117 117 105 110 122 111 123 122 123 128 116 128 129 129 117 122 134 123 135 134 135 140 128 140 141 141 129 134 146 135 147 146 147 152 140 152 153 153 141 146 158 147 159 158 159 164 152 164 165 165 153 158 164 159 165</p>
                </lines>
                <lines count="1" material="Material5">
                    <input offset="0" semantic="VERTEX" source="#ID11" />
                    <p>64 48</p>
                </lines>
            </mesh>
        </geometry>
        <geometry id="ID21">
            <mesh>
                <source id="ID24">
                    <float_array id="ID28" count="261">1.574803 21.99356 41.99647 1.574803 22.04905 47.41136 1.574803 21.99356 47.83284 1.574803 22.21174 47.0186 1.574803 22.47053 46.68133 1.574803 22.8078 46.42253 1.574803 23.20056 46.25984 1.574803 11.12382 5.204904e-27 1.574803 11.12382 81.39587 1.574803 36.12028 5.204904e-27 1.574803 25.25053 41.99647 1.574803 25.25053 47.83284 1.574803 22.21174 48.64708 1.574803 36.12028 81.39587 1.574803 22.04905 48.25432 1.574803 22.47053 48.98435 1.574803 22.8078 49.24315 1.574803 23.20056 49.40584 1.574803 23.62205 49.46133 1.574803 24.04353 49.40584 1.574803 24.43629 49.24315 1.574803 24.77356 48.98435 1.574803 25.03236 48.64708 1.574803 25.19505 48.25432 1.574803 24.43629 46.42253 1.574803 24.04353 46.25984 1.574803 24.77356 46.68133 1.574803 25.03236 47.0186 1.574803 25.19505 47.41136 1.574803 25.25053 47.83284 1.574803 25.25053 41.99647 1.574803 25.19505 47.41136 1.574803 25.03236 47.0186 1.574803 24.77356 46.68133 1.574803 24.43629 46.42253 1.574803 24.04353 46.25984 1.574803 36.12028 5.204904e-27 1.574803 36.12028 81.39587 1.574803 25.19505 48.25432 1.574803 25.03236 48.64708 1.574803 24.77356 48.98435 1.574803 24.43629 49.24315 1.574803 24.04353 49.40584 1.574803 23.62205 49.46133 1.574803 23.20056 49.40584 1.574803 22.8078 49.24315 1.574803 22.47053 48.98435 1.574803 22.21174 48.64708 1.574803 21.99356 41.99647 1.574803 11.12382 81.39587 1.574803 21.99356 47.83284 1.574803 22.04905 48.25432 1.574803 11.12382 5.204904e-27 1.574803 23.20056 46.25984 1.574803 22.8078 46.42253 1.574803 22.47053 46.68133 1.574803 22.21174 47.0186 1.574803 22.04905 47.41136 1.574803 11.12382 5.204904e-27 1.574803 36.12028 5.204904e-27 1.574803 36.12028 81.39587 1.574803 11.12382 81.39587 1.574803 22.8078 46.42253 1.574803 23.20056 46.25984 1.574803 22.47053 46.68133 1.574803 22.21174 47.0186 1.574803 22.04905 47.41136 1.574803 21.99356 47.83284 1.574803 22.04905 48.25432 1.574803 22.21174 48.64708 1.574803 22.47053 48.98435 1.574803 22.8078 49.24315 1.574803 23.20056 49.40584 1.574803 23.62205 49.46133 1.574803 24.04353 49.40584 1.574803 24.43629 49.24315 1.574803 24.77356 48.98435 1.574803 25.03236 48.64708 1.574803 25.19505 48.25432 1.574803 25.25053 47.83284 1.574803 25.19505 47.41136 1.574803 25.03236 47.0186 1.574803 24.77356 46.68133 1.574803 24.43629 46.42253 1.574803 24.04353 46.25984 1.574803 25.25053 41.99647 1.574803 21.99356 41.99647</float_array>
                    <technique_common>
                        <accessor count="87" source="#ID28" stride="3">
                            <param name="X" type="float" />
                            <param name="Y" type="float" />
                            <param name="Z" type="float" />
                        </accessor>
                    </technique_common>
                </source>
                <source id="ID25">
                    <float_array id="ID29" count="261">1 1.472524e-11 5.455918e-15 1 1.472524e-11 5.455918e-15 1 1.472524e-11 5.455918e-15 1 1.472524e-11 5.455918e-15 1 1.472524e-11 5.455918e-15 1 1.472524e-11 5.455918e-15 1 1.472524e-11 5.455918e-15 1 1.472524e-11 5.455918e-15 1 1.472524e-11 5.455918e-15 1 1.472524e-11 5.455918e-15 1 1.472524e-11 5.455918e-15 1 1.472524e-11 5.455918e-15 1 1.472524e-11 5.455918e-15 1 1.472524e-11 5.455918e-15 1 1.472524e-11 5.455918e-15 1 1.472524e-11 5.455918e-15 1 1.472524e-11 5.455918e-15 1 1.472524e-11 5.455918e-15 1 1.472524e-11 5.455918e-15 1 1.472524e-11 5.455918e-15 1 1.472524e-11 5.455918e-15 1 1.472524e-11 5.455918e-15 1 1.472524e-11 5.455918e-15 1 1.472524e-11 5.455918e-15 1 1.472524e-11 5.455918e-15 1 1.472524e-11 5.455918e-15 1 1.472524e-11 5.455918e-15 1 1.472524e-11 5.455918e-15 1 1.472524e-11 5.455918e-15 -1 -1.472524e-11 -5.455918e-15 -1 -1.472524e-11 -5.455918e-15 -1 -1.472524e-11 -5.455918e-15 -1 -1.472524e-11 -5.455918e-15 -1 -1.472524e-11 -5.455918e-15 -1 -1.472524e-11 -5.455918e-15 -1 -1.472524e-11 -5.455918e-15 -1 -1.472524e-11 -5.455918e-15 -1 -1.472524e-11 -5.455918e-15 -1 -1.472524e-11 -5.455918e-15 -1 -1.472524e-11 -5.455918e-15 -1 -1.472524e-11 -5.455918e-15 -1 -1.472524e-11 -5.455918e-15 -1 -1.472524e-11 -5.455918e-15 -1 -1.472524e-11 -5.455918e-15 -1 -1.472524e-11 -5.455918e-15 -1 -1.472524e-11 -5.455918e-15 -1 -1.472524e-11 -5.455918e-15 -1 -1.472524e-11 -5.455918e-15 -1 -1.472524e-11 -5.455918e-15 -1 -1.472524e-11 -5.455918e-15 -1 -1.472524e-11 -5.455918e-15 -1 -1.472524e-11 -5.455918e-15 -1 -1.472524e-11 -5.455918e-15 -1 -1.472524e-11 -5.455918e-15 -1 -1.472524e-11 -5.455918e-15 -1 -1.472524e-11 -5.455918e-15 -1 -1.472524e-11 -5.455918e-15 -1 -1.472524e-11 -5.455918e-15 0 0 0 0 0 0 0 0 0 0 0 0 0 0 0 0 0 0 0 0 0 0 0 0 0 0 0 0 0 0 0 0 0 0 0 0 0 0 0 0 0 0 0 0 0 0 0 0 0 0 0 0 0 0 0 0 0 0 0 0 0 0 0 0 0 0 0 0 0 0 0 0 0 0 0 0 0 0 0 0 0 0 0 0 0 0 0</float_array>
                    <technique_common>
                        <accessor count="87" source="#ID29" stride="3">
                            <param name="X" type="float" />
                            <param name="Y" type="float" />
                            <param name="Z" type="float" />
                        </accessor>
                    </technique_common>
                </source>
                <source id="ID26">
                    <Name_array id="ID30" count="0" />
                    <technique_common>
                        <accessor count="0" source="#ID30" stride="1">
                            <param name="skp_material" type="Name" />
                        </accessor>
                    </technique_common>
                </source>
                <vertices id="ID27">
                    <input semantic="POSITION" source="#ID24" />
                    <input semantic="NORMAL" source="#ID25" />
                </vertices>
                <triangles count="29" material="Material3">
                    <input offset="0" semantic="VERTEX" source="#ID27" />
                    <p>0 1 2 1 0 3 3 0 4 4 0 5 5 0 6 7 0 8 0 7 9 0 9 10 10 9 11 8 12 13 12 8 14 14 8 2 2 8 0 13 12 15 13 15 16 13 16 17 13 17 18 13 18 19 13 19 20 13 20 21 13 21 22 13 22 23 13 23 11 13 11 9 10 24 25 24 10 26 26 10 27 27 10 28 28 10 11</p>
                </triangles>
                <triangles count="29" material="Material2">
                    <input offset="0" semantic="VERTEX" source="#ID27" />
                    <p>29 30 31 31 30 32 32 30 33 33 30 34 35 34 30 36 29 37 29 38 37 38 39 37 39 40 37 40 41 37 41 42 37 42 43 37 43 44 37 44 45 37 45 46 37 46 47 37 48 49 50 50 49 51 51 49 47 37 47 49 29 36 30 30 36 48 36 52 48 49 48 52 53 48 54 54 48 55 55 48 56 56 48 57 50 57 48</p>
                </triangles>
                <lines count="28" material="Material4">
                    <input offset="0" semantic="VERTEX" source="#ID27" />
                    <p>58 59 60 59 61 60 61 58 62 63 64 62 65 64 66 65 67 66 68 67 69 68 70 69 71 70 72 71 73 72 74 73 75 74 76 75 77 76 78 77 79 78 80 79 81 80 82 81 83 82 84 83 85 84 86 85</p>
                </lines>
                <lines count="1" material="Material5">
                    <input offset="0" semantic="VERTEX" source="#ID27" />
                    <p>63 86</p>
                </lines>
            </mesh>
        </geometry>
        <geometry id="ID31">
            <mesh>
                <source id="ID32">
                    <float_array id="ID36" count="225">1.726264e-11 24.04353 46.25984 1.724132e-11 24.04353 49.40584 2.344436e-11 23.62205 49.46133 1.147882e-11 24.43629 46.42253 1.146461e-11 24.43629 49.24315 6.505019e-12 24.77356 46.68133 6.490808e-12 24.77356 48.98435 2.69651e-12 25.03236 47.0186 2.682299e-12 25.03236 48.64708 2.948752e-13 25.19505 47.41136 2.948752e-13 25.19505 48.25432 -5.222489e-13 25.25053 47.83284 4.743939e-11 25.25053 41.99647 2.967582e-11 23.20056 46.25984 4.743939e-11 21.99356 41.99647 2.96545e-11 23.20056 49.40584 4.662226e-11 22.04905 47.41136 4.662226e-11 22.04905 48.25432 4.743939e-11 21.99356 47.83284 4.423484e-11 22.21174 47.0186 4.422063e-11 22.21174 48.64708 4.042633e-11 22.47053 46.68133 4.041212e-11 22.47053 48.98435 3.545253e-11 22.8078 46.42253 3.543832e-11 22.8078 49.24315 2.96545e-11 23.20056 49.40584 2.967582e-11 23.20056 46.25984 3.543832e-11 22.8078 49.24315 3.545253e-11 22.8078 46.42253 4.041212e-11 22.47053 48.98435 4.042633e-11 22.47053 46.68133 4.422063e-11 22.21174 48.64708 4.423484e-11 22.21174 47.0186 4.662226e-11 22.04905 48.25432 4.662226e-11 22.04905 47.41136 4.743939e-11 21.99356 47.83284 2.344436e-11 23.62205 49.46133 1.726264e-11 24.04353 46.25984 4.743939e-11 25.25053 41.99647 4.743939e-11 21.99356 41.99647 -5.222489e-13 25.25053 47.83284 2.948752e-13 25.19505 47.41136 2.948752e-13 25.19505 48.25432 2.682299e-12 25.03236 48.64708 2.69651e-12 25.03236 47.0186 6.490808e-12 24.77356 48.98435 6.505019e-12 24.77356 46.68133 1.146461e-11 24.43629 49.24315 1.147882e-11 24.43629 46.42253 1.724132e-11 24.04353 49.40584 1.726264e-11 24.04353 46.25984 1.147882e-11 24.43629 46.42253 6.505019e-12 24.77356 46.68133 2.69651e-12 25.03236 47.0186 2.948752e-13 25.19505 47.41136 -5.222489e-13 25.25053 47.83284 2.948752e-13 25.19505 48.25432 2.682299e-12 25.03236 48.64708 6.490808e-12 24.77356 48.98435 1.146461e-11 24.43629 49.24315 1.724132e-11 24.04353 49.40584 2.344436e-11 23.62205 49.46133 2.96545e-11 23.20056 49.40584 3.543832e-11 22.8078 49.24315 4.041212e-11 22.47053 48.98435 4.422063e-11 22.21174 48.64708 4.662226e-11 22.04905 48.25432 4.743939e-11 21.99356 47.83284 4.662226e-11 22.04905 47.41136 4.423484e-11 22.21174 47.0186 4.042633e-11 22.47053 46.68133 3.545253e-11 22.8078 46.42253 2.967582e-11 23.20056 46.25984 4.743939e-11 21.99356 41.99647 4.743939e-11 25.25053 41.99647</float_array>
                    <technique_common>
                        <accessor count="75" source="#ID36" stride="3">
                            <param name="X" type="float" />
                            <param name="Y" type="float" />
                            <param name="Z" type="float" />
                        </accessor>
                    </technique_common>
                </source>
                <source id="ID33">
                    <float_array id="ID37" count="225">1 1.262245e-11 2.796877e-12 1 1.262245e-11 2.796877e-12 1 1.262245e-11 2.796877e-12 1 1.262245e-11 2.796877e-12 1 1.262245e-11 2.796877e-12 1 1.262245e-11 2.796877e-12 1 1.262245e-11 2.796877e-12 1 1.262245e-11 2.796877e-12 1 1.262245e-11 2.796877e-12 1 1.262245e-11 2.796877e-12 1 1.262245e-11 2.796877e-12 1 1.262245e-11 2.796877e-12 1 1.262245e-11 2.796877e-12 1 1.262245e-11 2.796877e-12 1 1.262245e-11 2.796877e-12 1 1.262245e-11 2.796877e-12 1 1.262245e-11 2.796877e-12 1 1.262245e-11 2.796877e-12 1 1.262245e-11 2.796877e-12 1 1.262245e-11 2.796877e-12 1 1.262245e-11 2.796877e-12 1 1.262245e-11 2.796877e-12 1 1.262245e-11 2.796877e-12 1 1.262245e-11 2.796877e-12 1 1.262245e-11 2.796877e-12 -1 -1.262245e-11 -2.796877e-12 -1 -1.262245e-11 -2.796877e-12 -1 -1.262245e-11 -2.796877e-12 -1 -1.262245e-11 -2.796877e-12 -1 -1.262245e-11 -2.796877e-12 -1 -1.262245e-11 -2.796877e-12 -1 -1.262245e-11 -2.796877e-12 -1 -1.262245e-11 -2.796877e-12 -1 -1.262245e-11 -2.796877e-12 -1 -1.262245e-11 -2.796877e-12 -1 -1.262245e-11 -2.796877e-12 -1 -1.262245e-11 -2.796877e-12 -1 -1.262245e-11 -2.796877e-12 -1 -1.262245e-11 -2.796877e-12 -1 -1.262245e-11 -2.796877e-12 -1 -1.262245e-11 -2.796877e-12 -1 -1.262245e-11 -2.796877e-12 -1 -1.262245e-11 -2.796877e-12 -1 -1.262245e-11 -2.796877e-12 -1 -1.262245e-11 -2.796877e-12 -1 -1.262245e-11 -2.796877e-12 -1 -1.262245e-11 -2.796877e-12 -1 -1.262245e-11 -2.796877e-12 -1 -1.262245e-11 -2.796877e-12 -1 -1.262245e-11 -2.796877e-12 0 0 0 0 0 0 0 0 0 0 0 0 0 0 0 0 0 0 0 0 0 0 0 0 0 0 0 0 0 0 0 0 0 0 0 0 0 0 0 0 0 0 0 0 0 0 0 0 0 0 0 0 0 0 0 0 0 0 0 0 0 0 0 0 0 0 0 0 0 0 0 0 0 0 0</float_array>
                    <technique_common>
                        <accessor count="75" source="#ID37" stride="3">
                            <param name="X" type="float" />
                            <param name="Y" type="float" />
                            <param name="Z" type="float" />
                        </accessor>
                    </technique_common>
                </source>
                <source id="ID34">
                    <Name_array id="ID38" count="0" />
                    <technique_common>
                        <accessor count="0" source="#ID38" stride="1">
                            <param name="skp_material" type="Name" />
                        </accessor>
                    </technique_common>
                </source>
                <vertices id="ID35">
                    <input semantic="POSITION" source="#ID32" />
                    <input semantic="NORMAL" source="#ID33" />
                </vertices>
                <triangles count="23" material="Material2">
                    <input offset="0" semantic="VERTEX" source="#ID35" />
                    <p>0 1 2 1 0 3 1 3 4 4 3 5 4 5 6 6 5 7 6 7 8 8 7 9 8 9 10 10 9 11 12 13 14 13 12 0 13 0 15 15 0 2 16 17 18 17 16 19 17 19 20 20 19 21 20 21 22 22 21 23 22 23 24 24 23 13 24 13 15</p>
                </triangles>
                <triangles count="23" material="Material3">
                    <input offset="0" semantic="VERTEX" source="#ID35" />
                    <p>25 26 27 26 28 27 27 28 29 28 30 29 29 30 31 30 32 31 31 32 33 32 34 33 35 33 34 36 37 25 25 37 26 37 38 26 39 26 38 40 41 42 42 41 43 41 44 43 43 44 45 44 46 45 45 46 47 46 48 47 47 48 49 48 37 49 36 49 37</p>
                </triangles>
                <lines count="25" material="Material4">
                    <input offset="0" semantic="VERTEX" source="#ID35" />
                    <p>50 51 51 52 52 53 53 54 54 55 55 56 56 57 57 58 58 59 59 60 60 61 61 62 62 63 63 64 64 65 65 66 66 67 67 68 68 69 69 70 70 71 71 72 72 73 73 74 74 50</p>
                </lines>
            </mesh>
        </geometry>
        <geometry id="ID39">
            <mesh>
                <source id="ID42">
                    <float_array id="ID46" count="90">1.574803 39.37008 4.444442e-27 1.574803 36.12028 81.39587 1.574803 36.12028 5.204904e-27 1.574803 39.37008 84.64567 1.574803 11.12382 5.204904e-27 1.574803 7.874016 84.64567 1.574803 7.874016 5.108663e-27 1.574803 11.12382 81.39587 1.574803 21.32097 84.64567 1.574803 21.98611 84.64567 1.574803 39.37008 84.64567 1.574803 36.12028 81.39587 1.574803 21.98611 84.64567 1.574803 21.32097 84.64567 1.574803 11.12382 81.39587 1.574803 7.874016 84.64567 1.574803 11.12382 5.204904e-27 1.574803 7.874016 5.108663e-27 1.574803 39.37008 4.444442e-27 1.574803 36.12028 5.204904e-27 1.574803 36.12028 5.204904e-27 1.574803 39.37008 4.444442e-27 1.574803 39.37008 84.64567 1.574803 21.98611 84.64567 1.574803 21.32097 84.64567 1.574803 7.874016 84.64567 1.574803 7.874016 5.108663e-27 1.574803 11.12382 5.204904e-27 1.574803 11.12382 81.39587 1.574803 36.12028 81.39587</float_array>
                    <technique_common>
                        <accessor count="30" source="#ID46" stride="3">
                            <param name="X" type="float" />
                            <param name="Y" type="float" />
                            <param name="Z" type="float" />
                        </accessor>
                    </technique_common>
                </source>
                <source id="ID43">
                    <float_array id="ID47" count="90">1 1.460735e-11 -2.195217e-14 1 1.460735e-11 -2.195217e-14 1 1.460735e-11 -2.195217e-14 1 1.460735e-11 -2.195217e-14 1 1.460735e-11 -2.195217e-14 1 1.460735e-11 -2.195217e-14 1 1.460735e-11 -2.195217e-14 1 1.460735e-11 -2.195217e-14 1 1.460735e-11 -2.195217e-14 1 1.460735e-11 -2.195217e-14 -1 -1.460735e-11 2.195217e-14 -1 -1.460735e-11 2.195217e-14 -1 -1.460735e-11 2.195217e-14 -1 -1.460735e-11 2.195217e-14 -1 -1.460735e-11 2.195217e-14 -1 -1.460735e-11 2.195217e-14 -1 -1.460735e-11 2.195217e-14 -1 -1.460735e-11 2.195217e-14 -1 -1.460735e-11 2.195217e-14 -1 -1.460735e-11 2.195217e-14 0 0 0 0 0 0 0 0 0 0 0 0 0 0 0 0 0 0 0 0 0 0 0 0 0 0 0 0 0 0</float_array>
                    <technique_common>
                        <accessor count="30" source="#ID47" stride="3">
                            <param name="X" type="float" />
                            <param name="Y" type="float" />
                            <param name="Z" type="float" />
                        </accessor>
                    </technique_common>
                </source>
                <source id="ID44">
                    <Name_array id="ID48" count="0" />
                    <technique_common>
                        <accessor count="0" source="#ID48" stride="1">
                            <param name="skp_material" type="Name" />
                        </accessor>
                    </technique_common>
                </source>
                <vertices id="ID45">
                    <input semantic="POSITION" source="#ID42" />
                    <input semantic="NORMAL" source="#ID43" />
                </vertices>
                <triangles count="16" material="Material2">
                    <input offset="0" semantic="VERTEX" source="#ID45" />
                    <p>0 1 2 1 0 3 4 5 6 5 4 7 5 7 8 8 7 1 8 1 9 9 1 3 10 11 12 12 11 13 11 14 13 13 14 15 14 16 15 17 15 16 10 18 11 19 11 18</p>
                </triangles>
                <lines count="10" material="Material3">
                    <input offset="0" semantic="VERTEX" source="#ID45" />
                    <p>20 21 21 22 22 23 23 24 24 25 25 26 26 27 28 27 28 29 29 20</p>
                </lines>
            </mesh>
        </geometry>
        <geometry id="ID49">
            <mesh>
                <source id="ID50">
                    <float_array id="ID54" count="36">-18.11024 47.24409 92.51969 -18.11024 -2.648903e-10 -1.022681e-14 -18.11024 -2.648903e-10 92.51969 -18.11024 47.24409 -1.022681e-14 -18.11024 47.24409 -1.022681e-14 -18.11024 47.24409 92.51969 -18.11024 -2.648903e-10 -1.022681e-14 -18.11024 -2.648903e-10 92.51969 -18.11024 -2.648903e-10 -1.022681e-14 -18.11024 47.24409 -1.022681e-14 -18.11024 -2.648903e-10 92.51969 -18.11024 47.24409 92.51969</float_array>
                    <technique_common>
                        <accessor count="12" source="#ID54" stride="3">
                            <param name="X" type="float" />
                            <param name="Y" type="float" />
                            <param name="Z" type="float" />
                        </accessor>
                    </technique_common>
                </source>
                <source id="ID51">
                    <float_array id="ID55" count="36">-1 -1.348937e-11 4.299765e-27 -1 -1.348937e-11 4.299765e-27 -1 -1.348937e-11 4.299765e-27 -1 -1.348937e-11 4.299765e-27 1 1.348937e-11 -4.299765e-27 1 1.348937e-11 -4.299765e-27 1 1.348937e-11 -4.299765e-27 1 1.348937e-11 -4.299765e-27 0 0 0 0 0 0 0 0 0 0 0 0</float_array>
                    <technique_common>
                        <accessor count="12" source="#ID55" stride="3">
                            <param name="X" type="float" />
                            <param name="Y" type="float" />
                            <param name="Z" type="float" />
                        </accessor>
                    </technique_common>
                </source>
                <source id="ID52">
                    <Name_array id="ID56" count="0" />
                    <technique_common>
                        <accessor count="0" source="#ID56" stride="1">
                            <param name="skp_material" type="Name" />
                        </accessor>
                    </technique_common>
                </source>
                <vertices id="ID53">
                    <input semantic="POSITION" source="#ID50" />
                    <input semantic="NORMAL" source="#ID51" />
                </vertices>
                <triangles count="2" material="Material3">
                    <input offset="0" semantic="VERTEX" source="#ID53" />
                    <p>0 1 2 1 0 3</p>
                </triangles>
                <triangles count="2" material="Material2">
                    <input offset="0" semantic="VERTEX" source="#ID53" />
                    <p>4 5 6 7 6 5</p>
                </triangles>
                <lines count="4" material="Material4">
                    <input offset="0" semantic="VERTEX" source="#ID53" />
                    <p>8 9 10 8 11 10 9 11</p>
                </lines>
            </mesh>
        </geometry>
        <geometry id="ID57">
            <mesh>
                <source id="ID58">
                    <float_array id="ID62" count="114">1.574803 47.24409 0 -18.11024 47.24409 92.51969 -18.11024 47.24409 -1.022681e-14 1.574803 47.24409 92.51969 1.574803 47.24409 92.51969 1.574803 47.24409 0 -18.11024 47.24409 92.51969 -18.11024 47.24409 -1.022681e-14 1.574803 47.24409 92.51969 -18.11024 47.24409 92.51969 -18.11024 47.24409 -1.022681e-14 1.574803 47.24409 0 1.574803 47.24409 92.51969 -18.11024 -2.648903e-10 92.51969 -18.11024 47.24409 92.51969 1.574803 21.98611 92.51969 1.574803 0 92.51969 1.574803 21.32097 92.51969 1.574803 21.32097 92.51969 1.574803 21.98611 92.51969 1.574803 0 92.51969 -18.11024 -2.648903e-10 92.51969 1.574803 47.24409 92.51969 -18.11024 47.24409 92.51969 1.574803 21.98611 92.51969 1.574803 21.32097 92.51969 1.574803 0 92.51969 -18.11024 -2.648903e-10 92.51969 -18.11024 -2.648903e-10 92.51969 1.574803 0 4.543839e-27 -18.11024 -2.648903e-10 -1.022681e-14 1.574803 0 92.51969 1.574803 0 92.51969 -18.11024 -2.648903e-10 92.51969 1.574803 0 4.543839e-27 -18.11024 -2.648903e-10 -1.022681e-14 -18.11024 -2.648903e-10 -1.022681e-14 1.574803 0 4.543839e-27</float_array>
                    <technique_common>
                        <accessor count="38" source="#ID62" stride="3">
                            <param name="X" type="float" />
                            <param name="Y" type="float" />
                            <param name="Z" type="float" />
                        </accessor>
                    </technique_common>
                </source>
                <source id="ID59">
                    <float_array id="ID63" count="114">1.345787e-11 -1 3.071963e-16 1.345787e-11 -1 3.071963e-16 1.345787e-11 -1 3.071963e-16 1.345787e-11 -1 3.071963e-16 -1.345787e-11 1 -3.071963e-16 -1.345787e-11 1 -3.071963e-16 -1.345787e-11 1 -3.071963e-16 -1.345787e-11 1 -3.071963e-16 0 0 0 0 0 0 0 0 0 0 0 0 3.603302e-16 -1.251023e-17 -1 3.603302e-16 -1.251023e-17 -1 3.603302e-16 -1.251023e-17 -1 3.603302e-16 -1.251023e-17 -1 3.603302e-16 -1.251023e-17 -1 3.603302e-16 -1.251023e-17 -1 -3.603302e-16 1.251023e-17 1 -3.603302e-16 1.251023e-17 1 -3.603302e-16 1.251023e-17 1 -3.603302e-16 1.251023e-17 1 -3.603302e-16 1.251023e-17 1 -3.603302e-16 1.251023e-17 1 0 0 0 0 0 0 0 0 0 0 0 0 -1.345932e-11 1 1.661722e-26 -1.345932e-11 1 1.661722e-26 -1.345932e-11 1 1.661722e-26 -1.345932e-11 1 1.661722e-26 1.345932e-11 -1 -1.661722e-26 1.345932e-11 -1 -1.661722e-26 1.345932e-11 -1 -1.661722e-26 1.345932e-11 -1 -1.661722e-26 0 0 0 0 0 0</float_array>
                    <technique_common>
                        <accessor count="38" source="#ID63" stride="3">
                            <param name="X" type="float" />
                            <param name="Y" type="float" />
                            <param name="Z" type="float" />
                        </accessor>
                    </technique_common>
                </source>
                <source id="ID60">
                    <Name_array id="ID64" count="0" />
                    <technique_common>
                        <accessor count="0" source="#ID64" stride="1">
                            <param name="skp_material" type="Name" />
                        </accessor>
                    </technique_common>
                </source>
                <vertices id="ID61">
                    <input semantic="POSITION" source="#ID58" />
                    <input semantic="NORMAL" source="#ID59" />
                </vertices>
                <triangles count="8" material="Material2">
                    <input offset="0" semantic="VERTEX" source="#ID61" />
                    <p>0 1 2 1 0 3 12 13 14 13 12 15 13 15 16 16 15 17 28 29 30 29 28 31</p>
                </triangles>
                <triangles count="8" material="Material3">
                    <input offset="0" semantic="VERTEX" source="#ID61" />
                    <p>4 5 6 7 6 5 18 19 20 20 19 21 19 22 21 23 21 22 32 33 34 35 34 33</p>
                </triangles>
                <lines count="12" material="Material4">
                    <input offset="0" semantic="VERTEX" source="#ID61" />
                    <p>8 9 10 9 11 10 11 8 24 8 25 24 26 25 27 26 9 27 36 37 27 36 26 37</p>
                </lines>
            </mesh>
        </geometry>
        <geometry id="ID65">
            <mesh>
                <source id="ID66">
                    <float_array id="ID70" count="72">1.574803 47.24409 0 -18.11024 -2.648903e-10 -1.022681e-14 -18.11024 47.24409 -1.022681e-14 1.574803 7.874016 5.108663e-27 1.574803 0 4.543839e-27 1.574803 39.37008 4.444442e-27 1.574803 36.12028 5.204904e-27 1.574803 11.12382 5.204904e-27 1.574803 11.12382 5.204904e-27 1.574803 36.12028 5.204904e-27 1.574803 7.874016 5.108663e-27 1.574803 39.37008 4.444442e-27 1.574803 47.24409 0 1.574803 0 4.543839e-27 -18.11024 -2.648903e-10 -1.022681e-14 -18.11024 47.24409 -1.022681e-14 -18.11024 -2.648903e-10 -1.022681e-14 1.574803 0 4.543839e-27 -18.11024 47.24409 -1.022681e-14 1.574803 47.24409 0 1.574803 39.37008 4.444442e-27 1.574803 36.12028 5.204904e-27 1.574803 11.12382 5.204904e-27 1.574803 7.874016 5.108663e-27</float_array>
                    <technique_common>
                        <accessor count="24" source="#ID70" stride="3">
                            <param name="X" type="float" />
                            <param name="Y" type="float" />
                            <param name="Z" type="float" />
                        </accessor>
                    </technique_common>
                </source>
                <source id="ID67">
                    <float_array id="ID71" count="72">5.195218e-16 7.337407e-27 -1 5.195218e-16 7.337407e-27 -1 5.195218e-16 7.337407e-27 -1 5.195218e-16 7.337407e-27 -1 5.195218e-16 7.337407e-27 -1 5.195218e-16 7.337407e-27 -1 5.195218e-16 7.337407e-27 -1 5.195218e-16 7.337407e-27 -1 -5.195218e-16 -7.337407e-27 1 -5.195218e-16 -7.337407e-27 1 -5.195218e-16 -7.337407e-27 1 -5.195218e-16 -7.337407e-27 1 -5.195218e-16 -7.337407e-27 1 -5.195218e-16 -7.337407e-27 1 -5.195218e-16 -7.337407e-27 1 -5.195218e-16 -7.337407e-27 1 0 0 0 0 0 0 0 0 0 0 0 0 0 0 0 0 0 0 0 0 0 0 0 0</float_array>
                    <technique_common>
                        <accessor count="24" source="#ID71" stride="3">
                            <param name="X" type="float" />
                            <param name="Y" type="float" />
                            <param name="Z" type="float" />
                        </accessor>
                    </technique_common>
                </source>
                <source id="ID68">
                    <Name_array id="ID72" count="0" />
                    <technique_common>
                        <accessor count="0" source="#ID72" stride="1">
                            <param name="skp_material" type="Name" />
                        </accessor>
                    </technique_common>
                </source>
                <vertices id="ID69">
                    <input semantic="POSITION" source="#ID66" />
                    <input semantic="NORMAL" source="#ID67" />
                </vertices>
                <triangles count="6" material="Material2">
                    <input offset="0" semantic="VERTEX" source="#ID69" />
                    <p>0 1 2 1 0 3 1 3 4 3 0 5 3 5 6 3 6 7</p>
                </triangles>
                <triangles count="6" material="Material3">
                    <input offset="0" semantic="VERTEX" source="#ID69" />
                    <p>8 9 10 9 11 10 11 12 10 13 10 14 10 12 14 15 14 12</p>
                </triangles>
                <lines count="8" material="Material4">
                    <input offset="0" semantic="VERTEX" source="#ID69" />
                    <p>16 17 16 18 19 18 20 19 21 20 22 21 23 22 17 23</p>
                </lines>
            </mesh>
        </geometry>
        <geometry id="ID73">
            <mesh>
                <source id="ID74">
                    <float_array id="ID78" count="108">1.574803 7.874016 5.108663e-27 1.574803 0 92.51969 1.574803 0 4.543839e-27 1.574803 7.874016 84.64567 1.574803 21.32097 92.51969 1.574803 21.32097 84.64567 1.574803 21.98611 84.64567 1.574803 21.98611 92.51969 1.574803 39.37008 84.64567 1.574803 47.24409 92.51969 1.574803 39.37008 4.444442e-27 1.574803 47.24409 0 1.574803 47.24409 0 1.574803 39.37008 4.444442e-27 1.574803 47.24409 92.51969 1.574803 39.37008 84.64567 1.574803 21.98611 92.51969 1.574803 21.98611 84.64567 1.574803 21.32097 92.51969 1.574803 21.32097 84.64567 1.574803 7.874016 84.64567 1.574803 0 92.51969 1.574803 7.874016 5.108663e-27 1.574803 0 4.543839e-27 1.574803 39.37008 4.444442e-27 1.574803 47.24409 0 1.574803 47.24409 92.51969 1.574803 21.98611 92.51969 1.574803 21.32097 92.51969 1.574803 0 92.51969 1.574803 0 4.543839e-27 1.574803 7.874016 5.108663e-27 1.574803 7.874016 84.64567 1.574803 21.32097 84.64567 1.574803 21.98611 84.64567 1.574803 39.37008 84.64567</float_array>
                    <technique_common>
                        <accessor count="36" source="#ID78" stride="3">
                            <param name="X" type="float" />
                            <param name="Y" type="float" />
                            <param name="Z" type="float" />
                        </accessor>
                    </technique_common>
                </source>
                <source id="ID75">
                    <float_array id="ID79" count="108">1 1.465813e-11 -1.28355e-14 1 1.465813e-11 -1.28355e-14 1 1.465813e-11 -1.28355e-14 1 1.465813e-11 -1.28355e-14 1 1.465813e-11 -1.28355e-14 1 1.465813e-11 -1.28355e-14 1 1.465813e-11 -1.28355e-14 1 1.465813e-11 -1.28355e-14 1 1.465813e-11 -1.28355e-14 1 1.465813e-11 -1.28355e-14 1 1.465813e-11 -1.28355e-14 1 1.465813e-11 -1.28355e-14 -1 -1.465813e-11 1.28355e-14 -1 -1.465813e-11 1.28355e-14 -1 -1.465813e-11 1.28355e-14 -1 -1.465813e-11 1.28355e-14 -1 -1.465813e-11 1.28355e-14 -1 -1.465813e-11 1.28355e-14 -1 -1.465813e-11 1.28355e-14 -1 -1.465813e-11 1.28355e-14 -1 -1.465813e-11 1.28355e-14 -1 -1.465813e-11 1.28355e-14 -1 -1.465813e-11 1.28355e-14 -1 -1.465813e-11 1.28355e-14 0 0 0 0 0 0 0 0 0 0 0 0 0 0 0 0 0 0 0 0 0 0 0 0 0 0 0 0 0 0 0 0 0 0 0 0</float_array>
                    <technique_common>
                        <accessor count="36" source="#ID79" stride="3">
                            <param name="X" type="float" />
                            <param name="Y" type="float" />
                            <param name="Z" type="float" />
                        </accessor>
                    </technique_common>
                </source>
                <source id="ID76">
                    <Name_array id="ID80" count="0" />
                    <technique_common>
                        <accessor count="0" source="#ID80" stride="1">
                            <param name="skp_material" type="Name" />
                        </accessor>
                    </technique_common>
                </source>
                <vertices id="ID77">
                    <input semantic="POSITION" source="#ID74" />
                    <input semantic="NORMAL" source="#ID75" />
                </vertices>
                <triangles count="10" material="Material3">
                    <input offset="0" semantic="VERTEX" source="#ID77" />
                    <p>0 1 2 1 0 3 1 3 4 4 3 5 4 5 6 4 6 7 7 6 8 7 8 9 9 8 10 9 10 11</p>
                </triangles>
                <triangles count="10" material="Material2">
                    <input offset="0" semantic="VERTEX" source="#ID77" />
                    <p>12 13 14 13 15 14 14 15 16 15 17 16 16 17 18 17 19 18 19 20 18 18 20 21 20 22 21 23 21 22</p>
                </triangles>
                <lines count="12" material="Material4">
                    <input offset="0" semantic="VERTEX" source="#ID77" />
                    <p>24 25 25 26 27 26 28 27 29 28 29 30 30 31 32 31 33 32 34 33 35 34 24 35</p>
                </lines>
            </mesh>
        </geometry>
        <geometry id="ID81">
            <mesh>
                <source id="ID82">
                    <float_array id="ID86" count="282">7.15449e-10 5.905512 92.51969 19.68504 27.22649 92.51969 4.447287e-10 27.22649 92.51969 19.68504 5.905512 92.51969 19.68504 5.905512 92.51969 7.15449e-10 5.905512 92.51969 19.68504 27.22649 92.51969 4.447287e-10 27.22649 92.51969 19.68504 27.22649 92.51969 4.447287e-10 27.22649 92.51969 7.15449e-10 5.905512 92.51969 19.68504 5.905512 92.51969 7.933778e-10 0 98.4252 7.15449e-10 5.905512 92.51969 7.933778e-10 0 0 0 59.05512 98.4252 4.447287e-10 27.22649 92.51969 4.325891e-10 27.89162 92.51969 7.815615e-11 53.14961 92.51969 0 59.05512 0 7.815615e-11 53.14961 0 7.15449e-10 5.905512 0 7.815615e-11 53.14961 0 7.815615e-11 53.14961 92.51969 4.325891e-10 27.89162 92.51969 7.15449e-10 5.905512 0 7.933778e-10 0 0 7.933778e-10 0 98.4252 0 59.05512 98.4252 0 59.05512 0 7.15449e-10 5.905512 92.51969 19.68504 5.905512 1.022681e-14 7.15449e-10 5.905512 0 19.68504 5.905512 92.51969 19.68504 5.905512 1.022681e-14 19.68504 27.89162 92.51969 21.25984 53.14961 92.51969 19.68504 53.14961 92.51969 19.68504 27.22649 92.51969 19.68504 5.905512 92.51969 21.25984 5.905512 92.51969 21.25984 5.905512 92.51969 19.68504 5.905512 92.51969 21.25984 53.14961 92.51969 19.68504 27.22649 92.51969 19.68504 27.89162 92.51969 19.68504 53.14961 92.51969 19.68504 27.89162 92.51969 19.68504 53.14961 92.51969 21.25984 5.905512 92.51969 21.25984 53.14961 92.51969 19.68504 53.14961 1.022681e-14 7.815615e-11 53.14961 92.51969 7.815615e-11 53.14961 0 19.68504 53.14961 92.51969 19.68504 53.14961 1.022681e-14 4.325891e-10 27.89162 92.51969 7.815615e-11 53.14961 92.51969 4.325891e-10 27.89162 92.51969 7.815615e-11 53.14961 92.51969 21.25984 2.859224e-10 3.37109e-15 7.933778e-10 0 98.4252 7.933778e-10 0 0 21.25984 2.859224e-10 98.4252 21.25984 2.859224e-10 98.4252 21.25984 2.859224e-10 3.37109e-15 7.933778e-10 0 98.4252 21.25984 59.05512 98.4252 0 59.05512 98.4252 21.25984 2.859224e-10 98.4252 21.25984 59.05512 98.4252 0 59.05512 98.4252 21.25984 59.05512 3.37109e-15 0 59.05512 0 21.25984 59.05512 98.4252 21.25984 59.05512 3.37109e-15 19.68504 5.905512 1.022681e-14 21.25984 5.905512 92.51969 21.25984 5.905512 3.37109e-15 19.68504 5.905512 92.51969 21.25984 5.905512 3.37109e-15 21.25984 59.05512 3.37109e-15 21.25984 53.14961 92.51969 21.25984 53.14961 3.37109e-15 21.25984 5.905512 3.37109e-15 21.25984 2.859224e-10 98.4252 21.25984 2.859224e-10 3.37109e-15 21.25984 5.905512 92.51969 21.25984 59.05512 98.4252 21.25984 53.14961 3.37109e-15 21.25984 53.14961 92.51969 19.68504 53.14961 1.022681e-14 21.25984 53.14961 3.37109e-15 19.68504 53.14961 92.51969</float_array>
                    <technique_common>
                        <accessor count="94" source="#ID86" stride="3">
                            <param name="X" type="float" />
                            <param name="Y" type="float" />
                            <param name="Z" type="float" />
                        </accessor>
                    </technique_common>
                </source>
                <source id="ID83">
                    <float_array id="ID87" count="282">9.134479e-27 -6.665199e-16 1 9.134479e-27 -6.665199e-16 1 9.134479e-27 -6.665199e-16 1 9.134479e-27 -6.665199e-16 1 -9.134479e-27 6.665199e-16 -1 -9.134479e-27 6.665199e-16 -1 -9.134479e-27 6.665199e-16 -1 -9.134479e-27 6.665199e-16 -1 0 0 0 0 0 0 0 0 0 0 0 0 -1 -1.346264e-11 5.009355e-14 -1 -1.346264e-11 5.009355e-14 -1 -1.346264e-11 5.009355e-14 -1 -1.346264e-11 5.009355e-14 -1 -1.346264e-11 5.009355e-14 -1 -1.346264e-11 5.009355e-14 -1 -1.346264e-11 5.009355e-14 -1 -1.346264e-11 5.009355e-14 -1 -1.346264e-11 5.009355e-14 -1 -1.346264e-11 5.009355e-14 0 0 0 0 0 0 0 0 0 0 0 0 0 0 0 0 0 0 0 0 0 0 0 0 -1.345957e-11 1 -2.117292e-14 -1.345957e-11 1 -2.117292e-14 -1.345957e-11 1 -2.117292e-14 -1.345957e-11 1 -2.117292e-14 0 0 0 4.504127e-15 1.251023e-17 1 4.504127e-15 1.251023e-17 1 4.504127e-15 1.251023e-17 1 4.504127e-15 1.251023e-17 1 4.504127e-15 1.251023e-17 1 4.504127e-15 1.251023e-17 1 -4.504127e-15 -1.251023e-17 -1 -4.504127e-15 -1.251023e-17 -1 -4.504127e-15 -1.251023e-17 -1 -4.504127e-15 -1.251023e-17 -1 -4.504127e-15 -1.251023e-17 -1 -4.504127e-15 -1.251023e-17 -1 0 0 0 0 0 0 0 0 0 0 0 0 1.32491e-11 -1 -1.939726e-14 1.32491e-11 -1 -1.939726e-14 1.32491e-11 -1 -1.939726e-14 1.32491e-11 -1 -1.939726e-14 0 0 0 -7.709821e-27 5.626283e-16 1 -7.709821e-27 5.626283e-16 1 7.709821e-27 -5.626283e-16 -1 7.709821e-27 -5.626283e-16 -1 1.344815e-11 -1 -3.722544e-32 1.344815e-11 -1 -3.722544e-32 1.344815e-11 -1 -3.722544e-32 1.344815e-11 -1 -3.722544e-32 0 0 0 0 0 0 -1.585661e-16 -2.133965e-27 1 -1.585661e-16 -2.133965e-27 1 -1.585661e-16 -2.133965e-27 1 -1.585661e-16 -2.133965e-27 1 0 0 0 -1.344815e-11 1 9.455261e-30 -1.344815e-11 1 9.455261e-30 -1.344815e-11 1 9.455261e-30 -1.344815e-11 1 9.455261e-30 0 0 0 -1.215983e-11 1 -1.100992e-14 -1.215983e-11 1 -1.100992e-14 -1.215983e-11 1 -1.100992e-14 -1.215983e-11 1 -1.100992e-14 0 0 0 1 1.345855e-11 1.585661e-16 1 1.345855e-11 1.585661e-16 1 1.345855e-11 1.585661e-16 1 1.345855e-11 1.585661e-16 1 1.345855e-11 1.585661e-16 1 1.345855e-11 1.585661e-16 1 1.345855e-11 1.585661e-16 1 1.345855e-11 1.585661e-16 0 0 0 1.217933e-11 -1 1.130483e-14 1.217933e-11 -1 1.130483e-14 1.217933e-11 -1 1.130483e-14 1.217933e-11 -1 1.130483e-14</float_array>
                    <technique_common>
                        <accessor count="94" source="#ID87" stride="3">
                            <param name="X" type="float" />
                            <param name="Y" type="float" />
                            <param name="Z" type="float" />
                        </accessor>
                    </technique_common>
                </source>
                <source id="ID84">
                    <Name_array id="ID88" count="0" />
                    <technique_common>
                        <accessor count="0" source="#ID88" stride="1">
                            <param name="skp_material" type="Name" />
                        </accessor>
                    </technique_common>
                </source>
                <vertices id="ID85">
                    <input semantic="POSITION" source="#ID82" />
                    <input semantic="NORMAL" source="#ID83" />
                </vertices>
                <triangles count="8" material="Material2">
                    <input offset="0" semantic="VERTEX" source="#ID85" />
                    <p>0 1 2 1 0 3 35 36 37 36 35 38 36 38 39 36 39 40 56 37 57 37 56 35</p>
                </triangles>
                <triangles count="36" material="Material3">
                    <input offset="0" semantic="VERTEX" source="#ID85" />
                    <p>4 5 6 7 6 5 12 13 14 13 12 15 13 15 16 16 15 17 17 15 18 18 19 20 19 18 15 21 14 13 30 31 32 31 30 33 41 42 43 42 44 43 44 45 43 46 43 45 51 52 53 52 51 54 45 58 46 59 46 58 60 61 62 61 60 63 66 67 68 67 66 69 71 72 73 72 71 74 76 77 78 77 76 79 81 82 83 84 85 86 85 84 87 85 87 88 88 87 82 88 82 81 90 91 92 91 90 93</p>
                </triangles>
                <lines count="37" material="Material4">
                    <input offset="0" semantic="VERTEX" source="#ID85" />
                    <p>8 9 9 10 10 11 11 8 22 23 23 24 24 9 10 25 26 25 26 27 27 28 29 28 22 29 25 34 11 34 47 48 8 47 11 49 50 49 48 50 23 48 22 55 55 48 47 24 27 64 26 65 65 64 64 70 28 70 75 70 29 75 34 80 49 80 89 50 89 75 65 80 55 89</p>
                </lines>
            </mesh>
        </geometry>
    </library_geometries>
    <library_materials>
        <material id="ID7" name="material">
            <instance_effect url="#ID6" />
        </material>
        <material id="ID12" name="Chris_Shirt">
            <instance_effect url="#ID13" />
        </material>
        <material id="ID14" name="edge_color000255">
            <instance_effect url="#ID15" />
        </material>
        <material id="ID16" name="edge_color403852255">
            <instance_effect url="#ID17" />
        </material>
        <material id="ID22" name="Chris_Hair">
            <instance_effect url="#ID23" />
        </material>
        <material id="ID40" name="material_6">
            <instance_effect url="#ID41" />
        </material>
    </library_materials>
    <library_effects>
        <effect id="ID6">
            <profile_COMMON>
                <technique sid="COMMON">
                    <lambert>
                        <diffuse>
                            <color>1 1 1 1</color>
                        </diffuse>
                    </lambert>
                </technique>
            </profile_COMMON>
        </effect>
        <effect id="ID13">
            <profile_COMMON>
                <technique sid="COMMON">
                    <lambert>
                        <diffuse>
                            <color>0.1568627 0.1490196 0.2039216 1</color>
                        </diffuse>
                    </lambert>
                </technique>
            </profile_COMMON>
        </effect>
        <effect id="ID15">
            <profile_COMMON>
                <technique sid="COMMON">
                    <constant>
                        <transparent opaque="A_ONE">
                            <color>0 0 0 1</color>
                        </transparent>
                        <transparency>
                            <float>1</float>
                        </transparency>
                    </constant>
                </technique>
            </profile_COMMON>
        </effect>
        <effect id="ID17">
            <profile_COMMON>
                <technique sid="COMMON">
                    <constant>
                        <transparent opaque="A_ONE">
                            <color>0.1568628 0.1490196 0.2039216 1</color>
                        </transparent>
                        <transparency>
                            <float>1</float>
                        </transparency>
                    </constant>
                </technique>
            </profile_COMMON>
        </effect>
        <effect id="ID23">
            <profile_COMMON>
                <technique sid="COMMON">
                    <lambert>
                        <diffuse>
                            <color>0.1098039 0.1176471 0.1137255 1</color>
                        </diffuse>
                    </lambert>
                </technique>
            </profile_COMMON>
        </effect>
        <effect id="ID41">
            <profile_COMMON>
                <technique sid="COMMON">
                    <lambert>
                        <diffuse>
                            <color>0 0.4901961 0.5058824 1</color>
                        </diffuse>
                    </lambert>
                </technique>
            </profile_COMMON>
        </effect>
    </library_effects>
    <scene>
        <instance_visual_scene url="#ID2" />
    </scene>
</COLLADA>
