<?xml version="1.0" encoding="UTF-8" standalone="no" ?>
<COLLADA xmlns="http://www.collada.org/2005/11/COLLADASchema" version="1.4.1">
    <asset>
        <contributor>
            <authoring_tool>SketchUp 17.1.174</authoring_tool>
        </contributor>
        <created>2017-05-29T02:05:50Z</created>
        <modified>2017-05-29T02:05:50Z</modified>
        <unit meter="0.0254" name="inch" />
        <up_axis>Z_UP</up_axis>
    </asset>
    <library_cameras>
        <camera id="ID1" name="skp_camera_Last_Saved_SketchUp_View">
            <optics>
                <technique_common>
                    <perspective>
                        <yfov>35</yfov>
                        <aspect_ratio>0</aspect_ratio>
                        <znear>1</znear>
                        <zfar>1000</zfar>
                    </perspective>
                </technique_common>
            </optics>
        </camera>
    </library_cameras>
    <library_visual_scenes>
        <visual_scene id="ID2">
            <node name="SketchUp">
                <node name="skp_camera_Last_Saved_SketchUp_View">
                    <matrix>-0.998754 0.0394641 -0.03054506 311.2055 -0.04990407 -0.789814 0.6113129 90.71477 1.491862e-16 0.6120755 0.7907993 169.0306 0 0 0 1</matrix>
                    <instance_camera url="#ID1" />
                </node>
                <node id="ID3" name="instance_0">
                    <matrix>1 0 0 285.4331 0 1 0 19.68504 0 0 1 0 0 0 0 1</matrix>
                    <instance_geometry url="#ID4">
                        <bind_material>
                            <technique_common>
                                <instance_material symbol="Material2" target="#ID5">
                                    <bind_vertex_input semantic="UVSET0" input_semantic="TEXCOORD" input_set="0" />
                                </instance_material>
                                <instance_material symbol="Material3" target="#ID11">
                                    <bind_vertex_input semantic="UVSET0" input_semantic="TEXCOORD" input_set="0" />
                                </instance_material>
                            </technique_common>
                        </bind_material>
                    </instance_geometry>
                </node>
            </node>
        </visual_scene>
    </library_visual_scenes>
    <library_geometries>
        <geometry id="ID4">
            <mesh>
                <source id="ID7">
                    <float_array id="ID12" count="222">53.14961 1.574803 2.497104e-16 53.14961 -8.412826e-12 7.105427e-15 53.14961 -8.185452e-12 92.51969 53.14961 1.574803 92.51969 53.14961 -8.412826e-12 7.105427e-15 53.14961 -19.68504 -3.12138e-15 53.14961 -19.68504 92.51969 53.14961 -8.185452e-12 92.51969 5.905512 -6.684786e-11 92.51969 31.16349 -3.79714e-11 92.51969 31.82863 -3.478817e-11 92.51969 53.14961 -8.185452e-12 92.51969 53.14961 1.574803 92.51969 5.905512 1.574803 92.51969 5.905512 1.574803 92.51969 53.14961 1.574803 92.51969 53.14961 -8.185452e-12 92.51969 31.82863 -3.478817e-11 92.51969 31.16349 -3.79714e-11 92.51969 5.905512 -6.684786e-11 92.51969 5.905512 1.574803 92.51969 5.905512 1.574803 2.497104e-16 4.547474e-13 1.574803 2.497104e-16 4.547474e-13 1.574803 98.4252 59.05512 1.574803 98.4252 59.05512 1.574803 2.497104e-16 53.14961 1.574803 2.497104e-16 53.14961 1.574803 92.51969 5.905512 -19.68504 -3.12138e-15 5.905512 -19.68504 92.51969 31.16349 -19.68504 92.51969 31.82863 -19.68504 92.51969 53.14961 -19.68504 92.51969 53.14961 -19.68504 -3.12138e-15 59.05512 -19.68504 -3.12138e-15 59.05512 -19.68504 98.4252 1.136868e-13 -19.68504 98.4252 1.136868e-13 -19.68504 -3.12138e-15 31.82863 -3.478817e-11 92.51969 31.82863 -19.68504 92.51969 53.14961 -19.68504 92.51969 53.14961 -8.185452e-12 92.51969 53.14961 -8.185452e-12 92.51969 53.14961 -19.68504 92.51969 31.82863 -19.68504 92.51969 31.82863 -3.478817e-11 92.51969 5.905512 -19.68504 92.51969 31.16349 -19.68504 92.51969 31.16349 -3.79714e-11 92.51969 5.905512 -6.684786e-11 92.51969 5.905512 -6.684786e-11 92.51969 31.16349 -3.79714e-11 92.51969 31.16349 -19.68504 92.51969 5.905512 -19.68504 92.51969 5.905512 1.574803 92.51969 5.905512 -6.684786e-11 92.51969 5.905512 -6.684786e-11 7.105427e-15 5.905512 1.574803 2.497104e-16 1.136868e-13 -19.68504 -3.12138e-15 1.136868e-13 -19.68504 98.4252 4.547474e-13 1.574803 98.4252 4.547474e-13 1.574803 2.497104e-16 1.136868e-13 -19.68504 98.4252 59.05512 -19.68504 98.4252 59.05512 1.574803 98.4252 4.547474e-13 1.574803 98.4252 59.05512 1.574803 98.4252 59.05512 -19.68504 98.4252 59.05512 -19.68504 -3.12138e-15 59.05512 1.574803 2.497104e-16 5.905512 -6.684786e-11 92.51969 5.905512 -19.68504 92.51969 5.905512 -19.68504 -3.12138e-15 5.905512 -6.684786e-11 7.105427e-15</float_array>
                    <technique_common>
                        <accessor count="74" source="#ID12" stride="3">
                            <param name="X" type="float" />
                            <param name="Y" type="float" />
                            <param name="Z" type="float" />
                        </accessor>
                    </technique_common>
                </source>
                <source id="ID8">
                    <float_array id="ID13" count="222">-1 1.305512e-12 -1.100992e-14 -1 1.305512e-12 -1.100992e-14 -1 1.305512e-12 -1.100992e-14 -1 1.305512e-12 -1.100992e-14 -1 5.775291e-15 -2.117292e-14 -1 5.775291e-15 -2.117292e-14 -1 5.775291e-15 -2.117292e-14 -1 5.775291e-15 -2.117292e-14 -1.251023e-17 4.504127e-15 1 -1.251023e-17 4.504127e-15 1 -1.251023e-17 4.504127e-15 1 -1.251023e-17 4.504127e-15 1 -1.251023e-17 4.504127e-15 1 -1.251023e-17 4.504127e-15 1 1.251023e-17 -4.504127e-15 -1 1.251023e-17 -4.504127e-15 -1 1.251023e-17 -4.504127e-15 -1 1.251023e-17 -4.504127e-15 -1 1.251023e-17 -4.504127e-15 -1 1.251023e-17 -4.504127e-15 -1 6.800986e-15 1 1.585661e-16 6.800986e-15 1 1.585661e-16 6.800986e-15 1 1.585661e-16 6.800986e-15 1 1.585661e-16 6.800986e-15 1 1.585661e-16 6.800986e-15 1 1.585661e-16 6.800986e-15 1 1.585661e-16 6.800986e-15 1 1.585661e-16 -2.711539e-15 -1 5.009355e-14 -2.711539e-15 -1 5.009355e-14 -2.711539e-15 -1 5.009355e-14 -2.711539e-15 -1 5.009355e-14 -2.711539e-15 -1 5.009355e-14 -2.711539e-15 -1 5.009355e-14 -2.711539e-15 -1 5.009355e-14 -2.711539e-15 -1 5.009355e-14 -2.711539e-15 -1 5.009355e-14 -2.711539e-15 -1 5.009355e-14 6.665199e-16 1.595571e-28 1 6.665199e-16 1.595571e-28 1 6.665199e-16 1.595571e-28 1 6.665199e-16 1.595571e-28 1 -6.665199e-16 -1.595571e-28 -1 -6.665199e-16 -1.595571e-28 -1 -6.665199e-16 -1.595571e-28 -1 -6.665199e-16 -1.595571e-28 -1 -5.626283e-16 -1.338365e-28 1 -5.626283e-16 -1.338365e-28 1 -5.626283e-16 -1.338365e-28 1 -5.626283e-16 -1.338365e-28 1 5.626283e-16 1.338365e-28 -1 5.626283e-16 1.338365e-28 -1 5.626283e-16 1.338365e-28 -1 5.626283e-16 1.338365e-28 -1 1 -1.28602e-12 1.130483e-14 1 -1.28602e-12 1.130483e-14 1 -1.28602e-12 1.130483e-14 1 -1.28602e-12 1.130483e-14 -1 1.719413e-14 9.455261e-30 -1 1.719413e-14 9.455261e-30 -1 1.719413e-14 9.455261e-30 -1 1.719413e-14 9.455261e-30 -1.182864e-30 -1.585661e-16 1 -1.182864e-30 -1.585661e-16 1 -1.182864e-30 -1.585661e-16 1 -1.182864e-30 -1.585661e-16 1 1 -1.719413e-14 -3.722544e-32 1 -1.719413e-14 -3.722544e-32 1 -1.719413e-14 -3.722544e-32 1 -1.719413e-14 -3.722544e-32 1 -2.162507e-13 -1.939726e-14 1 -2.162507e-13 -1.939726e-14 1 -2.162507e-13 -1.939726e-14 1 -2.162507e-13 -1.939726e-14</float_array>
                    <technique_common>
                        <accessor count="74" source="#ID13" stride="3">
                            <param name="X" type="float" />
                            <param name="Y" type="float" />
                            <param name="Z" type="float" />
                        </accessor>
                    </technique_common>
                </source>
                <vertices id="ID9">
                    <input semantic="POSITION" source="#ID7" />
                    <input semantic="NORMAL" source="#ID8" />
                </vertices>
                <polylist count="12" material="Material2">
                    <input offset="0" semantic="VERTEX" source="#ID9" />
                    <vcount>4 4 6 8 10 4 4 4 4 4 4 4</vcount>
                    <p>0 1 2 3 4 5 6 7 14 15 16 17 18 19 20 21 22 23 24 25 26 27 28 29 30 31 32 33 34 35 36 37 42 43 44 45 50 51 52 53 54 55 56 57 58 59 60 61 62 63 64 65 66 67 68 69 70 71 72 73</p>
                </polylist>
                <polylist count="3" material="Material3">
                    <input offset="0" semantic="VERTEX" source="#ID9" />
                    <vcount>6 4 4</vcount>
                    <p>8 9 10 11 12 13 38 39 40 41 46 47 48 49</p>
                </polylist>
            </mesh>
        </geometry>
    </library_geometries>
    <library_materials>
        <material id="ID5" name="material_6">
            <instance_effect url="#ID6" />
        </material>
        <material id="ID11" name="material">
            <instance_effect url="#ID10" />
        </material>
    </library_materials>
    <library_effects>
        <effect id="ID6">
            <profile_COMMON>
                <technique sid="COMMON">
                    <lambert>
                        <diffuse>
                            <color>0 0.4901961 0.5058824 1</color>
                        </diffuse>
                    </lambert>
                </technique>
            </profile_COMMON>
        </effect>
        <effect id="ID10">
            <profile_COMMON>
                <technique sid="COMMON">
                    <lambert>
                        <diffuse>
                            <color>1 1 1 1</color>
                        </diffuse>
                    </lambert>
                </technique>
            </profile_COMMON>
        </effect>
    </library_effects>
    <scene>
        <instance_visual_scene url="#ID2" />
    </scene>
</COLLADA>
