<?xml version="1.0" encoding="UTF-8" standalone="no" ?>
<COLLADA xmlns="http://www.collada.org/2005/11/COLLADASchema" version="1.4.1">
    <asset>
        <contributor>
            <authoring_tool>SketchUp 17.1.174</authoring_tool>
        </contributor>
        <created>2017-06-16T01:37:22Z</created>
        <modified>2017-06-16T01:37:22Z</modified>
        <unit meter="0.0254" name="inch" />
        <up_axis>Z_UP</up_axis>
    </asset>
    <library_cameras>
        <camera id="ID1" name="skp_camera_Last_Saved_SketchUp_View">
            <optics>
                <technique_common>
                    <perspective>
                        <yfov>35</yfov>
                        <aspect_ratio>0</aspect_ratio>
                        <znear>1</znear>
                        <zfar>1000</zfar>
                    </perspective>
                </technique_common>
            </optics>
        </camera>
    </library_cameras>
    <library_visual_scenes>
        <visual_scene id="ID2">
            <node name="SketchUp">
                <node name="skp_camera_Last_Saved_SketchUp_View">
                    <matrix>0.9998166 0.01327084 -0.01380765 300.8198 -0.01915115 0.6928259 -0.7208505 -487.2752 -1.214306e-17 0.7209827 0.6929531 849.8975 0 0 0 1</matrix>
                    <instance_camera url="#ID1" />
                </node>
                <node id="ID3" name="group_0">
                    <matrix>1 0 0 0 0 1 0 0 0 0 1 0 0 0 0 1</matrix>
                    <instance_geometry url="#ID4">
                        <bind_material>
                            <technique_common>
                                <instance_material symbol="Material2" target="#ID5">
                                    <bind_vertex_input semantic="UVSET0" input_semantic="TEXCOORD" input_set="0" />
                                </instance_material>
                                <instance_material symbol="Material3" target="#ID14">
                                    <bind_vertex_input semantic="UVSET0" input_semantic="TEXCOORD" input_set="0" />
                                </instance_material>
                            </technique_common>
                        </bind_material>
                    </instance_geometry>
                    <instance_geometry url="#ID19">
                        <bind_material>
                            <technique_common>
                                <instance_material symbol="Material2" target="#ID20">
                                    <bind_vertex_input semantic="UVSET0" input_semantic="TEXCOORD" input_set="0" />
                                </instance_material>
                                <instance_material symbol="Material3" target="#ID14">
                                    <bind_vertex_input semantic="UVSET0" input_semantic="TEXCOORD" input_set="0" />
                                </instance_material>
                            </technique_common>
                        </bind_material>
                    </instance_geometry>
                    <instance_geometry url="#ID32">
                        <bind_material>
                            <technique_common>
                                <instance_material symbol="Material2" target="#ID33">
                                    <bind_vertex_input semantic="UVSET0" input_semantic="TEXCOORD" input_set="0" />
                                </instance_material>
                                <instance_material symbol="Material3" target="#ID14">
                                    <bind_vertex_input semantic="UVSET0" input_semantic="TEXCOORD" input_set="0" />
                                </instance_material>
                            </technique_common>
                        </bind_material>
                    </instance_geometry>
                    <instance_geometry url="#ID40">
                        <bind_material>
                            <technique_common>
                                <instance_material symbol="Material2" target="#ID33">
                                    <bind_vertex_input semantic="UVSET0" input_semantic="TEXCOORD" input_set="0" />
                                </instance_material>
                                <instance_material symbol="Material3" target="#ID14">
                                    <bind_vertex_input semantic="UVSET0" input_semantic="TEXCOORD" input_set="0" />
                                </instance_material>
                            </technique_common>
                        </bind_material>
                    </instance_geometry>
                    <instance_geometry url="#ID46">
                        <bind_material>
                            <technique_common>
                                <instance_material symbol="Material2" target="#ID20">
                                    <bind_vertex_input semantic="UVSET0" input_semantic="TEXCOORD" input_set="0" />
                                </instance_material>
                                <instance_material symbol="Material3" target="#ID14">
                                    <bind_vertex_input semantic="UVSET0" input_semantic="TEXCOORD" input_set="0" />
                                </instance_material>
                            </technique_common>
                        </bind_material>
                    </instance_geometry>
                </node>
            </node>
        </visual_scene>
    </library_visual_scenes>
    <library_geometries>
        <geometry id="ID4">
            <mesh>
                <source id="ID10">
                    <float_array id="ID16" count="267">0 629.9213 204.3307 1.776357e-14 629.9213 0 522.7868 629.9213 0 522.7868 629.9213 204.3307 1.776357e-14 629.9213 0 0 629.9213 204.3307 522.7868 629.9213 0 522.7868 629.9213 204.3307 1.776357e-14 629.9213 0 0 629.9213 204.3307 3.552714e-15 340.1575 204.3307 1.776357e-14 340.1575 0 3.552714e-15 340.1575 204.3307 1.776357e-14 340.1575 0 522.7868 0 336.9716 522.7868 340.1575 204.3307 522.7868 629.9213 204.3307 522.7868 629.9213 0 522.7868 340.1575 0 522.7868 0 169.2913 522.7868 340.1575 204.3307 522.7868 0 336.9716 522.7868 340.1575 0 522.7868 0 169.2913 483.4168 340.1575 204.3307 160.9824 340.1575 204.3307 160.9824 202.9233 204.3307 442.0847 202.9233 204.3307 442.0847 34.41935 204.3307 121.6123 34.41935 204.3307 121.6123 340.1575 204.3307 3.552714e-15 340.1575 204.3307 0 629.9213 204.3307 522.7868 629.9213 204.3307 522.7868 340.1575 204.3307 160.9824 340.1575 204.3307 483.4168 340.1575 204.3307 160.9824 202.9233 204.3307 442.0847 202.9233 204.3307 442.0847 34.41935 204.3307 121.6123 34.41935 204.3307 121.6123 340.1575 204.3307 1.776357e-14 340.1575 0 3.552714e-15 340.1575 204.3307 121.6123 340.1575 204.3307 121.6123 340.1575 0 121.6123 340.1575 0 522.7868 0 336.9716 483.4168 0 336.9716 483.4168 340.1575 204.3307 522.7868 340.1575 204.3307 483.4168 0 336.9716 160.9824 340.1575 0 160.9824 340.1575 204.3307 483.4168 340.1575 204.3307 483.4168 340.1575 0 160.9824 340.1575 0 483.4168 340.1575 0 160.9824 202.9233 204.3307 160.9824 340.1575 204.3307 160.9824 340.1575 0 160.9824 202.9233 68.89764 160.9824 202.9233 68.89764 442.0847 202.9233 204.3307 160.9824 202.9233 204.3307 160.9824 202.9233 68.89764 442.0847 202.9233 68.89764 442.0847 202.9233 68.89764 442.0847 34.41935 204.3307 442.0847 202.9233 204.3307 442.0847 202.9233 68.89764 442.0847 34.41935 68.89764 442.0847 34.41935 68.89764 121.6123 34.41935 204.3307 442.0847 34.41935 204.3307 442.0847 34.41935 68.89764 121.6123 34.41935 68.89764 121.6123 34.41935 68.89764 121.6123 34.41935 68.89764 121.6123 202.9233 68.89764 121.6123 340.1575 0 121.6123 340.1575 204.3307 121.6123 34.41935 204.3307 121.6123 202.9233 68.89764 483.4168 340.1575 0 483.4168 340.1575 204.3307 483.4168 0 336.9716 483.4168 0 169.2913 483.4168 0 169.2913</float_array>
                    <technique_common>
                        <accessor count="89" source="#ID16" stride="3">
                            <param name="X" type="float" />
                            <param name="Y" type="float" />
                            <param name="Z" type="float" />
                        </accessor>
                    </technique_common>
                </source>
                <source id="ID11">
                    <float_array id="ID17" count="267">0 -1 0 0 -1 0 0 -1 0 0 -1 0 0 0 0 0 0 0 0 0 0 0 0 0 1 6.130362e-18 7.824184e-17 1 6.130362e-18 7.824184e-17 1 6.130362e-18 7.824184e-17 1 6.130362e-18 7.824184e-17 0 0 0 0 0 0 -1 0 0 -1 0 0 -1 0 0 -1 0 0 -1 0 0 -1 0 0 0 0 0 0 0 0 0 0 0 0 0 0 -1.335019e-15 -1.0946e-15 -1 -1.335019e-15 -1.0946e-15 -1 -1.335019e-15 -1.0946e-15 -1 -1.335019e-15 -1.0946e-15 -1 -1.335019e-15 -1.0946e-15 -1 -1.335019e-15 -1.0946e-15 -1 -1.335019e-15 -1.0946e-15 -1 -1.335019e-15 -1.0946e-15 -1 -1.335019e-15 -1.0946e-15 -1 -1.335019e-15 -1.0946e-15 -1 -1.335019e-15 -1.0946e-15 -1 0 0 0 0 0 0 0 0 0 0 0 0 0 0 0 0 0 0 0 0 0 0 1 0 0 1 0 0 1 0 0 1 0 0 0 0 -1.353027e-14 -0.3632964 -0.9316736 -1.353027e-14 -0.3632964 -0.9316736 -1.353027e-14 -0.3632964 -0.9316736 -1.353027e-14 -0.3632964 -0.9316736 0 0 0 0 1 0 0 1 0 0 1 0 0 1 0 0 0 0 0 0 0 -1 -1.585859e-16 1.932808e-16 -1 -1.585859e-16 1.932808e-16 -1 -1.585859e-16 1.932808e-16 -1 -1.585859e-16 1.932808e-16 0 0 0 0 -1 0 0 -1 0 0 -1 0 0 -1 0 0 0 0 -1 0 0 -1 0 0 -1 0 0 -1 0 0 0 0 0 0 1 0 0 1 0 0 1 0 0 1 0 0 0 0 1 0 0 1 0 0 1 0 0 1 0 0 1 0 0 0 0 0 1 0 0 1 0 0 1 0 0 1 0 0 0 0 0</float_array>
                    <technique_common>
                        <accessor count="89" source="#ID17" stride="3">
                            <param name="X" type="float" />
                            <param name="Y" type="float" />
                            <param name="Z" type="float" />
                        </accessor>
                    </technique_common>
                </source>
                <source id="ID13">
                    <float_array id="ID18" count="110">2.707168e-16 5.19 7.219114e-16 0 13.27879 0 13.27879 5.19 16 -6.415809e-32 16 5.19 8.64 5.19 8.64 -6.062786e-32 0 8.559078 -8.64 5.19 -16 5.19 -16 0 -8.64 0 0 4.3 -12.27879 8.64 -4.088952 8.64 -4.088952 5.154251 -11.22895 5.154251 -11.22895 0.8742514 -3.088952 0.8742514 -3.088952 8.64 6.567792e-15 8.64 6.658031e-15 16 -13.27879 16 -13.27879 8.64 -7.219114e-16 0 -3.609557e-16 5.19 -3.088952 5.19 -3.088952 0 13.27879 3.109482 12.27879 3.109482 12.27879 -6.164152 13.27879 -6.164152 -4.088952 0 -4.088952 5.19 -12.27879 5.19 -12.27879 0 -5.154251 5.19 -8.64 5.19 -8.64 7.903162e-16 -5.154251 1.75 11.22895 5.19 4.088952 5.19 4.088952 1.75 11.22895 1.75 -0.8742514 5.19 -5.154251 1.75 -0.8742514 1.75 -11.22895 5.19 -11.22895 1.75 -3.088952 1.75 0.8742514 1.75 5.154251 1.75 8.64 0 0.8742514 5.19</float_array>
                    <technique_common>
                        <accessor count="55" source="#ID18" stride="2">
                            <param name="S" type="float" />
                            <param name="T" type="float" />
                        </accessor>
                    </technique_common>
                </source>
                <vertices id="ID12">
                    <input semantic="POSITION" source="#ID10" />
                    <input semantic="NORMAL" source="#ID11" />
                </vertices>
                <polylist count="13" material="Material2">
                    <input offset="0" semantic="VERTEX" source="#ID12" />
                    <input offset="1" semantic="TEXCOORD" source="#ID13" />
                    <vcount>4 4 6 11 4 4 4 4 4 4 4 5 4</vcount>
                    <p>0 0 1 1 2 2 3 3 8 4 9 5 10 6 11 7 14 8 15 9 16 10 17 11 18 12 19 13 24 14 25 15 26 16 27 17 28 18 29 19 30 20 31 21 32 22 33 23 34 24 42 25 43 26 44 27 45 28 47 29 48 30 49 31 50 32 52 33 53 34 54 35 55 36 58 37 59 38 60 39 61 40 63 41 64 42 65 43 66 44 68 45 69 37 70 46 71 47 73 27 74 48 75 49 76 50 78 51 79 52 80 53 81 6 82 54 84 53 85 6 86 8 87 13</p>
                </polylist>
                <lines count="39" material="Material3">
                    <input offset="0" semantic="VERTEX" source="#ID12" />
                    <p>4 5 6 4 7 6 7 5 12 5 12 13 4 13 20 21 20 7 22 6 23 22 21 23 35 36 37 35 38 37 39 38 40 39 41 40 41 12 36 20 46 41 46 13 21 51 36 51 56 35 36 57 57 56 56 62 62 37 67 62 38 67 72 67 39 72 77 72 40 77 83 77 83 46 51 88 57 88</p>
                </lines>
            </mesh>
        </geometry>
        <geometry id="ID19">
            <mesh>
                <source id="ID25">
                    <float_array id="ID29" count="24">160.9824 202.9233 68.89764 160.9824 340.1575 0 121.6123 340.1575 0 121.6123 202.9233 68.89764 160.9824 340.1575 0 160.9824 202.9233 68.89764 121.6123 340.1575 0 121.6123 202.9233 68.89764</float_array>
                    <technique_common>
                        <accessor count="8" source="#ID29" stride="3">
                            <param name="X" type="float" />
                            <param name="Y" type="float" />
                            <param name="Z" type="float" />
                        </accessor>
                    </technique_common>
                </source>
                <source id="ID26">
                    <float_array id="ID30" count="24">4.55593e-18 0.4486745 0.8936952 4.55593e-18 0.4486745 0.8936952 4.55593e-18 0.4486745 0.8936952 4.55593e-18 0.4486745 0.8936952 0 0 0 0 0 0 0 0 0 0 0 0</float_array>
                    <technique_common>
                        <accessor count="8" source="#ID30" stride="3">
                            <param name="X" type="float" />
                            <param name="Y" type="float" />
                            <param name="Z" type="float" />
                        </accessor>
                    </technique_common>
                </source>
                <source id="ID28">
                    <float_array id="ID31" count="8">-4.088952 -3.821149 -4.088952 -7.721527 -3.088952 -7.721527 -3.088952 -3.821149</float_array>
                    <technique_common>
                        <accessor count="4" source="#ID31" stride="2">
                            <param name="S" type="float" />
                            <param name="T" type="float" />
                        </accessor>
                    </technique_common>
                </source>
                <vertices id="ID27">
                    <input semantic="POSITION" source="#ID25" />
                    <input semantic="NORMAL" source="#ID26" />
                </vertices>
                <polylist count="1" material="Material2">
                    <input offset="0" semantic="VERTEX" source="#ID27" />
                    <input offset="1" semantic="TEXCOORD" source="#ID28" />
                    <vcount>4</vcount>
                    <p>0 0 1 1 2 2 3 3</p>
                </polylist>
                <lines count="4" material="Material3">
                    <input offset="0" semantic="VERTEX" source="#ID27" />
                    <p>4 5 6 4 7 6 5 7</p>
                </lines>
            </mesh>
        </geometry>
        <geometry id="ID32">
            <mesh>
                <source id="ID35">
                    <float_array id="ID38" count="30">121.6123 34.41935 68.89764 442.0847 34.41935 68.89764 442.0847 202.9233 68.89764 160.9824 202.9233 68.89764 121.6123 202.9233 68.89764 121.6123 34.41935 68.89764 442.0847 34.41935 68.89764 442.0847 202.9233 68.89764 160.9824 202.9233 68.89764 121.6123 202.9233 68.89764</float_array>
                    <technique_common>
                        <accessor count="10" source="#ID38" stride="3">
                            <param name="X" type="float" />
                            <param name="Y" type="float" />
                            <param name="Z" type="float" />
                        </accessor>
                    </technique_common>
                </source>
                <source id="ID36">
                    <float_array id="ID39" count="30">0 0 1 0 0 1 0 0 1 0 0 1 0 0 1 0 0 0 0 0 0 0 0 0 0 0 0 0 0 0</float_array>
                    <technique_common>
                        <accessor count="10" source="#ID39" stride="3">
                            <param name="X" type="float" />
                            <param name="Y" type="float" />
                            <param name="Z" type="float" />
                        </accessor>
                    </technique_common>
                </source>
                <vertices id="ID37">
                    <input semantic="POSITION" source="#ID35" />
                    <input semantic="NORMAL" source="#ID36" />
                </vertices>
                <polylist count="1" material="Material2">
                    <input offset="0" semantic="VERTEX" source="#ID37" />
                    <vcount>5</vcount>
                    <p>0 1 2 3 4</p>
                </polylist>
                <lines count="5" material="Material3">
                    <input offset="0" semantic="VERTEX" source="#ID37" />
                    <p>5 6 6 7 7 8 8 9 9 5</p>
                </lines>
            </mesh>
        </geometry>
        <geometry id="ID40">
            <mesh>
                <source id="ID41">
                    <float_array id="ID44" count="42">1.776357e-14 340.1575 0 121.6123 340.1575 0 160.9824 340.1575 0 483.4168 340.1575 0 522.7868 340.1575 0 522.7868 629.9213 0 1.776357e-14 629.9213 0 121.6123 340.1575 0 1.776357e-14 340.1575 0 160.9824 340.1575 0 483.4168 340.1575 0 522.7868 340.1575 0 522.7868 629.9213 0 1.776357e-14 629.9213 0</float_array>
                    <technique_common>
                        <accessor count="14" source="#ID44" stride="3">
                            <param name="X" type="float" />
                            <param name="Y" type="float" />
                            <param name="Z" type="float" />
                        </accessor>
                    </technique_common>
                </source>
                <source id="ID42">
                    <float_array id="ID45" count="42">0 0 1 0 0 1 0 0 1 0 0 1 0 0 1 0 0 1 0 0 1 0 0 0 0 0 0 0 0 0 0 0 0 0 0 0 0 0 0 0 0 0</float_array>
                    <technique_common>
                        <accessor count="14" source="#ID45" stride="3">
                            <param name="X" type="float" />
                            <param name="Y" type="float" />
                            <param name="Z" type="float" />
                        </accessor>
                    </technique_common>
                </source>
                <vertices id="ID43">
                    <input semantic="POSITION" source="#ID41" />
                    <input semantic="NORMAL" source="#ID42" />
                </vertices>
                <polylist count="1" material="Material2">
                    <input offset="0" semantic="VERTEX" source="#ID43" />
                    <vcount>7</vcount>
                    <p>0 1 2 3 4 5 6</p>
                </polylist>
                <lines count="7" material="Material3">
                    <input offset="0" semantic="VERTEX" source="#ID43" />
                    <p>7 8 7 9 10 9 11 10 11 12 12 13 13 8</p>
                </lines>
            </mesh>
        </geometry>
        <geometry id="ID46">
            <mesh>
                <source id="ID47">
                    <float_array id="ID51" count="24">483.4168 0 169.2913 522.7868 0 169.2913 522.7868 340.1575 0 483.4168 340.1575 0 483.4168 0 169.2913 522.7868 0 169.2913 522.7868 340.1575 0 483.4168 340.1575 0</float_array>
                    <technique_common>
                        <accessor count="8" source="#ID51" stride="3">
                            <param name="X" type="float" />
                            <param name="Y" type="float" />
                            <param name="Z" type="float" />
                        </accessor>
                    </technique_common>
                </source>
                <source id="ID48">
                    <float_array id="ID52" count="24">0 0.4455549 0.8952546 0 0.4455549 0.8952546 0 0.4455549 0.8952546 0 0.4455549 0.8952546 0 0 0 0 0 0 0 0 0 0 0 0</float_array>
                    <technique_common>
                        <accessor count="8" source="#ID52" stride="3">
                            <param name="X" type="float" />
                            <param name="Y" type="float" />
                            <param name="Z" type="float" />
                        </accessor>
                    </technique_common>
                </source>
                <source id="ID50">
                    <float_array id="ID53" count="8">-12.27879 1.915886 -13.27879 1.915886 -13.27879 -7.735 -12.27879 -7.735</float_array>
                    <technique_common>
                        <accessor count="4" source="#ID53" stride="2">
                            <param name="S" type="float" />
                            <param name="T" type="float" />
                        </accessor>
                    </technique_common>
                </source>
                <vertices id="ID49">
                    <input semantic="POSITION" source="#ID47" />
                    <input semantic="NORMAL" source="#ID48" />
                </vertices>
                <polylist count="1" material="Material2">
                    <input offset="0" semantic="VERTEX" source="#ID49" />
                    <input offset="1" semantic="TEXCOORD" source="#ID50" />
                    <vcount>4</vcount>
                    <p>0 0 1 1 2 2 3 3</p>
                </polylist>
                <lines count="4" material="Material3">
                    <input offset="0" semantic="VERTEX" source="#ID49" />
                    <p>4 5 5 6 6 7 7 4</p>
                </lines>
            </mesh>
        </geometry>
    </library_geometries>
    <library_materials>
        <material id="ID5" name="material_1">
            <instance_effect url="#ID6" />
        </material>
        <material id="ID14" name="edge_color000255">
            <instance_effect url="#ID15" />
        </material>
        <material id="ID20" name="material_2">
            <instance_effect url="#ID21" />
        </material>
        <material id="ID33" name="Chris_Shoe">
            <instance_effect url="#ID34" />
        </material>
    </library_materials>
    <library_effects>
        <effect id="ID6">
            <profile_COMMON>
                <newparam sid="ID8">
                    <surface type="2D">
                        <init_from>ID7</init_from>
                    </surface>
                </newparam>
                <newparam sid="ID9">
                    <sampler2D>
                        <source>ID8</source>
                    </sampler2D>
                </newparam>
                <technique sid="COMMON">
                    <lambert>
                        <diffuse>
                            <texture texture="ID9" texcoord="UVSET0" />
                        </diffuse>
                    </lambert>
                </technique>
            </profile_COMMON>
        </effect>
        <effect id="ID15">
            <profile_COMMON>
                <technique sid="COMMON">
                    <constant>
                        <transparent opaque="A_ONE">
                            <color>0 0 0 1</color>
                        </transparent>
                        <transparency>
                            <float>1</float>
                        </transparency>
                    </constant>
                </technique>
            </profile_COMMON>
        </effect>
        <effect id="ID21">
            <profile_COMMON>
                <newparam sid="ID23">
                    <surface type="2D">
                        <init_from>ID22</init_from>
                    </surface>
                </newparam>
                <newparam sid="ID24">
                    <sampler2D>
                        <source>ID23</source>
                    </sampler2D>
                </newparam>
                <technique sid="COMMON">
                    <lambert>
                        <diffuse>
                            <texture texture="ID24" texcoord="UVSET0" />
                        </diffuse>
                    </lambert>
                </technique>
            </profile_COMMON>
        </effect>
        <effect id="ID34">
            <profile_COMMON>
                <technique sid="COMMON">
                    <lambert>
                        <diffuse>
                            <color>0.09019608 0.08627451 0.08627451 1</color>
                        </diffuse>
                    </lambert>
                </technique>
            </profile_COMMON>
        </effect>
    </library_effects>
    <library_images>
        <image id="ID7">
            <init_from>DungeonItemRoom/material_1.png</init_from>
        </image>
        <image id="ID22">
            <init_from>DungeonItemRoom/material_2.png</init_from>
        </image>
    </library_images>
    <scene>
        <instance_visual_scene url="#ID2" />
    </scene>
</COLLADA>
