<?xml version="1.0" encoding="UTF-8" standalone="no" ?>
<COLLADA xmlns="http://www.collada.org/2005/11/COLLADASchema" version="1.4.1">
    <asset>
        <contributor>
            <authoring_tool>SketchUp 17.2.2555</authoring_tool>
        </contributor>
        <created>2018-01-24T20:50:17Z</created>
        <modified>2018-01-24T20:50:17Z</modified>
        <unit meter="0.0254" name="inch" />
        <up_axis>Z_UP</up_axis>
    </asset>
    <library_cameras>
        <camera id="ID1" name="skp_camera_Last_Saved_SketchUp_View">
            <optics>
                <technique_common>
                    <perspective>
                        <yfov>35</yfov>
                        <aspect_ratio>0</aspect_ratio>
                        <znear>1</znear>
                        <zfar>1000</zfar>
                    </perspective>
                </technique_common>
            </optics>
        </camera>
    </library_cameras>
    <library_visual_scenes>
        <visual_scene id="ID2">
            <node name="SketchUp">
                <node name="skp_camera_Last_Saved_SketchUp_View">
                    <matrix>0.9170834 -0.2031887 0.3430342 704.3587 0.3986955 0.4673768 -0.7890506 -1112.162 2.775558e-17 0.8603914 0.5096339 901.0005 0 0 0 1</matrix>
                    <instance_camera url="#ID1" />
                </node>
                <node id="ID3" name="group_0">
                    <matrix>1 0 0 0 0 1 0 0 0 0 1 0 0 0 0 1</matrix>
                    <instance_geometry url="#ID4">
                        <bind_material>
                            <technique_common>
                                <instance_material symbol="Material2" target="#ID5">
                                    <bind_vertex_input semantic="UVSET0" input_semantic="TEXCOORD" input_set="0" />
                                </instance_material>
                                <instance_material symbol="Material3" target="#ID16">
                                    <bind_vertex_input semantic="UVSET0" input_semantic="TEXCOORD" input_set="0" />
                                </instance_material>
                                <instance_material symbol="Material4" target="#ID17">
                                    <bind_vertex_input semantic="UVSET0" input_semantic="TEXCOORD" input_set="0" />
                                </instance_material>
                            </technique_common>
                        </bind_material>
                    </instance_geometry>
                    <instance_geometry url="#ID23">
                        <bind_material>
                            <technique_common>
                                <instance_material symbol="Material2" target="#ID16">
                                    <bind_vertex_input semantic="UVSET0" input_semantic="TEXCOORD" input_set="0" />
                                </instance_material>
                                <instance_material symbol="Material3" target="#ID24">
                                    <bind_vertex_input semantic="UVSET0" input_semantic="TEXCOORD" input_set="0" />
                                </instance_material>
                                <instance_material symbol="Material4" target="#ID17">
                                    <bind_vertex_input semantic="UVSET0" input_semantic="TEXCOORD" input_set="0" />
                                </instance_material>
                            </technique_common>
                        </bind_material>
                    </instance_geometry>
                    <instance_geometry url="#ID33">
                        <bind_material>
                            <technique_common>
                                <instance_material symbol="Material2" target="#ID16">
                                    <bind_vertex_input semantic="UVSET0" input_semantic="TEXCOORD" input_set="0" />
                                </instance_material>
                                <instance_material symbol="Material3" target="#ID34">
                                    <bind_vertex_input semantic="UVSET0" input_semantic="TEXCOORD" input_set="0" />
                                </instance_material>
                                <instance_material symbol="Material4" target="#ID17">
                                    <bind_vertex_input semantic="UVSET0" input_semantic="TEXCOORD" input_set="0" />
                                </instance_material>
                            </technique_common>
                        </bind_material>
                    </instance_geometry>
                    <instance_geometry url="#ID48">
                        <bind_material>
                            <technique_common>
                                <instance_material symbol="Material2" target="#ID16">
                                    <bind_vertex_input semantic="UVSET0" input_semantic="TEXCOORD" input_set="0" />
                                </instance_material>
                                <instance_material symbol="Material3" target="#ID34">
                                    <bind_vertex_input semantic="UVSET0" input_semantic="TEXCOORD" input_set="0" />
                                </instance_material>
                                <instance_material symbol="Material4" target="#ID17">
                                    <bind_vertex_input semantic="UVSET0" input_semantic="TEXCOORD" input_set="0" />
                                </instance_material>
                            </technique_common>
                        </bind_material>
                    </instance_geometry>
                </node>
            </node>
        </visual_scene>
    </library_visual_scenes>
    <library_geometries>
        <geometry id="ID4">
            <mesh>
                <source id="ID10">
                    <float_array id="ID19" count="324">522.7868 629.9213 204.3307 1.776357e-14 629.9213 0 522.7868 629.9213 0 0 629.9213 204.3307 0 629.9213 204.3307 522.7868 629.9213 204.3307 1.776357e-14 629.9213 0 522.7868 629.9213 0 1.776357e-14 629.9213 0 0 629.9213 204.3307 522.7868 629.9213 0 522.7868 629.9213 204.3307 1.776357e-14 629.9213 0 3.552714e-15 340.1575 204.3307 1.776357e-14 340.1575 0 0 629.9213 204.3307 0 629.9213 204.3307 1.776357e-14 629.9213 0 3.552714e-15 340.1575 204.3307 1.776357e-14 340.1575 0 3.552714e-15 340.1575 204.3307 1.776357e-14 340.1575 0 522.7868 629.9213 204.3307 522.7868 340.1575 0 522.7868 340.1575 204.3307 522.7868 629.9213 0 522.7868 629.9213 0 522.7868 629.9213 204.3307 522.7868 340.1575 0 522.7868 340.1575 204.3307 522.7868 340.1575 0 522.7868 340.1575 204.3307 522.7868 629.9213 204.3307 3.552714e-15 340.1575 204.3307 0 629.9213 204.3307 39.37008 340.1575 204.3307 483.4168 340.1575 204.3307 522.7868 340.1575 204.3307 522.7868 340.1575 204.3307 522.7868 629.9213 204.3307 483.4168 340.1575 204.3307 39.37008 340.1575 204.3307 3.552714e-15 340.1575 204.3307 0 629.9213 204.3307 483.4168 340.1575 204.3307 39.37008 340.1575 204.3307 1.776357e-14 340.1575 0 0 0 336.9716 0 0 169.2913 3.552714e-15 340.1575 204.3307 3.552714e-15 340.1575 204.3307 1.776357e-14 340.1575 0 0 0 336.9716 0 0 169.2913 0 0 336.9716 0 0 169.2913 522.7868 0 169.2913 522.7868 0 336.9716 522.7868 0 169.2913 522.7868 0 336.9716 522.7868 0 336.9716 522.7868 0 169.2913 522.7868 340.1575 204.3307 483.4168 0 336.9716 483.4168 340.1575 204.3307 522.7868 0 336.9716 522.7868 0 336.9716 522.7868 340.1575 204.3307 483.4168 0 336.9716 483.4168 340.1575 204.3307 483.4168 0 336.9716 39.37008 340.1575 204.3307 483.4168 340.1575 0 39.37008 340.1575 0 483.4168 340.1575 204.3307 483.4168 340.1575 204.3307 39.37008 340.1575 204.3307 483.4168 340.1575 0 39.37008 340.1575 0 39.37008 340.1575 0 483.4168 340.1575 0 3.552714e-15 340.1575 204.3307 39.37008 0 336.9716 0 0 336.9716 39.37008 340.1575 204.3307 39.37008 340.1575 204.3307 3.552714e-15 340.1575 204.3307 39.37008 0 336.9716 0 0 336.9716 39.37008 0 336.9716 483.4168 340.1575 0 483.4168 0 336.9716 483.4168 0 169.2913 483.4168 340.1575 204.3307 483.4168 340.1575 204.3307 483.4168 340.1575 0 483.4168 0 336.9716 483.4168 0 169.2913 483.4168 0 169.2913 39.37008 340.1575 204.3307 39.37008 0 169.2913 39.37008 0 336.9716 39.37008 340.1575 0 39.37008 340.1575 0 39.37008 340.1575 204.3307 39.37008 0 169.2913 39.37008 0 336.9716 39.37008 0 169.2913</float_array>
                    <technique_common>
                        <accessor count="108" source="#ID19" stride="3">
                            <param name="X" type="float" />
                            <param name="Y" type="float" />
                            <param name="Z" type="float" />
                        </accessor>
                    </technique_common>
                </source>
                <source id="ID11">
                    <float_array id="ID20" count="324">0 -1 0 0 -1 0 0 -1 0 0 -1 0 -0 1 -0 -0 1 -0 -0 1 -0 -0 1 -0 0 0 0 0 0 0 0 0 0 0 0 0 1 6.130362e-18 7.824184e-17 1 6.130362e-18 7.824184e-17 1 6.130362e-18 7.824184e-17 1 6.130362e-18 7.824184e-17 -1 -6.130362e-18 -7.824184e-17 -1 -6.130362e-18 -7.824184e-17 -1 -6.130362e-18 -7.824184e-17 -1 -6.130362e-18 -7.824184e-17 0 0 0 0 0 0 -1 0 0 -1 0 0 -1 0 0 -1 0 0 1 -0 -0 1 -0 -0 1 -0 -0 1 -0 -0 0 0 0 0 0 0 -9.194226e-16 0 -1 -9.194226e-16 0 -1 -9.194226e-16 0 -1 -9.194226e-16 0 -1 -9.194226e-16 0 -1 -9.194226e-16 0 -1 9.194226e-16 -0 1 9.194226e-16 -0 1 9.194226e-16 -0 1 9.194226e-16 -0 1 9.194226e-16 -0 1 9.194226e-16 -0 1 0 0 0 0 0 0 1 -1.288804e-17 4.156018e-17 1 -1.288804e-17 4.156018e-17 1 -1.288804e-17 4.156018e-17 1 -1.288804e-17 4.156018e-17 -1 1.288804e-17 -4.156018e-17 -1 1.288804e-17 -4.156018e-17 -1 1.288804e-17 -4.156018e-17 -1 1.288804e-17 -4.156018e-17 0 0 0 0 0 0 -1 0 0 -1 0 0 1 -0 -0 1 -0 -0 0 0 0 0 0 0 -1.353027e-14 -0.3632964 -0.9316736 -1.353027e-14 -0.3632964 -0.9316736 -1.353027e-14 -0.3632964 -0.9316736 -1.353027e-14 -0.3632964 -0.9316736 1.353027e-14 0.3632964 0.9316736 1.353027e-14 0.3632964 0.9316736 1.353027e-14 0.3632964 0.9316736 1.353027e-14 0.3632964 0.9316736 0 0 0 -0 1 -0 -0 1 -0 -0 1 -0 -0 1 -0 0 -1 0 0 -1 0 0 -1 0 0 -1 0 0 0 0 0 0 0 -1.356036e-14 -0.3632964 -0.9316736 -1.356036e-14 -0.3632964 -0.9316736 -1.356036e-14 -0.3632964 -0.9316736 -1.356036e-14 -0.3632964 -0.9316736 1.356036e-14 0.3632964 0.9316736 1.356036e-14 0.3632964 0.9316736 1.356036e-14 0.3632964 0.9316736 1.356036e-14 0.3632964 0.9316736 0 0 0 1 0 0 1 0 0 1 0 0 1 0 0 -1 -0 -0 -1 -0 -0 -1 -0 -0 -1 -0 -0 0 0 0 -1 0 0 -1 0 0 -1 0 0 -1 0 0 1 -0 -0 1 -0 -0 1 -0 -0 1 -0 -0 0 0 0</float_array>
                    <technique_common>
                        <accessor count="108" source="#ID20" stride="3">
                            <param name="X" type="float" />
                            <param name="Y" type="float" />
                            <param name="Z" type="float" />
                        </accessor>
                    </technique_common>
                </source>
                <source id="ID12">
                    <Name_array id="ID22" count="0" />
                    <technique_common>
                        <accessor count="0" source="#ID22" stride="1">
                            <param name="skp_material" type="Name" />
                        </accessor>
                    </technique_common>
                </source>
                <source id="ID14">
                    <float_array id="ID21" count="68">13.27879 5.19 7.219114e-16 0 13.27879 0 2.707168e-16 5.19 16 -6.415809e-32 8.64 5.19 8.64 -6.062786e-32 16 5.19 -16 5.19 -8.64 0 -8.64 5.19 -16 0 -13.27879 16 4.410848e-15 8.64 4.501087e-15 16 -1 8.64 -12.27879 8.64 -13.27879 8.64 8.64 -1.412389e-32 0 8.559078 0 4.3 13.27879 -6.164152 12.27879 3.109482 12.27879 -6.164152 13.27879 3.109482 -1 5.19 -12.27879 0 -1 0 -12.27879 5.19 12.27879 -6.164152 13.27879 3.109482 12.27879 3.109482 13.27879 -6.164152 8.64 0</float_array>
                    <technique_common>
                        <accessor count="34" source="#ID21" stride="2">
                            <param name="S" type="float" />
                            <param name="T" type="float" />
                        </accessor>
                    </technique_common>
                </source>
                <vertices id="ID13">
                    <input semantic="POSITION" source="#ID10" />
                    <input semantic="NORMAL" source="#ID11" />
                </vertices>
                <triangles count="24" material="Material2">
                    <input offset="0" semantic="VERTEX" source="#ID13" />
                    <input offset="1" semantic="TEXCOORD" source="#ID14" />
                    <p>0 0 1 1 2 2 1 1 0 0 3 3 12 4 13 5 14 6 13 5 12 4 15 7 22 8 23 9 24 10 23 9 22 8 25 11 32 12 33 13 34 14 33 13 32 12 35 15 35 15 32 12 36 16 36 16 32 12 37 17 46 18 47 19 48 20 47 19 46 18 49 5 24 10 56 20 57 19 56 20 24 10 23 9 62 21 63 22 64 23 63 22 62 21 65 24 71 25 72 26 73 27 72 26 71 25 74 28 81 29 82 30 83 31 82 30 81 29 84 32 90 33 91 19 92 20 91 19 90 33 93 5 99 10 100 20 101 19 100 20 99 10 102 9</p>
                </triangles>
                <triangles count="24" material="Material3">
                    <input offset="0" semantic="VERTEX" source="#ID13" />
                    <p>4 5 6 7 6 5 16 17 18 19 18 17 26 27 28 29 28 27 38 39 40 40 39 41 41 39 42 43 42 39 50 51 52 53 52 51 28 29 58 59 58 29 66 67 68 69 68 67 75 76 77 78 77 76 85 86 87 88 87 86 94 95 96 97 96 95 103 104 105 106 105 104</p>
                </triangles>
                <lines count="30" material="Material4">
                    <input offset="0" semantic="VERTEX" source="#ID13" />
                    <p>8 9 10 8 11 10 11 9 20 9 20 21 8 21 30 10 31 30 31 11 44 31 44 45 45 20 20 54 54 55 21 55 31 60 61 30 60 61 60 70 44 70 79 80 45 79 44 80 89 54 45 89 70 98 80 98 107 79 89 107</p>
                </lines>
            </mesh>
        </geometry>
        <geometry id="ID23">
            <mesh>
                <source id="ID26">
                    <float_array id="ID30" count="54">39.37008 340.1575 0 1.776357e-14 629.9213 0 1.776357e-14 340.1575 0 522.7868 629.9213 0 483.4168 340.1575 0 522.7868 340.1575 0 522.7868 340.1575 0 483.4168 340.1575 0 522.7868 629.9213 0 39.37008 340.1575 0 1.776357e-14 629.9213 0 1.776357e-14 340.1575 0 1.776357e-14 629.9213 0 1.776357e-14 340.1575 0 39.37008 340.1575 0 483.4168 340.1575 0 522.7868 340.1575 0 522.7868 629.9213 0</float_array>
                    <technique_common>
                        <accessor count="18" source="#ID30" stride="3">
                            <param name="X" type="float" />
                            <param name="Y" type="float" />
                            <param name="Z" type="float" />
                        </accessor>
                    </technique_common>
                </source>
                <source id="ID27">
                    <float_array id="ID31" count="54">-0 -0 1 -0 -0 1 -0 -0 1 -0 -0 1 -0 -0 1 -0 -0 1 0 0 -1 0 0 -1 0 0 -1 0 0 -1 0 0 -1 0 0 -1 0 0 0 0 0 0 0 0 0 0 0 0 0 0 0 0 0 0</float_array>
                    <technique_common>
                        <accessor count="18" source="#ID31" stride="3">
                            <param name="X" type="float" />
                            <param name="Y" type="float" />
                            <param name="Z" type="float" />
                        </accessor>
                    </technique_common>
                </source>
                <source id="ID28">
                    <Name_array id="ID32" count="0" />
                    <technique_common>
                        <accessor count="0" source="#ID32" stride="1">
                            <param name="skp_material" type="Name" />
                        </accessor>
                    </technique_common>
                </source>
                <vertices id="ID29">
                    <input semantic="POSITION" source="#ID26" />
                    <input semantic="NORMAL" source="#ID27" />
                </vertices>
                <triangles count="4" material="Material3">
                    <input offset="0" semantic="VERTEX" source="#ID29" />
                    <p>0 1 2 1 0 3 3 0 4 3 4 5</p>
                </triangles>
                <triangles count="4" material="Material2">
                    <input offset="0" semantic="VERTEX" source="#ID29" />
                    <p>6 7 8 7 9 8 8 9 10 11 10 9</p>
                </triangles>
                <lines count="6" material="Material4">
                    <input offset="0" semantic="VERTEX" source="#ID29" />
                    <p>12 13 13 14 14 15 16 15 16 17 17 12</p>
                </lines>
            </mesh>
        </geometry>
        <geometry id="ID33">
            <mesh>
                <source id="ID39">
                    <float_array id="ID44" count="36">522.7868 0 169.2913 483.4168 340.1575 0 483.4168 0 169.2913 522.7868 340.1575 0 522.7868 340.1575 0 522.7868 0 169.2913 483.4168 340.1575 0 483.4168 0 169.2913 483.4168 0 169.2913 522.7868 0 169.2913 522.7868 340.1575 0 483.4168 340.1575 0</float_array>
                    <technique_common>
                        <accessor count="12" source="#ID44" stride="3">
                            <param name="X" type="float" />
                            <param name="Y" type="float" />
                            <param name="Z" type="float" />
                        </accessor>
                    </technique_common>
                </source>
                <source id="ID40">
                    <float_array id="ID45" count="36">0 0.4455549 0.8952546 0 0.4455549 0.8952546 0 0.4455549 0.8952546 0 0.4455549 0.8952546 -0 -0.4455549 -0.8952546 -0 -0.4455549 -0.8952546 -0 -0.4455549 -0.8952546 -0 -0.4455549 -0.8952546 0 0 0 0 0 0 0 0 0 0 0 0</float_array>
                    <technique_common>
                        <accessor count="12" source="#ID45" stride="3">
                            <param name="X" type="float" />
                            <param name="Y" type="float" />
                            <param name="Z" type="float" />
                        </accessor>
                    </technique_common>
                </source>
                <source id="ID41">
                    <Name_array id="ID47" count="0" />
                    <technique_common>
                        <accessor count="0" source="#ID47" stride="1">
                            <param name="skp_material" type="Name" />
                        </accessor>
                    </technique_common>
                </source>
                <source id="ID43">
                    <float_array id="ID46" count="8">-13.27879 1.915886 -12.27879 -7.735 -12.27879 1.915886 -13.27879 -7.735</float_array>
                    <technique_common>
                        <accessor count="4" source="#ID46" stride="2">
                            <param name="S" type="float" />
                            <param name="T" type="float" />
                        </accessor>
                    </technique_common>
                </source>
                <vertices id="ID42">
                    <input semantic="POSITION" source="#ID39" />
                    <input semantic="NORMAL" source="#ID40" />
                </vertices>
                <triangles count="2" material="Material3">
                    <input offset="0" semantic="VERTEX" source="#ID42" />
                    <input offset="1" semantic="TEXCOORD" source="#ID43" />
                    <p>0 0 1 1 2 2 1 1 0 0 3 3</p>
                </triangles>
                <triangles count="2" material="Material2">
                    <input offset="0" semantic="VERTEX" source="#ID42" />
                    <p>4 5 6 7 6 5</p>
                </triangles>
                <lines count="4" material="Material4">
                    <input offset="0" semantic="VERTEX" source="#ID42" />
                    <p>8 9 9 10 10 11 11 8</p>
                </lines>
            </mesh>
        </geometry>
        <geometry id="ID48">
            <mesh>
                <source id="ID49">
                    <float_array id="ID54" count="36">39.37008 0 169.2913 1.776357e-14 340.1575 0 0 0 169.2913 39.37008 340.1575 0 39.37008 340.1575 0 39.37008 0 169.2913 1.776357e-14 340.1575 0 0 0 169.2913 0 0 169.2913 39.37008 0 169.2913 39.37008 340.1575 0 1.776357e-14 340.1575 0</float_array>
                    <technique_common>
                        <accessor count="12" source="#ID54" stride="3">
                            <param name="X" type="float" />
                            <param name="Y" type="float" />
                            <param name="Z" type="float" />
                        </accessor>
                    </technique_common>
                </source>
                <source id="ID50">
                    <float_array id="ID55" count="36">-1.270711e-16 0.4455549 0.8952546 -1.270711e-16 0.4455549 0.8952546 -1.270711e-16 0.4455549 0.8952546 -1.270711e-16 0.4455549 0.8952546 1.270711e-16 -0.4455549 -0.8952546 1.270711e-16 -0.4455549 -0.8952546 1.270711e-16 -0.4455549 -0.8952546 1.270711e-16 -0.4455549 -0.8952546 0 0 0 0 0 0 0 0 0 0 0 0</float_array>
                    <technique_common>
                        <accessor count="12" source="#ID55" stride="3">
                            <param name="X" type="float" />
                            <param name="Y" type="float" />
                            <param name="Z" type="float" />
                        </accessor>
                    </technique_common>
                </source>
                <source id="ID51">
                    <Name_array id="ID57" count="0" />
                    <technique_common>
                        <accessor count="0" source="#ID57" stride="1">
                            <param name="skp_material" type="Name" />
                        </accessor>
                    </technique_common>
                </source>
                <source id="ID53">
                    <float_array id="ID56" count="8">-13.27879 1.915886 -12.27879 -7.735 -12.27879 1.915886 -13.27879 -7.735</float_array>
                    <technique_common>
                        <accessor count="4" source="#ID56" stride="2">
                            <param name="S" type="float" />
                            <param name="T" type="float" />
                        </accessor>
                    </technique_common>
                </source>
                <vertices id="ID52">
                    <input semantic="POSITION" source="#ID49" />
                    <input semantic="NORMAL" source="#ID50" />
                </vertices>
                <triangles count="2" material="Material3">
                    <input offset="0" semantic="VERTEX" source="#ID52" />
                    <input offset="1" semantic="TEXCOORD" source="#ID53" />
                    <p>0 0 1 1 2 2 1 1 0 0 3 3</p>
                </triangles>
                <triangles count="2" material="Material2">
                    <input offset="0" semantic="VERTEX" source="#ID52" />
                    <p>4 5 6 7 6 5</p>
                </triangles>
                <lines count="4" material="Material4">
                    <input offset="0" semantic="VERTEX" source="#ID52" />
                    <p>8 9 9 10 11 10 11 8</p>
                </lines>
            </mesh>
        </geometry>
    </library_geometries>
    <library_materials>
        <material id="ID5" name="material_1">
            <instance_effect url="#ID6" />
        </material>
        <material id="ID16" name="material">
            <instance_effect url="#ID15" />
        </material>
        <material id="ID17" name="edge_color000255">
            <instance_effect url="#ID18" />
        </material>
        <material id="ID24" name="Chris_Shoe">
            <instance_effect url="#ID25" />
        </material>
        <material id="ID34" name="material_2">
            <instance_effect url="#ID35" />
        </material>
    </library_materials>
    <library_effects>
        <effect id="ID6">
            <profile_COMMON>
                <newparam sid="ID8">
                    <surface type="2D">
                        <init_from>ID7</init_from>
                    </surface>
                </newparam>
                <newparam sid="ID9">
                    <sampler2D>
                        <source>ID8</source>
                    </sampler2D>
                </newparam>
                <technique sid="COMMON">
                    <lambert>
                        <diffuse>
                            <texture texture="ID9" texcoord="UVSET0" />
                        </diffuse>
                    </lambert>
                </technique>
            </profile_COMMON>
        </effect>
        <effect id="ID15">
            <profile_COMMON>
                <technique sid="COMMON">
                    <lambert>
                        <diffuse>
                            <color>0.6431373 0.6980392 0.7333333 1</color>
                        </diffuse>
                    </lambert>
                </technique>
            </profile_COMMON>
        </effect>
        <effect id="ID18">
            <profile_COMMON>
                <technique sid="COMMON">
                    <constant>
                        <transparent opaque="A_ONE">
                            <color>0 0 0 1</color>
                        </transparent>
                        <transparency>
                            <float>1</float>
                        </transparency>
                    </constant>
                </technique>
            </profile_COMMON>
        </effect>
        <effect id="ID25">
            <profile_COMMON>
                <technique sid="COMMON">
                    <lambert>
                        <diffuse>
                            <color>0.09019608 0.08627451 0.08627451 1</color>
                        </diffuse>
                    </lambert>
                </technique>
            </profile_COMMON>
        </effect>
        <effect id="ID35">
            <profile_COMMON>
                <newparam sid="ID37">
                    <surface type="2D">
                        <init_from>ID36</init_from>
                    </surface>
                </newparam>
                <newparam sid="ID38">
                    <sampler2D>
                        <source>ID37</source>
                    </sampler2D>
                </newparam>
                <technique sid="COMMON">
                    <lambert>
                        <diffuse>
                            <texture texture="ID38" texcoord="UVSET0" />
                        </diffuse>
                    </lambert>
                </technique>
            </profile_COMMON>
        </effect>
    </library_effects>
    <library_images>
        <image id="ID7">
            <init_from>DungeonTravelRoom/material_1.png</init_from>
        </image>
        <image id="ID36">
            <init_from>DungeonTravelRoom/material_2.png</init_from>
        </image>
    </library_images>
    <scene>
        <instance_visual_scene url="#ID2" />
    </scene>
</COLLADA>
