# Alias OBJ Model File
# Exported from SketchUp, (c) 2000-2012 Trimble Navigation Limited
# File units = meters

mtllib C1 Mountains.mtl

g Mesh1 Model

usemtl FrontColor
v -113.044 -2.16573e-15 13.9766
vt 550.262 -8.52651e-14
vn -1 0 -0
v -113.044 -2.88765e-15 21.0066
vt 827.033 -1.13687e-13
v -113.044 4 13.9766
vt 550.262 157.48
f 1/1/1 2/2/1 3/3/1

v -113.964 -2.88765e-15 21.0066
vt 4486.77 -827.033
vn -8.09339e-45 -1 -1.0269e-16
v -113.964 -2.16573e-15 13.9766
vt 4486.77 -550.262
vt 4450.55 -550.262
vt 4450.55 -827.033
f 4/4/2 5/5/2 1/6/2 2/7/2 

vt -827.033 -1.13687e-13
vn 1 0 -0
vt -550.262 -8.52651e-14
v -113.964 4 13.9766
vt -550.262 157.48
f 4/8/3 5/9/3 6/10/3

usemtl _5
v -128 -2.09274e-15 13.9766
vt 128 -13.9766
vn -1.67592e-17 -1 -7.96128e-17
vt 113.964 -13.9766
vt 113.964 -21.0066
v -125.99 -2.09244e-15 21.0066
vt 125.99 -21.0066
v -128 -2.49018e-15 21.0066
vt 128 -21.0066
f 7/11/4 5/12/4 4/13/4 8/14/4 9/15/4 

vt -128 -2.49018e-15
vn 0 0 1
vt -125.99 -2.09244e-15
v -125.99 7 21.0066
vt -125.99 7
v -128 7 21.0066
vt -128 7
f 9/16/5 8/17/5 10/18/5 11/19/5 

vn 9.89401e-17 -1 1.8112e-17
v -125.99 -2.09244e-15 31.9866
vt 125.99 -31.9866
v -128 -2.09244e-15 31.9866
vt 128 -31.9866
f 8/14/6 12/20/6 13/21/6 9/15/6 

vt -31.9866 -2.09244e-15
vt -21.0066 -2.09244e-15
vt -21.0066 7
v -125.99 7 31.9866
vt -31.9866 7
f 12/22/3 8/23/3 10/24/3 14/25/3 

vt -125.99 -31.9866
vn 7.1832e-16 1 1.31496e-16
vt -125.99 -21.0066
vt -128 -21.0066
v -128 7 31.9866
vt -128 -31.9866
f 14/26/7 10/27/7 11/28/7 15/29/7 

vt 21.0066 -2.49018e-15
vt 31.9866 -2.09244e-15
vt 31.9866 7
vt 21.0066 7
f 9/30/1 13/31/1 15/32/1 11/33/1 

vt -128 -2.67178e-15
vn 0 1.8112e-17 1
vt -125.99 -2.67178e-15
f 13/34/8 12/35/8 14/18/8 15/19/8 

vt 13.9766 -2.09274e-15
v -128 7 13.9766
vt 13.9766 7
f 7/36/1 9/30/1 11/33/1 16/37/1 

vt 113.044 -2.16573e-15
vn 0 0 -1
vt 113.964 -2.16573e-15
vt 113.964 4
vt 113.044 4
f 1/38/9 5/39/9 6/40/9 3/41/9 

usemtl _7
vt -113.964 -18.258
vn -3.89766e-29 0.869155 0.49454
vt -113.044 -18.258
vt -113.044 -10.1697
vt -113.964 -10.1697
f 4/42/10 2/43/10 3/44/10 6/45/10 

usemtl _5
vt 113.044 -13.9766
vn -8.45982e-17 -1 -2.28745e-17
v -111.994 -2.88765e-15 13.9766
vt 111.994 -13.9766
v -111.994 -2.88765e-15 31.9866
vt 111.994 -31.9866
v -113.964 -2.88765e-15 31.9866
vt 113.964 -31.9866
v -113.964 -2.88765e-15 28.0066
vt 113.964 -28.0066
v -113.044 -2.88765e-15 28.0066
vt 113.044 -28.0066
vt 113.044 -21.0066
f 1/46/11 17/47/11 18/48/11 19/49/11 20/50/11 21/51/11 2/52/11 

vt -113.964 -2.15597e-15
vn 0 -2.28745e-17 1
vt -111.994 -2.15597e-15
v -111.994 7 31.9866
vt -111.994 7
v -113.964 7 31.9866
vt -113.964 7
f 19/53/12 18/54/12 22/55/12 23/56/12 

vt 28.0066 -1.25288e-14
vn -1 8.45982e-17 -0
vt 31.9866 -1.25288e-14
v -113.964 7 28.0066
vt 28.0066 7
f 20/57/13 19/58/13 23/32/13 24/59/13 

vt 113.044 -2.24701e-15
vn 0 2.28745e-17 -1
vt 113.964 -2.24701e-15
vt 113.964 7
v -113.044 7 28.0066
vt 113.044 7
f 21/60/14 20/61/14 24/62/14 25/63/14 

vt 21.0066 -1.2451e-14
vt 28.0066 -1.2451e-14
v -113.044 7 21.0066
f 2/64/13 21/65/13 25/59/13 26/33/13 

