# Alias OBJ Model File
# Exported from SketchUp, (c) 2000-2012 Trimble Navigation Limited
# File units = meters

mtllib A10 S Mountain.mtl

g Mesh1 A10_S_Mountain1 Model

usemtl _4
v 29.6333 -2.1659e-15 59.0055
vt -29.6333 -59.0055
vn -1.24519e-16 -1 -1.00168e-16
v 31.9961 -2.88891e-15 59.0055
vt -31.9961 -59.0055
v 31.9961 -2.49081e-15 64
vt -31.9961 -64
v 16.0459 -2.16573e-15 64
vt -16.0459 -64
v 16.0459 -2.16573e-15 62.65
vt -16.0459 -62.65
v 16.7445 3.68004e-16 61.9345
vt -16.7445 -61.9345
v 20.0545 3.68004e-16 61.9345
vt -20.0545 -61.9345
v 20.0545 3.68004e-16 61.6145
vt -20.0545 -61.6145
v 20.6712 -1.45152e-15 60.9867
vt -20.6712 -60.9867
v 21.2951 -2.1606e-15 61.0743
vt -21.2951 -61.0743
v 21.5692 -2.16571e-15 61.4561
vt -21.5692 -61.4561
v 21.7992 -2.16571e-15 61.4561
vt -21.7992 -61.4561
v 21.945 -2.16573e-15 61.6468
vt -21.945 -61.6468
v 21.945 -2.16573e-15 62.0405
vt -21.945 -62.0405
v 22.295 -2.16573e-15 62.0405
vt -22.295 -62.0405
v 22.5936 -2.16573e-15 62.4163
vt -22.5936 -62.4163
v 22.8063 -2.16573e-15 62.4163
vt -22.8063 -62.4163
v 22.9709 -2.16573e-15 62.6908
vt -22.9709 -62.6908
v 23.2095 -2.16573e-15 62.4776
vt -23.2095 -62.4776
v 23.647 -2.16573e-15 61.9968
vt -23.647 -61.9968
v 23.887 -2.16573e-15 61.9968
vt -23.887 -61.9968
v 27.997 -2.16573e-15 61.9968
vt -27.997 -61.9968
v 28.0765 -2.16573e-15 61.6457
vt -28.0765 -61.6457
v 28.6409 -2.88957e-15 60.9836
vt -28.6409 -60.9836
v 28.9909 -2.88957e-15 60.9836
vt -28.9909 -60.9836
v 28.9909 -2.88957e-15 59.65
vt -28.9909 -59.65
f 1/1/1 2/2/1 3/3/1 4/4/1 5/5/1 6/6/1 7/7/1 8/8/1 9/9/1 10/10/1 11/11/1 12/12/1 13/13/1 14/14/1 15/15/1 16/16/1 17/17/1 18/18/1 19/19/1 20/20/1 21/21/1 22/22/1 23/23/1 24/24/1 25/25/1 26/26/1 

vt -31.9961 3.02153e-15
vn 3.06502e-32 1.00168e-16 -1
vt -29.6333 3.74454e-15
v 29.6333 4 59.0055
vt -29.6333 4
v 31.9961 4 59.0055
vt -31.9961 4
f 2/27/2 1/28/2 27/29/2 28/30/2 

vt 20.8745 7.78833e-15
vn -0.708293 1.58906e-16 -0.705918
vt 21.7845 7.06465e-15
v 28.9909 4 59.65
vt 21.7845 4
vt 20.8745 4
f 1/31/3 26/32/3 29/33/3 27/34/3 

vt 59.65 7.20352e-16
vn -1 1.24519e-16 -0
vt 60.9836 7.20352e-16
v 28.9909 4 60.9836
vt 60.9836 4
vt 59.65 4
f 26/35/4 25/36/4 30/37/4 29/38/4 

vt -28.9909 3.21901e-15
vn 0 1.00168e-16 -1
vt -28.6409 3.21901e-15
v 28.6409 4 60.9836
vt -28.6409 4
vt -28.9909 4
f 25/39/5 24/40/5 31/41/5 30/42/5 

vt 27.8357 6.91155e-15
vn -0.761085 1.59744e-16 -0.648653
vt 28.7057 7.63538e-15
v 28.0765 4 61.6457
vt 28.7057 4
vt 27.8357 4
f 24/43/6 23/44/6 32/45/6 31/46/6 

vt 53.9178 3.72148e-15
vn -0.97528 1.43575e-16 -0.220971
vt 54.2778 3.72148e-15
v 27.997 4 61.9968
vt 54.2778 4
vt 53.9178 4
f 23/47/7 22/48/7 33/49/7 32/50/7 

vt -27.997 4.04434e-15
vt -23.887 4.04434e-15
v 23.887 4 61.9968
vt -23.887 4
vt -27.997 4
f 22/51/5 21/52/5 34/53/5 33/54/5 

vt -23.647 4.04434e-15
v 23.647 4 61.9968
vt -23.647 4
f 21/52/5 20/55/5 35/56/5 34/53/5 

vt 29.9388 7.27983e-15
vn -0.739617 1.59512e-16 -0.673028
vt 30.5888 7.27983e-15
v 23.2095 4 62.4776
vt 30.5888 4
vt 29.9388 4
f 20/57/8 19/58/8 36/59/8 35/60/8 

vt 24.3208 7.61761e-15
vn -0.666288 1.5766e-16 -0.745695
vt 24.6408 7.61761e-15
v 22.9709 4 62.6908
vt 24.6408 4
vt 24.3208 4
f 19/61/9 18/62/9 37/63/9 36/64/9 

vt -65.5776 -2.85904e-15
vn 0.857585 -5.52655e-17 -0.514342
vt -65.2576 -2.85904e-15
v 22.8063 4 62.4163
vt -65.2576 4
vt -65.5776 4
f 18/65/10 17/66/10 38/67/10 37/68/10 

vt -22.8063 4.08636e-15
vt -22.5936 4.08636e-15
v 22.5936 4 62.4163
vt -22.5936 4
vt -22.8063 4
f 17/69/5 16/70/5 39/71/5 38/72/5 

vt -62.9224 -2.9093e-15
vn 0.782902 -3.51675e-17 -0.622145
vt -62.4424 -2.9093e-15
v 22.295 4 62.0405
vt -62.4424 4
vt -62.9224 4
f 16/73/11 15/74/11 40/75/11 39/76/11 

vt -22.295 4.04872e-15
vt -21.945 4.04872e-15
v 21.945 4 62.0405
vt -21.945 4
vt -22.295 4
f 15/77/5 14/78/5 41/79/5 40/80/5 

vt -62.0405 5.66842e-16
vn 1 -1.24519e-16 -0
vt -61.6468 5.66842e-16
v 21.945 4 61.6468
vt -61.6468 4
vt -62.0405 4
f 14/81/12 13/82/12 42/83/12 41/84/12 

vt -62.3024 -2.92772e-15
vn 0.794429 -3.80842e-17 -0.607357
vt -62.0624 -2.92769e-15
v 21.7992 4 61.4561
vt -62.0624 4
vt -62.3024 4
f 13/85/13 12/86/13 43/87/13 42/88/13 

vt -21.7992 3.9902e-15
vt -21.5692 3.9902e-15
v 21.5692 4 61.4561
vt -21.5692 4
vt -21.7992 4
f 12/89/5 11/90/5 44/91/5 43/92/5 

vt -62.4981 -2.94854e-15
vn 0.812215 -4.27027e-17 -0.583359
vt -62.0281 -2.94343e-15
v 21.2951 4 61.0743
vt -62.0281 4
vt -62.4981 4
f 11/93/14 10/94/14 45/95/14 44/96/14 

vt -29.5818 2.54893e-15
vn 0.13907 8.18773e-17 -0.990283
vt -28.9518 3.25801e-15
v 20.6712 4 60.9867
vt -28.9518 4
vt -29.5818 4
f 10/97/15 9/98/15 46/99/15 45/100/15 

vt 29.0189 7.69007e-15
vn -0.713357 1.59024e-16 -0.700801
vt 29.8989 9.50959e-15
v 20.0545 4 61.6145
vt 29.8989 4
vt 29.0189 4
f 9/101/16 8/102/16 47/103/16 46/104/16 

vt 61.6145 2.86517e-15
vt 61.9345 2.86517e-15
v 20.0545 4 61.9345
vt 61.9345 4
vt 61.6145 4
f 8/105/4 7/106/4 48/107/4 47/108/4 

vt -20.0545 6.57183e-15
vt -16.7445 6.57183e-15
v 16.7445 4 61.9345
vt -16.7445 4
vt -20.0545 4
f 7/109/5 6/110/5 49/111/5 48/112/5 

vt 32.6173 9.15647e-15
vn -0.715514 1.59072e-16 -0.698599
vt 33.6173 6.62273e-15
v 16.0459 4 62.65
vt 33.6173 4
vt 32.6173 4
f 6/113/17 5/114/17 50/115/17 49/116/17 

vt 62.65 -1.67712e-16
vt 64 -1.67712e-16
v 16.0459 4 64
vt 64 4
vt 62.65 4
f 5/117/4 4/118/4 51/119/4 50/120/4 

vt 16.0459 4.24499e-15
vn -2.0415e-33 -1.00168e-16 1
vt 31.9961 3.91991e-15
v 31.9961 4 64
vt 31.9961 4
vt 16.0459 4
f 4/121/18 3/122/18 52/123/18 51/124/18 

vt -64 1.49332e-15
vn 1 -1.24519e-16 1.15633e-15
vt -59.0055 1.09522e-15
vt -59.0055 4
vt -64 4
f 3/125/19 2/126/19 28/127/19 52/128/19 

vt 31.9961 -59.0055
vn 1.24519e-16 1 1.00168e-16
vt 29.6333 -59.0055
vt 28.9909 -59.65
vt 28.9909 -60.9836
vt 28.6409 -60.9836
vt 28.0765 -61.6457
vt 27.997 -61.9968
vt 23.887 -61.9968
vt 23.647 -61.9968
vt 23.2095 -62.4776
vt 22.9709 -62.6908
vt 22.8063 -62.4163
vt 22.5936 -62.4163
vt 22.295 -62.0405
vt 21.945 -62.0405
vt 21.945 -61.6468
vt 21.7992 -61.4561
vt 21.5692 -61.4561
vt 21.2951 -61.0743
vt 20.6712 -60.9867
vt 20.0545 -61.6145
vt 20.0545 -61.9345
vt 16.7445 -61.9345
vt 16.0459 -62.65
vt 16.0459 -64
vt 31.9961 -64
f 28/129/20 27/130/20 29/131/20 30/132/20 31/133/20 32/134/20 33/135/20 34/136/20 35/137/20 36/138/20 37/139/20 38/140/20 39/141/20 40/142/20 41/143/20 42/144/20 43/145/20 44/146/20 45/147/20 46/148/20 47/149/20 48/150/20 49/151/20 50/152/20 51/153/20 52/154/20 

