# Alias OBJ Model File
# Exported from SketchUp, (c) 2000-2012 Trimble Navigation Limited
# File units = meters

mtllib A10 N Mountain.mtl

g Mesh1 A10_N_Mountain1 Model

usemtl _4
v 16.3425 -2.16573e-15 49.6601
vt 16.3425 -2.16573e-15
vn 0 0 1
v 16.7025 -2.16573e-15 49.6601
vt 16.7025 -2.16573e-15
v 16.7025 4 49.6601
vt 16.7025 4
v 16.3425 4 49.6601
vt 16.3425 4
f 1/1/1 2/2/1 3/3/1 4/4/1 

v 16.0459 -2.16573e-15 48.0182
vt -16.0459 -48.0182
vn 6.5159e-17 -1 -6.71315e-17
v 31.9961 -1.44382e-15 48.0182
vt -31.9961 -48.0182
v 31.9961 -1.44382e-15 52.981
vt -31.9961 -52.981
v 29.8761 -1.44382e-15 52.981
vt -29.8761 -52.981
v 29.7677 -1.44382e-15 52.7447
vt -29.7677 -52.7447
v 29.3502 -1.44382e-15 52.642
vt -29.3502 -52.642
v 28.9953 -1.44382e-15 52.3819
vt -28.9953 -52.3819
v 28.9953 -1.44382e-15 51.0119
vt -28.9953 -51.0119
v 28.7465 -1.44382e-15 50.7802
vt -28.7465 -50.7802
v 28.3304 -1.44382e-15 50.6372
vt -28.3304 -50.6372
v 27.9882 -1.44382e-15 50.3937
vt -27.9882 -50.3937
v 27.9882 -1.44382e-15 49.9837
vt -27.9882 -49.9837
v 23.8882 -1.44382e-15 49.9837
vt -23.8882 -49.9837
v 23.7295 -1.44382e-15 49.6274
vt -23.7295 -49.6274
v 23.3602 -1.44382e-15 49.6274
vt -23.3602 -49.6274
v 23.0472 -1.44382e-15 49.3948
vt -23.0472 -49.3948
v 22.9289 -1.44139e-15 49.0974
vt -22.9289 -49.0974
v 22.3475 -2.16573e-15 49.8739
vt -22.3475 -49.8739
v 21.9238 -2.16573e-15 49.8739
vt -21.9238 -49.8739
v 21.9238 -2.16573e-15 53.274
vt -21.9238 -53.274
v 21.5556 -2.16573e-15 53.4762
vt -21.5556 -53.4762
v 21.5556 -2.16573e-15 53.6762
vt -21.5556 -53.6762
v 21.3899 -2.16573e-15 53.8051
vt -21.3899 -53.8051
v 20.9389 -2.16573e-15 53.9695
vt -20.9389 -53.9695
v 20.7158 -2.16573e-15 53.7264
vt -20.7158 -53.7264
v 20.3521 -2.16573e-15 53.6586
vt -20.3521 -53.6586
v 19.9952 -2.16573e-15 53.3845
vt -19.9952 -53.3845
v 19.9952 -2.16573e-15 52.9745
vt -19.9952 -52.9745
v 19.8861 -2.16573e-15 52.9745
vt -19.8861 -52.9745
v 19.7879 -2.16573e-15 52.723
vt -19.7879 -52.723
v 19.5079 -2.16573e-15 52.723
vt -19.5079 -52.723
v 18.9719 -2.16573e-15 52.4114
vt -18.9719 -52.4114
v 18.9719 -2.16573e-15 52.0023
vt -18.9719 -52.0023
v 18.7618 -2.16573e-15 51.7479
vt -18.7618 -51.7479
v 18.3756 -2.16573e-15 51.6438
vt -18.3756 -51.6438
v 18.0203 -2.16573e-15 51.4016
vt -18.0203 -51.4016
v 18.0203 -2.16573e-15 50.9452
vt -18.0203 -50.9452
v 17.8803 -2.16573e-15 50.9452
vt -17.8803 -50.9452
v 17.7535 -2.16573e-15 50.6956
vt -17.7535 -50.6956
v 17.5235 -2.16573e-15 50.6956
vt -17.5235 -50.6956
v 17.0393 -2.16573e-15 50.3948
vt -17.0393 -50.3948
v 17.0393 -2.16573e-15 50.0148
vt -17.0393 -50.0148
v 16.8918 -2.16573e-15 49.9304
vt -16.8918 -49.9304
vt -16.7025 -49.6601
vt -16.3425 -49.6601
v 16.1859 -2.16573e-15 49.4782
vt -16.1859 -49.4782
v 16.0459 -2.16573e-15 49.4782
vt -16.0459 -49.4782
f 5/5/2 6/6/2 7/7/2 8/8/2 9/9/2 10/10/2 11/11/2 12/12/2 13/13/2 14/14/2 15/15/2 16/16/2 17/17/2 18/18/2 19/19/2 20/20/2 21/21/2 22/22/2 23/23/2 24/24/2 25/25/2 26/26/2 27/27/2 28/28/2 29/29/2 30/30/2 31/31/2 32/32/2 33/33/2 34/34/2 35/35/2 36/36/2 37/37/2 38/38/2 39/39/2 40/40/2 41/41/2 42/42/2 43/43/2 44/44/2 45/45/2 46/46/2 47/47/2 2/48/2 1/49/2 48/50/2 49/51/2 

vt -31.9961 -1.44382e-15
vn 0 0 -1
vt -16.0459 -2.16573e-15
v 16.0459 4 48.0182
vt -16.0459 4
v 31.9961 4 48.0182
vt -31.9961 4
f 6/52/3 5/53/3 50/54/3 51/55/3 

vt 48.0182 9.41797e-15
vn -1 7.21911e-16 -0
vt 49.4782 9.41797e-15
v 16.0459 4 49.4782
vt 49.4782 4
vt 48.0182 4
f 5/56/4 49/57/4 52/58/4 50/59/4 

vt 16.0459 -2.16573e-15
vt 16.1859 -2.16573e-15
v 16.1859 4 49.4782
vt 16.1859 4
vt 16.0459 4
f 49/60/1 48/61/1 53/62/1 52/63/1 

vt 48.056 -1.31181e-14
vn -0.757812 5.47141e-16 0.652473
vt 48.296 -1.31181e-14
vt 48.296 4
vt 48.056 4
f 48/64/5 1/65/5 4/66/5 53/67/5 

v 29.8761 4 52.981
vt 29.8761 -52.981
vn 2.89316e-17 1 -2.63673e-17
v 31.9961 4 52.981
vt 31.9961 -52.981
vt 31.9961 -48.0182
vt 16.0459 -48.0182
vt 16.0459 -49.4782
vt 16.1859 -49.4782
vt 16.3425 -49.6601
vt 16.7025 -49.6601
v 16.8918 4 49.9304
vt 16.8918 -49.9304
v 17.0393 4 50.0148
vt 17.0393 -50.0148
v 17.0393 4 50.3948
vt 17.0393 -50.3948
v 17.5235 4 50.6956
vt 17.5235 -50.6956
v 17.7535 4 50.6956
vt 17.7535 -50.6956
v 17.8803 4 50.9452
vt 17.8803 -50.9452
v 18.0203 4 50.9452
vt 18.0203 -50.9452
v 18.0203 4 51.4016
vt 18.0203 -51.4016
v 18.3756 4 51.6438
vt 18.3756 -51.6438
v 18.7618 4 51.7479
vt 18.7618 -51.7479
v 18.9719 4 52.0023
vt 18.9719 -52.0023
v 18.9719 4 52.4114
vt 18.9719 -52.4114
v 19.5079 4 52.723
vt 19.5079 -52.723
v 19.7879 4 52.723
vt 19.7879 -52.723
v 19.8861 4 52.9745
vt 19.8861 -52.9745
v 19.9952 4 52.9745
vt 19.9952 -52.9745
v 19.9952 4 53.3845
vt 19.9952 -53.3845
v 20.3521 4 53.6586
vt 20.3521 -53.6586
v 20.7158 4 53.7264
vt 20.7158 -53.7264
v 20.9389 4 53.9695
vt 20.9389 -53.9695
v 21.3899 4 53.8051
vt 21.3899 -53.8051
v 21.5556 4 53.6762
vt 21.5556 -53.6762
v 21.5556 4 53.4762
vt 21.5556 -53.4762
v 21.9238 4 53.274
vt 21.9238 -53.274
v 21.9238 4 49.8739
vt 21.9238 -49.8739
v 22.3475 4 49.8739
vt 22.3475 -49.8739
v 22.9289 4 49.0974
vt 22.9289 -49.0974
v 23.0472 4 49.3948
vt 23.0472 -49.3948
v 23.3602 4 49.6274
vt 23.3602 -49.6274
v 23.7295 4 49.6274
vt 23.7295 -49.6274
v 23.8882 4 49.9837
vt 23.8882 -49.9837
v 27.9882 4 49.9837
vt 27.9882 -49.9837
v 27.9882 4 50.3937
vt 27.9882 -50.3937
v 28.3304 4 50.6372
vt 28.3304 -50.6372
v 28.7465 4 50.7802
vt 28.7465 -50.7802
v 28.9953 4 51.0119
vt 28.9953 -51.0119
v 28.9953 4 52.3819
vt 28.9953 -52.3819
v 29.3502 4 52.642
vt 29.3502 -52.642
v 29.7677 4 52.7447
vt 29.7677 -52.7447
f 54/68/6 55/69/6 51/70/6 50/71/6 52/72/6 53/73/6 4/74/6 3/75/6 56/76/6 57/77/6 58/78/6 59/79/6 60/80/6 61/81/6 62/82/6 63/83/6 64/84/6 65/85/6 66/86/6 67/87/6 68/88/6 69/89/6 70/90/6 71/91/6 72/92/6 73/93/6 74/94/6 75/95/6 76/96/6 77/97/6 78/98/6 79/99/6 80/100/6 81/101/6 82/102/6 83/103/6 84/104/6 85/105/6 86/106/6 87/107/6 88/108/6 89/109/6 90/110/6 91/111/6 92/112/6 93/113/6 94/114/6 

vt 29.8761 -1.44382e-15
vt 31.9961 -1.44382e-15
vt 31.9961 4
vt 29.8761 4
f 8/115/1 7/116/1 55/117/1 54/118/1 

usemtl FrontColor
vt -38.9177 157.48
vn -1 0 -0
vt -234.304 157.48
vt -234.304 2.84217e-14
vt -38.9177 2.84217e-14
f 55/119/7 51/120/7 6/121/7 7/122/7 

usemtl _4
vt 60.3524 -1.44382e-15
vn -0.908967 0 0.416868
vt 60.6124 -1.44382e-15
vt 60.6124 4
vt 60.3524 4
f 9/123/8 8/124/8 54/125/8 94/126/8 

vt 41.0718 -1.44382e-15
vn -0.238795 0 0.97107
vt 41.5018 -1.44382e-15
vt 41.5018 4
vt 41.0718 4
f 10/127/9 9/128/9 94/129/9 93/130/9 

vt 54.353 -1.44382e-15
vn -0.591181 0 0.806539
vt 54.793 -1.44382e-15
vt 54.793 4
vt 54.353 4
f 11/131/10 10/132/10 93/133/10 92/134/10 

vt 51.0119 -1.44382e-15
vt 52.3819 -1.44382e-15
vt 52.3819 4
vt 51.0119 4
f 12/135/7 11/136/7 92/137/7 91/138/7 

vt 55.6461 -1.44382e-15
vn -0.681593 0 0.731731
vt 55.9861 -1.44382e-15
vt 55.9861 4
vt 55.6461 4
f 13/139/11 12/140/11 91/141/11 90/142/11 

vt 43.2489 -1.44382e-15
vn -0.324984 0 0.945719
vt 43.6889 -1.44382e-15
vt 43.6889 4
vt 43.2489 4
f 14/143/12 13/144/12 90/145/12 89/146/12 

vt 52.0177 -1.44382e-15
vn -0.579662 0 0.814857
vt 52.4377 -1.44382e-15
vt 52.4377 4
vt 52.0177 4
f 15/147/13 14/148/13 89/149/13 88/150/13 

vt 49.9837 -1.44382e-15
vt 50.3937 -1.44382e-15
vt 50.3937 4
vt 49.9837 4
f 16/151/7 15/152/7 88/153/7 87/154/7 

vt 23.8882 -1.44382e-15
vt 27.9882 -1.44382e-15
vt 27.9882 4
vt 23.8882 4
f 17/155/1 16/156/1 87/157/1 86/158/1 

vt 54.9886 -4.60861e-16
vn -0.913545 6.58534e-16 0.406738
vt 55.3786 -4.60861e-16
vt 55.3786 4
vt 54.9886 4
f 18/159/14 17/160/14 86/161/14 85/162/14 

vt 23.3602 -1.44382e-15
vt 23.7295 -1.44382e-15
vt 23.7295 4
vt 23.3602 4
f 19/163/1 18/164/1 85/165/1 84/166/1 

vt 47.9626 -1.25615e-14
vn -0.596521 4.29322e-16 0.802597
vt 48.3526 -1.25615e-14
vt 48.3526 4
vt 47.9626 4
f 20/167/15 19/168/15 84/169/15 83/170/15 

vt 54.095 6.82276e-16
vn -0.929235 6.70909e-16 0.36949
vt 54.415 6.79842e-16
vt 54.415 4
vt 54.095 4
f 21/171/16 20/172/16 83/173/16 82/174/16 

vt -26.527 2.55376e-14
vn 0.800457 -5.79783e-16 0.599391
vt -25.557 2.62619e-14
vt -25.557 4
vt -26.527 4
f 22/175/17 21/176/17 82/177/17 81/178/17 

vt 21.9238 -2.16573e-15
vt 22.3475 -2.16573e-15
vt 22.3475 4
vt 21.9238 4
f 23/179/1 22/180/1 81/181/1 80/182/1 

vt -53.274 1.36613e-14
vn 1 -7.21911e-16 -0
vt -49.8739 1.36613e-14
vt -49.8739 4
vt -53.274 4
f 24/183/18 23/184/18 80/185/18 79/186/18 

vt -6.84982 1.77955e-14
vn 0.481399 -3.48674e-16 0.876502
vt -6.42982 1.77955e-14
vt -6.42982 4
vt -6.84982 4
f 25/187/19 24/188/19 79/189/19 78/190/19 

vt -53.6762 1.33955e-14
vt -53.4762 1.33955e-14
vt -53.4762 4
vt -53.6762 4
f 26/191/18 25/192/18 78/193/18 77/194/18 

vt -16.156 2.25627e-14
vn 0.61404 -4.44746e-16 0.789275
vt -15.946 2.25627e-14
vt -15.946 4
vt -16.156 4
f 27/195/20 26/196/20 77/197/20 76/198/20 

vt 1.18589 1.20115e-14
vn 0.342533 -2.44954e-16 0.939506
vt 1.66589 1.20115e-14
vt 1.66589 4
vt 1.18589 4
f 28/199/21 27/200/21 76/201/21 75/202/21 

vt 53.5928 -1.33334e-14
vn -0.736833 5.30306e-16 0.676075
vt 53.9228 -1.33334e-14
vt 53.9228 4
vt 53.5928 4
f 29/203/22 28/204/22 75/205/22 74/206/22 

vt 29.84 -8.63062e-15
vn -0.183242 1.31881e-16 0.983068
vt 30.21 -8.63062e-15
vt 30.21 4
vt 29.84 4
f 30/207/23 29/208/23 74/209/23 73/210/23 

vt 48.3747 -1.54712e-14
vn -0.609103 4.4117e-16 0.793091
vt 48.8247 -1.54712e-14
vt 48.8247 4
vt 48.3747 4
f 31/211/24 30/212/24 73/213/24 72/214/24 

vt 52.9745 1.2269e-14
vt 53.3845 1.2269e-14
vt 53.3845 4
vt 52.9745 4
f 32/215/4 31/216/4 72/217/4 71/218/4 

vt 19.8861 -2.16573e-15
vt 19.9952 -2.16573e-15
vt 19.9952 4
vt 19.8861 4
f 33/219/1 32/220/1 71/221/1 70/222/1 

vt 56.3093 -2.65562e-15
vn -0.931608 6.72623e-16 0.363465
vt 56.5793 -2.65562e-15
vt 56.5793 4
vt 56.3093 4
f 34/223/25 33/224/25 70/225/25 69/226/25 

vt 19.5079 -2.16573e-15
vt 19.7879 -2.16573e-15
vt 19.7879 4
vt 19.5079 4
f 35/227/1 34/228/1 69/229/1 68/230/1 

vt 42.7419 -1.51063e-14
vn -0.502561 3.61698e-16 0.864542
vt 43.3619 -1.51063e-14
vt 43.3619 4
vt 42.7419 4
f 36/231/26 35/232/26 68/233/26 67/234/26 

vt 52.0023 1.15303e-14
vt 52.4114 1.15303e-14
vt 52.4114 4
vt 52.0023 4
f 37/235/4 36/236/4 67/237/4 66/238/4 

vt 51.8496 -1.24866e-14
vn -0.771131 5.58525e-16 0.636677
vt 52.1796 -1.24866e-14
vt 52.1796 4
vt 51.8496 4
f 38/239/27 37/240/27 66/241/27 65/242/27 

vt 31.1828 -1.06099e-14
vn -0.260253 1.87307e-16 0.96554
vt 31.5828 -1.06099e-14
vt 31.5828 4
vt 31.1828 4
f 39/243/28 38/244/28 65/245/28 64/246/28 

vt 43.8362 -1.53517e-14
vn -0.563105 4.07854e-16 0.826385
vt 44.2662 -1.53517e-14
vt 44.2662 4
vt 43.8362 4
f 40/247/29 39/248/29 64/249/29 63/250/29 

vt 50.9452 1.08433e-14
vt 51.4016 1.08433e-14
vt 51.4016 4
vt 50.9452 4
f 41/251/4 40/252/4 63/253/4 62/254/4 

vt 17.8803 -2.16573e-15
vt 18.0203 -2.16573e-15
vt 18.0203 4
vt 17.8803 4
f 42/255/1 41/256/1 62/257/1 61/258/1 

vt 53.241 -6.74648e-15
vn -0.891703 6.43811e-16 0.452622
vt 53.521 -6.74648e-15
vt 53.521 4
vt 53.241 4
f 43/259/30 42/260/30 61/261/30 60/262/30 

vt 17.5235 -2.16573e-15
vt 17.7535 -2.16573e-15
vt 17.7535 4
vt 17.5235 4
f 44/263/1 43/264/1 60/265/1 59/266/1 

vt 41.0653 -1.509e-14
vn -0.527656 3.82178e-16 0.849458
vt 41.6353 -1.509e-14
vt 41.6353 4
vt 41.0653 4
f 45/267/31 44/268/31 59/269/31 58/270/31 

vt 50.0148 1.01352e-14
vt 50.3948 1.01352e-14
vt 50.3948 4
vt 50.0148 4
f 46/271/4 45/272/4 58/273/4 57/274/4 

vt 39.4505 -1.46955e-14
vn -0.496434 3.58426e-16 0.868075
vt 39.6205 -1.46955e-14
vt 39.6205 4
vt 39.4505 4
f 47/275/32 46/276/32 57/277/32 56/278/32 

vt 50.259 -1.09205e-14
vn -0.819141 5.91421e-16 0.573592
vt 50.589 -1.09205e-14
vt 50.589 4
vt 50.259 4
f 2/279/33 47/280/33 56/281/33 3/282/33 

