# Alias OBJ Model File
# Exported from SketchUp, (c) 2000-2012 Trimble Navigation Limited
# File units = meters

mtllib A11 S Mountain.mtl

g Mesh1 A11_S_Mountain1 Model

usemtl _4
v 46.633 -1.44382e-15 59.0008
vt -46.633 -59.0008
vn 1.81185e-18 -1 -1.59697e-16
v 48.003 -2.53277e-15 59.0008
vt -48.003 -59.0008
v 48.003 -2.11351e-15 64
vt -48.003 -64
v 31.9961 -2.49081e-15 64
vt -31.9961 -64
v 31.9961 -2.88891e-15 59.0055
vt -31.9961 -59.0055
v 32.3233 -2.1659e-15 59.0055
vt -32.3233 -59.0055
v 32.5969 -1.44309e-15 59.412
vt -32.5969 -59.412
v 32.8169 -1.44309e-15 59.412
vt -32.8169 -59.412
v 33.0259 -1.44383e-15 59.6673
vt -33.0259 -59.6673
v 33.6418 -1.44382e-15 59.0111
vt -33.6418 -59.0111
v 34.3005 -1.44382e-15 59.0111
vt -34.3005 -59.0111
v 34.581 -1.44382e-15 59.425
vt -34.581 -59.425
v 34.821 -1.44382e-15 59.425
vt -34.821 -59.425
v 34.9624 -1.44382e-15 59.6667
vt -34.9624 -59.6667
v 34.9624 -1.44382e-15 60.0567
vt -34.9624 -60.0567
v 35.3124 -1.44382e-15 60.0567
vt -35.3124 -60.0567
v 35.5653 -1.44382e-15 60.4167
vt -35.5653 -60.4167
v 35.7853 -1.44382e-15 60.4167
vt -35.7853 -60.4167
v 35.9599 -2.17436e-15 60.6356
vt -35.9599 -60.6356
v 35.9599 -2.17436e-15 61.0439
vt -35.9599 -61.0439
v 36.2999 -2.17436e-15 61.0439
vt -36.2999 -61.0439
v 36.5977 -2.16569e-15 61.4331
vt -36.5977 -61.4331
v 36.8177 -2.16569e-15 61.4331
vt -36.8177 -61.4331
v 36.9689 -2.16573e-15 61.6446
vt -36.9689 -61.6446
v 37.6396 -2.16573e-15 61.0003
vt -37.6396 -61.0003
v 37.8796 -2.16573e-15 61.0003
vt -37.8796 -61.0003
v 38.015 -2.16573e-15 61.2105
vt -38.015 -61.2105
v 38.2069 -2.16573e-15 61.0206
vt -38.2069 -61.0206
v 38.3169 -2.16573e-15 61.0206
vt -38.3169 -61.0206
v 38.6027 -2.16573e-15 61.4309
vt -38.6027 -61.4309
v 38.8327 -2.16573e-15 61.4309
vt -38.8327 -61.4309
v 38.9343 -2.16573e-15 61.6373
vt -38.9343 -61.6373
v 39.0186 -2.16573e-15 61.9975
vt -39.0186 -61.9975
v 39.3004 -2.16573e-15 61.9975
vt -39.3004 -61.9975
v 39.5555 -2.16573e-15 62.4041
vt -39.5555 -62.4041
v 39.8155 -2.16573e-15 62.4041
vt -39.8155 -62.4041
v 39.9543 -2.16573e-15 62.6473
vt -39.9543 -62.6473
v 40.0743 -2.16573e-15 62.6473
vt -40.0743 -62.6473
v 40.651 -2.16573e-15 61.9959
vt -40.651 -61.9959
v 40.9599 -2.16573e-15 61.9959
vt -40.9599 -61.9959
v 41.0761 -2.16573e-15 61.6341
vt -41.0761 -61.6341
v 41.6408 -2.16573e-15 60.9988
vt -41.6408 -60.9988
v 42.0108 -2.16573e-15 60.9988
vt -42.0108 -60.9988
v 42.0108 -2.16573e-15 59.6488
vt -42.0108 -59.6488
v 42.6695 -2.16573e-15 58.9923
vt -42.6695 -58.9923
v 43.2862 -2.16573e-15 58.9923
vt -43.2862 -58.9923
v 43.5851 -1.44739e-15 59.43
vt -43.5851 -59.43
v 43.7951 -1.44739e-15 59.43
vt -43.7951 -59.43
v 43.979 -1.44377e-15 59.6796
vt -43.979 -59.6796
v 44.6242 -1.44382e-15 59.0237
vt -44.6242 -59.0237
v 45.2842 -1.44382e-15 59.0237
vt -45.2842 -59.0237
v 45.6054 -1.44382e-15 59.4453
vt -45.6054 -59.4453
v 45.8154 -1.44382e-15 59.4453
vt -45.8154 -59.4453
v 45.9859 -1.44382e-15 59.6547
vt -45.9859 -59.6547
f 1/1/1 2/2/1 3/3/1 4/4/1 5/5/1 6/6/1 7/7/1 8/8/1 9/9/1 10/10/1 11/11/1 12/12/1 13/13/1 14/14/1 15/15/1 16/16/1 17/17/1 18/18/1 19/19/1 20/20/1 21/21/1 22/22/1 23/23/1 24/24/1 25/25/1 26/26/1 27/27/1 28/28/1 29/29/1 30/30/1 31/31/1 32/32/1 33/33/1 34/34/1 35/35/1 36/36/1 37/37/1 38/38/1 39/39/1 40/40/1 41/41/1 42/42/1 43/43/1 44/44/1 45/45/1 46/46/1 47/47/1 48/48/1 49/49/1 50/50/1 51/51/1 52/52/1 53/53/1 54/54/1 

vt -48.003 6.88949e-15
vn 1.2694e-31 1.59697e-16 -1
vt -46.633 7.97844e-15
v 46.633 4 59.0008
vt -46.633 4
v 48.003 4 59.0008
vt -48.003 4
f 2/55/2 1/56/2 55/57/2 56/58/2 

vt 9.13187 6.84578e-15
vn -0.710758 1.11049e-16 -0.703437
vt 10.0519 6.84578e-15
v 45.9859 4 59.6547
vt 10.0519 4
vt 9.13187 4
f 1/59/3 54/60/3 57/61/3 55/62/3 

vt -75.2949 -1.23758e-15
vn 0.775365 1.02256e-16 -0.631514
vt -75.0249 -1.23758e-15
v 45.8154 4 59.4453
vt -75.0249 4
vt -75.2949 4
f 54/63/4 53/64/4 58/65/4 57/66/4 

vt -45.8154 8.04943e-15
vn 0 1.59697e-16 -1
vt -45.6054 8.04943e-15
v 45.6054 4 59.4453
vt -45.6054 4
vt -45.8154 4
f 53/67/5 52/68/5 59/69/5 58/70/5 

vt -74.9235 -1.46924e-15
vn 0.795507 9.8209e-17 -0.605945
vt -74.3935 -1.46924e-15
v 45.2842 4 59.0237
vt -74.3935 4
vt -74.9235 4
f 52/71/6 51/72/6 60/73/6 59/74/6 

vt -45.2842 7.9821e-15
vt -44.6242 7.9821e-15
v 44.6242 4 59.0237
vt -44.6242 4
vt -45.2842 4
f 51/75/5 50/76/5 61/77/5 60/78/5 

vt 10.7821 6.66006e-15
vn -0.712876 1.10702e-16 -0.70129
vt 11.7021 6.66011e-15
v 43.979 4 59.6796
vt 11.7021 4
vt 10.7821 4
f 50/79/7 49/80/7 62/81/7 61/82/7 

vt -74.1337 -1.44253e-15
vn 0.804923 9.62194e-17 -0.593379
vt -73.8237 -1.44615e-15
v 43.7951 4 59.43
vt -73.8237 4
vt -74.1337 4
f 49/83/8 48/84/8 63/85/8 62/86/8 

vt -43.7951 8.04342e-15
vt -43.5851 8.04342e-15
v 43.5851 4 59.43
vt -43.5851 4
vt -43.7951 4
f 48/87/5 47/88/5 64/89/5 63/90/5 

vt -73.6575 -1.67457e-15
vn 0.825841 9.15501e-17 -0.563904
vt -73.1275 -2.39292e-15
v 43.2862 4 58.9923
vt -73.1275 4
vt -73.6575 4
f 47/91/9 46/92/9 65/93/9 64/94/9 

vt -43.2862 7.25518e-15
vt -42.6695 7.25518e-15
v 42.6695 4 58.9923
vt -42.6695 4
vt -43.2862 4
f 46/95/5 45/96/5 66/97/5 65/98/5 

vt 11.4169 5.87622e-15
vn -0.705876 1.1184e-16 -0.708335
vt 12.3469 5.87622e-15
v 42.0108 4 59.6488
vt 12.3469 4
vt 11.4169 4
f 45/99/10 44/100/10 67/101/10 66/102/10 

vt 59.6488 -2.24185e-15
vn -1 -1.81185e-18 -0
vt 60.9988 -2.24185e-15
v 42.0108 4 60.9988
vt 60.9988 4
vt 59.6488 4
f 44/103/11 43/104/11 68/105/11 67/106/11 

vt -42.0108 7.5756e-15
vt -41.6408 7.5756e-15
v 41.6408 4 60.9988
vt -41.6408 4
vt -42.0108 4
f 43/107/5 42/108/5 69/109/5 68/110/5 

vt 17.9298 5.3384e-15
vn -0.74744 1.04737e-16 -0.664329
vt 18.7798 5.3384e-15
v 41.0761 4 61.6341
vt 18.7798 4
vt 17.9298 4
f 42/111/12 41/112/12 70/113/12 69/114/12 

vt 46.1241 5.63908e-16
vn -0.952115 4.71008e-17 -0.30574
vt 46.5041 5.63908e-16
v 40.9599 4 61.9959
vt 46.5041 4
vt 46.1241 4
f 41/115/13 40/116/13 71/117/13 70/118/13 

vt -40.9599 7.73484e-15
vt -40.651 7.73484e-15
v 40.651 4 61.9959
vt -40.651 4
vt -40.9599 4
f 40/119/5 39/120/5 72/121/5 71/122/5 

vt 19.4696 5.30989e-15
vn -0.74871 1.04506e-16 -0.662897
vt 20.3396 5.30989e-15
v 40.0743 4 62.6473
vt 20.3396 4
vt 19.4696 4
f 39/123/14 38/124/14 73/125/14 72/126/14 

vt -40.0743 7.83886e-15
vt -39.9543 7.83886e-15
v 39.9543 4 62.6473
vt -39.9543 4
vt -40.0743 4
f 38/127/5 37/128/5 74/129/5 73/130/5 

vt -74.2133 -2.46126e-15
vn 0.868601 8.07057e-17 -0.495512
vt -73.9333 -2.46126e-15
v 39.8155 4 62.4041
vt -73.9333 4
vt -74.2133 4
f 37/131/15 36/132/15 75/133/15 74/134/15 

vt -39.8155 7.80002e-15
vt -39.5555 7.80002e-15
v 39.5555 4 62.4041
vt -39.5555 4
vt -39.8155 4
f 36/135/5 35/136/5 76/137/5 75/138/5 

vt -73.8837 -2.19489e-15
vn 0.847054 8.64149e-17 -0.531507
vt -73.4037 -2.19489e-15
v 39.3004 4 61.9975
vt -73.4037 4
vt -73.8837 4
f 35/139/16 34/140/16 77/141/16 76/142/16 

vt -39.3004 7.73509e-15
vt -39.0186 7.73509e-15
v 39.0186 4 61.9975
vt -39.0186 4
vt -39.3004 4
f 34/143/5 33/144/5 78/145/5 77/146/5 

vt -69.2587 -3.07632e-15
vn 0.973682 3.81611e-17 -0.227912
vt -68.8887 -3.07632e-15
v 38.9343 4 61.6373
vt -68.8887 4
vt -69.2587 4
f 33/147/17 32/148/17 79/149/17 78/150/17 

vt -72.4942 -2.72268e-15
vn 0.89726 7.21324e-17 -0.441502
vt -72.2642 -2.72268e-15
v 38.8327 4 61.4309
vt -72.2642 4
vt -72.4942 4
f 32/151/18 31/152/18 80/153/18 79/154/18 

vt -38.8327 7.6446e-15
vt -38.6027 7.6446e-15
v 38.6027 4 61.4309
vt -38.6027 4
vt -38.8327 4
f 31/155/5 30/156/5 81/157/5 80/158/5 

vt -72.4713 -1.8467e-15
vn 0.820533 9.27694e-17 -0.571599
vt -71.9713 -1.8467e-15
v 38.3169 4 61.0206
vt -71.9713 4
vt -72.4713 4
f 30/159/19 29/160/19 82/161/19 81/162/19 

vt -38.3169 7.57909e-15
vt -38.2069 7.57909e-15
v 38.2069 4 61.0206
vt -38.2069 4
vt -38.3169 4
f 29/163/5 28/164/5 83/165/5 82/166/5 

vt 15.7567 5.7198e-15
vn -0.70332 1.1225e-16 -0.710874
vt 16.0267 5.7198e-15
v 38.015 4 61.2105
vt 16.0267 4
vt 15.7567 4
f 28/167/20 27/168/20 84/169/20 83/170/20 

vt -72.045 -2.06242e-15
vn 0.840791 8.79771e-17 -0.54136
vt -71.795 -2.06242e-15
v 37.8796 4 61.0003
vt -71.795 4
vt -72.045 4
f 27/171/21 26/172/21 85/173/21 84/174/21 

vt -37.8796 7.57584e-15
vt -37.6396 7.57584e-15
v 37.6396 4 61.0003
vt -37.6396 4
vt -37.8796 4
f 26/175/5 25/176/5 86/177/5 85/178/5 

vt 15.1108 5.81624e-15
vn -0.692727 1.13919e-16 -0.7212
vt 16.0408 5.81624e-15
v 36.9689 4 61.6446
vt 16.0408 4
vt 15.1108 4
f 25/179/22 24/180/22 87/181/22 86/182/22 

vt -71.6474 -1.62036e-15
vn 0.813468 9.43552e-17 -0.581609
vt -71.3874 -1.62031e-15
v 36.8177 4 61.4331
vt -71.3874 4
vt -71.6474 4
f 24/183/23 23/184/23 88/185/23 87/186/23 

vt -36.8177 7.645e-15
vt -36.5977 7.645e-15
v 36.5977 4 61.4331
vt -36.5977 4
vt -36.8177 4
f 23/187/5 22/188/5 89/189/5 88/190/5 

vt -71.0288 -1.35165e-15
vn 0.794187 9.84826e-17 -0.607673
vt -70.5388 -1.36032e-15
v 36.2999 4 61.0439
vt -70.5388 4
vt -71.0288 4
f 22/191/24 21/192/24 90/193/24 89/194/24 

vt -36.2999 7.57418e-15
vt -35.9599 7.57418e-15
v 35.9599 4 61.0439
vt -35.9599 4
vt -36.2999 4
f 21/195/5 20/196/5 91/197/5 90/198/5 

vt -61.0439 -2.23952e-15
vn 1 1.81185e-18 -0
vt -60.6356 -2.23952e-15
v 35.9599 4 60.6356
vt -60.6356 4
vt -61.0439 4
f 20/199/25 19/200/25 92/201/25 91/202/25 

vt -69.8246 -1.19328e-15
vn 0.781649 1.01022e-16 -0.623719
vt -69.5446 -4.6274e-16
v 35.7853 4 60.4167
vt -69.5446 4
vt -69.8246 4
f 19/203/26 18/204/26 93/205/26 92/206/26 

vt -35.7853 8.20455e-15
vt -35.5653 8.20455e-15
v 35.5653 4 60.4167
vt -35.5653 4
vt -35.7853 4
f 18/207/5 17/208/5 94/209/5 93/210/5 

vt -69.8816 -9.19189e-16
vn 0.818295 9.32763e-17 -0.574798
vt -69.4416 -9.19189e-16
v 35.3124 4 60.0567
vt -69.4416 4
vt -69.8816 4
f 17/211/27 16/212/27 95/213/27 94/214/27 

vt -35.3124 8.14706e-15
vt -34.9624 8.14706e-15
v 34.9624 4 60.0567
vt -34.9624 4
vt -35.3124 4
f 16/215/5 15/216/5 96/217/5 95/218/5 

vt -60.0567 -1.50717e-15
vt -59.6667 -1.50717e-15
v 34.9624 4 59.6667
vt -59.6667 4
vt -60.0567 4
f 15/219/25 14/220/25 97/221/25 96/222/25 

vt -69.1555 -1.44699e-15
vn 0.863072 8.22239e-17 -0.505082
vt -68.8755 -1.44699e-15
v 34.821 4 59.425
vt -68.8755 4
vt -69.1555 4
f 14/223/28 13/224/28 98/225/28 97/226/28 

vt -34.821 8.04618e-15
vt -34.581 8.04618e-15
v 34.581 4 59.425
vt -34.581 4
vt -34.821 4
f 13/227/5 12/228/5 99/229/5 98/230/5 

vt -68.5936 -1.01572e-15
vn 0.827897 9.10709e-17 -0.560879
vt -68.0936 -1.01572e-15
v 34.3005 4 59.0111
vt -68.0936 4
vt -68.5936 4
f 12/231/29 11/232/29 100/233/29 99/234/29 

vt -34.3005 7.98008e-15
vt -33.6418 7.98008e-15
v 33.6418 4 59.0111
vt -33.6418 4
vt -34.3005 4
f 11/235/5 10/236/5 101/237/5 100/238/5 

vt 20.0106 5.56402e-15
vn -0.729209 1.07958e-16 -0.684291
vt 20.9106 5.56402e-15
v 33.0259 4 59.6673
vt 20.9106 4
vt 20.0106 4
f 10/239/30 9/240/30 102/241/30 101/242/30 

vt -67.091 -1.89081e-16
vn 0.773841 1.02551e-16 -0.63338
vt -66.761 -1.88345e-16
v 32.8169 4 59.412
vt -66.761 4
vt -67.091 4
f 9/243/31 8/244/31 103/245/31 102/246/31 

vt -32.8169 8.04483e-15
vt -32.5969 8.04483e-15
v 32.5969 4 59.412
vt -32.5969 4
vt -32.8169 4
f 8/247/5 7/248/5 104/249/5 103/250/5 

vt -67.4883 -8.86476e-16
vn 0.829541 9.06852e-17 -0.558445
vt -66.9983 -1.60928e-15
v 32.3233 4 59.0055
vt -66.9983 4
vt -67.4883 4
f 7/251/32 6/252/32 105/253/32 104/254/32 

vt -32.3233 7.25711e-15
vn -3.52953e-31 1.59697e-16 -1
vt -31.9961 6.5341e-15
v 31.9961 4 59.0055
vt -31.9961 4
vt -32.3233 4
f 6/255/33 5/256/33 106/257/33 105/258/33 

vt 59.0055 -2.94688e-15
vn -1 -1.81185e-18 -1.15633e-15
vt 64 -2.54879e-15
v 31.9961 4 64
vt 64 4
vt 59.0055 4
f 5/259/34 4/260/34 107/261/34 106/262/34 

vt 31.9961 7.72981e-15
vn 3.76429e-33 -1.59697e-16 1
vt 48.003 8.10711e-15
v 48.003 4 64
vt 48.003 4
vt 31.9961 4
f 4/263/35 3/264/35 108/265/35 107/266/35 

vt -64 -2.20048e-15
vn 1 1.81185e-18 2.31048e-15
vt -59.0008 -2.61975e-15
vt -59.0008 4
vt -64 4
f 3/267/36 2/268/36 56/269/36 108/270/36 

vt 48.003 -59.0008
vn -1.81185e-18 1 1.59697e-16
vt 46.633 -59.0008
vt 45.9859 -59.6547
vt 45.8154 -59.4453
vt 45.6054 -59.4453
vt 45.2842 -59.0237
vt 44.6242 -59.0237
vt 43.979 -59.6796
vt 43.7951 -59.43
vt 43.5851 -59.43
vt 43.2862 -58.9923
vt 42.6695 -58.9923
vt 42.0108 -59.6488
vt 42.0108 -60.9988
vt 41.6408 -60.9988
vt 41.0761 -61.6341
vt 40.9599 -61.9959
vt 40.651 -61.9959
vt 40.0743 -62.6473
vt 39.9543 -62.6473
vt 39.8155 -62.4041
vt 39.5555 -62.4041
vt 39.3004 -61.9975
vt 39.0186 -61.9975
vt 38.9343 -61.6373
vt 38.8327 -61.4309
vt 38.6027 -61.4309
vt 38.3169 -61.0206
vt 38.2069 -61.0206
vt 38.015 -61.2105
vt 37.8796 -61.0003
vt 37.6396 -61.0003
vt 36.9689 -61.6446
vt 36.8177 -61.4331
vt 36.5977 -61.4331
vt 36.2999 -61.0439
vt 35.9599 -61.0439
vt 35.9599 -60.6356
vt 35.7853 -60.4167
vt 35.5653 -60.4167
vt 35.3124 -60.0567
vt 34.9624 -60.0567
vt 34.9624 -59.6667
vt 34.821 -59.425
vt 34.581 -59.425
vt 34.3005 -59.0111
vt 33.6418 -59.0111
vt 33.0259 -59.6673
vt 32.8169 -59.412
vt 32.5969 -59.412
vt 32.3233 -59.0055
vt 31.9961 -59.0055
vt 31.9961 -64
vt 48.003 -64
f 56/271/37 55/272/37 57/273/37 58/274/37 59/275/37 60/276/37 61/277/37 62/278/37 63/279/37 64/280/37 65/281/37 66/282/37 67/283/37 68/284/37 69/285/37 70/286/37 71/287/37 72/288/37 73/289/37 74/290/37 75/291/37 76/292/37 77/293/37 78/294/37 79/295/37 80/296/37 81/297/37 82/298/37 83/299/37 84/300/37 85/301/37 86/302/37 87/303/37 88/304/37 89/305/37 90/306/37 91/307/37 92/308/37 93/309/37 94/310/37 95/311/37 96/312/37 97/313/37 98/314/37 99/315/37 100/316/37 101/317/37 102/318/37 103/319/37 104/320/37 105/321/37 106/322/37 107/323/37 108/324/37 

