# Alias OBJ Model File
# Exported from SketchUp, (c) 2000-2012 Trimble Navigation Limited
# File units = meters

mtllib A11 N Mountain.mtl

g Mesh1 A11_N_Mountain1 Model

usemtl _4
v 31.9961 -1.44382e-15 48.0182
vt -31.9961 -48.0182
vn -4.96817e-17 -1 3.91973e-17
v 48.003 -1.80478e-15 48.0182
vt -48.003 -48.0182
v 48.003 -1.80478e-15 52.9817
vt -48.003 -52.9817
v 46.8688 -1.80478e-15 52.9817
vt -46.8688 -52.9817
v 46.7692 -1.80436e-15 52.7201
vt -46.7692 -52.7201
v 46.3051 -2.16573e-15 52.6456
vt -46.3051 -52.6456
v 46.0557 -2.16573e-15 52.4788
vt -46.0557 -52.4788
v 45.9905 -2.34748e-15 52.2616
vt -45.9905 -52.2616
v 45.5402 -2.16573e-15 52.4788
vt -45.5402 -52.4788
v 45.5402 -2.16573e-15 52.6888
vt -45.5402 -52.6888
v 45.4236 -2.16573e-15 52.8389
vt -45.4236 -52.8389
v 45.1836 -2.16573e-15 52.8389
vt -45.1836 -52.8389
v 44.9994 -2.16573e-15 52.9766
vt -44.9994 -52.9766
v 44.8894 -2.16573e-15 52.9766
vt -44.8894 -52.9766
v 44.7441 -2.16573e-15 52.7372
vt -44.7441 -52.7372
v 44.3237 -2.16573e-15 52.6467
vt -44.3237 -52.6467
v 44.0812 -2.16573e-15 52.4702
vt -44.0812 -52.4702
v 43.9967 -2.16437e-15 52.3112
vt -43.9967 -52.3112
v 43.863 -2.16437e-15 52.3112
vt -43.863 -52.3112
v 43.5509 -1.97641e-15 52.4907
vt -43.5509 -52.4907
v 43.5509 -1.97641e-15 52.7007
vt -43.5509 -52.7007
v 43.4197 -2.35302e-15 52.8516
vt -43.4197 -52.8516
v 43.1897 -2.35302e-15 52.8516
vt -43.1897 -52.8516
v 43.14 -2.16573e-15 52.9266
vt -43.14 -52.9266
v 42.9139 -2.16573e-15 52.9692
vt -42.9139 -52.9692
v 42.7938 -2.16573e-15 52.7386
vt -42.7938 -52.7386
v 42.3361 -2.16573e-15 52.6317
vt -42.3361 -52.6317
v 41.9949 -2.16573e-15 52.3701
vt -41.9949 -52.3701
v 41.9949 -2.16573e-15 51.0623
vt -41.9949 -51.0623
v 41.7495 -2.16573e-15 50.7215
vt -41.7495 -50.7215
v 41.3362 -2.16573e-15 50.6465
vt -41.3362 -50.6465
v 40.982 -2.16573e-15 50.3855
vt -40.982 -50.3855
v 40.982 -2.16573e-15 50.0055
vt -40.982 -50.0055
v 40.7863 -2.16573e-15 49.7651
vt -40.7863 -49.7651
v 40.3361 -2.16573e-15 49.6706
vt -40.3361 -49.6706
v 39.97 -2.16573e-15 49.2737
vt -39.97 -49.2737
v 39.5476 -2.16574e-15 49.4558
vt -39.5476 -49.4558
v 39.5476 -2.16574e-15 49.6958
vt -39.5476 -49.6958
v 39.4051 -2.16696e-15 49.8501
vt -39.4051 -49.8501
v 38.899 -2.52667e-15 49.9128
vt -38.899 -49.9128
v 38.899 -2.52667e-15 50.2661
vt -38.899 -50.2661
v 38.4123 -2.15542e-15 50.8498
vt -38.4123 -50.8498
v 38.1523 -2.15542e-15 50.8498
vt -38.1523 -50.8498
v 37.91 -1.44382e-15 50.969
vt -37.91 -50.969
v 37.7735 -1.44382e-15 50.7477
vt -37.7735 -50.7477
v 37.3701 -1.44382e-15 50.6307
vt -37.3701 -50.6307
v 36.9068 -1.44382e-15 50.3162
vt -36.9068 -50.3162
v 36.3978 -1.44382e-15 50.8806
vt -36.3978 -50.8806
v 35.94 -1.44382e-15 50.8806
vt -35.94 -50.8806
v 35.94 -1.44382e-15 51.2606
vt -35.94 -51.2606
v 35.5543 -1.44395e-15 51.4724
vt -35.5543 -51.4724
v 35.5543 -1.44395e-15 51.6524
vt -35.5543 -51.6524
v 35.401 -1.43795e-15 51.8102
vt -35.401 -51.8102
v 34.9106 -2.88891e-15 51.9077
vt -34.9106 -51.9077
v 34.9106 -2.88891e-15 52.2577
vt -34.9106 -52.2577
v 34.5387 -1.44382e-15 52.4734
vt -34.5387 -52.4734
v 34.5387 -1.44382e-15 52.6934
vt -34.5387 -52.6934
v 34.4196 -1.44382e-15 52.8148
vt -34.4196 -52.8148
v 34.1896 -1.44382e-15 52.8148
vt -34.1896 -52.8148
v 34.0042 -1.44382e-15 52.9509
vt -34.0042 -52.9509
v 33.8842 -1.44382e-15 52.9509
vt -33.8842 -52.9509
v 33.7575 -1.44382e-15 52.7239
vt -33.7575 -52.7239
v 33.3496 -1.44382e-15 52.6236
vt -33.3496 -52.6236
v 32.919 -1.44382e-15 52.2815
vt -32.919 -52.2815
v 32.5643 -1.44382e-15 52.4871
vt -32.5643 -52.4871
v 32.5643 -1.44382e-15 52.7171
vt -32.5643 -52.7171
v 32.4319 -1.44382e-15 52.839
vt -32.4319 -52.839
v 32.2019 -1.44382e-15 52.839
vt -32.2019 -52.839
v 31.9961 -1.44382e-15 52.981
vt -31.9961 -52.981
f 1/1/1 2/2/1 3/3/1 4/4/1 5/5/1 6/6/1 7/7/1 8/8/1 9/9/1 10/10/1 11/11/1 12/12/1 13/13/1 14/14/1 15/15/1 16/16/1 17/17/1 18/18/1 19/19/1 20/20/1 21/21/1 22/22/1 23/23/1 24/24/1 25/25/1 26/26/1 27/27/1 28/28/1 29/29/1 30/30/1 31/31/1 32/32/1 33/33/1 34/34/1 35/35/1 36/36/1 37/37/1 38/38/1 39/39/1 40/40/1 41/41/1 42/42/1 43/43/1 44/44/1 45/45/1 46/46/1 47/47/1 48/48/1 49/49/1 50/50/1 51/51/1 52/52/1 53/53/1 54/54/1 55/55/1 56/56/1 57/57/1 58/58/1 59/59/1 60/60/1 61/61/1 62/62/1 63/63/1 64/64/1 65/65/1 66/66/1 67/67/1 68/68/1 69/69/1 

v 31.9961 4 48.0182
vt -31.9961 4
vn 0 0 -1
v 48.003 4 48.0182
vt -48.003 4
vt -48.003 -1.80478e-15
vt -31.9961 -1.44382e-15
f 70/70/2 71/71/2 2/72/2 1/73/2 

v 46.8688 4 52.9817
vt 46.8688 -52.9817
vn 9.75632e-17 1 -2.32767e-17
v 48.003 4 52.9817
vt 48.003 -52.9817
vt 48.003 -48.0182
vt 31.9961 -48.0182
v 31.9961 4 52.981
vt 31.9961 -52.981
v 32.2019 4 52.839
vt 32.2019 -52.839
v 32.4319 4 52.839
vt 32.4319 -52.839
v 32.5643 4 52.7171
vt 32.5643 -52.7171
v 32.5643 4 52.4871
vt 32.5643 -52.4871
v 32.919 4 52.2815
vt 32.919 -52.2815
v 33.3496 4 52.6236
vt 33.3496 -52.6236
v 33.7575 4 52.7239
vt 33.7575 -52.7239
v 33.8842 4 52.9509
vt 33.8842 -52.9509
v 34.0042 4 52.9509
vt 34.0042 -52.9509
v 34.1896 4 52.8148
vt 34.1896 -52.8148
v 34.4196 4 52.8148
vt 34.4196 -52.8148
v 34.5387 4 52.6934
vt 34.5387 -52.6934
v 34.5387 4 52.4734
vt 34.5387 -52.4734
v 34.9106 4 52.2577
vt 34.9106 -52.2577
v 34.9106 4 51.9077
vt 34.9106 -51.9077
v 35.401 4 51.8102
vt 35.401 -51.8102
v 35.5543 4 51.6524
vt 35.5543 -51.6524
v 35.5543 4 51.4724
vt 35.5543 -51.4724
v 35.94 4 51.2606
vt 35.94 -51.2606
v 35.94 4 50.8806
vt 35.94 -50.8806
v 36.3978 4 50.8806
vt 36.3978 -50.8806
v 36.9068 4 50.3162
vt 36.9068 -50.3162
v 37.3701 4 50.6307
vt 37.3701 -50.6307
v 37.7735 4 50.7477
vt 37.7735 -50.7477
v 37.91 4 50.969
vt 37.91 -50.969
v 38.1523 4 50.8498
vt 38.1523 -50.8498
v 38.4123 4 50.8498
vt 38.4123 -50.8498
v 38.899 4 50.2661
vt 38.899 -50.2661
v 38.899 4 49.9128
vt 38.899 -49.9128
v 39.4051 4 49.8501
vt 39.4051 -49.8501
v 39.5476 4 49.6958
vt 39.5476 -49.6958
v 39.5476 4 49.4558
vt 39.5476 -49.4558
v 39.97 4 49.2737
vt 39.97 -49.2737
v 40.3361 4 49.6706
vt 40.3361 -49.6706
v 40.7863 4 49.7651
vt 40.7863 -49.7651
v 40.982 4 50.0055
vt 40.982 -50.0055
v 40.982 4 50.3855
vt 40.982 -50.3855
v 41.3362 4 50.6465
vt 41.3362 -50.6465
v 41.7495 4 50.7215
vt 41.7495 -50.7215
v 41.9949 4 51.0623
vt 41.9949 -51.0623
v 41.9949 4 52.3701
vt 41.9949 -52.3701
v 42.3361 4 52.6317
vt 42.3361 -52.6317
v 42.7938 4 52.7386
vt 42.7938 -52.7386
v 42.9139 4 52.9692
vt 42.9139 -52.9692
v 43.14 4 52.9266
vt 43.14 -52.9266
v 43.1897 4 52.8516
vt 43.1897 -52.8516
v 43.4197 4 52.8516
vt 43.4197 -52.8516
v 43.5509 4 52.7007
vt 43.5509 -52.7007
v 43.5509 4 52.4907
vt 43.5509 -52.4907
v 43.863 4 52.3112
vt 43.863 -52.3112
v 43.9967 4 52.3112
vt 43.9967 -52.3112
v 44.0812 4 52.4702
vt 44.0812 -52.4702
v 44.3237 4 52.6467
vt 44.3237 -52.6467
v 44.7441 4 52.7372
vt 44.7441 -52.7372
v 44.8894 4 52.9766
vt 44.8894 -52.9766
v 44.9994 4 52.9766
vt 44.9994 -52.9766
v 45.1836 4 52.8389
vt 45.1836 -52.8389
v 45.4236 4 52.8389
vt 45.4236 -52.8389
v 45.5402 4 52.6888
vt 45.5402 -52.6888
v 45.5402 4 52.4788
vt 45.5402 -52.4788
v 45.9905 4 52.2616
vt 45.9905 -52.2616
v 46.0557 4 52.4788
vt 46.0557 -52.4788
v 46.3051 4 52.6456
vt 46.3051 -52.6456
v 46.7692 4 52.7201
vt 46.7692 -52.7201
f 72/74/3 73/75/3 71/76/3 70/77/3 74/78/3 75/79/3 76/80/3 77/81/3 78/82/3 79/83/3 80/84/3 81/85/3 82/86/3 83/87/3 84/88/3 85/89/3 86/90/3 87/91/3 88/92/3 89/93/3 90/94/3 91/95/3 92/96/3 93/97/3 94/98/3 95/99/3 96/100/3 97/101/3 98/102/3 99/103/3 100/104/3 101/105/3 102/106/3 103/107/3 104/108/3 105/109/3 106/110/3 107/111/3 108/112/3 109/113/3 110/114/3 111/115/3 112/116/3 113/117/3 114/118/3 115/119/3 116/120/3 117/121/3 118/122/3 119/123/3 120/124/3 121/125/3 122/126/3 123/127/3 124/128/3 125/129/3 126/130/3 127/131/3 128/132/3 129/133/3 130/134/3 131/135/3 132/136/3 133/137/3 134/138/3 135/139/3 136/140/3 137/141/3 138/142/3 

vt 46.8688 -1.80478e-15
vn 0 0 1
vt 48.003 -1.80478e-15
vt 48.003 4
vt 46.8688 4
f 4/143/4 3/144/4 73/145/4 72/146/4 

usemtl FrontColor
vt 195.414 4.26824e-14
vn 1 0 -0
vt 195.414 157.48
vt 0 157.48
vt 0 4.26824e-14
f 2/147/5 71/148/5 73/149/5 3/150/5 

usemtl _4
vt 65.9152 -2.98539e-16
vn -0.934498 6.03805e-17 0.355969
vt 66.1952 -2.98954e-16
vt 66.1952 4
vt 65.9152 4
f 5/151/6 4/152/6 72/153/6 138/154/6 

vt 54.064 -4.24494e-15
vn -0.158497 4.65763e-17 0.987359
vt 54.534 -3.88357e-15
vt 54.534 4
vt 54.064 4
f 6/155/7 5/156/7 138/157/7 137/158/7 

vt 67.455 -3.25096e-15
vn -0.555818 6.01989e-17 0.831304
vt 67.755 -3.25096e-15
vt 67.755 4
vt 67.455 4
f 7/159/8 6/160/8 137/161/8 136/162/8 

vt 63.2726 -6.38826e-16
vn -0.957829 5.88495e-17 0.28734
vt 63.4994 -4.57084e-16
vt 63.4994 4
vt 63.2726 4
f 8/163/9 7/164/9 136/165/9 135/166/9 

vt 18.2172 -3.08567e-15
vn 0.434467 1.37195e-17 0.900688
vt 18.7172 -3.26741e-15
vt 18.7172 4
vt 18.2172 4
f 9/167/10 8/168/10 135/169/10 134/170/10 

vt -52.6888 9.67792e-17
vn 1 -4.96817e-17 -0
vt -52.4788 9.67792e-17
vt -52.4788 4
vt -52.6888 4
f 10/171/11 9/172/11 134/173/11 133/174/11 

vt -13.8532 -1.12908e-15
vn 0.789641 -1.51804e-17 0.613569
vt -13.6632 -1.12908e-15
vt -13.6632 4
vt -13.8532 4
f 11/175/12 10/176/12 133/177/12 132/178/12 

vt 45.1836 -4.23688e-15
vn 0 3.91973e-17 1
vt 45.4236 -4.23688e-15
vt 45.4236 4
vt 45.1836 4
f 12/179/13 11/180/13 132/181/13 131/182/13 

vt 4.33062 -2.28059e-15
vn 0.598649 1.65559e-18 0.801011
vt 4.56062 -2.28059e-15
vt 4.56062 4
vt 4.33062 4
f 13/183/14 12/184/14 131/185/14 130/186/14 

vt 44.8894 -4.24227e-15
vt 44.9994 -4.24227e-15
vt 44.9994 4
vt 44.8894 4
f 14/187/13 13/188/13 130/189/13 129/190/13 

vt 68.3003 -1.48253e-15
vn -0.854789 6.28098e-17 0.518976
vt 68.5803 -1.48253e-15
vt 68.5803 4
vt 68.3003 4
f 15/191/15 14/192/15 129/193/15 128/194/15 

vt 54.4088 -4.22114e-15
vn -0.210409 4.87733e-17 0.977614
vt 54.8388 -4.22114e-15
vt 54.8388 4
vt 54.4088 4
f 16/195/16 15/196/16 128/197/16 127/198/16 

vt 66.5215 -3.16909e-15
vn -0.588662 6.0932e-17 0.808379
vt 66.8215 -3.16909e-15
vt 66.8215 4
vt 66.5215 4
f 17/199/17 16/200/17 127/201/17 126/202/17 

vt 66.839 -1.27349e-15
vn -0.883086 6.2265e-17 0.469211
vt 67.019 -1.27485e-15
vt 67.019 4
vt 66.839 4
f 18/203/18 17/204/18 126/205/18 125/206/18 

vt 43.863 -4.21483e-15
vt 43.9967 -4.21483e-15
vt 43.9967 4
vt 43.863 4
f 19/207/13 18/208/13 125/209/13 124/210/13 

vt 11.5873 -2.59569e-15
vn 0.498499 9.21351e-18 0.86689
vt 11.9473 -2.78364e-15
vt 11.9473 4
vt 11.5873 4
f 20/211/19 19/212/19 124/213/19 123/214/19 

vt -52.7007 1.87271e-16
vt -52.4907 1.87271e-16
vt -52.4907 4
vt -52.7007 4
f 21/215/11 20/216/11 123/217/11 122/218/11 

vt -11.4144 -1.55782e-15
vn 0.754833 -1.17911e-17 0.655917
vt -11.2144 -1.18121e-15
vt -11.2144 4
vt -11.4144 4
f 22/219/20 21/220/20 122/221/20 121/222/20 

vt 43.1897 -4.42467e-15
vt 43.4197 -4.42467e-15
vt 43.4197 4
vt 43.1897 4
f 23/223/13 22/224/13 121/225/13 120/226/13 

vt -20.2274 -8.80642e-16
vn 0.833066 -1.97052e-17 0.553174
vt -20.1374 -1.06793e-15
vt -20.1374 4
vt -20.2274 4
f 24/227/21 23/228/21 120/229/21 119/230/21 

vt 32.3703 -3.92519e-15
vn 0.185058 2.93263e-17 0.982728
vt 32.6003 -3.92519e-15
vt 32.6003 4
vt 32.3703 4
f 25/231/22 24/232/22 119/233/22 118/234/22 

vt 66.5419 -1.32051e-15
vn -0.886934 6.21695e-17 0.461896
vt 66.8019 -1.32051e-15
vt 66.8019 4
vt 66.5419 4
f 26/235/23 25/236/23 118/237/23 117/238/23 

vt 53.1925 -4.22494e-15
vn -0.227331 4.94652e-17 0.973818
vt 53.6625 -4.22494e-15
vt 53.6625 4
vt 53.1925 4
f 27/239/24 26/240/24 117/241/24 116/242/24 

vt 65.1919 -3.14752e-15
vn -0.608474 6.1336e-17 0.793574
vt 65.6219 -3.14752e-15
vt 65.6219 4
vt 65.1919 4
f 28/243/25 27/244/25 116/245/25 115/246/25 

vt 51.0623 -7.93566e-17
vn -1 4.96817e-17 -0
vt 52.3701 -7.93566e-17
vt 52.3701 4
vt 51.0623 4
f 29/247/26 28/248/26 115/249/26 114/250/26 

vt 65.5572 -1.89793e-15
vn -0.81146 6.32219e-17 0.584407
vt 65.9772 -1.89793e-15
vt 65.9772 4
vt 65.5572 4
f 30/251/27 29/252/27 114/253/27 113/254/27 

vt 49.7156 -4.17957e-15
vn -0.178566 4.74388e-17 0.983928
vt 50.1356 -4.17957e-15
vt 50.1356 4
vt 49.7156 4
f 31/255/28 30/256/28 113/257/28 112/258/28 

vt 62.8811 -3.15766e-15
vn -0.593184 6.10268e-17 0.805067
vt 63.3211 -3.15766e-15
vt 63.3211 4
vt 62.8811 4
f 32/259/29 31/260/29 112/261/29 111/262/29 

vt 50.0055 -1.29681e-16
vt 50.3855 -1.29681e-16
vt 50.3855 4
vt 50.0055 4
f 33/263/26 32/264/26 111/265/26 110/266/26 

vt 64.3431 -2.15111e-15
vn -0.7757 6.32756e-17 0.631102
vt 64.6531 -2.15111e-15
vt 64.6531 4
vt 64.3431 4
f 34/267/30 33/268/30 110/269/30 109/270/30 

vt 49.6723 -4.12436e-15
vn -0.20525 4.856e-17 0.97871
vt 50.1323 -4.12436e-15
vt 50.1323 4
vt 49.6723 4
f 35/271/31 34/272/31 109/273/31 108/274/31 

vt 63.3189 -2.4198e-15
vn -0.735067 6.30949e-17 0.677995
vt 63.8589 -2.4198e-15
vt 63.8589 4
vt 63.3189 4
f 36/275/32 35/276/32 108/277/32 107/278/32 

vt 16.7367 -3.16278e-15
vn 0.395901 1.63256e-17 0.918293
vt 17.1967 -3.16277e-15
vt 17.1967 4
vt 16.7367 4
f 37/279/33 36/280/33 107/281/33 106/282/33 

vt -49.6958 -2.0095e-16
vt -49.4558 -2.0095e-16
vt -49.4558 4
vt -49.6958 4
f 38/283/11 37/284/11 106/285/11 105/286/11 

vt -9.87906 -1.54576e-15
vn 0.734552 -9.89635e-18 0.678552
vt -9.66906 -1.54454e-15
vt -9.66906 4
vt -9.87906 4
f 39/287/34 38/288/34 105/289/34 104/290/34 

vt 32.4666 -4.30778e-15
vn 0.122959 3.27911e-17 0.992412
vt 32.9766 -3.94807e-15
vt 32.9766 4
vt 32.4666 4
f 40/291/35 39/292/35 104/293/35 103/294/35 

vt -50.2661 -5.94105e-16
vt -49.9128 -5.94105e-16
vt -49.9128 4
vt -50.2661 4
f 41/295/11 40/296/11 103/297/11 102/298/11 

vt -14.4549 -1.34514e-15
vn 0.768035 -1.3055e-17 0.640408
vt -13.6949 -1.71639e-15
vt -13.6949 4
vt -14.4549 4
f 42/299/36 41/300/36 102/301/36 101/302/36 

vt 38.1523 -4.14859e-15
vt 38.4123 -4.14859e-15
vt 38.4123 4
vt 38.1523 4
f 43/303/13 42/304/13 101/305/13 100/306/13 

vt 11.5264 -2.27149e-15
vn 0.441298 1.32497e-17 0.89736
vt 11.7964 -2.98309e-15
vt 11.7964 4
vt 11.5264 4
f 44/307/37 43/308/37 100/309/37 99/310/37 

vt 63.0221 -1.09737e-15
vn -0.851142 6.28622e-17 0.524935
vt 63.2821 -1.09737e-15
vt 63.2821 4
vt 63.0221 4
f 45/311/38 44/312/38 99/313/38 98/314/38 

vt 49.9974 -3.41134e-15
vn -0.278628 5.14878e-17 0.960399
vt 50.4174 -3.41134e-15
vt 50.4174 4
vt 49.9974 4
f 46/315/39 45/316/39 98/317/39 97/318/39 

vt 58.794 -2.70519e-15
vn -0.561577 6.03329e-17 0.827424
vt 59.354 -2.70519e-15
vt 59.354 4
vt 58.794 4
f 47/319/40 46/320/40 97/321/40 96/322/40 

vt -13.4105 -7.93342e-16
vn 0.742638 -1.06453e-17 0.669693
vt -12.6505 -7.93343e-16
vt -12.6505 4
vt -13.4105 4
f 48/323/41 47/324/41 96/325/41 95/326/41 

vt 35.94 -3.43821e-15
vt 36.3978 -3.43821e-15
vt 36.3978 4
vt 35.94 4
f 49/327/13 48/328/13 95/329/13 94/330/13 

vt -51.2606 3.41736e-16
vt -50.8806 3.41736e-16
vt -50.8806 4
vt -51.2606 4
f 50/331/11 49/332/11 94/333/11 93/334/11 

vt 6.38779 -2.09383e-15
vn 0.481355 1.0443e-17 0.876526
vt 6.82779 -2.0937e-15
vt 6.82779 4
vt 6.38779 4
f 51/335/42 50/336/42 93/337/42 92/338/42 

vt -51.6524 3.22447e-16
vt -51.4724 3.22447e-16
vt -51.4724 4
vt -51.6524 4
f 52/339/11 51/340/11 92/341/11 91/342/11 

vt -12.5109 -9.25168e-16
vn 0.717454 -8.33921e-18 0.696606
vt -12.2909 -9.31172e-16
vt -12.2909 4
vt -12.5109 4
f 53/343/43 52/344/43 91/345/43 90/346/43 

vt 24.1244 -4.54899e-15
vn 0.194899 2.87627e-17 0.980823
vt 24.6244 -3.09802e-15
vt 24.6244 4
vt 24.1244 4
f 54/347/44 53/348/44 90/349/44 89/350/44 

vt -52.2577 -1.15449e-15
vt -51.9077 -1.15449e-15
vt -51.9077 4
vt -52.2577 4
f 55/351/11 54/352/11 89/353/11 88/354/11 

vt 3.54723 -2.00691e-15
vn 0.501759 8.97779e-18 0.865008
vt 3.97723 -3.452e-15
vt 3.97723 4
vt 3.54723 4
f 56/355/45 55/356/45 88/357/45 87/358/45 

vt -52.6934 2.72116e-16
vt -52.4734 2.72116e-16
vt -52.4734 4
vt -52.6934 4
f 57/359/11 56/360/11 87/361/11 86/362/11 

vt -13.5991 -9.50342e-16
vn 0.713865 -8.01674e-18 0.700284
vt -13.4291 -9.50342e-16
vt -13.4291 4
vt -13.5991 4
f 58/363/46 57/364/46 86/365/46 85/366/46 

vt 34.1896 -3.51402e-15
vt 34.4196 -3.51402e-15
vt 34.4196 4
vt 34.1896 4
f 59/367/13 58/368/13 85/369/13 84/370/13 

vt -3.92186 -1.58193e-15
vn 0.591746 2.19898e-18 0.806124
vt -3.69186 -1.58193e-15
vt -3.69186 4
vt -3.92186 4
f 60/371/47 59/372/47 84/373/47 83/374/47 

vt 33.8842 -3.51936e-15
vt 34.0042 -3.51936e-15
vt 34.0042 4
vt 33.8842 4
f 61/375/13 60/376/13 83/377/13 82/378/13 

vt 62.4904 -1.20736e-15
vn -0.873222 6.24849e-17 0.487322
vt 62.7504 -1.20736e-15
vt 62.7504 4
vt 62.4904 4
f 62/379/48 61/380/48 82/381/48 81/382/48 

vt 44.9434 -3.59765e-15
vn -0.238621 4.99201e-17 0.971113
vt 45.3634 -3.59765e-15
vt 45.3634 4
vt 44.9434 4
f 63/383/49 62/384/49 81/385/49 80/386/49 

vt 58.2976 -2.70377e-15
vn -0.62209 6.15958e-17 0.782946
vt 58.8476 -2.70377e-15
vt 58.8476 4
vt 58.2976 4
f 64/387/50 63/388/50 80/389/50 79/390/50 

vt 1.84308 -1.99878e-15
vn 0.501611 8.98849e-18 0.865093
vt 2.25308 -1.99878e-15
vt 2.25308 4
vt 1.84308 4
f 65/391/51 64/392/51 79/393/51 78/394/51 

vt -52.7171 1.74028e-16
vt -52.4871 1.74028e-16
vt -52.4871 4
vt -52.7171 4
f 66/395/11 65/396/11 78/397/11 77/398/11 

vt -11.9092 -1.15222e-15
vn 0.677079 -4.7927e-18 0.73591
vt -11.7292 -1.15222e-15
vt -11.7292 4
vt -11.9092 4
f 67/399/52 66/400/52 77/401/52 76/402/52 

vt 32.2019 -3.51497e-15
vt 32.4319 -3.51497e-15
vt 32.4319 4
vt 32.2019 4
f 68/403/13 67/404/13 76/405/13 75/406/13 

vt -3.76276 -1.44382e-15
vn 0.568043 0 0.822999
vt -3.51276 -1.44382e-15
vt -3.51276 4
vt -3.76276 4
f 69/407/53 68/408/53 75/409/53 74/410/53 

