# Alias OBJ Model File
# Exported from SketchUp, (c) 2000-2012 Trimble Navigation Limited
# File units = meters

mtllib A12 NW Mountain.mtl

g Mesh1 CaveEntrance1 A12_NW_Mountain1 Model

usemtl _4
v 57.9703 -1.44382e-15 49.7254
vt -39.3701 9.84252
vn 0 -1 -0
v 57.9703 -1.44382e-15 49.9754
vt -39.3701 0
v 56.9703 -1.44382e-15 49.9754
vt 0 0
v 56.9703 -1.44382e-15 49.7254
vt 0 9.84252
f 1/1/1 2/2/1 3/3/1 4/4/1 

v 56.8603 -1.44382e-15 49.7254
vt 4.33071 9.84252
v 56.8603 -1.44382e-15 48.7254
vt 4.33071 49.2126
v 58.1203 -1.44382e-15 48.7254
vt -45.2756 49.2126
v 58.1203 -1.44382e-15 49.7254
vt -45.2756 9.84252
f 1/1/1 4/4/1 5/5/1 6/6/1 7/7/1 8/8/1 

usemtl _2
v 56.9703 2.5 49.7254
vt 3.22912 2.5
vn 0 0 -1
vt 3.22912 0
vt 3.33912 0
v 56.8603 2.5 49.7254
vt 3.33912 2.5
f 9/9/2 4/10/2 5/11/2 10/12/2 

vt 4.52118 0
vn 1 0 -0
vt 5.52118 0
v 56.8603 2.5 48.7254
vt 5.52118 2.5
vt 4.52118 2.5
f 5/13/3 6/14/3 11/15/3 10/16/3 

vt -3.25991 0
vn 0 0 1
vt -1.99991 0
v 58.1203 2.5 48.7254
vt -1.99991 2.5
vt -3.25991 2.5
f 6/17/4 7/18/4 12/19/4 11/20/4 

vt -5.52118 0
vn -1 0 -0
vt -4.52118 0
v 58.1203 2.5 49.7254
vt -4.52118 2.5
vt -5.52118 2.5
f 7/21/5 8/22/5 13/23/5 12/24/5 

vt 2.18317 0
v 57.9703 2.5 49.7254
vt 2.18317 2.5
vt 2.03317 2.5
vt 2.03317 0
f 1/25/2 14/26/2 13/27/2 8/28/2 

vt 2.14991 4.52118
vt 3.14991 4.52118
vt 3.25991 4.52118
vt 3.25991 5.52118
vt 1.99991 5.52118
vt 1.99991 4.52118
f 14/29/1 9/30/1 10/31/1 11/32/1 12/33/1 13/34/1 

g Mesh2 A12_Fake_Wall1 A12_NW_Mountain1 Model

usemtl _4
v 56.9974 -2.16573e-15 49.9754
vt 56.9974 -49.9754
vn -3.26421e-18 1 -1.92075e-17
v 57.9974 -2.16573e-15 49.9754
vt 57.9974 -49.9754
v 57.9974 -2.16573e-15 49.7254
vt 57.9974 -49.7254
v 58.2274 -2.16337e-15 49.7254
vt 58.2274 -49.7254
v 58.2274 -2.1869e-15 48.5854
vt 58.2274 -48.5854
v 56.7274 -2.19398e-15 48.5854
vt 56.7274 -48.5854
v 56.7274 -2.17046e-15 49.7254
vt 56.7274 -49.7254
v 56.9974 -2.16573e-15 49.7254
vt 56.9974 -49.7254
f 15/35/6 16/36/6 17/37/6 18/38/6 19/39/6 20/40/6 21/41/6 22/42/6 

vt 56.9974 3.44181e-13
vn 1.28079e-31 -6.93035e-15 1
vt 57.9974 3.44181e-13
v 57.9974 2.5 49.9754
vt 57.9974 2.5
v 56.9974 2.5 49.9754
vt 56.9974 2.5
f 15/43/7 16/44/7 23/45/7 24/46/7 

g Mesh3 A12_NW_Mountain1 Model

v 48.9288 4 52.9817
vt 48.9288 4
v 48.003 4 52.9817
vt 48.003 4
v 48.003 -1.80478e-15 52.9817
vt 48.003 -1.80478e-15
v 48.9288 -1.80478e-15 52.9817
vt 48.9288 -1.80478e-15
f 25/47/4 26/48/4 27/49/4 28/50/4 

v 58.9474 4 48.0182
vt 58.9474 -48.0182
vn -3.78619e-17 1 -1.08413e-16
v 48.003 4 48.0182
vt 48.003 -48.0182
vt 48.003 -52.9817
vt 48.9288 -52.9817
v 49.1485 4 52.8624
vt 49.1485 -52.8624
v 49.4397 4 52.8624
vt 49.4397 -52.8624
v 49.5644 4 52.719
vt 49.5644 -52.719
v 49.5644 4 52.499
vt 49.5644 -52.499
v 49.9103 4 52.2982
vt 49.9103 -52.2982
v 50.11 4 52.4799
vt 50.11 -52.4799
v 50.4058 4 52.7491
vt 50.4058 -52.7491
v 50.7458 4 52.7491
vt 50.7458 -52.7491
v 50.8885 4 52.9784
vt 50.8885 -52.9784
v 51.9185 4 52.9784
vt 51.9185 -52.9784
v 52.4178 4 52.8331
vt 52.4178 -52.8331
v 52.5486 4 52.6952
vt 52.5486 -52.6952
v 52.5486 4 52.4952
vt 52.5486 -52.4952
v 52.9461 4 52.2445
vt 52.9461 -52.2445
v 52.9461 4 51.9245
vt 52.9461 -51.9245
v 53.4164 4 51.8281
vt 53.4164 -51.8281
v 53.5483 4 51.6914
vt 53.5483 -51.6914
v 53.5483 4 51.4814
vt 53.5483 -51.4814
v 53.906 4 51.281
vt 53.906 -51.281
v 53.906 4 50.921
vt 53.906 -50.921
v 54.4154 4 50.8166
vt 54.4154 -50.8166
v 54.5349 4 50.6819
vt 54.5349 -50.6819
v 54.5349 4 50.4819
vt 54.5349 -50.4819
v 54.8835 4 50.3071
vt 54.8835 -50.3071
v 55.0474 4 49.9754
vt 55.0474 -49.9754
v 58.9474 4 49.9754
vt 58.9474 -49.9754
f 29/51/8 30/52/8 26/53/8 25/54/8 31/55/8 32/56/8 33/57/8 34/58/8 35/59/8 36/60/8 37/61/8 38/62/8 39/63/8 40/64/8 41/65/8 42/66/8 43/67/8 44/68/8 45/69/8 46/70/8 47/71/8 48/72/8 49/73/8 50/74/8 51/75/8 52/76/8 53/77/8 54/78/8 55/79/8 56/80/8 

v 58.9474 -2.16573e-15 48.0182
vt -58.9474 -2.16573e-15
v 48.003 -1.80478e-15 48.0182
vt -48.003 -1.80478e-15
vt -48.003 4
vt -58.9474 4
f 57/81/2 58/82/2 30/83/2 29/84/2 

v 58.9474 -2.16573e-15 49.9754
vt -49.9754 -1.76955e-16
vn 1 -3.37382e-17 -0
vt -48.0182 -1.76955e-16
vt -48.0182 4
vt -49.9754 4
f 59/85/9 57/86/9 29/87/9 56/88/9 

vt 57.9974 6.35846e-14
vn -5.77479e-16 -1.31565e-15 1
vt 58.9474 6.35846e-14
vt 58.9474 4
vt 55.0474 4
v 55.0474 -2.16573e-15 49.9754
vt 55.0474 6.35846e-14
vt 56.9974 6.35846e-14
f 16/89/10 59/90/10 56/91/10 55/92/10 60/93/10 15/94/10 24/46/10 23/45/10 

v 54.8835 -2.16573e-15 50.3071
vt -20.8001 1.90628e-15
vn 0.896596 -5.69618e-17 0.442849
vt -20.4301 1.90628e-15
vt -20.4301 4
vt -20.8001 4
f 61/95/11 60/96/11 55/97/11 54/98/11 

v 54.5349 -2.16573e-15 50.4819
vt 26.1318 2.63735e-15
vn 0.448106 -6.90424e-17 0.89398
vt 26.5218 2.63735e-15
vt 26.5218 4
vt 26.1318 4
f 62/99/12 61/100/12 54/101/12 53/102/12 

v 54.5349 -2.16573e-15 50.6819
vt -50.6819 -3.25825e-16
vt -50.4819 -3.25825e-16
vt -50.4819 4
vt -50.6819 4
f 63/103/9 62/104/9 53/105/9 52/106/9 

v 54.4154 -2.16573e-15 50.8166
vt -1.91765 2.69173e-15
vn 0.748199 -6.52631e-17 0.663475
vt -1.73765 2.69173e-15
vt -1.73765 4
vt -1.91765 4
f 64/107/13 63/108/13 52/109/13 51/110/13 

v 53.906 -2.16573e-15 50.921
vt 42.5787 1.83312e-15
vn 0.200871 -6.58666e-17 0.979618
vt 43.0987 1.83312e-15
vt 43.0987 4
vt 42.5787 4
f 65/111/14 64/112/14 51/113/14 50/114/14 

v 53.906 -2.16573e-15 51.281
vt -51.281 -3.47041e-16
vt -50.921 -3.47041e-16
vt -50.921 4
vt -51.281 4
f 66/115/9 65/116/9 50/117/9 49/118/9 

v 53.5483 -2.16573e-15 51.4814
vt 21.5545 2.74723e-15
vn 0.488759 -6.91133e-17 0.872419
vt 21.9645 2.74723e-15
vt 21.9645 4
vt 21.5545 4
f 67/119/15 66/120/15 49/121/15 48/122/15 

v 53.5483 -2.16573e-15 51.6914
vt -51.6914 -3.59108e-16
vt -51.4814 -3.59108e-16
vt -51.4814 4
vt -51.6914 4
f 68/123/9 67/124/9 48/125/9 47/126/9 

v 53.4164 -2.16575e-15 51.8281
vt -0.182338 2.75901e-15
vn 0.7194 -6.61687e-17 0.694596
vt 0.00766209 2.75902e-15
vt 0.00766209 4
vt -0.182338 4
f 69/127/16 68/128/16 47/129/16 46/130/16 

v 52.9461 -2.16279e-15 51.9245
vt 41.4399 1.88791e-15
vn 0.200822 -6.58656e-17 0.979628
vt 41.9199 1.88495e-15
vt 41.9199 4
vt 41.4399 4
f 70/131/17 69/132/17 46/133/17 45/134/17 

v 52.9461 -2.16279e-15 52.2445
vt -52.2445 -3.76479e-16
vt -51.9245 -3.76479e-16
vt -51.9245 4
vt -52.2445 4
f 71/135/9 70/136/9 45/137/9 44/138/9 

v 52.5486 -2.53277e-15 52.4952
vt 16.4404 2.46649e-15
vn 0.533488 -6.90173e-17 0.845807
vt 16.9104 2.83647e-15
vt 16.9104 4
vt 16.4404 4
f 72/139/18 71/140/18 44/141/18 43/142/18 

v 52.5486 -2.53277e-15 52.6952
vt -52.6952 -7.59876e-16
vt -52.4952 -7.59876e-16
vt -52.4952 4
vt -52.6952 4
f 73/143/9 72/144/9 43/145/9 42/146/9 

v 52.4178 -2.16573e-15 52.8331
vt -2.23541 2.74371e-15
vn 0.725316 -6.59955e-17 0.688416
vt -2.04541 2.37667e-15
vt -2.04541 4
vt -2.23541 4
f 74/147/19 73/148/19 42/149/19 41/150/19 

v 51.9185 -2.16573e-15 52.9784
vt 35.0467 2.23691e-15
vn 0.27943 -6.73438e-17 0.960166
vt 35.5667 2.23691e-15
vt 35.5667 4
vt 35.0467 4
f 75/151/20 74/152/20 41/153/20 40/154/20 

v 50.8885 -2.16573e-15 52.9784
vt 50.8885 1.02987e-15
vn 0 -6.03191e-17 1
vt 51.9185 1.02987e-15
vt 51.9185 4
vt 50.8885 4
f 76/155/21 75/156/21 40/157/21 39/158/21 

v 50.7458 -2.16573e-15 52.7491
vt 71.5996 -2.21494e-15
vn -0.848936 -3.23682e-18 0.528496
vt 71.8696 -2.21494e-15
vt 71.8696 4
vt 71.5996 4
f 77/159/22 76/160/22 39/161/22 38/162/22 

v 50.4058 -2.16573e-15 52.7491
vt 50.4058 1.01604e-15
vt 50.7458 1.01604e-15
vt 50.7458 4
vt 50.4058 4
f 78/163/21 77/164/21 38/165/21 37/166/21 

v 50.11 -2.16573e-15 52.4799
vt 72.3828 -2.05431e-15
vn -0.673054 -2.1904e-17 0.739594
vt 72.7828 -2.05431e-15
vt 72.7828 4
vt 72.3828 4
f 79/167/23 78/168/23 37/169/23 36/170/23 

v 49.9103 -2.16573e-15 52.2982
vt 72.1128 -2.05431e-15
vt 72.1128 4
f 80/171/23 79/167/23 36/170/23 35/172/23 

v 49.5644 -2.16571e-15 52.499
vt 16.5045 2.6915e-15
vn 0.502094 -6.91045e-17 0.864813
vt 16.9045 2.69147e-15
vt 16.9045 4
vt 16.5045 4
f 81/173/24 80/174/24 35/175/24 34/176/24 

v 49.5644 -2.16571e-15 52.719
vt -52.719 -4.93494e-16
vt -52.499 -4.93494e-16
vt -52.499 4
vt -52.719 4
f 82/177/9 81/178/9 34/179/9 33/180/9 

v 49.4397 -2.16154e-15 52.8624
vt -7.44648 2.52101e-15
vn 0.754583 -6.50399e-17 0.656205
vt -7.25648 2.51684e-15
vt -7.25648 4
vt -7.44648 4
f 83/181/25 82/182/25 33/183/25 32/184/25 

v 49.1485 -2.16154e-15 52.8624
vt 49.1485 1.02707e-15
vt 49.4397 1.02707e-15
vt 49.4397 4
vt 49.1485 4
f 84/185/21 83/186/21 32/187/21 31/188/21 

vt 17.704 3.0267e-15
vn 0.477345 -6.91081e-17 0.878716
vt 17.954 2.66994e-15
vt 17.954 4
vt 17.704 4
f 28/189/26 84/190/26 31/191/26 25/192/26 

vt -49.9754 2.5
vt -49.9754 -2.16573e-15
vt -49.7254 -2.16573e-15
v 56.9974 2.5 49.7254
vt -49.7254 2.5
f 24/193/3 15/194/3 22/195/3 85/196/3 

vt -56.9974 2.5
vn 0 -6.93035e-15 -1
vt -56.9974 -3.4678e-13
vt -56.7274 -3.46785e-13
v 56.7274 2.59 49.7254
vt -56.7274 2.59
v 56.9974 2.59 49.7254
vt -56.9974 2.59
f 85/197/27 22/198/27 21/199/27 86/200/27 87/201/27 

vt -49.7254 2.59
vt -49.7254 -2.17046e-15
vt -48.5854 -2.19398e-15
v 56.7274 2.59 48.5854
vt -48.5854 2.59
f 86/202/3 21/203/3 20/204/3 88/205/3 

vt 56.7274 2.59
vt 56.7274 -2.19398e-15
vt 58.2274 -2.1869e-15
v 58.2274 2.59 48.5854
vt 58.2274 2.59
f 88/206/4 20/207/4 19/208/4 89/209/4 

vt 48.5854 -2.6787e-12
vn -1 -4.59666e-14 -8.78114e-14
vt 49.7254 -2.67868e-12
v 58.2274 2.59 49.7254
vt 49.7254 2.59
vt 48.5854 2.59
f 19/210/28 18/211/28 90/212/28 89/213/28 

vt -58.2274 2.59
vn -1.32407e-30 -6.93035e-15 -1
vt -58.2274 -3.46778e-13
vt -57.9974 -3.4678e-13
v 57.9974 2.5 49.7254
vt -57.9974 2.5
v 57.9974 2.59 49.7254
vt -57.9974 2.59
f 90/214/29 18/215/29 17/216/29 91/217/29 92/218/29 

vt 49.7254 -1.34197e-12
vn -1 -2.31012e-14 -0
vt 49.9754 -1.34197e-12
vt 49.9754 2.5
vt 49.7254 2.5
f 17/219/30 16/220/30 23/221/30 91/222/30 

usemtl FrontColor
vt -393.479 118.36
vt -354.109 118.36
vt -354.109 128.202
vt -393.479 128.202
f 23/223/1 24/224/1 85/225/1 91/226/1 

usemtl _4
f 91/217/2 85/197/2 87/201/2 92/218/2 

vt -56.7274 -49.7254
vt -56.7274 -48.5854
vt -58.2274 -48.5854
vt -58.2274 -49.7254
vt -57.9974 -49.7254
vt -56.9974 -49.7254
f 86/227/1 88/228/1 89/229/1 90/230/1 92/231/1 87/232/1 

