# Alias OBJ Model File
# Exported from SketchUp, (c) 2000-2012 Trimble Navigation Limited
# File units = meters

mtllib A12 SW Mountain.mtl

g Mesh1 A12_S_Mountain1 Model

usemtl _4
v 55.0391 -2.12922e-15 64
vt -55.0391 -64
vn 1.6978e-18 -1 -1.63317e-16
v 48.003 -2.11351e-15 64
vt -48.003 -64
v 48.003 -2.53277e-15 59.0008
vt -48.003 -59.0008
v 49.313 -1.44382e-15 59.0008
vt -49.313 -59.0008
v 49.5786 -1.44382e-15 59.4126
vt -49.5786 -59.4126
v 49.8286 -1.44382e-15 59.4126
vt -49.8286 -59.4126
v 49.9976 -1.44382e-15 59.6604
vt -49.9976 -59.6604
v 50.6461 -1.44382e-15 58.9938
vt -50.6461 -58.9938
v 52.3164 -1.44382e-15 58.9938
vt -52.3164 -58.9938
v 52.557 -1.44382e-15 59.4321
vt -52.557 -59.4321
v 52.827 -1.44382e-15 59.4321
vt -52.827 -59.4321
v 52.9772 -1.44382e-15 59.6565
vt -52.9772 -59.6565
v 52.9772 -1.44382e-15 60.2065
vt -52.9772 -60.2065
v 53.2174 -1.44382e-15 60.0627
vt -53.2174 -60.0627
v 53.3174 -1.44382e-15 60.0627
vt -53.3174 -60.0627
v 53.5601 -1.44382e-15 60.4055
vt -53.5601 -60.4055
v 53.813 -1.44382e-15 60.4055
vt -53.813 -60.4055
v 53.9427 -2.16059e-15 60.6308
vt -53.9427 -60.6308
v 53.9427 -2.16059e-15 61.1419
vt -53.9427 -61.1419
v 54.236 -2.16581e-15 61.0413
vt -54.236 -61.0413
v 54.5797 -2.16573e-15 61.4045
vt -54.5797 -61.4045
v 54.8 -2.16573e-15 61.4045
vt -54.8 -61.4045
v 54.9295 -2.16573e-15 61.6299
vt -54.9295 -61.6299
v 55.0391 -2.16573e-15 61.8207
vt -55.0391 -61.8207
f 1/1/1 2/2/1 3/3/1 4/4/1 5/5/1 6/6/1 7/7/1 8/8/1 9/9/1 10/10/1 11/11/1 12/12/1 13/13/1 14/14/1 15/15/1 16/16/1 17/17/1 18/18/1 19/19/1 20/20/1 21/21/1 22/22/1 23/23/1 24/24/1 

vt 48.003 8.33876e-15
vn -3.64809e-34 -1.63317e-16 1
vt 55.0391 8.32305e-15
v 55.0391 4 64
vt 55.0391 4
v 48.003 4 64
vt 48.003 4
f 2/25/2 1/26/2 25/27/2 26/28/2 

vt -64 -2.22267e-15
vn 1 1.6978e-18 -2.84421e-35
vt -61.8207 -2.25918e-15
v 55.0391 4 61.8207
vt -61.8207 4
vt -64 4
f 1/29/3 24/30/3 27/31/3 25/32/3 

vt -81.0223 -3.56774e-15
vn 0.867079 8.28318e-17 -0.498171
vt -80.8023 -3.56774e-15
v 54.9295 4 61.6299
vt -80.8023 4
vt -81.0223 4
f 24/33/4 23/34/4 28/35/4 27/36/4 

vt -80.5423 -3.56774e-15
v 54.8 4 61.4045
vt -80.5423 4
f 23/34/4 22/37/4 29/38/4 28/35/4 

vt -54.8 7.86264e-15
vn 0 1.63317e-16 -1
vt -54.5797 7.86264e-15
v 54.5797 4 61.4045
vt -54.5797 4
vt -54.8 4
f 22/39/5 21/40/5 30/41/5 29/42/5 

vt -82.1148 -1.87407e-15
vn 0.726275 1.13498e-16 -0.687404
vt -81.6148 -1.87414e-15
v 54.236 4 61.0413
vt -81.6148 4
vt -82.1148 4
f 21/43/6 20/44/6 31/45/6 30/46/6 

vt -31.4951 9.43075e-15
vn -0.324475 1.53929e-16 -0.945894
vt -31.1851 9.43597e-15
v 53.9427 4 61.1419
vt -31.1851 4
vt -31.4951 4
f 20/47/7 19/48/7 32/49/7 31/50/7 

vt -61.1419 -2.25218e-15
vn 1 1.6978e-18 -0
vt -60.6308 -2.25218e-15
v 53.9427 4 60.6308
vt -60.6308 4
vt -61.1419 4
f 19/51/8 18/52/8 33/53/8 32/54/8 

vt -79.4614 -3.52857e-15
vn 0.866565 8.29768e-17 -0.499064
vt -79.2014 -2.8118e-15
v 53.813 4 60.4055
vt -79.2014 4
vt -79.4614 4
f 18/55/9 17/56/9 34/57/9 33/58/9 

vt -53.813 8.4214e-15
vt -53.5601 8.4214e-15
v 53.5601 4 60.4055
vt -53.5601 4
vt -53.813 4
f 17/59/5 16/60/5 35/61/5 34/62/5 

vt -80.2479 -2.28819e-15
vn 0.816231 9.57382e-17 -0.577726
vt -79.8279 -2.28819e-15
v 53.3174 4 60.0627
vt -79.8279 4
vt -80.2479 4
f 16/63/10 15/64/10 36/65/10 35/66/10 

vt -53.3174 8.36542e-15
vt -53.2174 8.36542e-15
v 53.2174 4 60.0627
vt -53.2174 4
vt -53.3174 4
f 15/67/5 14/68/5 37/69/5 36/70/5 

vt -14.812 9.53911e-15
vn -0.513621 1.39256e-16 -0.858017
vt -14.532 9.53911e-15
v 52.9772 4 60.2065
vt -14.532 4
vt -14.812 4
f 14/71/11 13/72/11 38/73/11 37/74/11 

vt -60.2065 -1.53377e-15
vt -59.6565 -1.53377e-15
v 52.9772 4 59.6565
vt -59.6565 4
vt -60.2065 4
f 13/75/8 12/76/8 39/77/8 38/78/8 

vt -79.0439 -2.44402e-15
vn 0.831021 9.22544e-17 -0.556241
vt -78.7739 -2.44402e-15
v 52.827 4 59.4321
vt -78.7739 4
vt -79.0439 4
f 12/79/12 11/80/12 40/81/12 39/82/12 

vt -52.827 8.26244e-15
vt -52.557 8.26244e-15
v 52.557 4 59.4321
vt -52.557 4
vt -52.827 4
f 11/83/5 10/84/5 41/85/5 40/86/5 

vt -77.3901 -2.84284e-15
vn 0.876587 8.00833e-17 -0.481243
vt -76.8901 -2.84284e-15
v 52.3164 4 58.9938
vt -76.8901 4
vt -77.3901 4
f 10/87/13 9/88/13 42/89/13 41/90/13 

vt -52.3164 8.19086e-15
vt -50.6461 8.19086e-15
v 50.6461 4 58.9938
vt -50.6461 4
vt -52.3164 4
f 9/91/5 8/92/5 43/93/5 42/94/5 

vt 6.96996 7.2807e-15
vn -0.716779 1.12664e-16 -0.6973
vt 7.89996 7.2807e-15
v 49.9976 4 59.6604
vt 7.89996 4
vt 6.96996 4
f 8/95/14 7/96/14 44/97/14 43/98/14 

vt -77.4593 -2.16254e-15
vn 0.826177 9.3417e-17 -0.56341
vt -77.1593 -2.16254e-15
v 49.8286 4 59.4126
vt -77.1593 4
vt -77.4593 4
f 7/99/15 6/100/15 45/101/15 44/102/15 

vt -49.8286 8.25924e-15
vt -49.5786 8.25924e-15
v 49.5786 4 59.4126
vt -49.5786 4
vt -49.8286 4
f 6/103/5 5/104/5 46/105/5 45/106/5 

vt -76.8006 -2.29503e-15
vn 0.840383 8.99434e-17 -0.541994
vt -76.3106 -2.29503e-15
v 49.313 4 59.0008
vt -76.3106 4
vt -76.8006 4
f 5/107/16 4/108/16 47/109/16 46/110/16 

vt -49.313 8.19199e-15
vn -1.35755e-31 1.63317e-16 -1
vt -48.003 7.10304e-15
v 48.003 4 59.0008
vt -48.003 4
vt -49.313 4
f 4/111/17 3/112/17 48/113/17 47/114/17 

vt 59.0008 -2.61427e-15
vn -1 -1.6978e-18 -2.31048e-15
vt 64 -2.19501e-15
vt 64 4
vt 59.0008 4
f 3/115/18 2/116/18 26/117/18 48/118/18 

vt 48.003 -64
vn -1.6978e-18 1 1.63317e-16
vt 55.0391 -64
vt 55.0391 -61.8207
vt 54.9295 -61.6299
vt 54.8 -61.4045
vt 54.5797 -61.4045
vt 54.236 -61.0413
vt 53.9427 -61.1419
vt 53.9427 -60.6308
vt 53.813 -60.4055
vt 53.5601 -60.4055
vt 53.3174 -60.0627
vt 53.2174 -60.0627
vt 52.9772 -60.2065
vt 52.9772 -59.6565
vt 52.827 -59.4321
vt 52.557 -59.4321
vt 52.3164 -58.9938
vt 50.6461 -58.9938
vt 49.9976 -59.6604
vt 49.8286 -59.4126
vt 49.5786 -59.4126
vt 49.313 -59.0008
vt 48.003 -59.0008
f 26/119/19 25/120/19 27/121/19 28/122/19 29/123/19 30/124/19 31/125/19 32/126/19 33/127/19 34/128/19 35/129/19 36/130/19 37/131/19 38/132/19 39/133/19 40/134/19 41/135/19 42/136/19 43/137/19 44/138/19 45/139/19 46/140/19 47/141/19 48/142/19 

