# Alias OBJ Model File
# Exported from SketchUp, (c) 2000-2012 Trimble Navigation Limited
# File units = meters

mtllib A7 NE Mountain.mtl

g Mesh1 A7_NE_Mountain1 Model

usemtl _1
v -16.203 7.9493e-16 53.9787
vt -7.42244 0
vn 0 0 1
v -15.9939 7.9493e-16 53.9787
vt -7.2134 0
v -15.9939 4 53.9787
vt -7.2134 4
v -16.203 4 53.9787
vt -7.42244 4
f 1/1/1 2/2/1 3/3/1 4/4/1 

v -18.0249 7.9493e-16 52.5299
vt 9.2444 1.67228
vn -7.59004e-16 -1 3.06581e-16
v -18.0249 7.9493e-16 48.003
vt 9.2444 6.19918
v -15.9939 -2.09272e-15 48.003
vt 7.2134 6.19918
vt 7.2134 0.223469
vt 7.42244 0.223469
v -17.0622 7.9493e-16 53.5736
vt 8.28171 0.628628
v -17.0622 7.9493e-16 52.9736
vt 8.28171 1.22863
f 5/5/2 6/6/2 7/7/2 2/8/2 1/9/2 8/10/2 9/11/2 

v -18.0249 4 52.5299
vt -1.67228 4
vn -1 0 -3.14771e-16
v -18.0249 4 48.003
vt -6.19918 4
vt -6.19918 0
vt -1.67228 0
f 10/12/3 11/13/3 6/14/3 5/15/3 

vt -7.42244 0.223469
vn 0 1 -0
vt -7.2134 0.223469
v -15.9939 4 48.003
vt -7.2134 6.19918
vt -9.2444 6.19918
vt -9.2444 1.67228
v -17.0622 4 52.9736
vt -8.28171 1.22863
v -17.0622 4 53.5736
vt -8.28171 0.628628
f 4/16/4 3/17/4 12/18/4 11/19/4 10/20/4 13/21/4 14/22/4 

usemtl FrontColor
vt 235.264 0
vn 1 0 -0
vt 235.264 157.48
vt 0 157.48
vt 0 1.13687e-13
f 7/23/5 12/24/5 3/25/5 2/26/5 

vt 5.68434e-14 1.13687e-13
vt 79.9607 0
vt 79.9607 157.48
vt 5.68434e-14 157.48
f 6/27/1 7/28/1 12/29/1 11/30/1 

usemtl _1
vt -9.56861 0
vn -0.41854 0 0.908198
vt -8.50861 0
vt -8.50861 4
vt -9.56861 4
f 5/31/6 9/32/6 13/33/6 10/34/6 

vt -1.22863 0
vn -1 0 -0
vt -0.628628 0
vt -0.628628 4
vt -1.22863 4
f 9/35/7 8/36/7 14/37/7 13/38/7 

vt -8.24933 0
vn -0.426483 0 0.904496
vt -7.29933 0
vt -7.29933 4
vt -8.24933 4
f 8/39/8 1/40/8 4/41/8 14/42/8 

