# Alias OBJ Model File
# Exported from SketchUp, (c) 2000-2012 Trimble Navigation Limited
# File units = meters

mtllib A8 NW Mountain Cave.mtl

g Mesh1 A8_NW_Mountain1 A8_NW_Mountain_Cave1 Model

usemtl _1
v -10.9867 7.9493e-16 48.454
vt 5.7482 0
vn 1 0 -0
v -10.9867 7.9493e-16 48.434
vt 5.7682 0
v -10.9867 2 48.434
vt 5.7682 2
v -10.9867 2 48.454
vt 5.7482 2
f 1/1/1 2/2/1 3/3/1 4/4/1 

v -15.9939 7.9493e-16 53.9787
vt 7.2134 0.223469
vn 2.84806e-16 -1 -3.62735e-18
v -15.9939 -2.09272e-15 48.003
vt 7.2134 6.19918
v -8.97993 7.9493e-16 48.003
vt 0.199406 6.19918
v -8.97993 7.9493e-16 49.275
vt 0.199406 4.92726
v -9.62992 7.9493e-16 49.954
vt 0.849397 4.2482
v -10.9867 7.9493e-16 49.954
vt 2.20614 4.2482
v -10.9867 7.9493e-16 49.704
vt 2.20614 4.4982
v -10.7267 7.9493e-16 49.704
vt 1.94614 4.4982
v -10.7267 7.9493e-16 48.434
vt 1.94614 5.7682
vt 2.20614 5.7682
vt 2.20614 5.7482
v -11.9867 7.9493e-16 48.454
vt 3.20614 5.7482
v -11.9867 7.9493e-16 48.524
vt 3.20614 5.6782
v -12.2567 7.9493e-16 48.524
vt 3.47614 5.6782
v -12.2567 7.9493e-16 49.704
vt 3.47614 4.4982
v -11.9867 7.9493e-16 49.704
vt 3.20614 4.4982
v -11.9867 7.9493e-16 49.954
vt 3.20614 4.2482
v -12.5078 -1.31932e-15 50.8102
vt 3.72727 3.39197
v -13.0376 -7.63447e-16 50.9844
vt 4.25709 3.2178
v -13.0276 -2.08965e-15 52.3185
vt 4.24709 1.88371
v -14.0147 -2.09554e-15 53.3652
vt 5.23419 0.837041
v -14.2969 -1.48158e-17 53.4659
vt 5.51637 0.736284
v -14.523 7.9493e-16 53.9787
vt 5.74244 0.223469
f 5/5/2 6/6/2 7/7/2 8/8/2 9/9/2 10/10/2 11/11/2 12/12/2 13/13/2 2/14/2 1/15/2 14/16/2 15/17/2 16/18/2 17/19/2 18/20/2 19/21/2 20/22/2 21/23/2 22/24/2 23/25/2 24/26/2 25/27/2 

usemtl FrontColor
v -15.9939 4 48.003
vt -189.989 157.48
vn -1 0 -0
vt -189.989 0
vt 45.2756 1.13687e-13
v -15.9939 4 53.9787
vt 45.2756 157.48
f 26/28/3 6/29/3 5/30/3 27/31/3 

vt -4.94876 0
vn 0 0 -1
vt -4.94876 157.48
v -8.97993 4 48.003
vt -281.09 157.48
vt -281.09 1.13687e-13
f 6/32/4 26/33/4 28/34/4 7/35/4 

usemtl _1
vt -0.199406 6.19918
vn 1.91386e-17 1 1.92287e-16
vt -7.2134 6.19918
vt -7.2134 0.223469
v -14.523 4 53.9787
vt -5.74244 0.223469
v -14.2969 4 53.4659
vt -5.51637 0.736284
v -14.0147 4 53.3652
vt -5.23419 0.837041
v -13.0276 4 52.3185
vt -4.24709 1.88371
v -13.0376 4 50.9844
vt -4.25709 3.2178
v -12.5078 4 50.8102
vt -3.72727 3.39197
v -11.9867 4 49.954
vt -3.20614 4.2482
v -9.62992 4 49.954
vt -0.849397 4.2482
v -8.97993 4 49.275
vt -0.199406 4.92726
f 28/36/5 26/37/5 27/38/5 29/39/5 30/40/5 31/41/5 32/42/5 33/43/5 34/44/5 35/45/5 36/46/5 37/47/5 

vt -5.74244 4
vn 0 0 1
vt -7.2134 4
vt -7.2134 0
vt -5.74244 0
f 29/48/6 27/49/6 5/50/6 25/51/6 

vt -2.57839 1.96058e-17
vn 0.915032 2.59363e-18 0.403382
vt -2.01796 -7.9014e-16
vt -2.01796 4
vt -2.57839 4
f 25/52/7 24/53/7 30/54/7 29/55/7 

vt -8.29176 4
vn 0.336273 -3.1195e-19 0.941764
vt -8.59139 4
vt -8.59139 -8.12153e-16
vt -8.29176 -2.89287e-15
f 31/56/8 30/57/8 24/58/8 23/59/8 

vt -2.81816 -2.95101e-15
vn 0.727507 -7.42922e-18 0.686101
vt -1.37945 -2.94512e-15
vt -1.37945 4
vt -2.81816 4
f 23/60/9 22/61/9 32/62/9 31/63/9 

vt 4.90952 4
vn 0.999972 -4.25643e-20 -0.00749531
vt 3.5754 4
vt 3.5754 -2.88476e-15
vt 4.90952 -1.55856e-15
f 33/64/10 32/65/10 22/66/10 21/67/10 

vt -4.59694 4
vn 0.312301 -1.19937e-19 0.949983
vt -5.15466 4
vt -5.15466 -1.55953e-15
vt -4.59694 -2.1154e-15
f 34/68/11 33/69/11 21/70/11 20/71/11 

vt 2.82176 4
vn 0.854223 -2.91145e-18 0.519907
vt 1.81941 4
vt 1.81941 -2.13696e-15
vt 2.82176 -2.27143e-17
v -11.9867 2.49 49.954
vt 2.82176 2.49
f 35/72/12 34/73/12 20/74/12 19/75/12 38/76/12 

vt 4.2482 0
vt 4.4982 0
v -11.9867 2.49 49.704
vt 4.4982 2.49
vt 4.2482 2.49
f 19/77/1 18/78/1 39/79/1 38/80/1 

vt 3.20614 2.49
vt 3.20614 0
vt 3.47614 0
v -12.2567 2.52 49.704
vt 3.47614 2.52
v -11.9867 2.52 49.704
vt 3.20614 2.52
f 39/81/4 18/82/4 17/83/4 40/84/4 41/85/4 

vt 5.6782 0
v -12.2567 2.52 48.524
vt 5.6782 2.52
vt 4.4982 2.52
f 17/78/1 16/86/1 42/87/1 40/88/1 

vt -3.20614 0
v -11.9867 2 48.524
vt -3.20614 2
v -11.9867 2.52 48.524
vt -3.20614 2.52
vt -3.47614 2.52
vt -3.47614 0
f 15/89/6 43/90/6 44/91/6 42/92/6 16/93/6 

v -11.9867 2 48.454
vt 5.6782 2
f 45/4/1 43/94/1 15/86/1 14/1/1 

v -11.9867 2.52 48.454
vt 5.7482 2.52
f 44/87/1 43/94/1 45/4/1 46/95/1 

vt -2.20614 2
v -10.9867 2.52 48.454
vt -2.20614 2.52
f 45/90/6 4/96/6 47/97/6 46/91/6 

vt -2.20614 0
f 14/89/6 1/98/6 4/96/6 45/90/6 

v -10.9867 2.52 48.434
vt 5.7682 2.52
f 3/3/1 48/99/1 47/95/1 4/4/1 

vt -1.94614 0
v -10.7267 2.52 48.434
vt -1.94614 2.52
f 3/96/6 2/98/6 13/100/6 49/101/6 48/97/6 

vt -5.7682 0
vt -4.4982 0
v -10.7267 2.52 49.704
vt -4.4982 2.52
vt -5.7682 2.52
f 13/102/3 12/103/3 50/104/3 49/105/3 

v -10.9867 2.49 49.704
vt 2.20614 2.49
v -10.9867 2.52 49.704
vt 2.20614 2.52
vt 1.94614 2.52
vt 1.94614 0
vt 2.20614 0
f 51/106/4 52/107/4 50/108/4 12/109/4 11/110/4 

f 51/106/4 39/81/4 41/85/4 52/107/4 

vn 0 -1 -0
v -10.9867 2.49 49.954
f 38/21/13 39/20/13 51/11/13 53/10/13 

vt -4.2482 0
vt -4.2482 2.49
vt -4.4982 2.49
f 10/111/3 53/112/3 51/113/3 11/103/3 

vt -3.20614 4
vt -3.20614 2.49
vt -2.20614 2.49
vt -0.849397 0
vt -0.849397 4
f 35/114/6 38/115/6 53/116/6 10/98/6 9/117/6 36/118/6 

vt 2.48154 0
vn 0.722396 0 0.69148
vt 3.42154 0
vt 3.42154 4
vt 2.48154 4
f 9/119/14 8/120/14 37/121/14 36/122/14 

vt 4.92726 0
vt 6.19918 0
vt 6.19918 4
vt 4.92726 4
f 8/123/1 7/124/1 28/125/1 37/126/1 

f 42/18/13 44/17/13 46/16/13 47/15/13 48/14/13 49/13/13 50/12/13 52/11/13 41/20/13 40/19/13 

g Mesh2 CaveEntrance1 A8_NW_Mountain_Cave1 Model

usemtl FrontColor
vt -39.3701 9.84252
vt -39.3701 0
vt 0 0
vt 0 9.84252
f 11/127/13 10/128/13 19/129/13 18/130/13 

v -12.0967 7.9493e-16 49.704
vt 4.33071 9.84252
v -12.0967 7.9493e-16 48.704
vt 4.33071 49.2126
v -10.8367 7.9493e-16 48.704
vt -45.2756 49.2126
v -10.8367 7.9493e-16 49.704
vt -45.2756 9.84252
f 11/127/13 18/130/13 54/131/13 55/132/13 56/133/13 57/134/13 

usemtl _2
v -11.9867 2.5 49.704
vt 3.22912 2.5
vt 3.22912 0
vt 3.33912 0
v -12.0967 2.5 49.704
vt 3.33912 2.5
f 58/135/4 18/136/4 54/137/4 59/138/4 

vt 4.52118 0
vt 5.52118 0
v -12.0967 2.5 48.704
vt 5.52118 2.5
vt 4.52118 2.5
f 54/139/1 55/140/1 60/141/1 59/142/1 

vt -3.25991 0
vt -1.99991 0
v -10.8367 2.5 48.704
vt -1.99991 2.5
vt -3.25991 2.5
f 55/143/6 56/144/6 61/145/6 60/146/6 

vt -5.52118 0
vt -4.52118 0
v -10.8367 2.5 49.704
vt -4.52118 2.5
vt -5.52118 2.5
f 56/147/3 57/148/3 62/149/3 61/150/3 

vt 2.18317 0
v -10.9867 2.5 49.704
vt 2.18317 2.5
vt 2.03317 2.5
vt 2.03317 0
f 11/151/4 63/152/4 62/153/4 57/154/4 

vt 2.14991 4.52118
vt 3.14991 4.52118
vt 3.25991 4.52118
vt 3.25991 5.52118
vt 1.99991 5.52118
vt 1.99991 4.52118
f 63/155/13 58/156/13 59/157/13 60/158/13 61/159/13 62/160/13 

