# Alias OBJ Model File
# Exported from SketchUp, (c) 2000-2012 Trimble Navigation Limited
# File units = meters

mtllib A8 Underground.mtl

g Mesh1 A8CaveExitDoor1 A8_Underground1 Model

usemtl White
v -11.9867 -6.10476 49.954
vt 0 0
vn 0 0 -1
v -11.9867 -3.60476 49.954
vt 0 2.5
v -10.9867 -3.60476 49.954
vt -1 2.5
v -10.9867 -6.10476 49.954
vt -1 0
f 1/1/1 2/2/1 3/3/1 4/4/1 

g Mesh2 A8CaveSword1 A8_Underground1 Model

usemtl _3
v -4.05091 -6.10476 36.9851
vt -8.63503 -8.38476
v -18.9224 -6.10476 36.9851
vt 6.23649 -8.38476
v -18.9224 -2.10476 36.9851
vt 6.23649 -4.38476
v -4.05091 -2.10476 36.9851
vt -8.63503 -4.38476
f 5/5/1 6/6/1 7/7/1 8/8/1 

vt -1.69927 -4.30779
vn 0 -1 -0
v -10.9867 -6.10476 48.454
vt -1.69927 -2.80779
v -6.05091 -6.10476 48.454
vt -6.63503 -2.80779
v -6.05091 -6.10476 38.4851
vt -6.63503 7.16111
v -16.9224 -6.10476 38.4851
vt 4.23649 7.16111
v -16.9224 -6.10476 48.454
vt 4.23649 -2.80779
v -11.9867 -6.10476 48.454
vt -0.699271 -2.80779
vt -0.699271 -4.30779
v -18.9224 -6.10476 49.954
vt 6.23649 -4.30779
vt 6.23649 8.66111
vt -8.63503 8.66111
v -4.05091 -6.10476 49.954
vt -8.63503 -4.30779
f 4/9/2 9/10/2 10/11/2 11/12/2 12/13/2 13/14/2 14/15/2 1/16/2 15/17/2 6/18/2 5/19/2 16/20/2 

vt 4.30779 -8.38476
vn -1 0 -0
vt 4.30779 -5.88476
v -10.9867 -3.60476 48.454
vt 2.80779 -5.88476
vt 2.80779 -8.38476
f 4/21/3 3/22/3 17/23/3 9/24/3 

vt -6.23649 -8.38476
vn 0 0 1
vt 0.699271 -8.38476
vt 0.699271 -5.88476
vt 1.69927 -5.88476
vt 1.69927 -8.38476
vt 8.63503 -8.38476
v -4.05091 -2.10476 49.954
vt 8.63503 -4.38476
v -18.9224 -2.10476 49.954
vt -6.23649 -4.38476
f 15/25/4 1/26/4 2/27/4 3/28/4 4/29/4 16/30/4 18/31/4 19/32/4 

vt -4.30779 -5.88476
vn 1 0 -0
vt -4.30779 -8.38476
vt -2.80779 -8.38476
v -11.9867 -3.60476 48.454
vt -2.80779 -5.88476
f 2/33/5 1/34/5 14/35/5 20/36/5 

vt -0.699271 -8.38476
vn -7.90318e-32 -2.03038e-15 -1
vt 4.23649 -8.38476
v -16.9224 -2.10476 48.454
vt 4.23649 -4.38476
v -6.05091 -2.10476 48.454
vt -6.63503 -4.38476
vt -6.63503 -8.38476
vt -1.69927 -8.38476
vt -1.69927 -5.88476
vt -0.699271 -5.88476
f 14/37/6 13/38/6 21/39/6 22/40/6 10/41/6 9/42/6 17/43/6 20/44/6 

vn 1 0 -9.66557e-17
vt 7.16111 -8.38476
v -16.9224 -2.10476 38.4851
vt 7.16111 -4.38476
vt -2.80779 -4.38476
f 13/35/7 12/45/7 23/46/7 21/47/7 

vt -4.23649 -8.38476
vt 6.63503 -8.38476
v -6.05091 -2.10476 38.4851
vt 6.63503 -4.38476
vt -4.23649 -4.38476
f 12/48/4 11/49/4 24/50/4 23/51/4 

vt -7.16111 -8.38476
vt 2.80779 -4.38476
vt -7.16111 -4.38476
f 11/52/3 10/24/3 22/53/3 24/54/3 

vt 6.63503 -2.80779
vn 0 1 -0
vt 8.63503 -4.30779
vt 6.63503 7.16111
f 22/55/8 18/56/8 24/57/8

vt -4.23649 -2.80779
f 21/58/8 18/56/8 22/55/8

vt -6.23649 -4.30779
f 21/58/8 19/59/8 18/56/8

vt -6.23649 8.66111
f 19/59/8 21/58/8 7/60/8

vt -4.23649 7.16111
f 23/61/8 7/60/8 21/58/8

vt 8.63503 8.66111
f 7/60/8 23/61/8 8/62/8

f 8/62/8 23/61/8 24/57/8

vt 1.1758 7.16111
vt 1.1758 -2.80779
vt 12.0473 -2.80779
vt 12.0473 7.16111
f 24/63/2 22/64/2 21/65/2 23/66/2 

f 8/62/8 24/57/8 18/56/8

vt 8.66111 -8.38476
vt 8.66111 -4.38476
vt -4.30779 -4.38476
f 16/34/5 5/67/5 8/68/5 18/69/5 

vt -8.66111 -8.38476
vt 4.30779 -4.38476
vt -8.66111 -4.38476
f 6/70/3 15/21/3 19/71/3 7/72/3 

f 3/9/2 2/16/2 20/15/2 17/10/2 

