# Alias OBJ Model File
# Exported from SketchUp, (c) 2000-2012 Trimble Navigation Limited
# File units = meters

mtllib B7 SE Mountain.mtl

g Mesh1 B7_SE_Mountain1 Model

usemtl _1
v -16.4264 4 43.8674
vt 7.64583 4
vn 0 0 -1
v -15.9939 4 43.8674
vt 7.2134 4
v -15.9939 7.9493e-16 43.8674
vt 7.2134 0
v -16.4264 7.94394e-16 43.8674
vt 7.64583 -5.35656e-19
f 1/1/1 2/2/1 3/3/1 4/4/1 

v -18.0249 4 48.003
vt -9.2444 6.19918
vn 0 1 -0
v -15.9939 4 48.003
vt -7.2134 6.19918
vt -7.2134 10.3348
vt -7.64583 10.3348
v -18.0249 4 45.465
vt -9.2444 8.73726
f 5/5/2 6/6/2 2/7/2 1/8/2 7/9/2 

usemtl FrontColor
v -15.9939 -2.09272e-15 48.003
vt 79.9607 0
vn 0 0 1
vt 79.9607 157.48
vt 0 157.48
v -18.0249 7.9493e-16 48.003
vt 0 1.13687e-13
f 8/10/3 6/11/3 5/12/3 9/13/3 

vt -160.458 1.13687e-13
vn -1 0 -0
vt 2.3622 0
vt 2.3622 157.48
vt -160.458 157.48
f 3/14/4 8/15/4 6/16/4 2/17/4 

usemtl _1
vt 7.64583 10.3348
vn -1.08719e-15 -1 -5.54021e-16
vt 7.2134 10.3348
vt 7.2134 6.19918
vt 9.2444 6.19918
v -18.0249 1.15589e-15 45.465
vt 9.2444 8.73726
f 4/18/5 3/19/5 8/20/5 9/21/5 10/22/5 

vt -8.73726 3.60956e-16
vt -6.19918 0
vt -6.19918 4
vt -8.73726 4
f 10/23/4 9/24/4 5/25/4 7/26/4 

vt -2.27203 -7.78665e-18
vn -0.706884 5.53946e-19 -0.70733
vt -0.0120347 3.53705e-16
vt -0.0120347 4
vt -2.27203 4
f 4/27/6 10/28/6 7/29/6 1/30/6 

