# Alias OBJ Model File
# Exported from SketchUp, (c) 2000-2012 Trimble Navigation Limited
# File units = meters

mtllib B8 SW Mountain.mtl

g Mesh1 B8_SW_Mountain1 Model

usemtl _1
v -14.7849 7.94927e-16 44.9959
vt 9.13311 8.01044e-16
vn 0.363542 -1.16309e-16 -0.931578
v -15.1949 7.94927e-16 44.8359
vt 9.57323 8.01044e-16
v -15.1949 4 44.8359
vt 9.57323 4
v -14.7849 4 44.9959
vt 9.13311 4
f 1/1/1 2/2/1 3/3/1 4/4/1 

v -8.97993 7.9493e-16 48.003
vt 0.199406 6.19918
vn 2.60368e-16 -1 -6.0156e-16
v -15.9939 -2.09272e-15 48.003
vt 7.2134 6.19918
v -15.9939 7.9493e-16 43.8674
vt 7.2134 10.3348
v -15.8264 7.94394e-16 43.8674
vt 7.04583 10.3348
v -15.2349 7.94927e-16 44.3759
vt 6.45439 9.82629
vt 6.41439 9.36629
vt 6.00439 9.20629
v -14.5312 7.9493e-16 45.3431
vt 5.75067 8.85912
v -14.1712 7.9493e-16 45.3431
vt 5.39067 8.85912
v -14.1712 7.9493e-16 46.015
vt 5.39067 8.18726
v -8.97993 7.9493e-16 46.015
vt 0.199406 8.18726
f 5/5/2 6/6/2 7/7/2 8/8/2 9/9/2 2/10/2 1/11/2 10/12/2 11/13/2 12/14/2 13/15/2 

usemtl FrontColor
vt 4.94876 0
vn 0 0 1
vt 281.09 1.13687e-13
v -8.97993 4 48.003
vt 281.09 157.48
v -15.9939 4 48.003
vt 4.94876 157.48
f 6/16/3 5/17/3 14/18/3 15/19/3 

usemtl _1
v -8.97993 4 46.015
vt 8.18726 4
vn 1 0 -0
vt 6.19918 4
vt 6.19918 0
vt 8.18726 0
f 16/20/4 14/21/4 5/22/4 13/23/4 

v -15.8264 4 43.8674
vt -7.04583 10.3348
vn 0 1 -0
v -15.9939 4 43.8674
vt -7.2134 10.3348
vt -7.2134 6.19918
vt -0.199406 6.19918
vt -0.199406 8.18726
v -14.1712 4 46.015
vt -5.39067 8.18726
v -14.1712 4 45.3431
vt -5.39067 8.85912
v -14.5312 4 45.3431
vt -5.75067 8.85912
vt -6.00439 9.20629
vt -6.41439 9.36629
v -15.2349 4 44.3759
vt -6.45439 9.82629
f 17/24/5 18/25/5 15/26/5 14/27/5 16/28/5 19/29/5 20/30/5 21/31/5 4/32/5 3/33/5 22/34/5 

vt 7.04583 -5.35656e-19
vn 0 0 -1
vt 7.2134 0
vt 7.2134 4
vt 7.04583 4
f 8/35/6 7/36/6 18/37/6 17/38/6 

usemtl FrontColor
vt 2.3622 157.48
vn -1 0 -0
vt -160.458 157.48
vt -160.458 1.13687e-13
vt 2.3622 0
f 15/39/7 18/40/7 7/41/7 6/42/7 

usemtl _1
vt 11.6459 4.62369e-16
vn 0.651956 -1.2686e-16 -0.758257
vt 12.4259 4.61836e-16
vt 12.4259 4
vt 11.6459 4
f 9/43/8 8/44/8 17/45/8 22/46/8 

vt 10.4148 -5.41288e-16
vn 0.996241 -9.7829e-17 -0.0866296
vt 10.8765 -5.41288e-16
vt 10.8765 4
vt 10.4148 4
f 2/47/9 9/48/9 22/49/9 3/50/9 

vt 5.39067 4
vt 0.199406 4
vt 0.199406 0
vt 5.39067 3.19036e-23
f 19/51/6 16/52/6 13/53/6 12/54/6 

vt 8.71726 3.19036e-23
vt 9.38912 3.19036e-23
vt 9.38912 4
vt 8.71726 4
f 12/55/4 11/56/4 20/57/4 19/58/4 

vt 5.39067 8.40978e-16
vn 0 -8.95694e-17 -1
vt 5.75067 8.40978e-16
vt 5.75067 4
f 11/59/10 10/60/10 21/61/10 20/51/10 

vt 10.9736 1.12919e-16
vn 0.80736 -1.25844e-16 -0.59006
vt 11.4036 1.12916e-16
vt 11.4036 4
vt 10.9736 4
f 10/62/11 1/63/11 4/64/11 21/65/11 

